M48
;DRILL file {KiCad 4.0.5} date Thu May 18 11:17:39 2017
;FORMAT={-:-/ absolute / metric / decimal}
FMAT,2
METRIC,TZ
T1C0.400
T2C0.440
T3C0.500
T4C0.701
T5C0.800
T6C0.800
T7C0.813
T8C0.899
T9C0.900
T10C0.998
T11C1.000
T12C1.001
T13C1.016
T14C1.300
T15C2.750
%
G90
G05
M71
T1
X122.93Y-68.04
X123.67Y-70.6
X123.73Y-66.61
X124.935Y-126.485
X126.3Y-76.04
X126.3Y-81.11
X126.3Y-86.3
X126.3Y-96.55
X126.35Y-76.04
X126.35Y-91.29
X126.35Y-103.52
X126.84Y-64.73
X126.9Y-63.15
X128.365Y-129.915
X131.45Y-132.85
X135.64Y-132.85
X136.2Y-70.16
X136.65Y-95.6
X140.13Y-132.85
X141.1Y-76.4
X142.4Y-70.95
X142.7Y-90.4
X142.9Y-93.2
X143.4Y-72.2
X143.5Y-89.5
X143.6Y-70.3
X144.21Y-132.85
X145.3Y-113.2
X147.36Y-132.85
X148.18Y-72.88
X149.405Y-130.805
X149.7Y-98.3
X151.66Y-128.55
X151.85Y-81.2
X152.2Y-98.3
X152.25Y-70.29
X152.6Y-112.1
X154.05Y-112.25
X155.18Y-128.55
X156.275Y-114.525
X167.2Y-89.45
X167.85Y-81.82
X168.Y-86.05
X174.8Y-81.
X174.8Y-83.6
X176.4Y-92.4
X176.72Y-66.77
X176.73Y-66.78
X179.7Y-67.
X179.91Y-68.8
X182.1Y-131.
X183.3Y-133.8
X184.96Y-121.2
X184.96Y-124.7
X186.7Y-133.6
X192.8Y-68.8
X193.7Y-92.3
X196.485Y-100.015
X198.1Y-98.94
X199.065Y-73.365
X199.065Y-80.55
X199.07Y-73.37
X199.07Y-86.53
X203.9Y-106.
T2
X188.12Y-130.95
X188.12Y-132.25
X189.12Y-130.3
X189.12Y-131.6
X189.12Y-132.9
T3
X126.35Y-71.45
X129.05Y-67.15
X157.47Y-128.55
X181.95Y-90.75
X184.1Y-128.2
X192.2Y-88.25
X198.1Y-106.6
X198.1Y-110.25
T4
X150.63Y-71.65
X187.44Y-66.15
T5
X170.36Y-98.6
X170.36Y-106.22
X172.9Y-98.6
X172.9Y-106.22
X175.44Y-98.6
X175.44Y-106.22
X177.98Y-98.6
X177.98Y-106.22
X179.5Y-88.4
X180.52Y-98.6
X180.52Y-106.22
X183.06Y-98.6
X183.06Y-106.22
X185.6Y-98.6
X185.6Y-106.22
X188.85Y-111.
X188.85Y-113.
T6
X131.25Y-68.05
X133.79Y-68.05
X136.33Y-68.05
X138.87Y-68.05
X141.41Y-68.05
X141.64Y-96.4
X142.92Y-76.44
X142.92Y-84.06
X143.95Y-68.05
X144.18Y-96.4
X145.46Y-76.44
X145.46Y-84.06
X146.49Y-68.05
X146.72Y-96.4
X148.Y-76.44
X148.Y-84.06
X149.03Y-68.05
X149.26Y-96.4
X150.54Y-76.44
X150.54Y-84.06
X151.57Y-68.05
X151.8Y-96.4
X153.08Y-76.44
X153.08Y-84.06
X153.955Y-73.575
X154.11Y-68.05
X154.34Y-96.4
X155.62Y-76.44
X155.62Y-84.06
X155.86Y-71.035
X156.65Y-68.05
X156.88Y-96.4
X157.765Y-73.575
X158.16Y-76.44
X158.16Y-84.06
X159.19Y-68.05
X159.42Y-96.4
X160.7Y-76.44
X160.7Y-84.06
X161.73Y-68.05
X163.24Y-76.44
X163.24Y-84.06
X164.27Y-68.05
X165.78Y-76.44
X165.78Y-84.06
X166.81Y-68.05
X168.11Y-71.
X168.2Y-134.5
X169.35Y-68.05
X178.158Y-95.814
X179.76Y-91.7
X180.698Y-95.814
X183.238Y-95.814
X185.778Y-95.814
X185.89Y-71.
X188.318Y-95.814
X190.858Y-95.814
X193.398Y-95.814
X195.06Y-66.15
X195.938Y-95.814
X197.54Y-91.7
X201.165Y-93.96
X203.705Y-92.055
X203.705Y-95.865
T7
X126.19Y-119.928
X127.46Y-124.5
X130.Y-124.5
X132.54Y-124.5
X133.81Y-119.928
X143.19Y-119.928
X144.46Y-124.5
X147.Y-124.5
X149.54Y-124.5
X150.81Y-119.928
X160.19Y-119.928
X161.46Y-124.5
X164.Y-124.5
X166.54Y-124.5
X167.81Y-119.928
T8
X148.151Y-108.549
X150.65Y-103.551
X153.149Y-108.549
X157.251Y-109.499
X159.75Y-104.501
X162.249Y-109.499
T9
X144.9Y-87.85
X149.9Y-87.85
T10
X174.42Y-132.
X179.5Y-132.
X184.58Y-132.
X193.42Y-132.
X198.5Y-132.
X203.58Y-132.
T11
X182.22Y-117.7
X184.76Y-117.7
X187.3Y-117.7
X195.Y-72.
X195.Y-74.54
X195.Y-77.08
T12
X133.7Y-102.3
X133.76Y-106.9
X134.Y-75.94
X134.Y-86.1
X134.Y-88.6
X134.Y-98.76
X136.24Y-102.3
X136.3Y-106.9
X136.8Y-92.8
X137.Y-77.14
X137.Y-87.3
X139.3Y-103.04
X139.3Y-113.2
X140.47Y-71.65
X142.57Y-103.16
X142.57Y-113.32
X146.96Y-92.8
X154.95Y-87.15
X154.95Y-90.15
X160.05Y-71.12
X162.59Y-71.12
X165.11Y-87.15
X165.11Y-90.15
X173.5Y-78.24
X173.5Y-88.4
X175.3Y-103.6
X176.2Y-78.24
X176.2Y-88.4
X185.46Y-103.6
X188.23Y-74.4
X189.5Y-106.2
X189.56Y-101.8
X190.77Y-74.4
X192.04Y-106.2
X192.1Y-101.8
X194.76Y-115.4
X194.76Y-121.6
X197.3Y-115.4
X197.3Y-121.6
X200.75Y-108.6
X200.75Y-118.76
X203.8Y-108.6
X203.8Y-118.76
T13
X128.47Y-61.58
X128.47Y-64.12
X131.Y-72.
X131.Y-74.54
X131.Y-77.08
X131.Y-81.13
X131.Y-83.67
X131.Y-86.21
X131.Y-88.75
X131.Y-93.27
X131.Y-95.81
X131.Y-98.35
X131.Y-102.96
X131.Y-105.5
X131.01Y-61.58
X131.01Y-64.12
X133.55Y-61.58
X133.55Y-64.12
X136.09Y-61.58
X136.09Y-64.12
X138.63Y-61.58
X138.63Y-64.12
X139.1Y-100.
X141.17Y-61.58
X141.17Y-64.12
X141.64Y-100.
X143.71Y-61.58
X143.71Y-64.12
X144.18Y-100.
X146.25Y-61.58
X146.25Y-64.12
X146.72Y-100.
X148.79Y-61.58
X148.79Y-64.12
X149.26Y-100.
X151.33Y-61.58
X151.33Y-64.12
X151.8Y-100.
X153.87Y-61.58
X153.87Y-64.12
X154.34Y-100.
X156.41Y-61.58
X156.41Y-64.12
X156.88Y-100.
X158.95Y-61.58
X158.95Y-64.12
X159.42Y-100.
X161.49Y-61.58
X161.49Y-64.12
X161.96Y-100.
X164.03Y-61.58
X164.03Y-64.12
X165.66Y-134.5
X166.57Y-61.58
X166.57Y-64.12
X169.11Y-61.58
X169.11Y-64.12
X171.65Y-61.58
X171.65Y-64.12
X174.1Y-117.2
X174.1Y-119.74
X174.19Y-61.58
X174.19Y-64.12
X176.64Y-117.2
X176.64Y-119.74
X176.73Y-61.58
X176.73Y-64.12
X179.79Y-77.6
X179.79Y-82.68
X179.79Y-85.22
X182.33Y-77.6
X182.33Y-82.68
X182.33Y-85.22
X184.87Y-77.6
X184.87Y-82.68
X184.87Y-85.22
X187.41Y-77.6
X187.41Y-82.68
X187.41Y-85.22
X189.95Y-77.6
X189.95Y-82.68
X189.95Y-85.22
X195.Y-81.
X195.Y-83.54
X195.Y-86.08
X195.Y-88.62
X195.Y-103.
X195.Y-105.54
X201.9Y-122.7
X201.9Y-125.24
T14
X123.65Y-118.15
X123.65Y-130.85
X136.35Y-118.15
X136.35Y-130.85
X140.65Y-118.15
X140.65Y-130.85
X153.35Y-118.15
X153.35Y-130.85
X157.65Y-118.15
X157.65Y-130.85
X170.35Y-118.15
X170.35Y-130.85
T15
X123.6Y-62.85
X123.6Y-111.85
X181.6Y-62.85
X181.6Y-111.85
T3
X188.575Y-128.1G85X189.225Y-128.1
G05
X188.575Y-135.1G85X189.225Y-135.1
G05
T5
X134.45Y-73.1G85X134.45Y-73.1
G05
X138.2Y-73.1G85X141.7Y-73.1
G05
X183.25Y-88.4G85X186.75Y-88.4
G05
T0
M30
