%TF.GenerationSoftware,KiCad,Pcbnew,4.0.5*%
%TF.CreationDate,2017-05-22T14:14:15+02:00*%
%TF.ProjectId,Echtzeitsystem,456368747A65697473797374656D2E6B,1.1*%
%TF.FileFunction,Legend,Bot*%
%FSLAX46Y46*%
G04 Gerber Fmt 4.6, Leading zero omitted, Abs format (unit mm)*
G04 Created by KiCad (PCBNEW 4.0.5) date Mon May 22 14:14:15 2017*
%MOMM*%
%LPD*%
G01*
G04 APERTURE LIST*
%ADD10C,0.100000*%
%ADD11C,0.120000*%
%ADD12C,0.010000*%
%ADD13C,0.177800*%
%ADD14C,0.150000*%
%ADD15C,0.119380*%
%ADD16C,2.398980*%
%ADD17R,2.432000X2.432000*%
%ADD18C,1.900000*%
%ADD19O,5.700000X2.200000*%
%ADD20O,1.901140X2.599640*%
%ADD21C,2.900000*%
%ADD22R,2.127200X2.127200*%
%ADD23O,2.127200X2.127200*%
%ADD24R,2.398980X3.597860*%
%ADD25R,2.099260X2.099260*%
%ADD26C,6.400000*%
%ADD27C,4.900000*%
%ADD28O,2.432000X2.432000*%
%ADD29C,2.150060*%
%ADD30O,1.900000X2.900000*%
%ADD31R,1.900000X2.900000*%
%ADD32C,2.400000*%
%ADD33R,2.400000X2.400000*%
%ADD34O,2.432000X2.127200*%
%ADD35R,2.432000X2.127200*%
%ADD36C,1.700000*%
%ADD37R,1.700000X1.700000*%
%ADD38O,3.448000X2.127200*%
%ADD39O,2.400000X2.400000*%
%ADD40O,2.000000X2.000000*%
%ADD41R,2.127200X2.432000*%
%ADD42O,2.127200X2.432000*%
%ADD43C,1.800000*%
%ADD44R,1.800000X1.800000*%
%ADD45R,1.924000X2.597100*%
%ADD46O,1.924000X2.597100*%
%ADD47R,2.200860X3.100020*%
%ADD48R,1.924000X2.599640*%
%ADD49O,1.924000X2.599640*%
%ADD50R,2.100000X2.100000*%
%ADD51O,2.100000X2.100000*%
%ADD52C,1.400000*%
%ADD53O,1.950000X1.400000*%
%ADD54R,3.597860X2.398980*%
G04 APERTURE END LIST*
D10*
D11*
X188450000Y-88400000D02*
G75*
G03X188450000Y-88400000I-6450000J0D01*
G01*
D12*
G36*
X191492561Y-118419783D02*
X191166208Y-118453492D01*
X190893393Y-118504881D01*
X190856834Y-118514588D01*
X190296767Y-118710373D01*
X189792163Y-118969078D01*
X189344389Y-119289609D01*
X188954811Y-119670872D01*
X188624795Y-120111773D01*
X188428045Y-120459111D01*
X188238491Y-120923083D01*
X188107406Y-121432095D01*
X188036276Y-121968565D01*
X188026586Y-122514912D01*
X188079820Y-123053556D01*
X188172707Y-123481642D01*
X188361526Y-124013402D01*
X188617208Y-124496729D01*
X188934800Y-124928037D01*
X189309354Y-125303741D01*
X189735916Y-125620254D01*
X190209536Y-125873993D01*
X190725264Y-126061370D01*
X191278147Y-126178800D01*
X191863236Y-126222697D01*
X191957500Y-126222678D01*
X192166593Y-126219264D01*
X192353226Y-126213899D01*
X192496174Y-126207337D01*
X192571334Y-126200820D01*
X193027970Y-126102381D01*
X193483620Y-125955072D01*
X193905568Y-125770321D01*
X194086710Y-125671588D01*
X194269654Y-125544417D01*
X194482443Y-125365626D01*
X194707062Y-125153438D01*
X194925495Y-124926075D01*
X195119727Y-124701760D01*
X195271743Y-124498713D01*
X195316772Y-124427399D01*
X195559841Y-123933644D01*
X195732699Y-123407167D01*
X195835595Y-122859274D01*
X195868069Y-122313166D01*
X193686266Y-122313166D01*
X193684894Y-122569722D01*
X193679167Y-122762656D01*
X193666664Y-122912994D01*
X193644968Y-123041757D01*
X193611658Y-123169970D01*
X193573900Y-123289687D01*
X193412789Y-123669044D01*
X193202410Y-123980504D01*
X192944693Y-124222691D01*
X192641566Y-124394229D01*
X192294959Y-124493743D01*
X191906801Y-124519857D01*
X191851667Y-124517702D01*
X191619494Y-124491789D01*
X191393597Y-124442804D01*
X191290892Y-124409767D01*
X190993107Y-124252961D01*
X190733281Y-124024246D01*
X190516082Y-123729564D01*
X190346179Y-123374855D01*
X190258480Y-123096333D01*
X190216865Y-122863239D01*
X190193029Y-122576909D01*
X190186951Y-122266229D01*
X190198612Y-121960086D01*
X190227992Y-121687366D01*
X190259561Y-121530000D01*
X190391901Y-121142247D01*
X190570671Y-120807606D01*
X190790201Y-120534188D01*
X191044822Y-120330106D01*
X191132573Y-120280876D01*
X191471214Y-120154982D01*
X191833394Y-120101682D01*
X192201843Y-120119391D01*
X192559290Y-120206521D01*
X192888467Y-120361484D01*
X193025302Y-120454851D01*
X193197743Y-120626220D01*
X193360588Y-120863313D01*
X193502096Y-121147211D01*
X193574318Y-121339500D01*
X193618809Y-121481865D01*
X193649754Y-121607895D01*
X193669560Y-121738541D01*
X193680637Y-121894751D01*
X193685393Y-122097474D01*
X193686266Y-122313166D01*
X195868069Y-122313166D01*
X195868777Y-122301270D01*
X195832495Y-121744461D01*
X195726999Y-121200153D01*
X195552538Y-120679652D01*
X195309361Y-120194262D01*
X195220303Y-120053050D01*
X194882399Y-119619870D01*
X194485823Y-119245631D01*
X194035914Y-118933855D01*
X193538013Y-118688069D01*
X192997459Y-118511796D01*
X192825758Y-118472580D01*
X192539052Y-118430152D01*
X192204363Y-118407571D01*
X191847073Y-118404295D01*
X191492561Y-118419783D01*
X191492561Y-118419783D01*
G37*
X191492561Y-118419783D02*
X191166208Y-118453492D01*
X190893393Y-118504881D01*
X190856834Y-118514588D01*
X190296767Y-118710373D01*
X189792163Y-118969078D01*
X189344389Y-119289609D01*
X188954811Y-119670872D01*
X188624795Y-120111773D01*
X188428045Y-120459111D01*
X188238491Y-120923083D01*
X188107406Y-121432095D01*
X188036276Y-121968565D01*
X188026586Y-122514912D01*
X188079820Y-123053556D01*
X188172707Y-123481642D01*
X188361526Y-124013402D01*
X188617208Y-124496729D01*
X188934800Y-124928037D01*
X189309354Y-125303741D01*
X189735916Y-125620254D01*
X190209536Y-125873993D01*
X190725264Y-126061370D01*
X191278147Y-126178800D01*
X191863236Y-126222697D01*
X191957500Y-126222678D01*
X192166593Y-126219264D01*
X192353226Y-126213899D01*
X192496174Y-126207337D01*
X192571334Y-126200820D01*
X193027970Y-126102381D01*
X193483620Y-125955072D01*
X193905568Y-125770321D01*
X194086710Y-125671588D01*
X194269654Y-125544417D01*
X194482443Y-125365626D01*
X194707062Y-125153438D01*
X194925495Y-124926075D01*
X195119727Y-124701760D01*
X195271743Y-124498713D01*
X195316772Y-124427399D01*
X195559841Y-123933644D01*
X195732699Y-123407167D01*
X195835595Y-122859274D01*
X195868069Y-122313166D01*
X193686266Y-122313166D01*
X193684894Y-122569722D01*
X193679167Y-122762656D01*
X193666664Y-122912994D01*
X193644968Y-123041757D01*
X193611658Y-123169970D01*
X193573900Y-123289687D01*
X193412789Y-123669044D01*
X193202410Y-123980504D01*
X192944693Y-124222691D01*
X192641566Y-124394229D01*
X192294959Y-124493743D01*
X191906801Y-124519857D01*
X191851667Y-124517702D01*
X191619494Y-124491789D01*
X191393597Y-124442804D01*
X191290892Y-124409767D01*
X190993107Y-124252961D01*
X190733281Y-124024246D01*
X190516082Y-123729564D01*
X190346179Y-123374855D01*
X190258480Y-123096333D01*
X190216865Y-122863239D01*
X190193029Y-122576909D01*
X190186951Y-122266229D01*
X190198612Y-121960086D01*
X190227992Y-121687366D01*
X190259561Y-121530000D01*
X190391901Y-121142247D01*
X190570671Y-120807606D01*
X190790201Y-120534188D01*
X191044822Y-120330106D01*
X191132573Y-120280876D01*
X191471214Y-120154982D01*
X191833394Y-120101682D01*
X192201843Y-120119391D01*
X192559290Y-120206521D01*
X192888467Y-120361484D01*
X193025302Y-120454851D01*
X193197743Y-120626220D01*
X193360588Y-120863313D01*
X193502096Y-121147211D01*
X193574318Y-121339500D01*
X193618809Y-121481865D01*
X193649754Y-121607895D01*
X193669560Y-121738541D01*
X193680637Y-121894751D01*
X193685393Y-122097474D01*
X193686266Y-122313166D01*
X195868069Y-122313166D01*
X195868777Y-122301270D01*
X195832495Y-121744461D01*
X195726999Y-121200153D01*
X195552538Y-120679652D01*
X195309361Y-120194262D01*
X195220303Y-120053050D01*
X194882399Y-119619870D01*
X194485823Y-119245631D01*
X194035914Y-118933855D01*
X193538013Y-118688069D01*
X192997459Y-118511796D01*
X192825758Y-118472580D01*
X192539052Y-118430152D01*
X192204363Y-118407571D01*
X191847073Y-118404295D01*
X191492561Y-118419783D01*
G36*
X184316334Y-119031033D02*
X184094084Y-118862799D01*
X183756127Y-118659327D01*
X183356583Y-118513917D01*
X182895496Y-118426582D01*
X182372914Y-118397333D01*
X182370997Y-118397333D01*
X181792933Y-118432835D01*
X181258511Y-118538487D01*
X180769943Y-118713013D01*
X180329445Y-118955133D01*
X179939230Y-119263569D01*
X179601511Y-119637044D01*
X179318504Y-120074277D01*
X179255021Y-120196500D01*
X179116848Y-120499898D01*
X179014773Y-120788177D01*
X178943454Y-121084729D01*
X178897547Y-121412947D01*
X178871707Y-121796224D01*
X178868199Y-121889833D01*
X178880112Y-122535702D01*
X178958341Y-123141996D01*
X179100434Y-123705147D01*
X179303934Y-124221586D01*
X179566387Y-124687746D01*
X179885338Y-125100058D01*
X180258331Y-125454955D01*
X180682913Y-125748867D01*
X181156628Y-125978228D01*
X181677020Y-126139468D01*
X181811808Y-126168264D01*
X182061149Y-126201906D01*
X182365147Y-126219813D01*
X182695289Y-126222105D01*
X183023065Y-126208903D01*
X183319961Y-126180327D01*
X183441927Y-126161402D01*
X184009863Y-126021554D01*
X184522854Y-125817673D01*
X184979835Y-125550719D01*
X185379741Y-125221653D01*
X185721506Y-124831436D01*
X186004065Y-124381029D01*
X186226352Y-123871393D01*
X186323692Y-123562000D01*
X186349026Y-123464052D01*
X186371402Y-123361476D01*
X186391002Y-123248668D01*
X186408005Y-123120021D01*
X186422593Y-122969932D01*
X186434946Y-122792796D01*
X186445244Y-122583007D01*
X186453667Y-122334960D01*
X186453888Y-122325335D01*
X184401000Y-122325335D01*
X184373189Y-122822880D01*
X184290223Y-123259957D01*
X184152802Y-123635342D01*
X183961628Y-123947812D01*
X183717402Y-124196144D01*
X183420823Y-124379114D01*
X183171941Y-124470629D01*
X182863762Y-124520723D01*
X182531577Y-124513128D01*
X182210533Y-124450445D01*
X182035788Y-124386540D01*
X181782004Y-124234307D01*
X181545157Y-124022018D01*
X181349255Y-123773989D01*
X181247643Y-123588302D01*
X181127287Y-123234865D01*
X181050701Y-122832652D01*
X181018060Y-122404315D01*
X181029542Y-121972506D01*
X181085324Y-121559879D01*
X181185583Y-121189086D01*
X181228070Y-121080672D01*
X181402666Y-120764099D01*
X181628461Y-120500673D01*
X181793791Y-120367425D01*
X182092214Y-120211067D01*
X182420052Y-120122232D01*
X182761083Y-120099804D01*
X183099088Y-120142668D01*
X183417844Y-120249707D01*
X183701133Y-120419807D01*
X183801121Y-120505480D01*
X184026424Y-120770738D01*
X184197656Y-121089373D01*
X184316168Y-121465482D01*
X184383311Y-121903159D01*
X184401000Y-122325335D01*
X186453888Y-122325335D01*
X186460397Y-122043052D01*
X186465614Y-121701677D01*
X186469498Y-121305231D01*
X186472230Y-120848107D01*
X186473991Y-120324703D01*
X186474960Y-119729412D01*
X186475318Y-119056630D01*
X186475334Y-118853527D01*
X186475334Y-115095333D01*
X184316334Y-115095333D01*
X184316334Y-119031033D01*
X184316334Y-119031033D01*
G37*
X184316334Y-119031033D02*
X184094084Y-118862799D01*
X183756127Y-118659327D01*
X183356583Y-118513917D01*
X182895496Y-118426582D01*
X182372914Y-118397333D01*
X182370997Y-118397333D01*
X181792933Y-118432835D01*
X181258511Y-118538487D01*
X180769943Y-118713013D01*
X180329445Y-118955133D01*
X179939230Y-119263569D01*
X179601511Y-119637044D01*
X179318504Y-120074277D01*
X179255021Y-120196500D01*
X179116848Y-120499898D01*
X179014773Y-120788177D01*
X178943454Y-121084729D01*
X178897547Y-121412947D01*
X178871707Y-121796224D01*
X178868199Y-121889833D01*
X178880112Y-122535702D01*
X178958341Y-123141996D01*
X179100434Y-123705147D01*
X179303934Y-124221586D01*
X179566387Y-124687746D01*
X179885338Y-125100058D01*
X180258331Y-125454955D01*
X180682913Y-125748867D01*
X181156628Y-125978228D01*
X181677020Y-126139468D01*
X181811808Y-126168264D01*
X182061149Y-126201906D01*
X182365147Y-126219813D01*
X182695289Y-126222105D01*
X183023065Y-126208903D01*
X183319961Y-126180327D01*
X183441927Y-126161402D01*
X184009863Y-126021554D01*
X184522854Y-125817673D01*
X184979835Y-125550719D01*
X185379741Y-125221653D01*
X185721506Y-124831436D01*
X186004065Y-124381029D01*
X186226352Y-123871393D01*
X186323692Y-123562000D01*
X186349026Y-123464052D01*
X186371402Y-123361476D01*
X186391002Y-123248668D01*
X186408005Y-123120021D01*
X186422593Y-122969932D01*
X186434946Y-122792796D01*
X186445244Y-122583007D01*
X186453667Y-122334960D01*
X186453888Y-122325335D01*
X184401000Y-122325335D01*
X184373189Y-122822880D01*
X184290223Y-123259957D01*
X184152802Y-123635342D01*
X183961628Y-123947812D01*
X183717402Y-124196144D01*
X183420823Y-124379114D01*
X183171941Y-124470629D01*
X182863762Y-124520723D01*
X182531577Y-124513128D01*
X182210533Y-124450445D01*
X182035788Y-124386540D01*
X181782004Y-124234307D01*
X181545157Y-124022018D01*
X181349255Y-123773989D01*
X181247643Y-123588302D01*
X181127287Y-123234865D01*
X181050701Y-122832652D01*
X181018060Y-122404315D01*
X181029542Y-121972506D01*
X181085324Y-121559879D01*
X181185583Y-121189086D01*
X181228070Y-121080672D01*
X181402666Y-120764099D01*
X181628461Y-120500673D01*
X181793791Y-120367425D01*
X182092214Y-120211067D01*
X182420052Y-120122232D01*
X182761083Y-120099804D01*
X183099088Y-120142668D01*
X183417844Y-120249707D01*
X183701133Y-120419807D01*
X183801121Y-120505480D01*
X184026424Y-120770738D01*
X184197656Y-121089373D01*
X184316168Y-121465482D01*
X184383311Y-121903159D01*
X184401000Y-122325335D01*
X186453888Y-122325335D01*
X186460397Y-122043052D01*
X186465614Y-121701677D01*
X186469498Y-121305231D01*
X186472230Y-120848107D01*
X186473991Y-120324703D01*
X186474960Y-119729412D01*
X186475318Y-119056630D01*
X186475334Y-118853527D01*
X186475334Y-115095333D01*
X184316334Y-115095333D01*
X184316334Y-119031033D01*
G36*
X173394334Y-118408897D02*
X172987960Y-118435819D01*
X172637106Y-118487601D01*
X172314596Y-118570925D01*
X171993259Y-118692472D01*
X171722167Y-118820011D01*
X171250751Y-119096490D01*
X170845199Y-119421201D01*
X170498006Y-119801749D01*
X170201662Y-120245738D01*
X170070737Y-120492833D01*
X169889162Y-120929143D01*
X169765799Y-121387276D01*
X169695571Y-121888027D01*
X169682262Y-122083850D01*
X169689112Y-122685992D01*
X169770541Y-123256935D01*
X169923359Y-123792137D01*
X170144375Y-124287052D01*
X170430399Y-124737136D01*
X170778241Y-125137847D01*
X171184710Y-125484639D01*
X171646615Y-125772969D01*
X172160767Y-125998293D01*
X172505355Y-126104616D01*
X172764984Y-126155959D01*
X173081089Y-126192599D01*
X173426612Y-126213614D01*
X173774492Y-126218086D01*
X174097671Y-126205095D01*
X174369087Y-126173720D01*
X174395874Y-126168870D01*
X174958017Y-126022131D01*
X175475952Y-125805792D01*
X175945407Y-125523963D01*
X176362110Y-125180754D01*
X176721789Y-124780276D01*
X177020170Y-124326639D01*
X177252983Y-123823953D01*
X177415954Y-123276327D01*
X177419569Y-123259936D01*
X177472713Y-122928230D01*
X177501723Y-122550071D01*
X177504489Y-122313166D01*
X175341667Y-122313166D01*
X175321073Y-122774041D01*
X175257395Y-123169739D01*
X175147789Y-123509576D01*
X174989411Y-123802869D01*
X174822511Y-124013699D01*
X174548920Y-124250234D01*
X174233323Y-124416565D01*
X173884793Y-124510006D01*
X173512408Y-124527874D01*
X173216501Y-124488731D01*
X172959425Y-124409120D01*
X172703663Y-124285039D01*
X172479414Y-124133165D01*
X172348689Y-124009470D01*
X172149939Y-123721742D01*
X171998609Y-123378871D01*
X171894855Y-122995961D01*
X171838831Y-122588115D01*
X171830692Y-122170436D01*
X171870593Y-121758026D01*
X171958688Y-121365989D01*
X172095134Y-121009427D01*
X172280084Y-120703444D01*
X172314334Y-120660012D01*
X172557061Y-120427556D01*
X172845602Y-120255955D01*
X173166042Y-120146059D01*
X173504462Y-120098718D01*
X173846947Y-120114781D01*
X174179580Y-120195097D01*
X174488445Y-120340517D01*
X174718906Y-120513205D01*
X174946267Y-120764452D01*
X175119512Y-121056677D01*
X175241325Y-121397641D01*
X175314391Y-121795103D01*
X175341394Y-122256822D01*
X175341667Y-122313166D01*
X177504489Y-122313166D01*
X177506318Y-122156625D01*
X177486213Y-121779058D01*
X177441125Y-121448537D01*
X177436246Y-121424166D01*
X177285633Y-120878573D01*
X177067391Y-120381838D01*
X176778163Y-119927709D01*
X176414595Y-119509930D01*
X176402612Y-119498000D01*
X175996849Y-119143895D01*
X175566347Y-118865182D01*
X175097368Y-118653303D01*
X174981466Y-118612742D01*
X174644729Y-118512829D01*
X174326452Y-118446980D01*
X173998546Y-118411587D01*
X173632924Y-118403042D01*
X173394334Y-118408897D01*
X173394334Y-118408897D01*
G37*
X173394334Y-118408897D02*
X172987960Y-118435819D01*
X172637106Y-118487601D01*
X172314596Y-118570925D01*
X171993259Y-118692472D01*
X171722167Y-118820011D01*
X171250751Y-119096490D01*
X170845199Y-119421201D01*
X170498006Y-119801749D01*
X170201662Y-120245738D01*
X170070737Y-120492833D01*
X169889162Y-120929143D01*
X169765799Y-121387276D01*
X169695571Y-121888027D01*
X169682262Y-122083850D01*
X169689112Y-122685992D01*
X169770541Y-123256935D01*
X169923359Y-123792137D01*
X170144375Y-124287052D01*
X170430399Y-124737136D01*
X170778241Y-125137847D01*
X171184710Y-125484639D01*
X171646615Y-125772969D01*
X172160767Y-125998293D01*
X172505355Y-126104616D01*
X172764984Y-126155959D01*
X173081089Y-126192599D01*
X173426612Y-126213614D01*
X173774492Y-126218086D01*
X174097671Y-126205095D01*
X174369087Y-126173720D01*
X174395874Y-126168870D01*
X174958017Y-126022131D01*
X175475952Y-125805792D01*
X175945407Y-125523963D01*
X176362110Y-125180754D01*
X176721789Y-124780276D01*
X177020170Y-124326639D01*
X177252983Y-123823953D01*
X177415954Y-123276327D01*
X177419569Y-123259936D01*
X177472713Y-122928230D01*
X177501723Y-122550071D01*
X177504489Y-122313166D01*
X175341667Y-122313166D01*
X175321073Y-122774041D01*
X175257395Y-123169739D01*
X175147789Y-123509576D01*
X174989411Y-123802869D01*
X174822511Y-124013699D01*
X174548920Y-124250234D01*
X174233323Y-124416565D01*
X173884793Y-124510006D01*
X173512408Y-124527874D01*
X173216501Y-124488731D01*
X172959425Y-124409120D01*
X172703663Y-124285039D01*
X172479414Y-124133165D01*
X172348689Y-124009470D01*
X172149939Y-123721742D01*
X171998609Y-123378871D01*
X171894855Y-122995961D01*
X171838831Y-122588115D01*
X171830692Y-122170436D01*
X171870593Y-121758026D01*
X171958688Y-121365989D01*
X172095134Y-121009427D01*
X172280084Y-120703444D01*
X172314334Y-120660012D01*
X172557061Y-120427556D01*
X172845602Y-120255955D01*
X173166042Y-120146059D01*
X173504462Y-120098718D01*
X173846947Y-120114781D01*
X174179580Y-120195097D01*
X174488445Y-120340517D01*
X174718906Y-120513205D01*
X174946267Y-120764452D01*
X175119512Y-121056677D01*
X175241325Y-121397641D01*
X175314391Y-121795103D01*
X175341394Y-122256822D01*
X175341667Y-122313166D01*
X177504489Y-122313166D01*
X177506318Y-122156625D01*
X177486213Y-121779058D01*
X177441125Y-121448537D01*
X177436246Y-121424166D01*
X177285633Y-120878573D01*
X177067391Y-120381838D01*
X176778163Y-119927709D01*
X176414595Y-119509930D01*
X176402612Y-119498000D01*
X175996849Y-119143895D01*
X175566347Y-118865182D01*
X175097368Y-118653303D01*
X174981466Y-118612742D01*
X174644729Y-118512829D01*
X174326452Y-118446980D01*
X173998546Y-118411587D01*
X173632924Y-118403042D01*
X173394334Y-118408897D01*
G36*
X163105116Y-114948459D02*
X162563780Y-114982849D01*
X162055020Y-115038549D01*
X161911417Y-115059497D01*
X161583334Y-115110513D01*
X161583334Y-116055423D01*
X161585224Y-116394344D01*
X161590796Y-116661562D01*
X161599898Y-116853754D01*
X161612381Y-116967597D01*
X161626123Y-117000333D01*
X161684410Y-116993952D01*
X161805331Y-116976831D01*
X161967980Y-116952007D01*
X162063907Y-116936772D01*
X162538617Y-116875037D01*
X163042795Y-116835704D01*
X163556299Y-116818772D01*
X164058990Y-116824238D01*
X164530726Y-116852100D01*
X164951368Y-116902354D01*
X165142267Y-116937135D01*
X165505707Y-117038358D01*
X165812256Y-117174653D01*
X166058273Y-117340329D01*
X166240116Y-117529696D01*
X166354145Y-117737063D01*
X166396716Y-117956740D01*
X166364190Y-118183035D01*
X166252925Y-118410258D01*
X166160887Y-118529000D01*
X166057709Y-118632474D01*
X165928711Y-118734662D01*
X165765857Y-118839742D01*
X165561116Y-118951890D01*
X165306454Y-119075283D01*
X164993838Y-119214098D01*
X164615235Y-119372510D01*
X164271500Y-119511345D01*
X163856518Y-119678364D01*
X163509503Y-119821436D01*
X163219008Y-119945965D01*
X162973582Y-120057353D01*
X162761779Y-120161003D01*
X162572147Y-120262317D01*
X162393239Y-120366698D01*
X162213606Y-120479549D01*
X162197167Y-120490205D01*
X161787160Y-120794607D01*
X161455403Y-121125550D01*
X161198502Y-121487156D01*
X161013065Y-121883547D01*
X160986448Y-121960632D01*
X160944867Y-122097926D01*
X160916341Y-122225539D01*
X160898560Y-122364711D01*
X160889213Y-122536682D01*
X160885989Y-122762691D01*
X160885914Y-122884666D01*
X160890167Y-123183065D01*
X160902840Y-123416069D01*
X160925587Y-123602679D01*
X160960062Y-123761898D01*
X160963278Y-123773666D01*
X161128051Y-124227251D01*
X161358218Y-124633239D01*
X161654753Y-124992243D01*
X162018632Y-125304876D01*
X162450827Y-125571751D01*
X162952314Y-125793482D01*
X163524066Y-125970683D01*
X164167058Y-126103966D01*
X164794569Y-126185608D01*
X164961666Y-126197229D01*
X165195401Y-126206725D01*
X165477768Y-126213982D01*
X165790762Y-126218891D01*
X166116379Y-126221339D01*
X166436613Y-126221215D01*
X166733459Y-126218408D01*
X166988913Y-126212805D01*
X167184969Y-126204296D01*
X167234834Y-126200726D01*
X167408081Y-126184921D01*
X167614329Y-126163942D01*
X167831958Y-126140244D01*
X168039346Y-126116282D01*
X168214872Y-126094512D01*
X168336916Y-126077389D01*
X168367250Y-126072129D01*
X168483667Y-126049083D01*
X168483667Y-125101875D01*
X168482587Y-124779540D01*
X168479047Y-124533772D01*
X168472594Y-124356492D01*
X168462778Y-124239623D01*
X168449148Y-124175089D01*
X168431251Y-124154811D01*
X168430750Y-124154801D01*
X168366897Y-124161764D01*
X168242594Y-124180204D01*
X168080731Y-124206649D01*
X168018000Y-124217405D01*
X167561688Y-124281498D01*
X167050106Y-124327472D01*
X166510903Y-124354329D01*
X165971727Y-124361069D01*
X165460226Y-124346696D01*
X165118475Y-124322133D01*
X164602773Y-124254517D01*
X164164032Y-124155789D01*
X163799817Y-124024242D01*
X163507692Y-123858168D01*
X163285222Y-123655861D01*
X163129972Y-123415614D01*
X163039507Y-123135721D01*
X163011433Y-122845315D01*
X163028051Y-122631296D01*
X163085553Y-122434736D01*
X163189079Y-122251701D01*
X163343768Y-122078256D01*
X163554761Y-121910467D01*
X163827196Y-121744397D01*
X164166214Y-121576114D01*
X164576954Y-121401681D01*
X165064556Y-121217165D01*
X165202834Y-121167664D01*
X165703426Y-120986109D01*
X166131464Y-120821043D01*
X166496324Y-120667610D01*
X166807384Y-120520958D01*
X167074022Y-120376233D01*
X167305615Y-120228580D01*
X167511542Y-120073147D01*
X167701180Y-119905080D01*
X167767645Y-119840171D01*
X168054705Y-119506642D01*
X168264782Y-119153063D01*
X168401175Y-118770417D01*
X168467182Y-118349688D01*
X168468722Y-117923717D01*
X168402163Y-117438164D01*
X168261233Y-116991769D01*
X168047186Y-116585623D01*
X167761277Y-116220818D01*
X167404759Y-115898444D01*
X166978888Y-115619592D01*
X166484917Y-115385353D01*
X165924102Y-115196819D01*
X165297697Y-115055080D01*
X165139334Y-115028398D01*
X164696138Y-114975348D01*
X164194140Y-114944488D01*
X163656184Y-114935598D01*
X163105116Y-114948459D01*
X163105116Y-114948459D01*
G37*
X163105116Y-114948459D02*
X162563780Y-114982849D01*
X162055020Y-115038549D01*
X161911417Y-115059497D01*
X161583334Y-115110513D01*
X161583334Y-116055423D01*
X161585224Y-116394344D01*
X161590796Y-116661562D01*
X161599898Y-116853754D01*
X161612381Y-116967597D01*
X161626123Y-117000333D01*
X161684410Y-116993952D01*
X161805331Y-116976831D01*
X161967980Y-116952007D01*
X162063907Y-116936772D01*
X162538617Y-116875037D01*
X163042795Y-116835704D01*
X163556299Y-116818772D01*
X164058990Y-116824238D01*
X164530726Y-116852100D01*
X164951368Y-116902354D01*
X165142267Y-116937135D01*
X165505707Y-117038358D01*
X165812256Y-117174653D01*
X166058273Y-117340329D01*
X166240116Y-117529696D01*
X166354145Y-117737063D01*
X166396716Y-117956740D01*
X166364190Y-118183035D01*
X166252925Y-118410258D01*
X166160887Y-118529000D01*
X166057709Y-118632474D01*
X165928711Y-118734662D01*
X165765857Y-118839742D01*
X165561116Y-118951890D01*
X165306454Y-119075283D01*
X164993838Y-119214098D01*
X164615235Y-119372510D01*
X164271500Y-119511345D01*
X163856518Y-119678364D01*
X163509503Y-119821436D01*
X163219008Y-119945965D01*
X162973582Y-120057353D01*
X162761779Y-120161003D01*
X162572147Y-120262317D01*
X162393239Y-120366698D01*
X162213606Y-120479549D01*
X162197167Y-120490205D01*
X161787160Y-120794607D01*
X161455403Y-121125550D01*
X161198502Y-121487156D01*
X161013065Y-121883547D01*
X160986448Y-121960632D01*
X160944867Y-122097926D01*
X160916341Y-122225539D01*
X160898560Y-122364711D01*
X160889213Y-122536682D01*
X160885989Y-122762691D01*
X160885914Y-122884666D01*
X160890167Y-123183065D01*
X160902840Y-123416069D01*
X160925587Y-123602679D01*
X160960062Y-123761898D01*
X160963278Y-123773666D01*
X161128051Y-124227251D01*
X161358218Y-124633239D01*
X161654753Y-124992243D01*
X162018632Y-125304876D01*
X162450827Y-125571751D01*
X162952314Y-125793482D01*
X163524066Y-125970683D01*
X164167058Y-126103966D01*
X164794569Y-126185608D01*
X164961666Y-126197229D01*
X165195401Y-126206725D01*
X165477768Y-126213982D01*
X165790762Y-126218891D01*
X166116379Y-126221339D01*
X166436613Y-126221215D01*
X166733459Y-126218408D01*
X166988913Y-126212805D01*
X167184969Y-126204296D01*
X167234834Y-126200726D01*
X167408081Y-126184921D01*
X167614329Y-126163942D01*
X167831958Y-126140244D01*
X168039346Y-126116282D01*
X168214872Y-126094512D01*
X168336916Y-126077389D01*
X168367250Y-126072129D01*
X168483667Y-126049083D01*
X168483667Y-125101875D01*
X168482587Y-124779540D01*
X168479047Y-124533772D01*
X168472594Y-124356492D01*
X168462778Y-124239623D01*
X168449148Y-124175089D01*
X168431251Y-124154811D01*
X168430750Y-124154801D01*
X168366897Y-124161764D01*
X168242594Y-124180204D01*
X168080731Y-124206649D01*
X168018000Y-124217405D01*
X167561688Y-124281498D01*
X167050106Y-124327472D01*
X166510903Y-124354329D01*
X165971727Y-124361069D01*
X165460226Y-124346696D01*
X165118475Y-124322133D01*
X164602773Y-124254517D01*
X164164032Y-124155789D01*
X163799817Y-124024242D01*
X163507692Y-123858168D01*
X163285222Y-123655861D01*
X163129972Y-123415614D01*
X163039507Y-123135721D01*
X163011433Y-122845315D01*
X163028051Y-122631296D01*
X163085553Y-122434736D01*
X163189079Y-122251701D01*
X163343768Y-122078256D01*
X163554761Y-121910467D01*
X163827196Y-121744397D01*
X164166214Y-121576114D01*
X164576954Y-121401681D01*
X165064556Y-121217165D01*
X165202834Y-121167664D01*
X165703426Y-120986109D01*
X166131464Y-120821043D01*
X166496324Y-120667610D01*
X166807384Y-120520958D01*
X167074022Y-120376233D01*
X167305615Y-120228580D01*
X167511542Y-120073147D01*
X167701180Y-119905080D01*
X167767645Y-119840171D01*
X168054705Y-119506642D01*
X168264782Y-119153063D01*
X168401175Y-118770417D01*
X168467182Y-118349688D01*
X168468722Y-117923717D01*
X168402163Y-117438164D01*
X168261233Y-116991769D01*
X168047186Y-116585623D01*
X167761277Y-116220818D01*
X167404759Y-115898444D01*
X166978888Y-115619592D01*
X166484917Y-115385353D01*
X165924102Y-115196819D01*
X165297697Y-115055080D01*
X165139334Y-115028398D01*
X164696138Y-114975348D01*
X164194140Y-114944488D01*
X163656184Y-114935598D01*
X163105116Y-114948459D01*
G36*
X154746500Y-118413151D02*
X154467287Y-118422685D01*
X154204930Y-118433941D01*
X153975583Y-118446049D01*
X153795397Y-118458137D01*
X153680525Y-118469335D01*
X153667000Y-118471359D01*
X153476500Y-118503166D01*
X153453550Y-120227292D01*
X153549692Y-120203317D01*
X153823185Y-120152895D01*
X154156219Y-120119301D01*
X154525802Y-120102448D01*
X154908942Y-120102247D01*
X155282646Y-120118606D01*
X155623924Y-120151439D01*
X155909783Y-120200655D01*
X155959076Y-120212662D01*
X156391845Y-120358670D01*
X156757356Y-120555295D01*
X157056213Y-120803392D01*
X157289014Y-121103818D01*
X157456361Y-121457430D01*
X157558855Y-121865083D01*
X157597096Y-122327634D01*
X157593958Y-122543057D01*
X157578018Y-122808148D01*
X157552478Y-123012157D01*
X157513707Y-123178459D01*
X157480105Y-123276338D01*
X157320449Y-123592958D01*
X157102974Y-123860954D01*
X156824863Y-124081778D01*
X156483300Y-124256881D01*
X156075468Y-124387716D01*
X155598550Y-124475732D01*
X155064000Y-124521727D01*
X154807299Y-124526924D01*
X154519194Y-124521575D01*
X154222704Y-124507143D01*
X153940847Y-124485094D01*
X153696642Y-124456895D01*
X153513107Y-124424010D01*
X153507359Y-124422619D01*
X153411217Y-124399040D01*
X153434167Y-126123166D01*
X153645834Y-126154296D01*
X153790272Y-126168764D01*
X154002606Y-126181186D01*
X154266085Y-126191368D01*
X154563959Y-126199118D01*
X154879477Y-126204246D01*
X155195889Y-126206560D01*
X155496444Y-126205867D01*
X155764391Y-126201975D01*
X155982981Y-126194693D01*
X156135463Y-126183830D01*
X156143500Y-126182897D01*
X156496586Y-126127431D01*
X156877217Y-126045681D01*
X157252714Y-125945856D01*
X157590395Y-125836167D01*
X157716626Y-125787690D01*
X158196319Y-125550046D01*
X158618575Y-125253545D01*
X158979737Y-124902493D01*
X159276148Y-124501193D01*
X159504150Y-124053952D01*
X159660086Y-123565073D01*
X159679330Y-123477333D01*
X159728141Y-123152454D01*
X159755701Y-122776332D01*
X159761672Y-122379763D01*
X159745718Y-121993546D01*
X159707502Y-121648479D01*
X159699827Y-121602160D01*
X159563141Y-121044007D01*
X159357038Y-120533599D01*
X159083296Y-120072860D01*
X158743692Y-119663713D01*
X158340005Y-119308079D01*
X157874011Y-119007882D01*
X157347490Y-118765044D01*
X156954825Y-118633379D01*
X156607863Y-118543005D01*
X156266490Y-118476996D01*
X155911747Y-118433462D01*
X155524677Y-118410510D01*
X155086321Y-118406252D01*
X154746500Y-118413151D01*
X154746500Y-118413151D01*
G37*
X154746500Y-118413151D02*
X154467287Y-118422685D01*
X154204930Y-118433941D01*
X153975583Y-118446049D01*
X153795397Y-118458137D01*
X153680525Y-118469335D01*
X153667000Y-118471359D01*
X153476500Y-118503166D01*
X153453550Y-120227292D01*
X153549692Y-120203317D01*
X153823185Y-120152895D01*
X154156219Y-120119301D01*
X154525802Y-120102448D01*
X154908942Y-120102247D01*
X155282646Y-120118606D01*
X155623924Y-120151439D01*
X155909783Y-120200655D01*
X155959076Y-120212662D01*
X156391845Y-120358670D01*
X156757356Y-120555295D01*
X157056213Y-120803392D01*
X157289014Y-121103818D01*
X157456361Y-121457430D01*
X157558855Y-121865083D01*
X157597096Y-122327634D01*
X157593958Y-122543057D01*
X157578018Y-122808148D01*
X157552478Y-123012157D01*
X157513707Y-123178459D01*
X157480105Y-123276338D01*
X157320449Y-123592958D01*
X157102974Y-123860954D01*
X156824863Y-124081778D01*
X156483300Y-124256881D01*
X156075468Y-124387716D01*
X155598550Y-124475732D01*
X155064000Y-124521727D01*
X154807299Y-124526924D01*
X154519194Y-124521575D01*
X154222704Y-124507143D01*
X153940847Y-124485094D01*
X153696642Y-124456895D01*
X153513107Y-124424010D01*
X153507359Y-124422619D01*
X153411217Y-124399040D01*
X153434167Y-126123166D01*
X153645834Y-126154296D01*
X153790272Y-126168764D01*
X154002606Y-126181186D01*
X154266085Y-126191368D01*
X154563959Y-126199118D01*
X154879477Y-126204246D01*
X155195889Y-126206560D01*
X155496444Y-126205867D01*
X155764391Y-126201975D01*
X155982981Y-126194693D01*
X156135463Y-126183830D01*
X156143500Y-126182897D01*
X156496586Y-126127431D01*
X156877217Y-126045681D01*
X157252714Y-125945856D01*
X157590395Y-125836167D01*
X157716626Y-125787690D01*
X158196319Y-125550046D01*
X158618575Y-125253545D01*
X158979737Y-124902493D01*
X159276148Y-124501193D01*
X159504150Y-124053952D01*
X159660086Y-123565073D01*
X159679330Y-123477333D01*
X159728141Y-123152454D01*
X159755701Y-122776332D01*
X159761672Y-122379763D01*
X159745718Y-121993546D01*
X159707502Y-121648479D01*
X159699827Y-121602160D01*
X159563141Y-121044007D01*
X159357038Y-120533599D01*
X159083296Y-120072860D01*
X158743692Y-119663713D01*
X158340005Y-119308079D01*
X157874011Y-119007882D01*
X157347490Y-118765044D01*
X156954825Y-118633379D01*
X156607863Y-118543005D01*
X156266490Y-118476996D01*
X155911747Y-118433462D01*
X155524677Y-118410510D01*
X155086321Y-118406252D01*
X154746500Y-118413151D01*
G36*
X139038483Y-118421021D02*
X138710404Y-118455366D01*
X138436174Y-118507453D01*
X138405834Y-118515495D01*
X137897815Y-118684929D01*
X137450930Y-118898619D01*
X137049567Y-119165063D01*
X136764453Y-119408936D01*
X136388616Y-119816231D01*
X136085373Y-120261968D01*
X135852888Y-120750017D01*
X135689325Y-121284245D01*
X135592849Y-121868522D01*
X135591574Y-121880921D01*
X135569252Y-122478673D01*
X135623529Y-123049161D01*
X135750176Y-123587697D01*
X135944966Y-124089592D01*
X136203670Y-124550155D01*
X136522060Y-124964697D01*
X136895906Y-125328530D01*
X137320982Y-125636962D01*
X137793057Y-125885307D01*
X138307905Y-126068872D01*
X138861295Y-126182971D01*
X139449002Y-126222912D01*
X139506500Y-126222678D01*
X139715593Y-126219264D01*
X139902226Y-126213899D01*
X140045174Y-126207337D01*
X140120334Y-126200820D01*
X140539093Y-126112374D01*
X140958180Y-125982572D01*
X141347667Y-125821880D01*
X141621409Y-125675955D01*
X142059392Y-125362523D01*
X142441189Y-124991255D01*
X142764264Y-124569810D01*
X143026085Y-124105848D01*
X143224118Y-123607030D01*
X143355830Y-123081015D01*
X143418686Y-122535462D01*
X143417275Y-122443240D01*
X141254160Y-122443240D01*
X141250333Y-122524833D01*
X141193972Y-122990908D01*
X141081820Y-123400439D01*
X140916421Y-123750683D01*
X140700323Y-124038895D01*
X140436073Y-124262332D01*
X140126218Y-124418249D01*
X139773304Y-124503902D01*
X139400667Y-124517702D01*
X139172301Y-124492395D01*
X138949319Y-124444726D01*
X138841798Y-124410481D01*
X138608876Y-124290336D01*
X138377435Y-124115410D01*
X138177119Y-123910764D01*
X138066277Y-123754799D01*
X137907968Y-123410952D01*
X137799736Y-123017173D01*
X137741852Y-122592000D01*
X137734593Y-122153973D01*
X137778229Y-121721628D01*
X137873036Y-121313504D01*
X138019286Y-120948140D01*
X138024711Y-120937571D01*
X138136798Y-120768565D01*
X138295540Y-120588202D01*
X138474223Y-120423189D01*
X138646131Y-120300232D01*
X138681573Y-120280876D01*
X138955833Y-120176571D01*
X139269422Y-120113366D01*
X139584246Y-120098093D01*
X139670268Y-120103599D01*
X140038924Y-120176260D01*
X140363571Y-120319003D01*
X140641831Y-120528185D01*
X140871328Y-120800166D01*
X141049687Y-121131304D01*
X141174529Y-121517956D01*
X141243479Y-121956482D01*
X141254160Y-122443240D01*
X143417275Y-122443240D01*
X143410153Y-121978032D01*
X143327697Y-121416384D01*
X143192482Y-120926221D01*
X142974004Y-120408397D01*
X142688780Y-119940221D01*
X142341335Y-119525631D01*
X141936190Y-119168566D01*
X141477869Y-118872967D01*
X140970894Y-118642771D01*
X140419790Y-118481917D01*
X140374758Y-118472334D01*
X140088551Y-118430073D01*
X139753285Y-118407810D01*
X139394686Y-118404981D01*
X139038483Y-118421021D01*
X139038483Y-118421021D01*
G37*
X139038483Y-118421021D02*
X138710404Y-118455366D01*
X138436174Y-118507453D01*
X138405834Y-118515495D01*
X137897815Y-118684929D01*
X137450930Y-118898619D01*
X137049567Y-119165063D01*
X136764453Y-119408936D01*
X136388616Y-119816231D01*
X136085373Y-120261968D01*
X135852888Y-120750017D01*
X135689325Y-121284245D01*
X135592849Y-121868522D01*
X135591574Y-121880921D01*
X135569252Y-122478673D01*
X135623529Y-123049161D01*
X135750176Y-123587697D01*
X135944966Y-124089592D01*
X136203670Y-124550155D01*
X136522060Y-124964697D01*
X136895906Y-125328530D01*
X137320982Y-125636962D01*
X137793057Y-125885307D01*
X138307905Y-126068872D01*
X138861295Y-126182971D01*
X139449002Y-126222912D01*
X139506500Y-126222678D01*
X139715593Y-126219264D01*
X139902226Y-126213899D01*
X140045174Y-126207337D01*
X140120334Y-126200820D01*
X140539093Y-126112374D01*
X140958180Y-125982572D01*
X141347667Y-125821880D01*
X141621409Y-125675955D01*
X142059392Y-125362523D01*
X142441189Y-124991255D01*
X142764264Y-124569810D01*
X143026085Y-124105848D01*
X143224118Y-123607030D01*
X143355830Y-123081015D01*
X143418686Y-122535462D01*
X143417275Y-122443240D01*
X141254160Y-122443240D01*
X141250333Y-122524833D01*
X141193972Y-122990908D01*
X141081820Y-123400439D01*
X140916421Y-123750683D01*
X140700323Y-124038895D01*
X140436073Y-124262332D01*
X140126218Y-124418249D01*
X139773304Y-124503902D01*
X139400667Y-124517702D01*
X139172301Y-124492395D01*
X138949319Y-124444726D01*
X138841798Y-124410481D01*
X138608876Y-124290336D01*
X138377435Y-124115410D01*
X138177119Y-123910764D01*
X138066277Y-123754799D01*
X137907968Y-123410952D01*
X137799736Y-123017173D01*
X137741852Y-122592000D01*
X137734593Y-122153973D01*
X137778229Y-121721628D01*
X137873036Y-121313504D01*
X138019286Y-120948140D01*
X138024711Y-120937571D01*
X138136798Y-120768565D01*
X138295540Y-120588202D01*
X138474223Y-120423189D01*
X138646131Y-120300232D01*
X138681573Y-120280876D01*
X138955833Y-120176571D01*
X139269422Y-120113366D01*
X139584246Y-120098093D01*
X139670268Y-120103599D01*
X140038924Y-120176260D01*
X140363571Y-120319003D01*
X140641831Y-120528185D01*
X140871328Y-120800166D01*
X141049687Y-121131304D01*
X141174529Y-121517956D01*
X141243479Y-121956482D01*
X141254160Y-122443240D01*
X143417275Y-122443240D01*
X143410153Y-121978032D01*
X143327697Y-121416384D01*
X143192482Y-120926221D01*
X142974004Y-120408397D01*
X142688780Y-119940221D01*
X142341335Y-119525631D01*
X141936190Y-119168566D01*
X141477869Y-118872967D01*
X140970894Y-118642771D01*
X140419790Y-118481917D01*
X140374758Y-118472334D01*
X140088551Y-118430073D01*
X139753285Y-118407810D01*
X139394686Y-118404981D01*
X139038483Y-118421021D01*
G36*
X130015515Y-118424459D02*
X129799151Y-118428242D01*
X129632369Y-118436481D01*
X129497630Y-118450897D01*
X129377395Y-118473210D01*
X129254123Y-118505141D01*
X129150134Y-118536128D01*
X128731761Y-118679713D01*
X128374687Y-118839232D01*
X128055585Y-119027905D01*
X127751131Y-119258955D01*
X127536754Y-119450610D01*
X127178009Y-119846248D01*
X126882903Y-120294669D01*
X126654264Y-120789742D01*
X126494920Y-121325338D01*
X126407700Y-121895329D01*
X126407469Y-121898027D01*
X126393204Y-122506689D01*
X126453874Y-123084714D01*
X126585540Y-123627749D01*
X126784261Y-124131440D01*
X127046100Y-124591433D01*
X127367116Y-125003374D01*
X127743369Y-125362912D01*
X128170922Y-125665690D01*
X128645834Y-125907358D01*
X129164166Y-126083559D01*
X129721978Y-126189942D01*
X130315332Y-126222153D01*
X130320167Y-126222100D01*
X130531988Y-126218351D01*
X130724017Y-126212534D01*
X130873972Y-126205472D01*
X130955167Y-126198646D01*
X131192642Y-126153083D01*
X131469680Y-126080777D01*
X131749943Y-125992499D01*
X131997093Y-125899024D01*
X132060973Y-125870828D01*
X132552965Y-125599245D01*
X132987040Y-125268131D01*
X133360585Y-124882059D01*
X133670990Y-124445606D01*
X133915642Y-123963348D01*
X134091930Y-123439859D01*
X134197241Y-122879715D01*
X134228964Y-122287491D01*
X134223839Y-122119808D01*
X132073322Y-122119808D01*
X132069871Y-122541230D01*
X132017098Y-122954832D01*
X131915166Y-123345408D01*
X131764236Y-123697753D01*
X131564470Y-123996661D01*
X131554989Y-124007848D01*
X131371461Y-124175549D01*
X131132599Y-124325977D01*
X130867738Y-124442075D01*
X130743500Y-124479705D01*
X130498353Y-124515600D01*
X130214034Y-124515557D01*
X129926894Y-124481908D01*
X129673286Y-124416985D01*
X129653559Y-124409767D01*
X129412315Y-124284236D01*
X129175881Y-124100406D01*
X128970850Y-123881796D01*
X128846362Y-123695937D01*
X128706910Y-123365881D01*
X128612388Y-122983975D01*
X128562795Y-122570134D01*
X128558132Y-122144269D01*
X128598399Y-121726294D01*
X128683595Y-121336121D01*
X128813720Y-120993665D01*
X128846362Y-120930395D01*
X128941384Y-120787222D01*
X129071664Y-120629488D01*
X129186095Y-120513205D01*
X129464312Y-120312555D01*
X129777963Y-120177720D01*
X130113132Y-120107851D01*
X130455903Y-120102098D01*
X130792359Y-120159612D01*
X131108584Y-120279544D01*
X131390660Y-120461042D01*
X131590667Y-120660012D01*
X131786124Y-120960666D01*
X131931611Y-121314320D01*
X132027289Y-121705769D01*
X132073322Y-122119808D01*
X134223839Y-122119808D01*
X134222739Y-122083850D01*
X134170496Y-121562545D01*
X134066955Y-121091384D01*
X133907040Y-120649575D01*
X133834264Y-120492833D01*
X133560440Y-120014419D01*
X133239505Y-119603233D01*
X132863950Y-119251669D01*
X132426268Y-118952124D01*
X132182834Y-118820011D01*
X131908244Y-118688210D01*
X131664617Y-118588441D01*
X131432080Y-118516519D01*
X131190760Y-118468260D01*
X130920784Y-118439481D01*
X130602278Y-118425997D01*
X130299000Y-118423411D01*
X130015515Y-118424459D01*
X130015515Y-118424459D01*
G37*
X130015515Y-118424459D02*
X129799151Y-118428242D01*
X129632369Y-118436481D01*
X129497630Y-118450897D01*
X129377395Y-118473210D01*
X129254123Y-118505141D01*
X129150134Y-118536128D01*
X128731761Y-118679713D01*
X128374687Y-118839232D01*
X128055585Y-119027905D01*
X127751131Y-119258955D01*
X127536754Y-119450610D01*
X127178009Y-119846248D01*
X126882903Y-120294669D01*
X126654264Y-120789742D01*
X126494920Y-121325338D01*
X126407700Y-121895329D01*
X126407469Y-121898027D01*
X126393204Y-122506689D01*
X126453874Y-123084714D01*
X126585540Y-123627749D01*
X126784261Y-124131440D01*
X127046100Y-124591433D01*
X127367116Y-125003374D01*
X127743369Y-125362912D01*
X128170922Y-125665690D01*
X128645834Y-125907358D01*
X129164166Y-126083559D01*
X129721978Y-126189942D01*
X130315332Y-126222153D01*
X130320167Y-126222100D01*
X130531988Y-126218351D01*
X130724017Y-126212534D01*
X130873972Y-126205472D01*
X130955167Y-126198646D01*
X131192642Y-126153083D01*
X131469680Y-126080777D01*
X131749943Y-125992499D01*
X131997093Y-125899024D01*
X132060973Y-125870828D01*
X132552965Y-125599245D01*
X132987040Y-125268131D01*
X133360585Y-124882059D01*
X133670990Y-124445606D01*
X133915642Y-123963348D01*
X134091930Y-123439859D01*
X134197241Y-122879715D01*
X134228964Y-122287491D01*
X134223839Y-122119808D01*
X132073322Y-122119808D01*
X132069871Y-122541230D01*
X132017098Y-122954832D01*
X131915166Y-123345408D01*
X131764236Y-123697753D01*
X131564470Y-123996661D01*
X131554989Y-124007848D01*
X131371461Y-124175549D01*
X131132599Y-124325977D01*
X130867738Y-124442075D01*
X130743500Y-124479705D01*
X130498353Y-124515600D01*
X130214034Y-124515557D01*
X129926894Y-124481908D01*
X129673286Y-124416985D01*
X129653559Y-124409767D01*
X129412315Y-124284236D01*
X129175881Y-124100406D01*
X128970850Y-123881796D01*
X128846362Y-123695937D01*
X128706910Y-123365881D01*
X128612388Y-122983975D01*
X128562795Y-122570134D01*
X128558132Y-122144269D01*
X128598399Y-121726294D01*
X128683595Y-121336121D01*
X128813720Y-120993665D01*
X128846362Y-120930395D01*
X128941384Y-120787222D01*
X129071664Y-120629488D01*
X129186095Y-120513205D01*
X129464312Y-120312555D01*
X129777963Y-120177720D01*
X130113132Y-120107851D01*
X130455903Y-120102098D01*
X130792359Y-120159612D01*
X131108584Y-120279544D01*
X131390660Y-120461042D01*
X131590667Y-120660012D01*
X131786124Y-120960666D01*
X131931611Y-121314320D01*
X132027289Y-121705769D01*
X132073322Y-122119808D01*
X134223839Y-122119808D01*
X134222739Y-122083850D01*
X134170496Y-121562545D01*
X134066955Y-121091384D01*
X133907040Y-120649575D01*
X133834264Y-120492833D01*
X133560440Y-120014419D01*
X133239505Y-119603233D01*
X132863950Y-119251669D01*
X132426268Y-118952124D01*
X132182834Y-118820011D01*
X131908244Y-118688210D01*
X131664617Y-118588441D01*
X131432080Y-118516519D01*
X131190760Y-118468260D01*
X130920784Y-118439481D01*
X130602278Y-118425997D01*
X130299000Y-118423411D01*
X130015515Y-118424459D01*
G36*
X200130399Y-114966569D02*
X199607758Y-115055432D01*
X199112051Y-115195334D01*
X198655340Y-115386623D01*
X198301692Y-115593357D01*
X197901935Y-115911861D01*
X197569438Y-116278555D01*
X197301455Y-116697376D01*
X197095242Y-117172263D01*
X197010923Y-117444833D01*
X196961803Y-117688417D01*
X196928424Y-117984302D01*
X196911110Y-118308264D01*
X196910187Y-118636083D01*
X196925977Y-118943537D01*
X196958805Y-119206404D01*
X196985717Y-119328666D01*
X197100363Y-119664097D01*
X197260430Y-120016946D01*
X197447576Y-120348929D01*
X197542671Y-120491078D01*
X197675874Y-120659498D01*
X197843220Y-120844652D01*
X198025320Y-121027443D01*
X198202787Y-121188773D01*
X198356233Y-121309546D01*
X198407109Y-121342556D01*
X198533363Y-121417137D01*
X198289742Y-121657004D01*
X198030468Y-121944409D01*
X197805092Y-122265825D01*
X197610966Y-122628565D01*
X197445442Y-123039938D01*
X197305874Y-123507257D01*
X197189613Y-124037832D01*
X197094012Y-124638975D01*
X197036730Y-125117299D01*
X197013615Y-125347875D01*
X196994359Y-125564242D01*
X196980763Y-125744364D01*
X196974626Y-125866207D01*
X196974454Y-125879750D01*
X196974000Y-126059666D01*
X199244438Y-126059666D01*
X199297289Y-125435250D01*
X199361548Y-124805616D01*
X199442480Y-124250544D01*
X199542409Y-123761152D01*
X199663660Y-123328560D01*
X199808559Y-122943887D01*
X199979430Y-122598251D01*
X200086970Y-122419000D01*
X200193182Y-122256343D01*
X200280391Y-122143110D01*
X200367628Y-122069471D01*
X200473922Y-122025593D01*
X200618302Y-122001645D01*
X200819797Y-121987796D01*
X200932167Y-121982335D01*
X201429337Y-121933686D01*
X201862786Y-121837138D01*
X202239708Y-121691045D01*
X202269420Y-121676265D01*
X202477334Y-121570907D01*
X202477334Y-126059666D01*
X204723421Y-126059666D01*
X204710351Y-121963916D01*
X204708162Y-121284121D01*
X204706111Y-120683586D01*
X204704067Y-120156904D01*
X204701898Y-119698669D01*
X204700607Y-119488292D01*
X202477334Y-119488292D01*
X202204884Y-119743156D01*
X201872932Y-120003432D01*
X201511380Y-120196192D01*
X201131594Y-120318740D01*
X200744942Y-120368381D01*
X200362790Y-120342419D01*
X200042247Y-120256020D01*
X199789535Y-120120917D01*
X199583736Y-119949300D01*
X199360695Y-119685200D01*
X199200423Y-119387801D01*
X199099156Y-119046765D01*
X199053129Y-118651757D01*
X199049339Y-118482000D01*
X199079574Y-118047915D01*
X199170838Y-117671849D01*
X199323967Y-117352277D01*
X199539794Y-117087673D01*
X199819158Y-116876515D01*
X199974587Y-116794388D01*
X200088024Y-116745020D01*
X200191565Y-116712796D01*
X200308247Y-116694203D01*
X200461103Y-116685730D01*
X200673171Y-116683865D01*
X200699334Y-116683909D01*
X201024679Y-116696736D01*
X201288521Y-116738021D01*
X201511157Y-116814373D01*
X201712882Y-116932403D01*
X201881325Y-117068868D01*
X202088328Y-117297068D01*
X202248821Y-117570939D01*
X202365032Y-117897457D01*
X202439191Y-118283594D01*
X202473523Y-118736326D01*
X202476599Y-118932229D01*
X202477334Y-119488292D01*
X204700607Y-119488292D01*
X204699471Y-119303475D01*
X204696656Y-118965915D01*
X204693321Y-118680583D01*
X204689334Y-118442072D01*
X204684564Y-118244977D01*
X204678878Y-118083890D01*
X204672146Y-117953406D01*
X204664235Y-117848117D01*
X204655014Y-117762618D01*
X204644352Y-117691501D01*
X204632116Y-117629362D01*
X204618174Y-117570793D01*
X204602397Y-117510388D01*
X204601852Y-117508333D01*
X204433638Y-117011296D01*
X204205725Y-116553908D01*
X203924988Y-116147481D01*
X203598303Y-115803328D01*
X203529718Y-115744343D01*
X203156311Y-115485691D01*
X202725395Y-115275639D01*
X202249034Y-115114535D01*
X201739291Y-115002727D01*
X201208228Y-114940565D01*
X200667910Y-114928396D01*
X200130399Y-114966569D01*
X200130399Y-114966569D01*
G37*
X200130399Y-114966569D02*
X199607758Y-115055432D01*
X199112051Y-115195334D01*
X198655340Y-115386623D01*
X198301692Y-115593357D01*
X197901935Y-115911861D01*
X197569438Y-116278555D01*
X197301455Y-116697376D01*
X197095242Y-117172263D01*
X197010923Y-117444833D01*
X196961803Y-117688417D01*
X196928424Y-117984302D01*
X196911110Y-118308264D01*
X196910187Y-118636083D01*
X196925977Y-118943537D01*
X196958805Y-119206404D01*
X196985717Y-119328666D01*
X197100363Y-119664097D01*
X197260430Y-120016946D01*
X197447576Y-120348929D01*
X197542671Y-120491078D01*
X197675874Y-120659498D01*
X197843220Y-120844652D01*
X198025320Y-121027443D01*
X198202787Y-121188773D01*
X198356233Y-121309546D01*
X198407109Y-121342556D01*
X198533363Y-121417137D01*
X198289742Y-121657004D01*
X198030468Y-121944409D01*
X197805092Y-122265825D01*
X197610966Y-122628565D01*
X197445442Y-123039938D01*
X197305874Y-123507257D01*
X197189613Y-124037832D01*
X197094012Y-124638975D01*
X197036730Y-125117299D01*
X197013615Y-125347875D01*
X196994359Y-125564242D01*
X196980763Y-125744364D01*
X196974626Y-125866207D01*
X196974454Y-125879750D01*
X196974000Y-126059666D01*
X199244438Y-126059666D01*
X199297289Y-125435250D01*
X199361548Y-124805616D01*
X199442480Y-124250544D01*
X199542409Y-123761152D01*
X199663660Y-123328560D01*
X199808559Y-122943887D01*
X199979430Y-122598251D01*
X200086970Y-122419000D01*
X200193182Y-122256343D01*
X200280391Y-122143110D01*
X200367628Y-122069471D01*
X200473922Y-122025593D01*
X200618302Y-122001645D01*
X200819797Y-121987796D01*
X200932167Y-121982335D01*
X201429337Y-121933686D01*
X201862786Y-121837138D01*
X202239708Y-121691045D01*
X202269420Y-121676265D01*
X202477334Y-121570907D01*
X202477334Y-126059666D01*
X204723421Y-126059666D01*
X204710351Y-121963916D01*
X204708162Y-121284121D01*
X204706111Y-120683586D01*
X204704067Y-120156904D01*
X204701898Y-119698669D01*
X204700607Y-119488292D01*
X202477334Y-119488292D01*
X202204884Y-119743156D01*
X201872932Y-120003432D01*
X201511380Y-120196192D01*
X201131594Y-120318740D01*
X200744942Y-120368381D01*
X200362790Y-120342419D01*
X200042247Y-120256020D01*
X199789535Y-120120917D01*
X199583736Y-119949300D01*
X199360695Y-119685200D01*
X199200423Y-119387801D01*
X199099156Y-119046765D01*
X199053129Y-118651757D01*
X199049339Y-118482000D01*
X199079574Y-118047915D01*
X199170838Y-117671849D01*
X199323967Y-117352277D01*
X199539794Y-117087673D01*
X199819158Y-116876515D01*
X199974587Y-116794388D01*
X200088024Y-116745020D01*
X200191565Y-116712796D01*
X200308247Y-116694203D01*
X200461103Y-116685730D01*
X200673171Y-116683865D01*
X200699334Y-116683909D01*
X201024679Y-116696736D01*
X201288521Y-116738021D01*
X201511157Y-116814373D01*
X201712882Y-116932403D01*
X201881325Y-117068868D01*
X202088328Y-117297068D01*
X202248821Y-117570939D01*
X202365032Y-117897457D01*
X202439191Y-118283594D01*
X202473523Y-118736326D01*
X202476599Y-118932229D01*
X202477334Y-119488292D01*
X204700607Y-119488292D01*
X204699471Y-119303475D01*
X204696656Y-118965915D01*
X204693321Y-118680583D01*
X204689334Y-118442072D01*
X204684564Y-118244977D01*
X204678878Y-118083890D01*
X204672146Y-117953406D01*
X204664235Y-117848117D01*
X204655014Y-117762618D01*
X204644352Y-117691501D01*
X204632116Y-117629362D01*
X204618174Y-117570793D01*
X204602397Y-117510388D01*
X204601852Y-117508333D01*
X204433638Y-117011296D01*
X204205725Y-116553908D01*
X203924988Y-116147481D01*
X203598303Y-115803328D01*
X203529718Y-115744343D01*
X203156311Y-115485691D01*
X202725395Y-115275639D01*
X202249034Y-115114535D01*
X201739291Y-115002727D01*
X201208228Y-114940565D01*
X200667910Y-114928396D01*
X200130399Y-114966569D01*
G36*
X149730000Y-117042666D02*
X149729673Y-117439601D01*
X149728736Y-117809365D01*
X149727256Y-118143601D01*
X149725300Y-118433953D01*
X149722935Y-118672064D01*
X149720226Y-118849579D01*
X149717242Y-118958140D01*
X149714440Y-118990000D01*
X149674449Y-118968135D01*
X149582611Y-118910231D01*
X149457115Y-118827821D01*
X149428453Y-118808660D01*
X149242269Y-118699570D01*
X149024157Y-118594421D01*
X148840764Y-118522910D01*
X148712256Y-118483172D01*
X148594590Y-118454931D01*
X148469082Y-118436264D01*
X148317048Y-118425252D01*
X148119803Y-118419975D01*
X147858662Y-118418510D01*
X147825000Y-118418500D01*
X147547926Y-118420020D01*
X147335910Y-118425812D01*
X147169380Y-118437718D01*
X147028764Y-118457582D01*
X146894489Y-118487247D01*
X146789742Y-118516000D01*
X146332890Y-118683281D01*
X145942644Y-118902147D01*
X145617112Y-119174422D01*
X145354400Y-119501929D01*
X145152615Y-119886491D01*
X145044915Y-120196500D01*
X145030287Y-120254705D01*
X145017624Y-120323966D01*
X145006737Y-120410771D01*
X144997439Y-120521611D01*
X144989542Y-120662974D01*
X144982860Y-120841351D01*
X144977205Y-121063231D01*
X144972389Y-121335104D01*
X144968225Y-121663459D01*
X144964527Y-122054786D01*
X144961106Y-122515574D01*
X144957775Y-123052313D01*
X144956620Y-123255083D01*
X144940909Y-126059666D01*
X147105334Y-126059666D01*
X147105334Y-123521750D01*
X147106166Y-122894702D01*
X147108650Y-122345922D01*
X147112770Y-121876388D01*
X147118509Y-121487079D01*
X147125853Y-121178972D01*
X147134782Y-120953047D01*
X147145283Y-120810280D01*
X147151440Y-120768847D01*
X147241457Y-120526986D01*
X147399178Y-120333921D01*
X147586909Y-120205734D01*
X147699742Y-120155981D01*
X147824212Y-120127204D01*
X147988045Y-120114582D01*
X148121334Y-120112752D01*
X148513011Y-120148311D01*
X148862583Y-120253959D01*
X149165903Y-120427823D01*
X149418827Y-120668030D01*
X149457348Y-120716420D01*
X149513053Y-120790463D01*
X149560601Y-120860144D01*
X149600639Y-120932519D01*
X149633812Y-121014646D01*
X149660765Y-121113581D01*
X149682145Y-121236381D01*
X149698597Y-121390104D01*
X149710767Y-121581807D01*
X149719299Y-121818545D01*
X149724841Y-122107377D01*
X149728036Y-122455359D01*
X149729532Y-122869548D01*
X149729973Y-123357001D01*
X149730000Y-123696683D01*
X149730000Y-126059666D01*
X151889000Y-126059666D01*
X151889000Y-115095333D01*
X149730000Y-115095333D01*
X149730000Y-117042666D01*
X149730000Y-117042666D01*
G37*
X149730000Y-117042666D02*
X149729673Y-117439601D01*
X149728736Y-117809365D01*
X149727256Y-118143601D01*
X149725300Y-118433953D01*
X149722935Y-118672064D01*
X149720226Y-118849579D01*
X149717242Y-118958140D01*
X149714440Y-118990000D01*
X149674449Y-118968135D01*
X149582611Y-118910231D01*
X149457115Y-118827821D01*
X149428453Y-118808660D01*
X149242269Y-118699570D01*
X149024157Y-118594421D01*
X148840764Y-118522910D01*
X148712256Y-118483172D01*
X148594590Y-118454931D01*
X148469082Y-118436264D01*
X148317048Y-118425252D01*
X148119803Y-118419975D01*
X147858662Y-118418510D01*
X147825000Y-118418500D01*
X147547926Y-118420020D01*
X147335910Y-118425812D01*
X147169380Y-118437718D01*
X147028764Y-118457582D01*
X146894489Y-118487247D01*
X146789742Y-118516000D01*
X146332890Y-118683281D01*
X145942644Y-118902147D01*
X145617112Y-119174422D01*
X145354400Y-119501929D01*
X145152615Y-119886491D01*
X145044915Y-120196500D01*
X145030287Y-120254705D01*
X145017624Y-120323966D01*
X145006737Y-120410771D01*
X144997439Y-120521611D01*
X144989542Y-120662974D01*
X144982860Y-120841351D01*
X144977205Y-121063231D01*
X144972389Y-121335104D01*
X144968225Y-121663459D01*
X144964527Y-122054786D01*
X144961106Y-122515574D01*
X144957775Y-123052313D01*
X144956620Y-123255083D01*
X144940909Y-126059666D01*
X147105334Y-126059666D01*
X147105334Y-123521750D01*
X147106166Y-122894702D01*
X147108650Y-122345922D01*
X147112770Y-121876388D01*
X147118509Y-121487079D01*
X147125853Y-121178972D01*
X147134782Y-120953047D01*
X147145283Y-120810280D01*
X147151440Y-120768847D01*
X147241457Y-120526986D01*
X147399178Y-120333921D01*
X147586909Y-120205734D01*
X147699742Y-120155981D01*
X147824212Y-120127204D01*
X147988045Y-120114582D01*
X148121334Y-120112752D01*
X148513011Y-120148311D01*
X148862583Y-120253959D01*
X149165903Y-120427823D01*
X149418827Y-120668030D01*
X149457348Y-120716420D01*
X149513053Y-120790463D01*
X149560601Y-120860144D01*
X149600639Y-120932519D01*
X149633812Y-121014646D01*
X149660765Y-121113581D01*
X149682145Y-121236381D01*
X149698597Y-121390104D01*
X149710767Y-121581807D01*
X149719299Y-121818545D01*
X149724841Y-122107377D01*
X149728036Y-122455359D01*
X149729532Y-122869548D01*
X149729973Y-123357001D01*
X149730000Y-123696683D01*
X149730000Y-126059666D01*
X151889000Y-126059666D01*
X151889000Y-115095333D01*
X149730000Y-115095333D01*
X149730000Y-117042666D01*
G36*
X122679000Y-126059666D02*
X124795667Y-126059666D01*
X124795667Y-115095333D01*
X122679000Y-115095333D01*
X122679000Y-126059666D01*
X122679000Y-126059666D01*
G37*
X122679000Y-126059666D02*
X124795667Y-126059666D01*
X124795667Y-115095333D01*
X122679000Y-115095333D01*
X122679000Y-126059666D01*
G36*
X183507179Y-92329204D02*
X183444486Y-92385524D01*
X183340624Y-92492777D01*
X183215716Y-92626012D01*
X182695157Y-93125558D01*
X182102896Y-93588191D01*
X181444732Y-94011089D01*
X180726465Y-94391427D01*
X179953892Y-94726385D01*
X179132813Y-95013138D01*
X178269027Y-95248866D01*
X177500667Y-95407877D01*
X176439387Y-95562919D01*
X175346305Y-95656020D01*
X174218673Y-95686928D01*
X173053742Y-95655391D01*
X171848764Y-95561157D01*
X170600989Y-95403972D01*
X169307671Y-95183586D01*
X167966060Y-94899745D01*
X166573408Y-94552197D01*
X165777415Y-94331715D01*
X165549986Y-94267540D01*
X165352790Y-94213703D01*
X165199353Y-94173748D01*
X165103199Y-94151222D01*
X165076690Y-94148003D01*
X165074365Y-94190984D01*
X165069802Y-94314719D01*
X165063114Y-94515328D01*
X165054416Y-94788932D01*
X165043821Y-95131650D01*
X165031443Y-95539604D01*
X165017396Y-96008914D01*
X165001794Y-96535699D01*
X164984751Y-97116080D01*
X164966381Y-97746177D01*
X164946798Y-98422110D01*
X164926115Y-99140000D01*
X164904448Y-99895967D01*
X164881908Y-100686131D01*
X164858612Y-101506613D01*
X164834672Y-102353531D01*
X164810263Y-103220833D01*
X164778662Y-104351441D01*
X164749694Y-105399106D01*
X164723319Y-106365509D01*
X164699499Y-107252333D01*
X164678195Y-108061257D01*
X164659369Y-108793964D01*
X164642982Y-109452135D01*
X164628996Y-110037451D01*
X164617372Y-110551595D01*
X164608072Y-110996247D01*
X164601057Y-111373088D01*
X164596287Y-111683801D01*
X164593726Y-111930067D01*
X164593334Y-112113567D01*
X164595072Y-112235982D01*
X164598903Y-112298994D01*
X164601747Y-112308868D01*
X164664605Y-112329559D01*
X164796207Y-112360346D01*
X164981621Y-112398416D01*
X165205915Y-112440954D01*
X165454156Y-112485144D01*
X165711412Y-112528174D01*
X165962752Y-112567229D01*
X166007167Y-112573758D01*
X166282423Y-112610376D01*
X166623324Y-112650280D01*
X167011004Y-112691652D01*
X167426597Y-112732677D01*
X167851234Y-112771539D01*
X168266050Y-112806422D01*
X168652177Y-112835508D01*
X168885834Y-112850874D01*
X169116216Y-112862289D01*
X169417030Y-112873195D01*
X169774042Y-112883392D01*
X170173017Y-112892679D01*
X170599722Y-112900854D01*
X171039921Y-112907717D01*
X171479381Y-112913066D01*
X171903868Y-112916700D01*
X172299147Y-112918418D01*
X172650984Y-112918019D01*
X172945144Y-112915301D01*
X173140334Y-112910983D01*
X174075796Y-112867800D01*
X175024925Y-112798525D01*
X175960049Y-112705717D01*
X176853498Y-112591934D01*
X177267834Y-112529276D01*
X177643172Y-112466422D01*
X178031529Y-112396280D01*
X178422853Y-112321095D01*
X178807089Y-112243114D01*
X179174187Y-112164584D01*
X179514092Y-112087750D01*
X179816752Y-112014859D01*
X180072114Y-111948157D01*
X180270126Y-111889890D01*
X180400734Y-111842305D01*
X180442418Y-111819923D01*
X180474959Y-111773764D01*
X180513169Y-111677788D01*
X180557346Y-111530203D01*
X180607789Y-111329218D01*
X180664794Y-111073043D01*
X180728661Y-110759885D01*
X180799686Y-110387954D01*
X180878168Y-109955459D01*
X180964403Y-109460609D01*
X181058691Y-108901613D01*
X181161328Y-108276679D01*
X181272613Y-107584017D01*
X181392844Y-106821836D01*
X181522317Y-105988344D01*
X181661331Y-105081751D01*
X181810184Y-104100265D01*
X181969174Y-103042096D01*
X182138597Y-101905452D01*
X182318753Y-100688542D01*
X182509939Y-99389575D01*
X182516139Y-99347333D01*
X182626267Y-98597108D01*
X182733276Y-97868285D01*
X182836499Y-97165395D01*
X182935271Y-96492972D01*
X183028925Y-95855546D01*
X183116793Y-95257648D01*
X183198211Y-94703812D01*
X183272512Y-94198568D01*
X183339029Y-93746447D01*
X183397096Y-93351983D01*
X183446046Y-93019706D01*
X183485213Y-92754148D01*
X183513931Y-92559841D01*
X183531533Y-92441316D01*
X183537073Y-92404666D01*
X183544590Y-92344893D01*
X183537586Y-92317700D01*
X183507179Y-92329204D01*
X183507179Y-92329204D01*
G37*
X183507179Y-92329204D02*
X183444486Y-92385524D01*
X183340624Y-92492777D01*
X183215716Y-92626012D01*
X182695157Y-93125558D01*
X182102896Y-93588191D01*
X181444732Y-94011089D01*
X180726465Y-94391427D01*
X179953892Y-94726385D01*
X179132813Y-95013138D01*
X178269027Y-95248866D01*
X177500667Y-95407877D01*
X176439387Y-95562919D01*
X175346305Y-95656020D01*
X174218673Y-95686928D01*
X173053742Y-95655391D01*
X171848764Y-95561157D01*
X170600989Y-95403972D01*
X169307671Y-95183586D01*
X167966060Y-94899745D01*
X166573408Y-94552197D01*
X165777415Y-94331715D01*
X165549986Y-94267540D01*
X165352790Y-94213703D01*
X165199353Y-94173748D01*
X165103199Y-94151222D01*
X165076690Y-94148003D01*
X165074365Y-94190984D01*
X165069802Y-94314719D01*
X165063114Y-94515328D01*
X165054416Y-94788932D01*
X165043821Y-95131650D01*
X165031443Y-95539604D01*
X165017396Y-96008914D01*
X165001794Y-96535699D01*
X164984751Y-97116080D01*
X164966381Y-97746177D01*
X164946798Y-98422110D01*
X164926115Y-99140000D01*
X164904448Y-99895967D01*
X164881908Y-100686131D01*
X164858612Y-101506613D01*
X164834672Y-102353531D01*
X164810263Y-103220833D01*
X164778662Y-104351441D01*
X164749694Y-105399106D01*
X164723319Y-106365509D01*
X164699499Y-107252333D01*
X164678195Y-108061257D01*
X164659369Y-108793964D01*
X164642982Y-109452135D01*
X164628996Y-110037451D01*
X164617372Y-110551595D01*
X164608072Y-110996247D01*
X164601057Y-111373088D01*
X164596287Y-111683801D01*
X164593726Y-111930067D01*
X164593334Y-112113567D01*
X164595072Y-112235982D01*
X164598903Y-112298994D01*
X164601747Y-112308868D01*
X164664605Y-112329559D01*
X164796207Y-112360346D01*
X164981621Y-112398416D01*
X165205915Y-112440954D01*
X165454156Y-112485144D01*
X165711412Y-112528174D01*
X165962752Y-112567229D01*
X166007167Y-112573758D01*
X166282423Y-112610376D01*
X166623324Y-112650280D01*
X167011004Y-112691652D01*
X167426597Y-112732677D01*
X167851234Y-112771539D01*
X168266050Y-112806422D01*
X168652177Y-112835508D01*
X168885834Y-112850874D01*
X169116216Y-112862289D01*
X169417030Y-112873195D01*
X169774042Y-112883392D01*
X170173017Y-112892679D01*
X170599722Y-112900854D01*
X171039921Y-112907717D01*
X171479381Y-112913066D01*
X171903868Y-112916700D01*
X172299147Y-112918418D01*
X172650984Y-112918019D01*
X172945144Y-112915301D01*
X173140334Y-112910983D01*
X174075796Y-112867800D01*
X175024925Y-112798525D01*
X175960049Y-112705717D01*
X176853498Y-112591934D01*
X177267834Y-112529276D01*
X177643172Y-112466422D01*
X178031529Y-112396280D01*
X178422853Y-112321095D01*
X178807089Y-112243114D01*
X179174187Y-112164584D01*
X179514092Y-112087750D01*
X179816752Y-112014859D01*
X180072114Y-111948157D01*
X180270126Y-111889890D01*
X180400734Y-111842305D01*
X180442418Y-111819923D01*
X180474959Y-111773764D01*
X180513169Y-111677788D01*
X180557346Y-111530203D01*
X180607789Y-111329218D01*
X180664794Y-111073043D01*
X180728661Y-110759885D01*
X180799686Y-110387954D01*
X180878168Y-109955459D01*
X180964403Y-109460609D01*
X181058691Y-108901613D01*
X181161328Y-108276679D01*
X181272613Y-107584017D01*
X181392844Y-106821836D01*
X181522317Y-105988344D01*
X181661331Y-105081751D01*
X181810184Y-104100265D01*
X181969174Y-103042096D01*
X182138597Y-101905452D01*
X182318753Y-100688542D01*
X182509939Y-99389575D01*
X182516139Y-99347333D01*
X182626267Y-98597108D01*
X182733276Y-97868285D01*
X182836499Y-97165395D01*
X182935271Y-96492972D01*
X183028925Y-95855546D01*
X183116793Y-95257648D01*
X183198211Y-94703812D01*
X183272512Y-94198568D01*
X183339029Y-93746447D01*
X183397096Y-93351983D01*
X183446046Y-93019706D01*
X183485213Y-92754148D01*
X183513931Y-92559841D01*
X183531533Y-92441316D01*
X183537073Y-92404666D01*
X183544590Y-92344893D01*
X183537586Y-92317700D01*
X183507179Y-92329204D01*
G36*
X144761014Y-93641415D02*
X144773738Y-93764520D01*
X144795934Y-93961055D01*
X144826940Y-94225749D01*
X144866093Y-94553331D01*
X144912729Y-94938526D01*
X144966187Y-95376065D01*
X145025803Y-95860674D01*
X145090915Y-96387081D01*
X145160860Y-96950014D01*
X145234975Y-97544201D01*
X145312597Y-98164370D01*
X145393064Y-98805248D01*
X145475713Y-99461564D01*
X145559881Y-100128046D01*
X145644905Y-100799421D01*
X145730123Y-101470417D01*
X145814872Y-102135763D01*
X145898489Y-102790185D01*
X145980311Y-103428412D01*
X146059676Y-104045171D01*
X146135921Y-104635191D01*
X146208383Y-105193200D01*
X146276399Y-105713925D01*
X146339306Y-106192093D01*
X146385983Y-106544000D01*
X146495966Y-107365205D01*
X146596339Y-108105183D01*
X146687538Y-108766776D01*
X146769999Y-109352825D01*
X146844157Y-109866171D01*
X146910449Y-110309657D01*
X146969309Y-110686124D01*
X147021175Y-110998414D01*
X147066481Y-111249368D01*
X147105664Y-111441827D01*
X147139160Y-111578634D01*
X147167404Y-111662629D01*
X147172845Y-111674090D01*
X147291910Y-111852986D01*
X147452733Y-112029226D01*
X147621288Y-112165950D01*
X147634773Y-112174501D01*
X147771909Y-112234419D01*
X147992609Y-112296600D01*
X148295806Y-112360824D01*
X148680434Y-112426873D01*
X149145425Y-112494527D01*
X149269821Y-112511103D01*
X150050729Y-112600323D01*
X150905606Y-112673469D01*
X151825236Y-112730236D01*
X152800403Y-112770316D01*
X153821889Y-112793405D01*
X154880478Y-112799194D01*
X155966954Y-112787378D01*
X156878194Y-112764145D01*
X157507496Y-112740487D01*
X158166895Y-112709297D01*
X158844606Y-112671491D01*
X159528843Y-112627987D01*
X160207823Y-112579699D01*
X160869760Y-112527545D01*
X161502869Y-112472441D01*
X162095366Y-112415304D01*
X162635466Y-112357049D01*
X163111383Y-112298593D01*
X163414250Y-112255906D01*
X163742334Y-112206374D01*
X163742958Y-111777603D01*
X163744041Y-111693071D01*
X163747099Y-111528137D01*
X163752035Y-111287040D01*
X163758749Y-110974020D01*
X163767145Y-110593316D01*
X163777123Y-110149167D01*
X163788585Y-109645814D01*
X163801434Y-109087495D01*
X163815571Y-108478449D01*
X163830897Y-107822917D01*
X163847316Y-107125137D01*
X163864727Y-106389348D01*
X163883034Y-105619791D01*
X163902138Y-104820704D01*
X163921941Y-103996327D01*
X163942344Y-103150899D01*
X163952408Y-102735311D01*
X163972895Y-101887785D01*
X163992713Y-101062933D01*
X164011773Y-100264732D01*
X164029983Y-99497163D01*
X164047253Y-98764204D01*
X164063493Y-98069834D01*
X164078612Y-97418033D01*
X164092519Y-96812779D01*
X164105123Y-96258052D01*
X164116334Y-95757831D01*
X164126061Y-95316094D01*
X164134214Y-94936822D01*
X164140702Y-94623992D01*
X164145434Y-94381585D01*
X164148319Y-94213579D01*
X164149268Y-94123953D01*
X164148903Y-94109458D01*
X164105678Y-94114458D01*
X163994903Y-94136470D01*
X163831259Y-94172335D01*
X163629425Y-94218894D01*
X163526703Y-94243297D01*
X162595035Y-94447676D01*
X161597515Y-94631580D01*
X160550830Y-94793375D01*
X159471672Y-94931427D01*
X158376730Y-95044104D01*
X157282694Y-95129772D01*
X156206253Y-95186797D01*
X155164098Y-95213547D01*
X154172918Y-95208387D01*
X153784960Y-95196662D01*
X152466725Y-95126409D01*
X151213894Y-95017888D01*
X150015443Y-94869253D01*
X148860345Y-94678659D01*
X147737573Y-94444260D01*
X146636101Y-94164211D01*
X145544902Y-93836666D01*
X145423596Y-93797189D01*
X145203609Y-93726094D01*
X145013749Y-93666726D01*
X144867656Y-93623188D01*
X144778971Y-93599588D01*
X144758424Y-93597014D01*
X144761014Y-93641415D01*
X144761014Y-93641415D01*
G37*
X144761014Y-93641415D02*
X144773738Y-93764520D01*
X144795934Y-93961055D01*
X144826940Y-94225749D01*
X144866093Y-94553331D01*
X144912729Y-94938526D01*
X144966187Y-95376065D01*
X145025803Y-95860674D01*
X145090915Y-96387081D01*
X145160860Y-96950014D01*
X145234975Y-97544201D01*
X145312597Y-98164370D01*
X145393064Y-98805248D01*
X145475713Y-99461564D01*
X145559881Y-100128046D01*
X145644905Y-100799421D01*
X145730123Y-101470417D01*
X145814872Y-102135763D01*
X145898489Y-102790185D01*
X145980311Y-103428412D01*
X146059676Y-104045171D01*
X146135921Y-104635191D01*
X146208383Y-105193200D01*
X146276399Y-105713925D01*
X146339306Y-106192093D01*
X146385983Y-106544000D01*
X146495966Y-107365205D01*
X146596339Y-108105183D01*
X146687538Y-108766776D01*
X146769999Y-109352825D01*
X146844157Y-109866171D01*
X146910449Y-110309657D01*
X146969309Y-110686124D01*
X147021175Y-110998414D01*
X147066481Y-111249368D01*
X147105664Y-111441827D01*
X147139160Y-111578634D01*
X147167404Y-111662629D01*
X147172845Y-111674090D01*
X147291910Y-111852986D01*
X147452733Y-112029226D01*
X147621288Y-112165950D01*
X147634773Y-112174501D01*
X147771909Y-112234419D01*
X147992609Y-112296600D01*
X148295806Y-112360824D01*
X148680434Y-112426873D01*
X149145425Y-112494527D01*
X149269821Y-112511103D01*
X150050729Y-112600323D01*
X150905606Y-112673469D01*
X151825236Y-112730236D01*
X152800403Y-112770316D01*
X153821889Y-112793405D01*
X154880478Y-112799194D01*
X155966954Y-112787378D01*
X156878194Y-112764145D01*
X157507496Y-112740487D01*
X158166895Y-112709297D01*
X158844606Y-112671491D01*
X159528843Y-112627987D01*
X160207823Y-112579699D01*
X160869760Y-112527545D01*
X161502869Y-112472441D01*
X162095366Y-112415304D01*
X162635466Y-112357049D01*
X163111383Y-112298593D01*
X163414250Y-112255906D01*
X163742334Y-112206374D01*
X163742958Y-111777603D01*
X163744041Y-111693071D01*
X163747099Y-111528137D01*
X163752035Y-111287040D01*
X163758749Y-110974020D01*
X163767145Y-110593316D01*
X163777123Y-110149167D01*
X163788585Y-109645814D01*
X163801434Y-109087495D01*
X163815571Y-108478449D01*
X163830897Y-107822917D01*
X163847316Y-107125137D01*
X163864727Y-106389348D01*
X163883034Y-105619791D01*
X163902138Y-104820704D01*
X163921941Y-103996327D01*
X163942344Y-103150899D01*
X163952408Y-102735311D01*
X163972895Y-101887785D01*
X163992713Y-101062933D01*
X164011773Y-100264732D01*
X164029983Y-99497163D01*
X164047253Y-98764204D01*
X164063493Y-98069834D01*
X164078612Y-97418033D01*
X164092519Y-96812779D01*
X164105123Y-96258052D01*
X164116334Y-95757831D01*
X164126061Y-95316094D01*
X164134214Y-94936822D01*
X164140702Y-94623992D01*
X164145434Y-94381585D01*
X164148319Y-94213579D01*
X164149268Y-94123953D01*
X164148903Y-94109458D01*
X164105678Y-94114458D01*
X163994903Y-94136470D01*
X163831259Y-94172335D01*
X163629425Y-94218894D01*
X163526703Y-94243297D01*
X162595035Y-94447676D01*
X161597515Y-94631580D01*
X160550830Y-94793375D01*
X159471672Y-94931427D01*
X158376730Y-95044104D01*
X157282694Y-95129772D01*
X156206253Y-95186797D01*
X155164098Y-95213547D01*
X154172918Y-95208387D01*
X153784960Y-95196662D01*
X152466725Y-95126409D01*
X151213894Y-95017888D01*
X150015443Y-94869253D01*
X148860345Y-94678659D01*
X147737573Y-94444260D01*
X146636101Y-94164211D01*
X145544902Y-93836666D01*
X145423596Y-93797189D01*
X145203609Y-93726094D01*
X145013749Y-93666726D01*
X144867656Y-93623188D01*
X144778971Y-93599588D01*
X144758424Y-93597014D01*
X144761014Y-93641415D01*
G36*
X172484607Y-68576597D02*
X172340681Y-68599131D01*
X172203207Y-68647217D01*
X172091407Y-68699982D01*
X171808738Y-68885391D01*
X171589188Y-69123805D01*
X171437964Y-69406965D01*
X171360274Y-69726615D01*
X171350753Y-69874559D01*
X171373970Y-70194923D01*
X171457877Y-70469067D01*
X171610117Y-70716758D01*
X171728541Y-70851766D01*
X171956484Y-71087104D01*
X171796992Y-71245106D01*
X171742311Y-71298774D01*
X171631837Y-71406759D01*
X171470439Y-71564314D01*
X171262986Y-71766694D01*
X171014347Y-72009150D01*
X170729391Y-72286936D01*
X170412986Y-72595306D01*
X170070003Y-72929513D01*
X169705308Y-73284809D01*
X169323773Y-73656449D01*
X169144391Y-73831157D01*
X166651281Y-76259204D01*
X166286891Y-76161266D01*
X165670201Y-76031695D01*
X165015695Y-75960360D01*
X164347539Y-75947824D01*
X163689902Y-75994650D01*
X163128500Y-76087689D01*
X162924967Y-76130971D01*
X162746213Y-76167503D01*
X162611528Y-76193440D01*
X162540202Y-76204940D01*
X162540166Y-76204943D01*
X162507682Y-76186306D01*
X162442799Y-76125616D01*
X162343311Y-76020291D01*
X162207012Y-75867753D01*
X162031698Y-75665420D01*
X161815161Y-75410713D01*
X161555196Y-75101053D01*
X161249598Y-74733857D01*
X160896160Y-74306548D01*
X160492677Y-73816544D01*
X160356672Y-73651000D01*
X158253511Y-71089833D01*
X158419765Y-70927077D01*
X158621998Y-70676469D01*
X158749724Y-70390987D01*
X158805425Y-70064374D01*
X158808424Y-69946833D01*
X158784714Y-69648227D01*
X158711081Y-69398412D01*
X158577671Y-69171594D01*
X158457266Y-69027561D01*
X158255060Y-68842456D01*
X158037698Y-68718815D01*
X157783673Y-68647382D01*
X157510990Y-68620285D01*
X157317114Y-68615778D01*
X157177255Y-68624336D01*
X157061198Y-68650452D01*
X156938728Y-68698622D01*
X156916391Y-68708735D01*
X156636902Y-68870423D01*
X156421153Y-69075782D01*
X156253065Y-69340252D01*
X156247954Y-69350553D01*
X156139624Y-69660656D01*
X156107909Y-69982237D01*
X156150794Y-70299895D01*
X156266260Y-70598229D01*
X156444824Y-70853608D01*
X156610379Y-71007915D01*
X156801468Y-71142320D01*
X156875757Y-71182951D01*
X157016824Y-71245789D01*
X157141769Y-71280961D01*
X157285402Y-71295245D01*
X157455834Y-71295903D01*
X157626020Y-71291361D01*
X157769972Y-71284400D01*
X157861165Y-71276375D01*
X157870857Y-71274737D01*
X157891663Y-71283459D01*
X157924591Y-71318902D01*
X157972109Y-71385457D01*
X158036684Y-71487515D01*
X158120784Y-71629467D01*
X158226875Y-71815704D01*
X158357425Y-72050617D01*
X158514902Y-72338597D01*
X158701772Y-72684036D01*
X158920504Y-73091323D01*
X159173564Y-73564852D01*
X159462867Y-74107972D01*
X160978521Y-76956778D01*
X160415229Y-77500590D01*
X156183865Y-77513492D01*
X151952500Y-77526393D01*
X151638831Y-77622716D01*
X151108468Y-77825164D01*
X150635333Y-78088679D01*
X150220945Y-78412014D01*
X149866821Y-78793922D01*
X149574477Y-79233153D01*
X149493452Y-79387166D01*
X149454095Y-79464790D01*
X149418178Y-79534187D01*
X149385545Y-79599345D01*
X149356039Y-79664251D01*
X149329501Y-79732893D01*
X149305776Y-79809260D01*
X149284706Y-79897339D01*
X149266134Y-80001118D01*
X149249902Y-80124585D01*
X149235853Y-80271727D01*
X149223831Y-80446534D01*
X149213678Y-80652992D01*
X149205237Y-80895089D01*
X149198351Y-81176814D01*
X149192862Y-81502154D01*
X149188614Y-81875097D01*
X149185449Y-82299632D01*
X149183210Y-82779745D01*
X149181740Y-83319425D01*
X149180882Y-83922660D01*
X149180478Y-84593437D01*
X149180372Y-85335745D01*
X149180406Y-86153572D01*
X149180423Y-87050904D01*
X149180402Y-87330372D01*
X149179667Y-94299911D01*
X149401917Y-94326300D01*
X150536963Y-94437573D01*
X151734057Y-94510502D01*
X152979943Y-94545441D01*
X154261365Y-94542748D01*
X155565067Y-94502776D01*
X156877792Y-94425882D01*
X158186285Y-94312422D01*
X159477289Y-94162751D01*
X160398000Y-94031303D01*
X160843892Y-93958024D01*
X161346619Y-93868063D01*
X161881160Y-93766383D01*
X162422498Y-93657947D01*
X162945613Y-93547718D01*
X163425486Y-93440658D01*
X163686690Y-93378932D01*
X163933747Y-93321662D01*
X164166373Y-93272628D01*
X164366097Y-93235361D01*
X164514446Y-93213397D01*
X164575034Y-93209000D01*
X164681589Y-93222263D01*
X164856406Y-93260048D01*
X165087680Y-93319346D01*
X165363609Y-93397151D01*
X165639137Y-93480131D01*
X167082779Y-93901040D01*
X168485290Y-94256707D01*
X169856872Y-94549218D01*
X171207731Y-94780658D01*
X172548070Y-94953115D01*
X173119167Y-95009249D01*
X173376295Y-95028702D01*
X173687043Y-95046614D01*
X174035139Y-95062550D01*
X174404311Y-95076077D01*
X174778286Y-95086762D01*
X175140792Y-95094172D01*
X175475556Y-95097874D01*
X175766306Y-95097433D01*
X175996769Y-95092416D01*
X176082500Y-95088173D01*
X176987774Y-95010386D01*
X177855013Y-94896048D01*
X178671569Y-94747220D01*
X179424793Y-94565961D01*
X179606750Y-94514347D01*
X179913667Y-94424332D01*
X179913667Y-89427760D01*
X174440677Y-89427760D01*
X174383708Y-89868771D01*
X174252992Y-90294803D01*
X174053986Y-90698588D01*
X173792150Y-91072859D01*
X173472943Y-91410347D01*
X173101824Y-91703785D01*
X172684251Y-91945906D01*
X172225683Y-92129443D01*
X172005488Y-92191457D01*
X171674206Y-92248822D01*
X171298213Y-92274500D01*
X170911329Y-92268448D01*
X170547374Y-92230622D01*
X170357938Y-92193587D01*
X169853814Y-92032417D01*
X169393114Y-91803524D01*
X168981629Y-91512030D01*
X168625148Y-91163055D01*
X168329464Y-90761718D01*
X168100367Y-90313140D01*
X168034740Y-90139427D01*
X167981180Y-89972102D01*
X167946808Y-89825626D01*
X167927585Y-89671400D01*
X167919474Y-89480827D01*
X167918244Y-89314333D01*
X167918983Y-89253744D01*
X161690800Y-89253744D01*
X161660723Y-89698021D01*
X161558925Y-90129836D01*
X161389567Y-90542112D01*
X161156814Y-90927772D01*
X160864828Y-91279738D01*
X160517772Y-91590933D01*
X160119809Y-91854279D01*
X159675103Y-92062698D01*
X159263154Y-92191457D01*
X158983890Y-92240688D01*
X158655048Y-92268204D01*
X158309017Y-92273509D01*
X157978186Y-92256102D01*
X157695438Y-92215590D01*
X157204512Y-92072408D01*
X156747791Y-91860030D01*
X156333128Y-91585258D01*
X155968373Y-91254897D01*
X155661379Y-90875749D01*
X155419996Y-90454617D01*
X155292694Y-90133688D01*
X155188494Y-89682636D01*
X155164476Y-89220720D01*
X155219396Y-88760278D01*
X155352012Y-88313648D01*
X155509690Y-87980833D01*
X155789322Y-87567496D01*
X156134360Y-87203145D01*
X156537659Y-86893119D01*
X156992076Y-86642754D01*
X157490468Y-86457389D01*
X157582834Y-86431725D01*
X157918220Y-86368956D01*
X158298090Y-86340301D01*
X158689430Y-86345784D01*
X159059223Y-86385429D01*
X159276167Y-86430508D01*
X159750918Y-86593037D01*
X160194521Y-86821286D01*
X160597445Y-87107073D01*
X160950162Y-87442215D01*
X161243141Y-87818533D01*
X161466851Y-88227843D01*
X161519134Y-88356116D01*
X161644991Y-88804083D01*
X161690800Y-89253744D01*
X167918983Y-89253744D01*
X167921076Y-89082221D01*
X167932263Y-88906038D01*
X167955846Y-88757156D01*
X167995865Y-88606948D01*
X168034737Y-88488833D01*
X168148228Y-88192724D01*
X168274404Y-87941672D01*
X168429119Y-87711006D01*
X168628221Y-87476057D01*
X168799093Y-87299221D01*
X168985548Y-87118858D01*
X169141372Y-86984496D01*
X169291140Y-86877941D01*
X169459428Y-86780999D01*
X169585928Y-86716719D01*
X169958171Y-86550599D01*
X170302173Y-86437951D01*
X170648684Y-86371512D01*
X171028457Y-86344021D01*
X171171834Y-86342257D01*
X171721317Y-86380291D01*
X172233727Y-86494326D01*
X172708789Y-86684255D01*
X173146232Y-86949977D01*
X173472522Y-87220440D01*
X173815278Y-87585948D01*
X174078946Y-87966515D01*
X174268958Y-88372242D01*
X174390747Y-88813229D01*
X174418440Y-88979036D01*
X174440677Y-89427760D01*
X179913667Y-89427760D01*
X179913667Y-87443715D01*
X179913602Y-86532979D01*
X179913383Y-85703000D01*
X179912974Y-84949870D01*
X179912339Y-84269678D01*
X179911443Y-83658515D01*
X179910249Y-83112473D01*
X179908722Y-82627641D01*
X179906827Y-82200110D01*
X179904527Y-81825972D01*
X179901786Y-81501317D01*
X179898569Y-81222235D01*
X179894840Y-80984817D01*
X179890564Y-80785154D01*
X179885704Y-80619336D01*
X179880224Y-80483455D01*
X179874089Y-80373601D01*
X179867263Y-80285865D01*
X179859711Y-80216336D01*
X179851396Y-80161107D01*
X179846770Y-80136798D01*
X179703082Y-79640722D01*
X179485311Y-79181535D01*
X179198133Y-78765051D01*
X178846222Y-78397085D01*
X178434254Y-78083451D01*
X178006255Y-77847907D01*
X177897461Y-77796721D01*
X177801318Y-77751272D01*
X177712404Y-77711205D01*
X177625301Y-77676167D01*
X177534588Y-77645804D01*
X177434846Y-77619763D01*
X177320657Y-77597690D01*
X177186599Y-77579232D01*
X177027253Y-77564034D01*
X176837200Y-77551744D01*
X176611020Y-77542008D01*
X176343294Y-77534472D01*
X176028601Y-77528783D01*
X175661523Y-77524587D01*
X175236639Y-77521530D01*
X174748530Y-77519260D01*
X174191777Y-77517423D01*
X173560959Y-77515664D01*
X172883732Y-77513731D01*
X168668964Y-77500993D01*
X168448212Y-77277465D01*
X168227461Y-77053936D01*
X170239964Y-74129429D01*
X172252467Y-71204921D01*
X172431817Y-71246359D01*
X172717893Y-71272301D01*
X173018192Y-71229562D01*
X173309098Y-71125203D01*
X173566995Y-70966284D01*
X173668089Y-70876755D01*
X173866643Y-70624449D01*
X173991899Y-70335440D01*
X174046269Y-70003576D01*
X174049113Y-69904500D01*
X174044509Y-69711080D01*
X174024541Y-69566295D01*
X173981997Y-69434505D01*
X173931756Y-69324422D01*
X173789276Y-69099989D01*
X173599930Y-68895205D01*
X173386924Y-68731713D01*
X173196047Y-68638395D01*
X173039345Y-68601668D01*
X172838751Y-68577613D01*
X172673888Y-68571000D01*
X172484607Y-68576597D01*
X172484607Y-68576597D01*
G37*
X172484607Y-68576597D02*
X172340681Y-68599131D01*
X172203207Y-68647217D01*
X172091407Y-68699982D01*
X171808738Y-68885391D01*
X171589188Y-69123805D01*
X171437964Y-69406965D01*
X171360274Y-69726615D01*
X171350753Y-69874559D01*
X171373970Y-70194923D01*
X171457877Y-70469067D01*
X171610117Y-70716758D01*
X171728541Y-70851766D01*
X171956484Y-71087104D01*
X171796992Y-71245106D01*
X171742311Y-71298774D01*
X171631837Y-71406759D01*
X171470439Y-71564314D01*
X171262986Y-71766694D01*
X171014347Y-72009150D01*
X170729391Y-72286936D01*
X170412986Y-72595306D01*
X170070003Y-72929513D01*
X169705308Y-73284809D01*
X169323773Y-73656449D01*
X169144391Y-73831157D01*
X166651281Y-76259204D01*
X166286891Y-76161266D01*
X165670201Y-76031695D01*
X165015695Y-75960360D01*
X164347539Y-75947824D01*
X163689902Y-75994650D01*
X163128500Y-76087689D01*
X162924967Y-76130971D01*
X162746213Y-76167503D01*
X162611528Y-76193440D01*
X162540202Y-76204940D01*
X162540166Y-76204943D01*
X162507682Y-76186306D01*
X162442799Y-76125616D01*
X162343311Y-76020291D01*
X162207012Y-75867753D01*
X162031698Y-75665420D01*
X161815161Y-75410713D01*
X161555196Y-75101053D01*
X161249598Y-74733857D01*
X160896160Y-74306548D01*
X160492677Y-73816544D01*
X160356672Y-73651000D01*
X158253511Y-71089833D01*
X158419765Y-70927077D01*
X158621998Y-70676469D01*
X158749724Y-70390987D01*
X158805425Y-70064374D01*
X158808424Y-69946833D01*
X158784714Y-69648227D01*
X158711081Y-69398412D01*
X158577671Y-69171594D01*
X158457266Y-69027561D01*
X158255060Y-68842456D01*
X158037698Y-68718815D01*
X157783673Y-68647382D01*
X157510990Y-68620285D01*
X157317114Y-68615778D01*
X157177255Y-68624336D01*
X157061198Y-68650452D01*
X156938728Y-68698622D01*
X156916391Y-68708735D01*
X156636902Y-68870423D01*
X156421153Y-69075782D01*
X156253065Y-69340252D01*
X156247954Y-69350553D01*
X156139624Y-69660656D01*
X156107909Y-69982237D01*
X156150794Y-70299895D01*
X156266260Y-70598229D01*
X156444824Y-70853608D01*
X156610379Y-71007915D01*
X156801468Y-71142320D01*
X156875757Y-71182951D01*
X157016824Y-71245789D01*
X157141769Y-71280961D01*
X157285402Y-71295245D01*
X157455834Y-71295903D01*
X157626020Y-71291361D01*
X157769972Y-71284400D01*
X157861165Y-71276375D01*
X157870857Y-71274737D01*
X157891663Y-71283459D01*
X157924591Y-71318902D01*
X157972109Y-71385457D01*
X158036684Y-71487515D01*
X158120784Y-71629467D01*
X158226875Y-71815704D01*
X158357425Y-72050617D01*
X158514902Y-72338597D01*
X158701772Y-72684036D01*
X158920504Y-73091323D01*
X159173564Y-73564852D01*
X159462867Y-74107972D01*
X160978521Y-76956778D01*
X160415229Y-77500590D01*
X156183865Y-77513492D01*
X151952500Y-77526393D01*
X151638831Y-77622716D01*
X151108468Y-77825164D01*
X150635333Y-78088679D01*
X150220945Y-78412014D01*
X149866821Y-78793922D01*
X149574477Y-79233153D01*
X149493452Y-79387166D01*
X149454095Y-79464790D01*
X149418178Y-79534187D01*
X149385545Y-79599345D01*
X149356039Y-79664251D01*
X149329501Y-79732893D01*
X149305776Y-79809260D01*
X149284706Y-79897339D01*
X149266134Y-80001118D01*
X149249902Y-80124585D01*
X149235853Y-80271727D01*
X149223831Y-80446534D01*
X149213678Y-80652992D01*
X149205237Y-80895089D01*
X149198351Y-81176814D01*
X149192862Y-81502154D01*
X149188614Y-81875097D01*
X149185449Y-82299632D01*
X149183210Y-82779745D01*
X149181740Y-83319425D01*
X149180882Y-83922660D01*
X149180478Y-84593437D01*
X149180372Y-85335745D01*
X149180406Y-86153572D01*
X149180423Y-87050904D01*
X149180402Y-87330372D01*
X149179667Y-94299911D01*
X149401917Y-94326300D01*
X150536963Y-94437573D01*
X151734057Y-94510502D01*
X152979943Y-94545441D01*
X154261365Y-94542748D01*
X155565067Y-94502776D01*
X156877792Y-94425882D01*
X158186285Y-94312422D01*
X159477289Y-94162751D01*
X160398000Y-94031303D01*
X160843892Y-93958024D01*
X161346619Y-93868063D01*
X161881160Y-93766383D01*
X162422498Y-93657947D01*
X162945613Y-93547718D01*
X163425486Y-93440658D01*
X163686690Y-93378932D01*
X163933747Y-93321662D01*
X164166373Y-93272628D01*
X164366097Y-93235361D01*
X164514446Y-93213397D01*
X164575034Y-93209000D01*
X164681589Y-93222263D01*
X164856406Y-93260048D01*
X165087680Y-93319346D01*
X165363609Y-93397151D01*
X165639137Y-93480131D01*
X167082779Y-93901040D01*
X168485290Y-94256707D01*
X169856872Y-94549218D01*
X171207731Y-94780658D01*
X172548070Y-94953115D01*
X173119167Y-95009249D01*
X173376295Y-95028702D01*
X173687043Y-95046614D01*
X174035139Y-95062550D01*
X174404311Y-95076077D01*
X174778286Y-95086762D01*
X175140792Y-95094172D01*
X175475556Y-95097874D01*
X175766306Y-95097433D01*
X175996769Y-95092416D01*
X176082500Y-95088173D01*
X176987774Y-95010386D01*
X177855013Y-94896048D01*
X178671569Y-94747220D01*
X179424793Y-94565961D01*
X179606750Y-94514347D01*
X179913667Y-94424332D01*
X179913667Y-89427760D01*
X174440677Y-89427760D01*
X174383708Y-89868771D01*
X174252992Y-90294803D01*
X174053986Y-90698588D01*
X173792150Y-91072859D01*
X173472943Y-91410347D01*
X173101824Y-91703785D01*
X172684251Y-91945906D01*
X172225683Y-92129443D01*
X172005488Y-92191457D01*
X171674206Y-92248822D01*
X171298213Y-92274500D01*
X170911329Y-92268448D01*
X170547374Y-92230622D01*
X170357938Y-92193587D01*
X169853814Y-92032417D01*
X169393114Y-91803524D01*
X168981629Y-91512030D01*
X168625148Y-91163055D01*
X168329464Y-90761718D01*
X168100367Y-90313140D01*
X168034740Y-90139427D01*
X167981180Y-89972102D01*
X167946808Y-89825626D01*
X167927585Y-89671400D01*
X167919474Y-89480827D01*
X167918244Y-89314333D01*
X167918983Y-89253744D01*
X161690800Y-89253744D01*
X161660723Y-89698021D01*
X161558925Y-90129836D01*
X161389567Y-90542112D01*
X161156814Y-90927772D01*
X160864828Y-91279738D01*
X160517772Y-91590933D01*
X160119809Y-91854279D01*
X159675103Y-92062698D01*
X159263154Y-92191457D01*
X158983890Y-92240688D01*
X158655048Y-92268204D01*
X158309017Y-92273509D01*
X157978186Y-92256102D01*
X157695438Y-92215590D01*
X157204512Y-92072408D01*
X156747791Y-91860030D01*
X156333128Y-91585258D01*
X155968373Y-91254897D01*
X155661379Y-90875749D01*
X155419996Y-90454617D01*
X155292694Y-90133688D01*
X155188494Y-89682636D01*
X155164476Y-89220720D01*
X155219396Y-88760278D01*
X155352012Y-88313648D01*
X155509690Y-87980833D01*
X155789322Y-87567496D01*
X156134360Y-87203145D01*
X156537659Y-86893119D01*
X156992076Y-86642754D01*
X157490468Y-86457389D01*
X157582834Y-86431725D01*
X157918220Y-86368956D01*
X158298090Y-86340301D01*
X158689430Y-86345784D01*
X159059223Y-86385429D01*
X159276167Y-86430508D01*
X159750918Y-86593037D01*
X160194521Y-86821286D01*
X160597445Y-87107073D01*
X160950162Y-87442215D01*
X161243141Y-87818533D01*
X161466851Y-88227843D01*
X161519134Y-88356116D01*
X161644991Y-88804083D01*
X161690800Y-89253744D01*
X167918983Y-89253744D01*
X167921076Y-89082221D01*
X167932263Y-88906038D01*
X167955846Y-88757156D01*
X167995865Y-88606948D01*
X168034737Y-88488833D01*
X168148228Y-88192724D01*
X168274404Y-87941672D01*
X168429119Y-87711006D01*
X168628221Y-87476057D01*
X168799093Y-87299221D01*
X168985548Y-87118858D01*
X169141372Y-86984496D01*
X169291140Y-86877941D01*
X169459428Y-86780999D01*
X169585928Y-86716719D01*
X169958171Y-86550599D01*
X170302173Y-86437951D01*
X170648684Y-86371512D01*
X171028457Y-86344021D01*
X171171834Y-86342257D01*
X171721317Y-86380291D01*
X172233727Y-86494326D01*
X172708789Y-86684255D01*
X173146232Y-86949977D01*
X173472522Y-87220440D01*
X173815278Y-87585948D01*
X174078946Y-87966515D01*
X174268958Y-88372242D01*
X174390747Y-88813229D01*
X174418440Y-88979036D01*
X174440677Y-89427760D01*
X179913667Y-89427760D01*
X179913667Y-87443715D01*
X179913602Y-86532979D01*
X179913383Y-85703000D01*
X179912974Y-84949870D01*
X179912339Y-84269678D01*
X179911443Y-83658515D01*
X179910249Y-83112473D01*
X179908722Y-82627641D01*
X179906827Y-82200110D01*
X179904527Y-81825972D01*
X179901786Y-81501317D01*
X179898569Y-81222235D01*
X179894840Y-80984817D01*
X179890564Y-80785154D01*
X179885704Y-80619336D01*
X179880224Y-80483455D01*
X179874089Y-80373601D01*
X179867263Y-80285865D01*
X179859711Y-80216336D01*
X179851396Y-80161107D01*
X179846770Y-80136798D01*
X179703082Y-79640722D01*
X179485311Y-79181535D01*
X179198133Y-78765051D01*
X178846222Y-78397085D01*
X178434254Y-78083451D01*
X178006255Y-77847907D01*
X177897461Y-77796721D01*
X177801318Y-77751272D01*
X177712404Y-77711205D01*
X177625301Y-77676167D01*
X177534588Y-77645804D01*
X177434846Y-77619763D01*
X177320657Y-77597690D01*
X177186599Y-77579232D01*
X177027253Y-77564034D01*
X176837200Y-77551744D01*
X176611020Y-77542008D01*
X176343294Y-77534472D01*
X176028601Y-77528783D01*
X175661523Y-77524587D01*
X175236639Y-77521530D01*
X174748530Y-77519260D01*
X174191777Y-77517423D01*
X173560959Y-77515664D01*
X172883732Y-77513731D01*
X168668964Y-77500993D01*
X168448212Y-77277465D01*
X168227461Y-77053936D01*
X170239964Y-74129429D01*
X172252467Y-71204921D01*
X172431817Y-71246359D01*
X172717893Y-71272301D01*
X173018192Y-71229562D01*
X173309098Y-71125203D01*
X173566995Y-70966284D01*
X173668089Y-70876755D01*
X173866643Y-70624449D01*
X173991899Y-70335440D01*
X174046269Y-70003576D01*
X174049113Y-69904500D01*
X174044509Y-69711080D01*
X174024541Y-69566295D01*
X173981997Y-69434505D01*
X173931756Y-69324422D01*
X173789276Y-69099989D01*
X173599930Y-68895205D01*
X173386924Y-68731713D01*
X173196047Y-68638395D01*
X173039345Y-68601668D01*
X172838751Y-68577613D01*
X172673888Y-68571000D01*
X172484607Y-68576597D01*
G36*
X180718000Y-90372666D02*
X183131000Y-90372666D01*
X183131000Y-89256159D01*
X183247417Y-89364740D01*
X183405754Y-89489737D01*
X183557450Y-89552861D01*
X183710301Y-89568175D01*
X183911616Y-89526481D01*
X184102638Y-89404379D01*
X184281224Y-89205737D01*
X184445227Y-88934420D01*
X184592502Y-88594294D01*
X184720906Y-88189227D01*
X184828293Y-87723084D01*
X184872706Y-87472833D01*
X184899553Y-87240099D01*
X184917481Y-86944185D01*
X184926693Y-86606083D01*
X184927389Y-86246787D01*
X184919773Y-85887290D01*
X184904046Y-85548584D01*
X184880411Y-85251664D01*
X184849070Y-85017522D01*
X184849066Y-85017500D01*
X184742304Y-84521757D01*
X184612378Y-84091093D01*
X184461129Y-83729507D01*
X184290398Y-83440998D01*
X184102028Y-83229566D01*
X183986540Y-83144506D01*
X183788408Y-83061292D01*
X183598007Y-83059499D01*
X183408840Y-83140099D01*
X183267442Y-83251847D01*
X183131000Y-83379302D01*
X183131000Y-82244666D01*
X180718000Y-82244666D01*
X180718000Y-90372666D01*
X180718000Y-90372666D01*
G37*
X180718000Y-90372666D02*
X183131000Y-90372666D01*
X183131000Y-89256159D01*
X183247417Y-89364740D01*
X183405754Y-89489737D01*
X183557450Y-89552861D01*
X183710301Y-89568175D01*
X183911616Y-89526481D01*
X184102638Y-89404379D01*
X184281224Y-89205737D01*
X184445227Y-88934420D01*
X184592502Y-88594294D01*
X184720906Y-88189227D01*
X184828293Y-87723084D01*
X184872706Y-87472833D01*
X184899553Y-87240099D01*
X184917481Y-86944185D01*
X184926693Y-86606083D01*
X184927389Y-86246787D01*
X184919773Y-85887290D01*
X184904046Y-85548584D01*
X184880411Y-85251664D01*
X184849070Y-85017522D01*
X184849066Y-85017500D01*
X184742304Y-84521757D01*
X184612378Y-84091093D01*
X184461129Y-83729507D01*
X184290398Y-83440998D01*
X184102028Y-83229566D01*
X183986540Y-83144506D01*
X183788408Y-83061292D01*
X183598007Y-83059499D01*
X183408840Y-83140099D01*
X183267442Y-83251847D01*
X183131000Y-83379302D01*
X183131000Y-82244666D01*
X180718000Y-82244666D01*
X180718000Y-90372666D01*
G36*
X146003380Y-82826750D02*
X146000764Y-83071202D01*
X145993911Y-83235748D01*
X145982418Y-83325058D01*
X145965881Y-83343806D01*
X145959402Y-83335571D01*
X145879507Y-83252324D01*
X145749657Y-83165862D01*
X145602019Y-83093565D01*
X145468763Y-83052817D01*
X145429448Y-83049216D01*
X145234314Y-83091039D01*
X145046723Y-83212642D01*
X144869433Y-83409275D01*
X144705203Y-83676188D01*
X144556791Y-84008631D01*
X144426955Y-84401852D01*
X144318454Y-84851102D01*
X144286602Y-85017500D01*
X144255369Y-85251015D01*
X144231783Y-85547615D01*
X144216052Y-85886254D01*
X144208382Y-86245885D01*
X144208981Y-86605463D01*
X144218058Y-86943940D01*
X144235820Y-87240271D01*
X144262381Y-87472833D01*
X144350317Y-87926715D01*
X144461140Y-88341016D01*
X144591283Y-88707662D01*
X144737179Y-89018581D01*
X144895261Y-89265702D01*
X145061961Y-89440951D01*
X145160941Y-89506353D01*
X145321860Y-89556284D01*
X145503171Y-89564287D01*
X145661656Y-89529155D01*
X145679367Y-89520827D01*
X145773934Y-89459051D01*
X145879723Y-89372596D01*
X145888250Y-89364740D01*
X146004667Y-89256159D01*
X146004667Y-90372666D01*
X148417667Y-90372666D01*
X148417667Y-82244666D01*
X146004667Y-82244666D01*
X146003380Y-82826750D01*
X146003380Y-82826750D01*
G37*
X146003380Y-82826750D02*
X146000764Y-83071202D01*
X145993911Y-83235748D01*
X145982418Y-83325058D01*
X145965881Y-83343806D01*
X145959402Y-83335571D01*
X145879507Y-83252324D01*
X145749657Y-83165862D01*
X145602019Y-83093565D01*
X145468763Y-83052817D01*
X145429448Y-83049216D01*
X145234314Y-83091039D01*
X145046723Y-83212642D01*
X144869433Y-83409275D01*
X144705203Y-83676188D01*
X144556791Y-84008631D01*
X144426955Y-84401852D01*
X144318454Y-84851102D01*
X144286602Y-85017500D01*
X144255369Y-85251015D01*
X144231783Y-85547615D01*
X144216052Y-85886254D01*
X144208382Y-86245885D01*
X144208981Y-86605463D01*
X144218058Y-86943940D01*
X144235820Y-87240271D01*
X144262381Y-87472833D01*
X144350317Y-87926715D01*
X144461140Y-88341016D01*
X144591283Y-88707662D01*
X144737179Y-89018581D01*
X144895261Y-89265702D01*
X145061961Y-89440951D01*
X145160941Y-89506353D01*
X145321860Y-89556284D01*
X145503171Y-89564287D01*
X145661656Y-89529155D01*
X145679367Y-89520827D01*
X145773934Y-89459051D01*
X145879723Y-89372596D01*
X145888250Y-89364740D01*
X146004667Y-89256159D01*
X146004667Y-90372666D01*
X148417667Y-90372666D01*
X148417667Y-82244666D01*
X146004667Y-82244666D01*
X146003380Y-82826750D01*
G36*
X170991810Y-88360238D02*
X170622253Y-88416322D01*
X170269731Y-88526290D01*
X169944701Y-88688341D01*
X169657621Y-88900678D01*
X169418950Y-89161500D01*
X169239146Y-89469009D01*
X169202851Y-89557661D01*
X169133485Y-89839101D01*
X169116421Y-90150774D01*
X169150171Y-90461939D01*
X169233246Y-90741860D01*
X169263328Y-90806890D01*
X169458177Y-91102377D01*
X169721083Y-91364858D01*
X170038439Y-91583669D01*
X170396637Y-91748144D01*
X170512767Y-91786112D01*
X170705349Y-91824131D01*
X170951708Y-91845612D01*
X171222571Y-91850489D01*
X171488665Y-91838694D01*
X171720720Y-91810163D01*
X171816801Y-91789072D01*
X172182948Y-91651768D01*
X172512991Y-91451350D01*
X172793782Y-91198193D01*
X173012174Y-90902673D01*
X173065230Y-90803919D01*
X173129782Y-90666126D01*
X173170471Y-90552622D01*
X173192744Y-90435674D01*
X173202047Y-90287548D01*
X173203834Y-90098151D01*
X173201369Y-89893421D01*
X173190738Y-89746484D01*
X173167088Y-89630529D01*
X173125566Y-89518747D01*
X173082256Y-89426563D01*
X172986237Y-89266119D01*
X172855262Y-89091023D01*
X172729079Y-88951033D01*
X172431221Y-88710714D01*
X172098107Y-88533275D01*
X171740195Y-88416915D01*
X171367943Y-88359836D01*
X170991810Y-88360238D01*
X170991810Y-88360238D01*
G37*
X170991810Y-88360238D02*
X170622253Y-88416322D01*
X170269731Y-88526290D01*
X169944701Y-88688341D01*
X169657621Y-88900678D01*
X169418950Y-89161500D01*
X169239146Y-89469009D01*
X169202851Y-89557661D01*
X169133485Y-89839101D01*
X169116421Y-90150774D01*
X169150171Y-90461939D01*
X169233246Y-90741860D01*
X169263328Y-90806890D01*
X169458177Y-91102377D01*
X169721083Y-91364858D01*
X170038439Y-91583669D01*
X170396637Y-91748144D01*
X170512767Y-91786112D01*
X170705349Y-91824131D01*
X170951708Y-91845612D01*
X171222571Y-91850489D01*
X171488665Y-91838694D01*
X171720720Y-91810163D01*
X171816801Y-91789072D01*
X172182948Y-91651768D01*
X172512991Y-91451350D01*
X172793782Y-91198193D01*
X173012174Y-90902673D01*
X173065230Y-90803919D01*
X173129782Y-90666126D01*
X173170471Y-90552622D01*
X173192744Y-90435674D01*
X173202047Y-90287548D01*
X173203834Y-90098151D01*
X173201369Y-89893421D01*
X173190738Y-89746484D01*
X173167088Y-89630529D01*
X173125566Y-89518747D01*
X173082256Y-89426563D01*
X172986237Y-89266119D01*
X172855262Y-89091023D01*
X172729079Y-88951033D01*
X172431221Y-88710714D01*
X172098107Y-88533275D01*
X171740195Y-88416915D01*
X171367943Y-88359836D01*
X170991810Y-88360238D01*
G36*
X157937241Y-88402459D02*
X157570583Y-88509581D01*
X157233505Y-88672238D01*
X156936267Y-88887142D01*
X156689128Y-89151007D01*
X156502347Y-89460545D01*
X156457142Y-89568333D01*
X156390343Y-89840919D01*
X156374129Y-90146891D01*
X156406864Y-90454521D01*
X156486914Y-90732082D01*
X156520995Y-90806890D01*
X156715843Y-91102377D01*
X156978750Y-91364858D01*
X157296106Y-91583669D01*
X157654304Y-91748144D01*
X157770434Y-91786112D01*
X157963016Y-91824131D01*
X158209375Y-91845612D01*
X158480237Y-91850489D01*
X158746332Y-91838694D01*
X158978386Y-91810163D01*
X159074468Y-91789072D01*
X159440614Y-91651768D01*
X159770657Y-91451350D01*
X160051449Y-91198193D01*
X160269841Y-90902673D01*
X160322896Y-90803919D01*
X160387448Y-90666126D01*
X160428138Y-90552622D01*
X160450410Y-90435674D01*
X160459714Y-90287548D01*
X160461500Y-90098151D01*
X160459035Y-89893421D01*
X160448405Y-89746484D01*
X160424755Y-89630529D01*
X160383233Y-89518747D01*
X160339922Y-89426563D01*
X160179765Y-89173900D01*
X159960738Y-88931105D01*
X159707422Y-88722354D01*
X159494490Y-88595073D01*
X159112104Y-88447180D01*
X158718261Y-88367971D01*
X158323221Y-88354160D01*
X157937241Y-88402459D01*
X157937241Y-88402459D01*
G37*
X157937241Y-88402459D02*
X157570583Y-88509581D01*
X157233505Y-88672238D01*
X156936267Y-88887142D01*
X156689128Y-89151007D01*
X156502347Y-89460545D01*
X156457142Y-89568333D01*
X156390343Y-89840919D01*
X156374129Y-90146891D01*
X156406864Y-90454521D01*
X156486914Y-90732082D01*
X156520995Y-90806890D01*
X156715843Y-91102377D01*
X156978750Y-91364858D01*
X157296106Y-91583669D01*
X157654304Y-91748144D01*
X157770434Y-91786112D01*
X157963016Y-91824131D01*
X158209375Y-91845612D01*
X158480237Y-91850489D01*
X158746332Y-91838694D01*
X158978386Y-91810163D01*
X159074468Y-91789072D01*
X159440614Y-91651768D01*
X159770657Y-91451350D01*
X160051449Y-91198193D01*
X160269841Y-90902673D01*
X160322896Y-90803919D01*
X160387448Y-90666126D01*
X160428138Y-90552622D01*
X160450410Y-90435674D01*
X160459714Y-90287548D01*
X160461500Y-90098151D01*
X160459035Y-89893421D01*
X160448405Y-89746484D01*
X160424755Y-89630529D01*
X160383233Y-89518747D01*
X160339922Y-89426563D01*
X160179765Y-89173900D01*
X159960738Y-88931105D01*
X159707422Y-88722354D01*
X159494490Y-88595073D01*
X159112104Y-88447180D01*
X158718261Y-88367971D01*
X158323221Y-88354160D01*
X157937241Y-88402459D01*
D13*
X182301060Y-127498800D02*
X182301060Y-121301200D01*
X182199460Y-121301200D02*
X182199460Y-127498800D01*
X182100400Y-127498800D02*
X182100400Y-121301200D01*
X181998800Y-121301200D02*
X181998800Y-127498800D01*
X181899740Y-127498800D02*
X181899740Y-121301200D01*
X181800680Y-121301200D02*
X181800680Y-127498800D01*
X181699080Y-127498800D02*
X181699080Y-121301200D01*
X175402420Y-127498800D02*
X182397580Y-127498800D01*
X182400120Y-127498800D02*
X182400120Y-121301200D01*
X182400120Y-121301200D02*
X175399880Y-121301200D01*
X175399880Y-121301200D02*
X175399880Y-127498800D01*
D14*
X126920000Y-65670000D02*
X126920000Y-64120000D01*
X129740000Y-62850000D02*
X129740000Y-65390000D01*
X127200000Y-62850000D02*
X129740000Y-62850000D01*
X128470000Y-65670000D02*
X126920000Y-65670000D01*
X127200000Y-60310000D02*
X127200000Y-62850000D01*
X178000000Y-60310000D02*
X178000000Y-65390000D01*
X129740000Y-65390000D02*
X178000000Y-65390000D01*
X178000000Y-60310000D02*
X127200000Y-60310000D01*
X160820000Y-127570000D02*
X163120000Y-127570000D01*
X163120000Y-130770000D02*
X160820000Y-130770000D01*
X167802340Y-130775280D02*
X165516340Y-130775280D01*
X165516340Y-127564720D02*
X167802340Y-127564720D01*
X160820000Y-130770000D02*
X160820000Y-127570000D01*
X167820120Y-130770200D02*
X167820120Y-127569800D01*
X161020000Y-130770000D02*
X161020000Y-127570000D01*
D11*
X143800000Y-73100000D02*
G75*
G03X143800000Y-73100000I-6100000J0D01*
G01*
D13*
X187501200Y-125901060D02*
X193698800Y-125901060D01*
X193698800Y-125799460D02*
X187501200Y-125799460D01*
X187501200Y-125700400D02*
X193698800Y-125700400D01*
X193698800Y-125598800D02*
X187501200Y-125598800D01*
X187501200Y-125499740D02*
X193698800Y-125499740D01*
X193698800Y-125400680D02*
X187501200Y-125400680D01*
X187501200Y-125299080D02*
X193698800Y-125299080D01*
X187501200Y-119002420D02*
X187501200Y-125997580D01*
X187501200Y-126000120D02*
X193698800Y-126000120D01*
X193698800Y-126000120D02*
X193698800Y-118999880D01*
X193698800Y-118999880D02*
X187501200Y-118999880D01*
D15*
X180389226Y-124102535D02*
X180317743Y-124126362D01*
X180198605Y-124126362D01*
X180150949Y-124102535D01*
X180127122Y-124078707D01*
X180103294Y-124031052D01*
X180103294Y-123983397D01*
X180127122Y-123935741D01*
X180150949Y-123911914D01*
X180198605Y-123888086D01*
X180293915Y-123864259D01*
X180341570Y-123840431D01*
X180365398Y-123816603D01*
X180389226Y-123768948D01*
X180389226Y-123721293D01*
X180365398Y-123673638D01*
X180341570Y-123649810D01*
X180293915Y-123625982D01*
X180174777Y-123625982D01*
X180103294Y-123649810D01*
X179674397Y-124102535D02*
X179722053Y-124126362D01*
X179817363Y-124126362D01*
X179865018Y-124102535D01*
X179888846Y-124078707D01*
X179912674Y-124031052D01*
X179912674Y-123888086D01*
X179888846Y-123840431D01*
X179865018Y-123816603D01*
X179817363Y-123792776D01*
X179722053Y-123792776D01*
X179674397Y-123816603D01*
X179459949Y-124126362D02*
X179459949Y-123625982D01*
X179245500Y-124126362D02*
X179245500Y-123864259D01*
X179269328Y-123816603D01*
X179316983Y-123792776D01*
X179388466Y-123792776D01*
X179436121Y-123816603D01*
X179459949Y-123840431D01*
X178935741Y-124126362D02*
X178983396Y-124102535D01*
X179007224Y-124078707D01*
X179031052Y-124031052D01*
X179031052Y-123888086D01*
X179007224Y-123840431D01*
X178983396Y-123816603D01*
X178935741Y-123792776D01*
X178864258Y-123792776D01*
X178816603Y-123816603D01*
X178792775Y-123840431D01*
X178768948Y-123888086D01*
X178768948Y-124031052D01*
X178792775Y-124078707D01*
X178816603Y-124102535D01*
X178864258Y-124126362D01*
X178935741Y-124126362D01*
X178625982Y-123792776D02*
X178435361Y-123792776D01*
X178554499Y-123625982D02*
X178554499Y-124054880D01*
X178530671Y-124102535D01*
X178483016Y-124126362D01*
X178435361Y-124126362D01*
X178340051Y-123792776D02*
X178149430Y-123792776D01*
X178268568Y-123625982D02*
X178268568Y-124054880D01*
X178244740Y-124102535D01*
X178197085Y-124126362D01*
X178149430Y-124126362D01*
X177982637Y-124126362D02*
X177982637Y-123625982D01*
X177934982Y-123935741D02*
X177792016Y-124126362D01*
X177792016Y-123792776D02*
X177982637Y-123983397D01*
X177625222Y-123792776D02*
X177506084Y-124126362D01*
X177386946Y-123792776D02*
X177506084Y-124126362D01*
X177553739Y-124245500D01*
X177577567Y-124269328D01*
X177625222Y-124293156D01*
X179817363Y-125126362D02*
X179817363Y-124625982D01*
X179698225Y-124625982D01*
X179626742Y-124649810D01*
X179579087Y-124697465D01*
X179555259Y-124745120D01*
X179531431Y-124840431D01*
X179531431Y-124911914D01*
X179555259Y-125007224D01*
X179579087Y-125054880D01*
X179626742Y-125102535D01*
X179698225Y-125126362D01*
X179817363Y-125126362D01*
X179316983Y-125126362D02*
X179316983Y-124792776D01*
X179316983Y-124625982D02*
X179340811Y-124649810D01*
X179316983Y-124673638D01*
X179293155Y-124649810D01*
X179316983Y-124625982D01*
X179316983Y-124673638D01*
X179007224Y-125126362D02*
X179054879Y-125102535D01*
X179078707Y-125078707D01*
X179102535Y-125031052D01*
X179102535Y-124888086D01*
X179078707Y-124840431D01*
X179054879Y-124816603D01*
X179007224Y-124792776D01*
X178935741Y-124792776D01*
X178888086Y-124816603D01*
X178864258Y-124840431D01*
X178840431Y-124888086D01*
X178840431Y-125031052D01*
X178864258Y-125078707D01*
X178888086Y-125102535D01*
X178935741Y-125126362D01*
X179007224Y-125126362D01*
X178411533Y-125126362D02*
X178411533Y-124625982D01*
X178411533Y-125102535D02*
X178459189Y-125126362D01*
X178554499Y-125126362D01*
X178602154Y-125102535D01*
X178625982Y-125078707D01*
X178649810Y-125031052D01*
X178649810Y-124888086D01*
X178625982Y-124840431D01*
X178602154Y-124816603D01*
X178554499Y-124792776D01*
X178459189Y-124792776D01*
X178411533Y-124816603D01*
X177982636Y-125102535D02*
X178030291Y-125126362D01*
X178125602Y-125126362D01*
X178173257Y-125102535D01*
X178197085Y-125054880D01*
X178197085Y-124864259D01*
X178173257Y-124816603D01*
X178125602Y-124792776D01*
X178030291Y-124792776D01*
X177982636Y-124816603D01*
X177958808Y-124864259D01*
X177958808Y-124911914D01*
X178197085Y-124959569D01*
D14*
X164653333Y-129798571D02*
X164986667Y-129798571D01*
X164986667Y-130322381D02*
X164986667Y-129322381D01*
X164510476Y-129322381D01*
X163605714Y-130322381D02*
X164177143Y-130322381D01*
X163891429Y-130322381D02*
X163891429Y-129322381D01*
X163986667Y-129465238D01*
X164081905Y-129560476D01*
X164177143Y-129608095D01*
D15*
X191302535Y-121010774D02*
X191326362Y-121082257D01*
X191326362Y-121201395D01*
X191302535Y-121249051D01*
X191278707Y-121272878D01*
X191231052Y-121296706D01*
X191183397Y-121296706D01*
X191135741Y-121272878D01*
X191111914Y-121249051D01*
X191088086Y-121201395D01*
X191064259Y-121106085D01*
X191040431Y-121058430D01*
X191016603Y-121034602D01*
X190968948Y-121010774D01*
X190921293Y-121010774D01*
X190873638Y-121034602D01*
X190849810Y-121058430D01*
X190825982Y-121106085D01*
X190825982Y-121225223D01*
X190849810Y-121296706D01*
X191302535Y-121725603D02*
X191326362Y-121677947D01*
X191326362Y-121582637D01*
X191302535Y-121534982D01*
X191278707Y-121511154D01*
X191231052Y-121487326D01*
X191088086Y-121487326D01*
X191040431Y-121511154D01*
X191016603Y-121534982D01*
X190992776Y-121582637D01*
X190992776Y-121677947D01*
X191016603Y-121725603D01*
X191326362Y-121940051D02*
X190825982Y-121940051D01*
X191326362Y-122154500D02*
X191064259Y-122154500D01*
X191016603Y-122130672D01*
X190992776Y-122083017D01*
X190992776Y-122011534D01*
X191016603Y-121963879D01*
X191040431Y-121940051D01*
X191326362Y-122464259D02*
X191302535Y-122416604D01*
X191278707Y-122392776D01*
X191231052Y-122368948D01*
X191088086Y-122368948D01*
X191040431Y-122392776D01*
X191016603Y-122416604D01*
X190992776Y-122464259D01*
X190992776Y-122535742D01*
X191016603Y-122583397D01*
X191040431Y-122607225D01*
X191088086Y-122631052D01*
X191231052Y-122631052D01*
X191278707Y-122607225D01*
X191302535Y-122583397D01*
X191326362Y-122535742D01*
X191326362Y-122464259D01*
X190992776Y-122774018D02*
X190992776Y-122964639D01*
X190825982Y-122845501D02*
X191254880Y-122845501D01*
X191302535Y-122869329D01*
X191326362Y-122916984D01*
X191326362Y-122964639D01*
X190992776Y-123059949D02*
X190992776Y-123250570D01*
X190825982Y-123131432D02*
X191254880Y-123131432D01*
X191302535Y-123155260D01*
X191326362Y-123202915D01*
X191326362Y-123250570D01*
X191326362Y-123417363D02*
X190825982Y-123417363D01*
X191135741Y-123465018D02*
X191326362Y-123607984D01*
X190992776Y-123607984D02*
X191183397Y-123417363D01*
X190992776Y-123774778D02*
X191326362Y-123893916D01*
X190992776Y-124013054D02*
X191326362Y-123893916D01*
X191445500Y-123846261D01*
X191469328Y-123822433D01*
X191493156Y-123774778D01*
X190326362Y-121582637D02*
X189825982Y-121582637D01*
X189825982Y-121701775D01*
X189849810Y-121773258D01*
X189897465Y-121820913D01*
X189945120Y-121844741D01*
X190040431Y-121868569D01*
X190111914Y-121868569D01*
X190207224Y-121844741D01*
X190254880Y-121820913D01*
X190302535Y-121773258D01*
X190326362Y-121701775D01*
X190326362Y-121582637D01*
X190326362Y-122083017D02*
X189992776Y-122083017D01*
X189825982Y-122083017D02*
X189849810Y-122059189D01*
X189873638Y-122083017D01*
X189849810Y-122106845D01*
X189825982Y-122083017D01*
X189873638Y-122083017D01*
X190326362Y-122392776D02*
X190302535Y-122345121D01*
X190278707Y-122321293D01*
X190231052Y-122297465D01*
X190088086Y-122297465D01*
X190040431Y-122321293D01*
X190016603Y-122345121D01*
X189992776Y-122392776D01*
X189992776Y-122464259D01*
X190016603Y-122511914D01*
X190040431Y-122535742D01*
X190088086Y-122559569D01*
X190231052Y-122559569D01*
X190278707Y-122535742D01*
X190302535Y-122511914D01*
X190326362Y-122464259D01*
X190326362Y-122392776D01*
X190326362Y-122988467D02*
X189825982Y-122988467D01*
X190302535Y-122988467D02*
X190326362Y-122940811D01*
X190326362Y-122845501D01*
X190302535Y-122797846D01*
X190278707Y-122774018D01*
X190231052Y-122750190D01*
X190088086Y-122750190D01*
X190040431Y-122774018D01*
X190016603Y-122797846D01*
X189992776Y-122845501D01*
X189992776Y-122940811D01*
X190016603Y-122988467D01*
X190302535Y-123417364D02*
X190326362Y-123369709D01*
X190326362Y-123274398D01*
X190302535Y-123226743D01*
X190254880Y-123202915D01*
X190064259Y-123202915D01*
X190016603Y-123226743D01*
X189992776Y-123274398D01*
X189992776Y-123369709D01*
X190016603Y-123417364D01*
X190064259Y-123441192D01*
X190111914Y-123441192D01*
X190159569Y-123202915D01*
%LPC*%
D16*
X168200000Y-134500000D03*
D17*
X165660000Y-134500000D03*
D18*
X179500000Y-88400000D03*
D19*
X185000000Y-88400000D03*
D20*
X169350000Y-68050000D03*
X166810000Y-68050000D03*
X164270000Y-68050000D03*
X161730000Y-68050000D03*
X159190000Y-68050000D03*
X156650000Y-68050000D03*
X154110000Y-68050000D03*
X151570000Y-68050000D03*
X149030000Y-68050000D03*
X146490000Y-68050000D03*
X143950000Y-68050000D03*
X141410000Y-68050000D03*
X138870000Y-68050000D03*
X136330000Y-68050000D03*
X133790000Y-68050000D03*
X131250000Y-68050000D03*
D21*
X200950000Y-99250000D03*
X200950000Y-67850000D03*
X125550000Y-67850000D03*
D22*
X179790000Y-85220000D03*
D23*
X179790000Y-82680000D03*
X182330000Y-85220000D03*
X182330000Y-82680000D03*
X184870000Y-85220000D03*
X184870000Y-82680000D03*
X187410000Y-85220000D03*
X187410000Y-82680000D03*
X189950000Y-85220000D03*
X189950000Y-82680000D03*
D24*
X182298520Y-124400000D03*
X175501480Y-124400000D03*
D25*
X150630000Y-71650000D03*
D16*
X140470000Y-71650000D03*
D26*
X181600000Y-111850000D03*
D27*
X123600000Y-62850000D03*
D26*
X123600000Y-111850000D03*
D28*
X201900000Y-125240000D03*
D17*
X201900000Y-122700000D03*
D16*
X203580000Y-132000000D03*
X198500000Y-132000000D03*
X193420000Y-132000000D03*
X184580000Y-132000000D03*
X179500000Y-132000000D03*
X174420000Y-132000000D03*
D29*
X162249360Y-109499360D03*
X159750000Y-104500640D03*
X157250640Y-109499360D03*
X153149360Y-108549360D03*
X150650000Y-103550640D03*
X148150640Y-108549360D03*
D23*
X176730000Y-61580000D03*
X176730000Y-64120000D03*
X174190000Y-61580000D03*
X174190000Y-64120000D03*
X171650000Y-61580000D03*
X171650000Y-64120000D03*
X169110000Y-61580000D03*
X169110000Y-64120000D03*
X166570000Y-61580000D03*
X166570000Y-64120000D03*
X164030000Y-61580000D03*
X164030000Y-64120000D03*
X161490000Y-61580000D03*
X161490000Y-64120000D03*
X158950000Y-61580000D03*
X158950000Y-64120000D03*
X156410000Y-61580000D03*
X156410000Y-64120000D03*
X153870000Y-61580000D03*
X153870000Y-64120000D03*
X151330000Y-61580000D03*
X151330000Y-64120000D03*
X148790000Y-61580000D03*
X148790000Y-64120000D03*
X146250000Y-61580000D03*
X146250000Y-64120000D03*
X143710000Y-61580000D03*
X143710000Y-64120000D03*
X141170000Y-61580000D03*
X141170000Y-64120000D03*
X138630000Y-61580000D03*
X138630000Y-64120000D03*
X136090000Y-61580000D03*
X136090000Y-64120000D03*
X133550000Y-61580000D03*
X133550000Y-64120000D03*
X131010000Y-61580000D03*
X131010000Y-64120000D03*
X128470000Y-61580000D03*
X128470000Y-64120000D03*
D30*
X182220000Y-117700000D03*
X184760000Y-117700000D03*
D31*
X187300000Y-117700000D03*
D16*
X185890000Y-71000000D03*
X168110000Y-71000000D03*
X197540000Y-91700000D03*
X179760000Y-91700000D03*
D20*
X142920000Y-76440000D03*
X145460000Y-76440000D03*
X148000000Y-76440000D03*
X150540000Y-76440000D03*
X153080000Y-76440000D03*
X155620000Y-76440000D03*
X158160000Y-76440000D03*
X160700000Y-76440000D03*
X163240000Y-76440000D03*
X165780000Y-76440000D03*
X165780000Y-84060000D03*
X163240000Y-84060000D03*
X160700000Y-84060000D03*
X158160000Y-84060000D03*
X155620000Y-84060000D03*
X153080000Y-84060000D03*
X150540000Y-84060000D03*
X148000000Y-84060000D03*
X145460000Y-84060000D03*
X142920000Y-84060000D03*
D32*
X194760000Y-115400000D03*
D33*
X197300000Y-115400000D03*
D32*
X133760000Y-106900000D03*
D33*
X136300000Y-106900000D03*
X133700000Y-102300000D03*
D32*
X136240000Y-102300000D03*
X192040000Y-106200000D03*
D33*
X189500000Y-106200000D03*
X192100000Y-101800000D03*
D32*
X189560000Y-101800000D03*
D17*
X131000000Y-93270000D03*
D34*
X131000000Y-95810000D03*
D28*
X131000000Y-98350000D03*
D16*
X175300000Y-103600000D03*
X185460000Y-103600000D03*
X139300000Y-113200000D03*
X139300000Y-103040000D03*
X154950000Y-90150000D03*
X165110000Y-90150000D03*
X154950000Y-87150000D03*
X165110000Y-87150000D03*
X203800000Y-108600000D03*
X203800000Y-118760000D03*
D34*
X131000000Y-88750000D03*
X131000000Y-86210000D03*
X131000000Y-83670000D03*
D35*
X131000000Y-81130000D03*
D23*
X176640000Y-119740000D03*
X174100000Y-119740000D03*
X176640000Y-117200000D03*
D22*
X174100000Y-117200000D03*
D36*
X188850000Y-111000000D03*
D37*
X188850000Y-113000000D03*
D17*
X131000000Y-72000000D03*
D34*
X131000000Y-74540000D03*
D28*
X131000000Y-77080000D03*
D17*
X131000000Y-102960000D03*
D28*
X131000000Y-105500000D03*
X195000000Y-105540000D03*
D17*
X195000000Y-103000000D03*
D36*
X136350000Y-130850000D03*
X136350000Y-118150000D03*
X123650000Y-118150000D03*
X123650000Y-130850000D03*
D38*
X133810000Y-119928000D03*
X126190000Y-119928000D03*
D39*
X127460000Y-124500000D03*
X132540000Y-124500000D03*
X130000000Y-124500000D03*
D36*
X170350000Y-130850000D03*
X170350000Y-118150000D03*
X157650000Y-118150000D03*
X157650000Y-130850000D03*
D38*
X167810000Y-119928000D03*
X160190000Y-119928000D03*
D39*
X161460000Y-124500000D03*
X166540000Y-124500000D03*
X164000000Y-124500000D03*
D36*
X153350000Y-130850000D03*
X153350000Y-118150000D03*
X140650000Y-118150000D03*
X140650000Y-130850000D03*
D38*
X150810000Y-119928000D03*
X143190000Y-119928000D03*
D39*
X144460000Y-124500000D03*
X149540000Y-124500000D03*
X147000000Y-124500000D03*
D40*
X185600000Y-106220000D03*
X183060000Y-106220000D03*
X180520000Y-106220000D03*
X177980000Y-106220000D03*
X175440000Y-106220000D03*
X172900000Y-106220000D03*
X170360000Y-106220000D03*
X170360000Y-98600000D03*
X172900000Y-98600000D03*
X175440000Y-98600000D03*
X177980000Y-98600000D03*
X180520000Y-98600000D03*
X183060000Y-98600000D03*
X185600000Y-98600000D03*
D41*
X139100000Y-100000000D03*
D42*
X141640000Y-100000000D03*
X144180000Y-100000000D03*
X146720000Y-100000000D03*
X149260000Y-100000000D03*
X151800000Y-100000000D03*
X154340000Y-100000000D03*
X156880000Y-100000000D03*
X159420000Y-100000000D03*
X161960000Y-100000000D03*
D43*
X149900000Y-87850000D03*
D44*
X144900000Y-87850000D03*
D34*
X195000000Y-88620000D03*
X195000000Y-86080000D03*
X195000000Y-83540000D03*
D35*
X195000000Y-81000000D03*
D42*
X179790000Y-77600000D03*
X182330000Y-77600000D03*
X184870000Y-77600000D03*
X187410000Y-77600000D03*
D41*
X189950000Y-77600000D03*
D45*
X178158000Y-95814000D03*
D46*
X180698000Y-95814000D03*
X183238000Y-95814000D03*
X185778000Y-95814000D03*
X188318000Y-95814000D03*
X190858000Y-95814000D03*
X193398000Y-95814000D03*
X195938000Y-95814000D03*
D45*
X159420000Y-96400000D03*
D46*
X156880000Y-96400000D03*
X154340000Y-96400000D03*
X151800000Y-96400000D03*
X149260000Y-96400000D03*
X146720000Y-96400000D03*
X144180000Y-96400000D03*
X141640000Y-96400000D03*
D32*
X194760000Y-121600000D03*
D33*
X197300000Y-121600000D03*
D16*
X200750000Y-118760000D03*
X200750000Y-108600000D03*
D47*
X166720300Y-129170000D03*
X161919700Y-129170000D03*
D16*
X142570000Y-113320000D03*
X142570000Y-103160000D03*
D48*
X162590000Y-71120000D03*
D49*
X160050000Y-71120000D03*
D48*
X190770000Y-74400000D03*
D49*
X188230000Y-74400000D03*
D29*
X157765000Y-73575000D03*
X155860000Y-71035000D03*
X153955000Y-73575000D03*
X203705000Y-92055000D03*
X201165000Y-93960000D03*
X203705000Y-95865000D03*
D26*
X181600000Y-62850000D03*
D50*
X195000000Y-72000000D03*
D51*
X195000000Y-74540000D03*
X195000000Y-77080000D03*
D18*
X134450000Y-73100000D03*
D19*
X139950000Y-73100000D03*
D25*
X187440000Y-66150000D03*
D16*
X195060000Y-66150000D03*
D52*
X189120000Y-130300000D03*
X189120000Y-132900000D03*
X188120000Y-130950000D03*
X188120000Y-132250000D03*
X189120000Y-131600000D03*
D53*
X188900000Y-135100000D03*
X188900000Y-128100000D03*
D54*
X190600000Y-125898520D03*
X190600000Y-119101480D03*
D16*
X176200000Y-78240000D03*
X176200000Y-88400000D03*
X173500000Y-78240000D03*
X173500000Y-88400000D03*
X134000000Y-98760000D03*
X134000000Y-88600000D03*
X146960000Y-92800000D03*
X136800000Y-92800000D03*
X134000000Y-75940000D03*
X134000000Y-86100000D03*
X137000000Y-77140000D03*
X137000000Y-87300000D03*
M02*
