%TF.GenerationSoftware,KiCad,Pcbnew,4.0.5*%
%TF.CreationDate,2017-05-22T14:14:15+02:00*%
%TF.ProjectId,Echtzeitsystem,456368747A65697473797374656D2E6B,1.1*%
%TF.FileFunction,Soldermask,Top*%
%FSLAX46Y46*%
G04 Gerber Fmt 4.6, Leading zero omitted, Abs format (unit mm)*
G04 Created by KiCad (PCBNEW 4.0.5) date Mon May 22 14:14:15 2017*
%MOMM*%
%LPD*%
G01*
G04 APERTURE LIST*
%ADD10C,0.100000*%
%ADD11C,2.398980*%
%ADD12R,2.432000X2.432000*%
%ADD13C,1.900000*%
%ADD14O,5.700000X2.200000*%
%ADD15O,1.901140X2.599640*%
%ADD16C,2.900000*%
%ADD17R,2.127200X2.127200*%
%ADD18O,2.127200X2.127200*%
%ADD19R,2.099260X2.099260*%
%ADD20C,6.400000*%
%ADD21C,4.900000*%
%ADD22O,2.432000X2.432000*%
%ADD23C,2.150060*%
%ADD24O,1.900000X2.900000*%
%ADD25R,1.900000X2.900000*%
%ADD26C,2.400000*%
%ADD27R,2.400000X2.400000*%
%ADD28O,2.432000X2.127200*%
%ADD29R,2.432000X2.127200*%
%ADD30C,1.700000*%
%ADD31R,1.700000X1.700000*%
%ADD32O,3.448000X2.127200*%
%ADD33O,2.400000X2.400000*%
%ADD34O,2.000000X2.000000*%
%ADD35R,2.127200X2.432000*%
%ADD36O,2.127200X2.432000*%
%ADD37C,1.800000*%
%ADD38R,1.800000X1.800000*%
%ADD39R,1.924000X2.597100*%
%ADD40O,1.924000X2.597100*%
%ADD41R,1.924000X2.599640*%
%ADD42O,1.924000X2.599640*%
%ADD43R,2.100000X2.100000*%
%ADD44O,2.100000X2.100000*%
%ADD45C,1.400000*%
%ADD46O,1.950000X1.400000*%
%ADD47R,0.800000X8.400000*%
G04 APERTURE END LIST*
D10*
D11*
X168200000Y-134500000D03*
D12*
X165660000Y-134500000D03*
D13*
X179500000Y-88400000D03*
D14*
X185000000Y-88400000D03*
D15*
X169350000Y-68050000D03*
X166810000Y-68050000D03*
X164270000Y-68050000D03*
X161730000Y-68050000D03*
X159190000Y-68050000D03*
X156650000Y-68050000D03*
X154110000Y-68050000D03*
X151570000Y-68050000D03*
X149030000Y-68050000D03*
X146490000Y-68050000D03*
X143950000Y-68050000D03*
X141410000Y-68050000D03*
X138870000Y-68050000D03*
X136330000Y-68050000D03*
X133790000Y-68050000D03*
X131250000Y-68050000D03*
D16*
X200950000Y-99250000D03*
X200950000Y-67850000D03*
X125550000Y-67850000D03*
D17*
X179790000Y-85220000D03*
D18*
X179790000Y-82680000D03*
X182330000Y-85220000D03*
X182330000Y-82680000D03*
X184870000Y-85220000D03*
X184870000Y-82680000D03*
X187410000Y-85220000D03*
X187410000Y-82680000D03*
X189950000Y-85220000D03*
X189950000Y-82680000D03*
D19*
X150630000Y-71650000D03*
D11*
X140470000Y-71650000D03*
D20*
X181600000Y-111850000D03*
D21*
X123600000Y-62850000D03*
D20*
X123600000Y-111850000D03*
D22*
X201900000Y-125240000D03*
D12*
X201900000Y-122700000D03*
D11*
X203580000Y-132000000D03*
X198500000Y-132000000D03*
X193420000Y-132000000D03*
X184580000Y-132000000D03*
X179500000Y-132000000D03*
X174420000Y-132000000D03*
D23*
X162249360Y-109499360D03*
X159750000Y-104500640D03*
X157250640Y-109499360D03*
X153149360Y-108549360D03*
X150650000Y-103550640D03*
X148150640Y-108549360D03*
D18*
X176730000Y-61580000D03*
X176730000Y-64120000D03*
X174190000Y-61580000D03*
X174190000Y-64120000D03*
X171650000Y-61580000D03*
X171650000Y-64120000D03*
X169110000Y-61580000D03*
X169110000Y-64120000D03*
X166570000Y-61580000D03*
X166570000Y-64120000D03*
X164030000Y-61580000D03*
X164030000Y-64120000D03*
X161490000Y-61580000D03*
X161490000Y-64120000D03*
X158950000Y-61580000D03*
X158950000Y-64120000D03*
X156410000Y-61580000D03*
X156410000Y-64120000D03*
X153870000Y-61580000D03*
X153870000Y-64120000D03*
X151330000Y-61580000D03*
X151330000Y-64120000D03*
X148790000Y-61580000D03*
X148790000Y-64120000D03*
X146250000Y-61580000D03*
X146250000Y-64120000D03*
X143710000Y-61580000D03*
X143710000Y-64120000D03*
X141170000Y-61580000D03*
X141170000Y-64120000D03*
X138630000Y-61580000D03*
X138630000Y-64120000D03*
X136090000Y-61580000D03*
X136090000Y-64120000D03*
X133550000Y-61580000D03*
X133550000Y-64120000D03*
X131010000Y-61580000D03*
X131010000Y-64120000D03*
X128470000Y-61580000D03*
X128470000Y-64120000D03*
D24*
X182220000Y-117700000D03*
X184760000Y-117700000D03*
D25*
X187300000Y-117700000D03*
D11*
X185890000Y-71000000D03*
X168110000Y-71000000D03*
X197540000Y-91700000D03*
X179760000Y-91700000D03*
D15*
X142920000Y-76440000D03*
X145460000Y-76440000D03*
X148000000Y-76440000D03*
X150540000Y-76440000D03*
X153080000Y-76440000D03*
X155620000Y-76440000D03*
X158160000Y-76440000D03*
X160700000Y-76440000D03*
X163240000Y-76440000D03*
X165780000Y-76440000D03*
X165780000Y-84060000D03*
X163240000Y-84060000D03*
X160700000Y-84060000D03*
X158160000Y-84060000D03*
X155620000Y-84060000D03*
X153080000Y-84060000D03*
X150540000Y-84060000D03*
X148000000Y-84060000D03*
X145460000Y-84060000D03*
X142920000Y-84060000D03*
D26*
X194760000Y-115400000D03*
D27*
X197300000Y-115400000D03*
D26*
X133760000Y-106900000D03*
D27*
X136300000Y-106900000D03*
X133700000Y-102300000D03*
D26*
X136240000Y-102300000D03*
X192040000Y-106200000D03*
D27*
X189500000Y-106200000D03*
X192100000Y-101800000D03*
D26*
X189560000Y-101800000D03*
D12*
X131000000Y-93270000D03*
D28*
X131000000Y-95810000D03*
D22*
X131000000Y-98350000D03*
D11*
X175300000Y-103600000D03*
X185460000Y-103600000D03*
X139300000Y-113200000D03*
X139300000Y-103040000D03*
X154950000Y-90150000D03*
X165110000Y-90150000D03*
X154950000Y-87150000D03*
X165110000Y-87150000D03*
X203800000Y-108600000D03*
X203800000Y-118760000D03*
D28*
X131000000Y-88750000D03*
X131000000Y-86210000D03*
X131000000Y-83670000D03*
D29*
X131000000Y-81130000D03*
D18*
X176640000Y-119740000D03*
X174100000Y-119740000D03*
X176640000Y-117200000D03*
D17*
X174100000Y-117200000D03*
D30*
X188850000Y-111000000D03*
D31*
X188850000Y-113000000D03*
D12*
X131000000Y-72000000D03*
D28*
X131000000Y-74540000D03*
D22*
X131000000Y-77080000D03*
D12*
X131000000Y-102960000D03*
D22*
X131000000Y-105500000D03*
X195000000Y-105540000D03*
D12*
X195000000Y-103000000D03*
D30*
X136350000Y-130850000D03*
X136350000Y-118150000D03*
X123650000Y-118150000D03*
X123650000Y-130850000D03*
D32*
X133810000Y-119928000D03*
X126190000Y-119928000D03*
D33*
X127460000Y-124500000D03*
X132540000Y-124500000D03*
X130000000Y-124500000D03*
D30*
X170350000Y-130850000D03*
X170350000Y-118150000D03*
X157650000Y-118150000D03*
X157650000Y-130850000D03*
D32*
X167810000Y-119928000D03*
X160190000Y-119928000D03*
D33*
X161460000Y-124500000D03*
X166540000Y-124500000D03*
X164000000Y-124500000D03*
D30*
X153350000Y-130850000D03*
X153350000Y-118150000D03*
X140650000Y-118150000D03*
X140650000Y-130850000D03*
D32*
X150810000Y-119928000D03*
X143190000Y-119928000D03*
D33*
X144460000Y-124500000D03*
X149540000Y-124500000D03*
X147000000Y-124500000D03*
D34*
X185600000Y-106220000D03*
X183060000Y-106220000D03*
X180520000Y-106220000D03*
X177980000Y-106220000D03*
X175440000Y-106220000D03*
X172900000Y-106220000D03*
X170360000Y-106220000D03*
X170360000Y-98600000D03*
X172900000Y-98600000D03*
X175440000Y-98600000D03*
X177980000Y-98600000D03*
X180520000Y-98600000D03*
X183060000Y-98600000D03*
X185600000Y-98600000D03*
D35*
X139100000Y-100000000D03*
D36*
X141640000Y-100000000D03*
X144180000Y-100000000D03*
X146720000Y-100000000D03*
X149260000Y-100000000D03*
X151800000Y-100000000D03*
X154340000Y-100000000D03*
X156880000Y-100000000D03*
X159420000Y-100000000D03*
X161960000Y-100000000D03*
D37*
X149900000Y-87850000D03*
D38*
X144900000Y-87850000D03*
D28*
X195000000Y-88620000D03*
X195000000Y-86080000D03*
X195000000Y-83540000D03*
D29*
X195000000Y-81000000D03*
D36*
X179790000Y-77600000D03*
X182330000Y-77600000D03*
X184870000Y-77600000D03*
X187410000Y-77600000D03*
D35*
X189950000Y-77600000D03*
D39*
X178158000Y-95814000D03*
D40*
X180698000Y-95814000D03*
X183238000Y-95814000D03*
X185778000Y-95814000D03*
X188318000Y-95814000D03*
X190858000Y-95814000D03*
X193398000Y-95814000D03*
X195938000Y-95814000D03*
D39*
X159420000Y-96400000D03*
D40*
X156880000Y-96400000D03*
X154340000Y-96400000D03*
X151800000Y-96400000D03*
X149260000Y-96400000D03*
X146720000Y-96400000D03*
X144180000Y-96400000D03*
X141640000Y-96400000D03*
D26*
X194760000Y-121600000D03*
D27*
X197300000Y-121600000D03*
D11*
X200750000Y-118760000D03*
X200750000Y-108600000D03*
X142570000Y-113320000D03*
X142570000Y-103160000D03*
D41*
X162590000Y-71120000D03*
D42*
X160050000Y-71120000D03*
D41*
X190770000Y-74400000D03*
D42*
X188230000Y-74400000D03*
D23*
X157765000Y-73575000D03*
X155860000Y-71035000D03*
X153955000Y-73575000D03*
X203705000Y-92055000D03*
X201165000Y-93960000D03*
X203705000Y-95865000D03*
D20*
X181600000Y-62850000D03*
D43*
X195000000Y-72000000D03*
D44*
X195000000Y-74540000D03*
X195000000Y-77080000D03*
D13*
X134450000Y-73100000D03*
D14*
X139950000Y-73100000D03*
D19*
X187440000Y-66150000D03*
D11*
X195060000Y-66150000D03*
D45*
X189120000Y-130300000D03*
X189120000Y-132900000D03*
X188120000Y-130950000D03*
X188120000Y-132250000D03*
X189120000Y-131600000D03*
D46*
X188900000Y-135100000D03*
X188900000Y-128100000D03*
D47*
X190250000Y-131600000D03*
D11*
X176200000Y-78240000D03*
X176200000Y-88400000D03*
X173500000Y-78240000D03*
X173500000Y-88400000D03*
X134000000Y-98760000D03*
X134000000Y-88600000D03*
X146960000Y-92800000D03*
X136800000Y-92800000D03*
X134000000Y-75940000D03*
X134000000Y-86100000D03*
X137000000Y-77140000D03*
X137000000Y-87300000D03*
M02*
