<?xml version="1.0" standalone="no"?>
 <!DOCTYPE svg PUBLIC "-//W3C//DTD SVG 1.1//EN" 
 "http://www.w3.org/Graphics/SVG/1.1/DTD/svg11.dtd"> 
<svg xmlns="http://www.w3.org/2000/svg" version="1.1" 
    width="29.7002cm" height="21.0007cm" viewBox="0 0 116930 82680 ">
<title>SVG Picture created as Echtzeitsystem-B.SilkS.svg date 2017/05/10 16:06:57 </title>
  <desc>Picture generated by PCBNEW </desc>
<g style="fill:#000000; fill-opacity:1;stroke:#000000; stroke-opacity:1;
stroke-linecap:round; stroke-linejoin:round; "
 transform="translate(0 0) scale(1 1)">
</g>
<g style="fill:#000000; fill-opacity:0.0; 
stroke:#000000; stroke-width:-0.000393701; stroke-opacity:1; 
stroke-linecap:round; stroke-linejoin:round;">
</g>
<g style="fill:#000000; fill-opacity:0.0; 
stroke:#000000; stroke-width:39.3701; stroke-opacity:1; 
stroke-linecap:round; stroke-linejoin:round;">
</g>
<g style="fill:#000000; fill-opacity:0.0; 
stroke:#000000; stroke-width:59.0551; stroke-opacity:1; 
stroke-linecap:round; stroke-linejoin:round;">
<rect x="69685.9" y="65357.2" width="42519.7" height="12598.4" rx="0" />
</g>
<g style="fill:#000000; fill-opacity:0.0; 
stroke:#000000; stroke-width:39.3701; stroke-opacity:1; 
stroke-linecap:round; stroke-linejoin:round;">
</g>
<g style="fill:#000000; fill-opacity:0.0; 
stroke:#000000; stroke-width:59.0551; stroke-opacity:1; 
stroke-linecap:round; stroke-linejoin:round;">
<rect x="3937.01" y="3937.01" width="109056" height="74806" rx="0" />
</g>
<g style="fill:#000000; fill-opacity:0.0; 
stroke:#000000; stroke-width:39.3701; stroke-opacity:1; 
stroke-linecap:round; stroke-linejoin:round;">
</g>
<g style="fill:#000000; fill-opacity:0.0; 
stroke:#000000; stroke-width:59.0551; stroke-opacity:1; 
stroke-linecap:round; stroke-linejoin:round;">
<rect x="4724.41" y="4724.41" width="107481" height="73231.2" rx="0" />
</g>
<g style="fill:#000000; fill-opacity:0.0; 
stroke:#000000; stroke-width:39.3701; stroke-opacity:1; 
stroke-linecap:round; stroke-linejoin:round;">
</g>
<g style="fill:#000000; fill-opacity:0.0; 
stroke:#000000; stroke-width:59.0551; stroke-opacity:1; 
stroke-linecap:round; stroke-linejoin:round;">
<path d="M23622 4724
L23622 3937
" />
</g>
<g style="fill:#000000; fill-opacity:0.0; 
stroke:#000000; stroke-width:39.3701; stroke-opacity:1; 
stroke-linecap:round; stroke-linejoin:round;">
</g>
<g style="fill:#000000; fill-opacity:0.0; 
stroke:#000000; stroke-width:59.0551; stroke-opacity:1; 
stroke-linecap:round; stroke-linejoin:round;">
<path d="M43307 4724
L43307 3937
" />
</g>
<g style="fill:#000000; fill-opacity:0.0; 
stroke:#000000; stroke-width:39.3701; stroke-opacity:1; 
stroke-linecap:round; stroke-linejoin:round;">
</g>
<g style="fill:#000000; fill-opacity:0.0; 
stroke:#000000; stroke-width:59.0551; stroke-opacity:1; 
stroke-linecap:round; stroke-linejoin:round;">
<path d="M62992 4724
L62992 3937
" />
</g>
<g style="fill:#000000; fill-opacity:0.0; 
stroke:#000000; stroke-width:39.3701; stroke-opacity:1; 
stroke-linecap:round; stroke-linejoin:round;">
</g>
<g style="fill:#000000; fill-opacity:0.0; 
stroke:#000000; stroke-width:59.0551; stroke-opacity:1; 
stroke-linecap:round; stroke-linejoin:round;">
<path d="M82677 4724
L82677 3937
" />
</g>
<g style="fill:#000000; fill-opacity:0.0; 
stroke:#000000; stroke-width:39.3701; stroke-opacity:1; 
stroke-linecap:round; stroke-linejoin:round;">
</g>
<g style="fill:#000000; fill-opacity:0.0; 
stroke:#000000; stroke-width:59.0551; stroke-opacity:1; 
stroke-linecap:round; stroke-linejoin:round;">
<path d="M102362 4724
L102362 3937
" />
</g>
<g style="fill:#000000; fill-opacity:0.0; 
stroke:#000000; stroke-width:39.3701; stroke-opacity:1; 
stroke-linecap:round; stroke-linejoin:round;">
</g>
<g style="fill:#000000; fill-opacity:0.0; 
stroke:#000000; stroke-width:59.0551; stroke-opacity:1; 
stroke-linecap:round; stroke-linejoin:round;">
<path d="M14169 4562
L13877 4562
" />
<path d="M14023 4562
L14023 4050
L13974 4123
L13925 4172
L13877 4196
" />
</g>
<g style="fill:#000000; fill-opacity:0.0; 
stroke:#000000; stroke-width:39.3701; stroke-opacity:1; 
stroke-linecap:round; stroke-linejoin:round;">
</g>
<g style="fill:#000000; fill-opacity:0.0; 
stroke:#000000; stroke-width:59.0551; stroke-opacity:1; 
stroke-linecap:round; stroke-linejoin:round;">
<path d="M33562 4099
L33586 4074
L33635 4050
L33757 4050
L33805 4074
L33830 4099
L33854 4147
L33854 4196
L33830 4269
L33537 4562
L33854 4562
" />
</g>
<g style="fill:#000000; fill-opacity:0.0; 
stroke:#000000; stroke-width:39.3701; stroke-opacity:1; 
stroke-linecap:round; stroke-linejoin:round;">
</g>
<g style="fill:#000000; fill-opacity:0.0; 
stroke:#000000; stroke-width:59.0551; stroke-opacity:1; 
stroke-linecap:round; stroke-linejoin:round;">
<path d="M53222 4050
L53539 4050
L53368 4245
L53442 4245
L53490 4269
L53515 4294
L53539 4342
L53539 4464
L53515 4513
L53490 4537
L53442 4562
L53295 4562
L53247 4537
L53222 4513
" />
</g>
<g style="fill:#000000; fill-opacity:0.0; 
stroke:#000000; stroke-width:39.3701; stroke-opacity:1; 
stroke-linecap:round; stroke-linejoin:round;">
</g>
<g style="fill:#000000; fill-opacity:0.0; 
stroke:#000000; stroke-width:59.0551; stroke-opacity:1; 
stroke-linecap:round; stroke-linejoin:round;">
<path d="M73175 4221
L73175 4562
" />
<path d="M73053 4026
L72932 4391
L73248 4391
" />
</g>
<g style="fill:#000000; fill-opacity:0.0; 
stroke:#000000; stroke-width:39.3701; stroke-opacity:1; 
stroke-linecap:round; stroke-linejoin:round;">
</g>
<g style="fill:#000000; fill-opacity:0.0; 
stroke:#000000; stroke-width:59.0551; stroke-opacity:1; 
stroke-linecap:round; stroke-linejoin:round;">
<path d="M92885 4050
L92641 4050
L92617 4294
L92641 4269
L92690 4245
L92812 4245
L92860 4269
L92885 4294
L92909 4342
L92909 4464
L92885 4513
L92860 4537
L92812 4562
L92690 4562
L92641 4537
L92617 4513
" />
</g>
<g style="fill:#000000; fill-opacity:0.0; 
stroke:#000000; stroke-width:39.3701; stroke-opacity:1; 
stroke-linecap:round; stroke-linejoin:round;">
</g>
<g style="fill:#000000; fill-opacity:0.0; 
stroke:#000000; stroke-width:59.0551; stroke-opacity:1; 
stroke-linecap:round; stroke-linejoin:round;">
<path d="M112545 4050
L112448 4050
L112399 4074
L112375 4099
L112326 4172
L112302 4269
L112302 4464
L112326 4513
L112350 4537
L112399 4562
L112497 4562
L112545 4537
L112570 4513
L112594 4464
L112594 4342
L112570 4294
L112545 4269
L112497 4245
L112399 4245
L112350 4269
L112326 4294
L112302 4342
" />
</g>
<g style="fill:#000000; fill-opacity:0.0; 
stroke:#000000; stroke-width:39.3701; stroke-opacity:1; 
stroke-linecap:round; stroke-linejoin:round;">
</g>
<g style="fill:#000000; fill-opacity:0.0; 
stroke:#000000; stroke-width:59.0551; stroke-opacity:1; 
stroke-linecap:round; stroke-linejoin:round;">
<path d="M23622 77955
L23622 78742
" />
</g>
<g style="fill:#000000; fill-opacity:0.0; 
stroke:#000000; stroke-width:39.3701; stroke-opacity:1; 
stroke-linecap:round; stroke-linejoin:round;">
</g>
<g style="fill:#000000; fill-opacity:0.0; 
stroke:#000000; stroke-width:59.0551; stroke-opacity:1; 
stroke-linecap:round; stroke-linejoin:round;">
<path d="M43307 77955
L43307 78742
" />
</g>
<g style="fill:#000000; fill-opacity:0.0; 
stroke:#000000; stroke-width:39.3701; stroke-opacity:1; 
stroke-linecap:round; stroke-linejoin:round;">
</g>
<g style="fill:#000000; fill-opacity:0.0; 
stroke:#000000; stroke-width:59.0551; stroke-opacity:1; 
stroke-linecap:round; stroke-linejoin:round;">
<path d="M62992 77955
L62992 78742
" />
</g>
<g style="fill:#000000; fill-opacity:0.0; 
stroke:#000000; stroke-width:39.3701; stroke-opacity:1; 
stroke-linecap:round; stroke-linejoin:round;">
</g>
<g style="fill:#000000; fill-opacity:0.0; 
stroke:#000000; stroke-width:59.0551; stroke-opacity:1; 
stroke-linecap:round; stroke-linejoin:round;">
<path d="M82677 77955
L82677 78742
" />
</g>
<g style="fill:#000000; fill-opacity:0.0; 
stroke:#000000; stroke-width:39.3701; stroke-opacity:1; 
stroke-linecap:round; stroke-linejoin:round;">
</g>
<g style="fill:#000000; fill-opacity:0.0; 
stroke:#000000; stroke-width:59.0551; stroke-opacity:1; 
stroke-linecap:round; stroke-linejoin:round;">
<path d="M102362 77955
L102362 78742
" />
</g>
<g style="fill:#000000; fill-opacity:0.0; 
stroke:#000000; stroke-width:39.3701; stroke-opacity:1; 
stroke-linecap:round; stroke-linejoin:round;">
</g>
<g style="fill:#000000; fill-opacity:0.0; 
stroke:#000000; stroke-width:59.0551; stroke-opacity:1; 
stroke-linecap:round; stroke-linejoin:round;">
<path d="M14169 78580
L13877 78580
" />
<path d="M14023 78580
L14023 78069
L13974 78142
L13925 78190
L13877 78215
" />
</g>
<g style="fill:#000000; fill-opacity:0.0; 
stroke:#000000; stroke-width:39.3701; stroke-opacity:1; 
stroke-linecap:round; stroke-linejoin:round;">
</g>
<g style="fill:#000000; fill-opacity:0.0; 
stroke:#000000; stroke-width:59.0551; stroke-opacity:1; 
stroke-linecap:round; stroke-linejoin:round;">
<path d="M33562 78117
L33586 78093
L33635 78069
L33757 78069
L33805 78093
L33830 78117
L33854 78166
L33854 78215
L33830 78288
L33537 78580
L33854 78580
" />
</g>
<g style="fill:#000000; fill-opacity:0.0; 
stroke:#000000; stroke-width:39.3701; stroke-opacity:1; 
stroke-linecap:round; stroke-linejoin:round;">
</g>
<g style="fill:#000000; fill-opacity:0.0; 
stroke:#000000; stroke-width:59.0551; stroke-opacity:1; 
stroke-linecap:round; stroke-linejoin:round;">
<path d="M53222 78069
L53539 78069
L53368 78263
L53442 78263
L53490 78288
L53515 78312
L53539 78361
L53539 78483
L53515 78532
L53490 78556
L53442 78580
L53295 78580
L53247 78556
L53222 78532
" />
</g>
<g style="fill:#000000; fill-opacity:0.0; 
stroke:#000000; stroke-width:39.3701; stroke-opacity:1; 
stroke-linecap:round; stroke-linejoin:round;">
</g>
<g style="fill:#000000; fill-opacity:0.0; 
stroke:#000000; stroke-width:59.0551; stroke-opacity:1; 
stroke-linecap:round; stroke-linejoin:round;">
<path d="M73175 78239
L73175 78580
" />
<path d="M73053 78044
L72932 78410
L73248 78410
" />
</g>
<g style="fill:#000000; fill-opacity:0.0; 
stroke:#000000; stroke-width:39.3701; stroke-opacity:1; 
stroke-linecap:round; stroke-linejoin:round;">
</g>
<g style="fill:#000000; fill-opacity:0.0; 
stroke:#000000; stroke-width:59.0551; stroke-opacity:1; 
stroke-linecap:round; stroke-linejoin:round;">
<path d="M92885 78069
L92641 78069
L92617 78312
L92641 78288
L92690 78263
L92812 78263
L92860 78288
L92885 78312
L92909 78361
L92909 78483
L92885 78532
L92860 78556
L92812 78580
L92690 78580
L92641 78556
L92617 78532
" />
</g>
<g style="fill:#000000; fill-opacity:0.0; 
stroke:#000000; stroke-width:39.3701; stroke-opacity:1; 
stroke-linecap:round; stroke-linejoin:round;">
</g>
<g style="fill:#000000; fill-opacity:0.0; 
stroke:#000000; stroke-width:59.0551; stroke-opacity:1; 
stroke-linecap:round; stroke-linejoin:round;">
<path d="M112545 78069
L112448 78069
L112399 78093
L112375 78117
L112326 78190
L112302 78288
L112302 78483
L112326 78532
L112350 78556
L112399 78580
L112497 78580
L112545 78556
L112570 78532
L112594 78483
L112594 78361
L112570 78312
L112545 78288
L112497 78263
L112399 78263
L112350 78288
L112326 78312
L112302 78361
" />
</g>
<g style="fill:#000000; fill-opacity:0.0; 
stroke:#000000; stroke-width:39.3701; stroke-opacity:1; 
stroke-linecap:round; stroke-linejoin:round;">
</g>
<g style="fill:#000000; fill-opacity:0.0; 
stroke:#000000; stroke-width:59.0551; stroke-opacity:1; 
stroke-linecap:round; stroke-linejoin:round;">
<path d="M3937 23622
L4724 23622
" />
</g>
<g style="fill:#000000; fill-opacity:0.0; 
stroke:#000000; stroke-width:39.3701; stroke-opacity:1; 
stroke-linecap:round; stroke-linejoin:round;">
</g>
<g style="fill:#000000; fill-opacity:0.0; 
stroke:#000000; stroke-width:59.0551; stroke-opacity:1; 
stroke-linecap:round; stroke-linejoin:round;">
<path d="M3937 43307
L4724 43307
" />
</g>
<g style="fill:#000000; fill-opacity:0.0; 
stroke:#000000; stroke-width:39.3701; stroke-opacity:1; 
stroke-linecap:round; stroke-linejoin:round;">
</g>
<g style="fill:#000000; fill-opacity:0.0; 
stroke:#000000; stroke-width:59.0551; stroke-opacity:1; 
stroke-linecap:round; stroke-linejoin:round;">
<path d="M3937 62992
L4724 62992
" />
</g>
<g style="fill:#000000; fill-opacity:0.0; 
stroke:#000000; stroke-width:39.3701; stroke-opacity:1; 
stroke-linecap:round; stroke-linejoin:round;">
</g>
<g style="fill:#000000; fill-opacity:0.0; 
stroke:#000000; stroke-width:59.0551; stroke-opacity:1; 
stroke-linecap:round; stroke-linejoin:round;">
<path d="M4208 13864
L4452 13864
" />
<path d="M4160 14011
L4330 13499
L4501 14011
" />
</g>
<g style="fill:#000000; fill-opacity:0.0; 
stroke:#000000; stroke-width:39.3701; stroke-opacity:1; 
stroke-linecap:round; stroke-linejoin:round;">
</g>
<g style="fill:#000000; fill-opacity:0.0; 
stroke:#000000; stroke-width:59.0551; stroke-opacity:1; 
stroke-linecap:round; stroke-linejoin:round;">
<path d="M4367 33428
L4440 33452
L4464 33476
L4489 33525
L4489 33598
L4464 33647
L4440 33671
L4391 33696
L4196 33696
L4196 33184
L4367 33184
L4416 33208
L4440 33233
L4464 33281
L4464 33330
L4440 33379
L4416 33403
L4367 33428
L4196 33428
" />
</g>
<g style="fill:#000000; fill-opacity:0.0; 
stroke:#000000; stroke-width:39.3701; stroke-opacity:1; 
stroke-linecap:round; stroke-linejoin:round;">
</g>
<g style="fill:#000000; fill-opacity:0.0; 
stroke:#000000; stroke-width:59.0551; stroke-opacity:1; 
stroke-linecap:round; stroke-linejoin:round;">
<path d="M4489 53332
L4464 53356
L4391 53381
L4342 53381
L4269 53356
L4221 53308
L4196 53259
L4172 53161
L4172 53088
L4196 52991
L4221 52942
L4269 52893
L4342 52869
L4391 52869
L4464 52893
L4489 52918
" />
</g>
<g style="fill:#000000; fill-opacity:0.0; 
stroke:#000000; stroke-width:39.3701; stroke-opacity:1; 
stroke-linecap:round; stroke-linejoin:round;">
</g>
<g style="fill:#000000; fill-opacity:0.0; 
stroke:#000000; stroke-width:59.0551; stroke-opacity:1; 
stroke-linecap:round; stroke-linejoin:round;">
<path d="M4196 73066
L4196 72554
L4318 72554
L4391 72578
L4440 72627
L4464 72676
L4489 72773
L4489 72846
L4464 72944
L4440 72993
L4391 73041
L4318 73066
L4196 73066
" />
</g>
<g style="fill:#000000; fill-opacity:0.0; 
stroke:#000000; stroke-width:39.3701; stroke-opacity:1; 
stroke-linecap:round; stroke-linejoin:round;">
</g>
<g style="fill:#000000; fill-opacity:0.0; 
stroke:#000000; stroke-width:59.0551; stroke-opacity:1; 
stroke-linecap:round; stroke-linejoin:round;">
<path d="M112992 23622
L112205 23622
" />
</g>
<g style="fill:#000000; fill-opacity:0.0; 
stroke:#000000; stroke-width:39.3701; stroke-opacity:1; 
stroke-linecap:round; stroke-linejoin:round;">
</g>
<g style="fill:#000000; fill-opacity:0.0; 
stroke:#000000; stroke-width:59.0551; stroke-opacity:1; 
stroke-linecap:round; stroke-linejoin:round;">
<path d="M112992 43307
L112205 43307
" />
</g>
<g style="fill:#000000; fill-opacity:0.0; 
stroke:#000000; stroke-width:39.3701; stroke-opacity:1; 
stroke-linecap:round; stroke-linejoin:round;">
</g>
<g style="fill:#000000; fill-opacity:0.0; 
stroke:#000000; stroke-width:59.0551; stroke-opacity:1; 
stroke-linecap:round; stroke-linejoin:round;">
<path d="M112992 62992
L112205 62992
" />
</g>
<g style="fill:#000000; fill-opacity:0.0; 
stroke:#000000; stroke-width:39.3701; stroke-opacity:1; 
stroke-linecap:round; stroke-linejoin:round;">
</g>
<g style="fill:#000000; fill-opacity:0.0; 
stroke:#000000; stroke-width:59.0551; stroke-opacity:1; 
stroke-linecap:round; stroke-linejoin:round;">
<path d="M112477 13864
L112721 13864
" />
<path d="M112428 14011
L112599 13499
L112769 14011
" />
</g>
<g style="fill:#000000; fill-opacity:0.0; 
stroke:#000000; stroke-width:39.3701; stroke-opacity:1; 
stroke-linecap:round; stroke-linejoin:round;">
</g>
<g style="fill:#000000; fill-opacity:0.0; 
stroke:#000000; stroke-width:59.0551; stroke-opacity:1; 
stroke-linecap:round; stroke-linejoin:round;">
<path d="M112635 33428
L112708 33452
L112733 33476
L112757 33525
L112757 33598
L112733 33647
L112708 33671
L112660 33696
L112465 33696
L112465 33184
L112635 33184
L112684 33208
L112708 33233
L112733 33281
L112733 33330
L112708 33379
L112684 33403
L112635 33428
L112465 33428
" />
</g>
<g style="fill:#000000; fill-opacity:0.0; 
stroke:#000000; stroke-width:39.3701; stroke-opacity:1; 
stroke-linecap:round; stroke-linejoin:round;">
</g>
<g style="fill:#000000; fill-opacity:0.0; 
stroke:#000000; stroke-width:59.0551; stroke-opacity:1; 
stroke-linecap:round; stroke-linejoin:round;">
<path d="M112757 53332
L112733 53356
L112660 53381
L112611 53381
L112538 53356
L112489 53308
L112465 53259
L112440 53161
L112440 53088
L112465 52991
L112489 52942
L112538 52893
L112611 52869
L112660 52869
L112733 52893
L112757 52918
" />
</g>
<g style="fill:#000000; fill-opacity:0.0; 
stroke:#000000; stroke-width:39.3701; stroke-opacity:1; 
stroke-linecap:round; stroke-linejoin:round;">
</g>
<g style="fill:#000000; fill-opacity:0.0; 
stroke:#000000; stroke-width:59.0551; stroke-opacity:1; 
stroke-linecap:round; stroke-linejoin:round;">
<path d="M112465 73066
L112465 72554
L112587 72554
L112660 72578
L112708 72627
L112733 72676
L112757 72773
L112757 72846
L112733 72944
L112708 72993
L112660 73041
L112587 73066
L112465 73066
" />
</g>
<g style="fill:#000000; fill-opacity:0.0; 
stroke:#000000; stroke-width:39.3701; stroke-opacity:1; 
stroke-linecap:round; stroke-linejoin:round;">
</g>
<g style="fill:#000000; fill-opacity:0.0; 
stroke:#000000; stroke-width:59.0551; stroke-opacity:1; 
stroke-linecap:round; stroke-linejoin:round;">
<path d="M78881 76293
L78881 75703
L79022 75703
L79106 75731
L79162 75787
L79190 75843
L79219 75956
L79219 76040
L79190 76153
L79162 76209
L79106 76265
L79022 76293
L78881 76293
" />
<path d="M79725 76293
L79725 75984
L79697 75928
L79640 75899
L79528 75899
L79472 75928
" />
<path d="M79725 76265
L79669 76293
L79528 76293
L79472 76265
L79444 76209
L79444 76153
L79472 76096
L79528 76068
L79669 76068
L79725 76040
" />
<path d="M79922 75899
L80147 75899
" />
<path d="M80006 75703
L80006 76209
L80034 76265
L80090 76293
L80147 76293
" />
<path d="M80568 76265
L80512 76293
L80400 76293
L80343 76265
L80315 76209
L80315 75984
L80343 75928
L80400 75899
L80512 75899
L80568 75928
L80597 75984
L80597 76040
L80315 76096
" />
<path d="M80850 76237
L80878 76265
L80850 76293
L80822 76265
L80850 76237
L80850 76293
" />
<path d="M80850 75928
L80878 75956
L80850 75984
L80822 75956
L80850 75928
L80850 75984
" />
<path d="M81553 75759
L81581 75731
L81637 75703
L81778 75703
L81834 75731
L81862 75759
L81890 75815
L81890 75871
L81862 75956
L81525 76293
L81890 76293
" />
<path d="M82256 75703
L82312 75703
L82368 75731
L82396 75759
L82424 75815
L82453 75928
L82453 76068
L82424 76181
L82396 76237
L82368 76265
L82312 76293
L82256 76293
L82199 76265
L82171 76237
L82143 76181
L82115 76068
L82115 75928
L82143 75815
L82171 75759
L82199 75731
L82256 75703
" />
<path d="M83015 76293
L82678 76293
" />
<path d="M82846 76293
L82846 75703
L82790 75787
L82734 75843
L82678 75871
" />
<path d="M83212 75703
L83606 75703
L83352 76293
" />
<path d="M83831 76068
L84280 76068
" />
<path d="M84674 75703
L84730 75703
L84787 75731
L84815 75759
L84843 75815
L84871 75928
L84871 76068
L84843 76181
L84815 76237
L84787 76265
L84730 76293
L84674 76293
L84618 76265
L84590 76237
L84562 76181
L84534 76068
L84534 75928
L84562 75815
L84590 75759
L84618 75731
L84674 75703
" />
<path d="M85433 76293
L85096 76293
" />
<path d="M85265 76293
L85265 75703
L85208 75787
L85152 75843
L85096 75871
" />
<path d="M85687 76068
L86136 76068
" />
<path d="M86530 75703
L86586 75703
L86643 75731
L86671 75759
L86699 75815
L86727 75928
L86727 76068
L86699 76181
L86671 76237
L86643 76265
L86586 76293
L86530 76293
L86474 76265
L86446 76237
L86418 76181
L86390 76068
L86390 75928
L86418 75815
L86446 75759
L86474 75731
L86530 75703
" />
<path d="M86924 75703
L87289 75703
L87093 75928
L87177 75928
L87233 75956
L87261 75984
L87289 76040
L87289 76181
L87261 76237
L87233 76265
L87177 76293
L87008 76293
L86952 76265
L86924 76237
" />
</g>
<g style="fill:#000000; fill-opacity:0.0; 
stroke:#000000; stroke-width:39.3701; stroke-opacity:1; 
stroke-linecap:round; stroke-linejoin:round;">
</g>
<g style="fill:#000000; fill-opacity:0.0; 
stroke:#000000; stroke-width:59.0551; stroke-opacity:1; 
stroke-linecap:round; stroke-linejoin:round;">
<path d="M69685 76577
L112205 76577
" />
</g>
<g style="fill:#000000; fill-opacity:0.0; 
stroke:#000000; stroke-width:39.3701; stroke-opacity:1; 
stroke-linecap:round; stroke-linejoin:round;">
</g>
<g style="fill:#000000; fill-opacity:0.0; 
stroke:#000000; stroke-width:59.0551; stroke-opacity:1; 
stroke-linecap:round; stroke-linejoin:round;">
<path d="M70220 77395
L70220 76805
" />
<path d="M70557 77395
L70304 77058
" />
<path d="M70557 76805
L70220 77142
" />
<path d="M70810 77395
L70810 77002
" />
<path d="M70810 76805
L70782 76833
L70810 76861
L70838 76833
L70810 76805
L70810 76861
" />
<path d="M71429 77339
L71401 77367
L71316 77395
L71260 77395
L71176 77367
L71120 77311
L71091 77255
L71063 77142
L71063 77058
L71091 76946
L71120 76889
L71176 76833
L71260 76805
L71316 76805
L71401 76833
L71429 76861
" />
<path d="M71935 77395
L71935 77086
L71907 77030
L71851 77002
L71738 77002
L71682 77030
" />
<path d="M71935 77367
L71879 77395
L71738 77395
L71682 77367
L71654 77311
L71654 77255
L71682 77199
L71738 77171
L71879 77171
L71935 77142
" />
<path d="M72469 77395
L72469 76805
" />
<path d="M72469 77367
L72413 77395
L72301 77395
L72244 77367
L72216 77339
L72188 77283
L72188 77114
L72216 77058
L72244 77030
L72301 77002
L72413 77002
L72469 77030
" />
<path d="M73201 77086
L73397 77086
" />
<path d="M73482 77395
L73201 77395
L73201 76805
L73482 76805
" />
<path d="M73735 77339
L73763 77367
L73735 77395
L73707 77367
L73735 77339
L73735 77395
" />
<path d="M74016 77395
L74016 76805
L74157 76805
L74241 76833
L74297 76889
L74325 76946
L74354 77058
L74354 77142
L74325 77255
L74297 77311
L74241 77367
L74157 77395
L74016 77395
" />
<path d="M74607 77339
L74635 77367
L74607 77395
L74579 77367
L74607 77339
L74607 77395
" />
<path d="M74860 77227
L75141 77227
" />
<path d="M74804 77395
L75000 76805
L75197 77395
" />
<path d="M75394 77339
L75422 77367
L75394 77395
L75366 77367
L75394 77339
L75394 77395
" />
<path d="M76575 77395
L76575 76805
" />
<path d="M76631 77171
L76800 77395
" />
<path d="M76800 77002
L76575 77227
" />
<path d="M77053 77395
L77053 77002
" />
<path d="M77053 76805
L77025 76833
L77053 76861
L77081 76833
L77053 76805
L77053 76861
" />
<path d="M77588 77367
L77531 77395
L77419 77395
L77363 77367
L77334 77339
L77306 77283
L77306 77114
L77334 77058
L77363 77030
L77419 77002
L77531 77002
L77588 77030
" />
<path d="M78094 77395
L78094 77086
L78066 77030
L78009 77002
L77897 77002
L77841 77030
" />
<path d="M78094 77367
L78037 77395
L77897 77395
L77841 77367
L77813 77311
L77813 77255
L77841 77199
L77897 77171
L78037 77171
L78094 77142
" />
<path d="M78628 77395
L78628 76805
" />
<path d="M78628 77367
L78572 77395
L78459 77395
L78403 77367
L78375 77339
L78347 77283
L78347 77114
L78375 77058
L78403 77030
L78459 77002
L78572 77002
L78628 77030
" />
<path d="M79612 77002
L79612 77395
" />
<path d="M79472 76777
L79331 77199
L79697 77199
" />
<path d="M79922 77339
L79950 77367
L79922 77395
L79894 77367
L79922 77339
L79922 77395
" />
<path d="M80315 76805
L80372 76805
L80428 76833
L80456 76861
L80484 76917
L80512 77030
L80512 77171
L80484 77283
L80456 77339
L80428 77367
L80372 77395
L80315 77395
L80259 77367
L80231 77339
L80203 77283
L80175 77171
L80175 77030
L80203 76917
L80231 76861
L80259 76833
L80315 76805
" />
<path d="M80765 77339
L80793 77367
L80765 77395
L80737 77367
L80765 77339
L80765 77395
" />
<path d="M81328 76805
L81046 76805
L81018 77086
L81046 77058
L81103 77030
L81243 77030
L81300 77058
L81328 77086
L81356 77142
L81356 77283
L81328 77339
L81300 77367
L81243 77395
L81103 77395
L81046 77367
L81018 77339
" />
</g>
<g style="fill:#000000; fill-opacity:0.0; 
stroke:#000000; stroke-width:39.3701; stroke-opacity:1; 
stroke-linecap:round; stroke-linejoin:round;">
</g>
<g style="fill:#000000; fill-opacity:0.0; 
stroke:#000000; stroke-width:59.0551; stroke-opacity:1; 
stroke-linecap:round; stroke-linejoin:round;">
<path d="M69685 75396
L112205 75396
" />
</g>
<g style="fill:#000000; fill-opacity:0.0; 
stroke:#000000; stroke-width:39.3701; stroke-opacity:1; 
stroke-linecap:round; stroke-linejoin:round;">
</g>
<g style="fill:#000000; fill-opacity:0.0; 
stroke:#000000; stroke-width:118.11; stroke-opacity:1; 
stroke-linecap:round; stroke-linejoin:round;">
<path d="M104022 76293
L103825 76012
" />
<path d="M103684 76293
L103684 75703
L103909 75703
L103965 75731
L103994 75759
L104022 75815
L104022 75899
L103994 75956
L103965 75984
L103909 76012
L103684 76012
" />
<path d="M104500 76265
L104444 76293
L104331 76293
L104275 76265
L104247 76209
L104247 75984
L104275 75928
L104331 75899
L104444 75899
L104500 75928
L104528 75984
L104528 76040
L104247 76096
" />
<path d="M104725 75899
L104865 76293
L105006 75899
" />
<path d="M105231 76237
L105259 76265
L105231 76293
L105203 76265
L105231 76237
L105231 76293
" />
<path d="M105231 75928
L105259 75956
L105231 75984
L105203 75956
L105231 75928
L105231 75984
" />
<path d="M106271 76293
L105934 76293
" />
<path d="M106103 76293
L106103 75703
L106046 75787
L105990 75843
L105934 75871
" />
<path d="M106525 76237
L106553 76265
L106525 76293
L106496 76265
L106525 76237
L106525 76293
" />
<path d="M107115 76293
L106778 76293
" />
<path d="M106946 76293
L106946 75703
L106890 75787
L106834 75843
L106778 75871
" />
</g>
<g style="fill:#000000; fill-opacity:0.0; 
stroke:#000000; stroke-width:39.3701; stroke-opacity:1; 
stroke-linecap:round; stroke-linejoin:round;">
</g>
<g style="fill:#000000; fill-opacity:0.0; 
stroke:#000000; stroke-width:59.0551; stroke-opacity:1; 
stroke-linecap:round; stroke-linejoin:round;">
<path d="M70192 76265
L70276 76293
L70417 76293
L70473 76265
L70501 76237
L70529 76181
L70529 76124
L70501 76068
L70473 76040
L70417 76012
L70304 75984
L70248 75956
L70220 75928
L70192 75871
L70192 75815
L70220 75759
L70248 75731
L70304 75703
L70445 75703
L70529 75731
" />
<path d="M70782 76293
L70782 75899
" />
<path d="M70782 75703
L70754 75731
L70782 75759
L70810 75731
L70782 75703
L70782 75759
" />
<path d="M71007 75899
L71316 75899
L71007 76293
L71316 76293
" />
<path d="M71766 76265
L71710 76293
L71598 76293
L71541 76265
L71513 76209
L71513 75984
L71541 75928
L71598 75899
L71710 75899
L71766 75928
L71795 75984
L71795 76040
L71513 76096
" />
<path d="M72048 76237
L72076 76265
L72048 76293
L72019 76265
L72048 76237
L72048 76293
" />
<path d="M72048 75928
L72076 75956
L72048 75984
L72019 75956
L72048 75928
L72048 75984
" />
<path d="M72751 76124
L73032 76124
" />
<path d="M72694 76293
L72891 75703
L73088 76293
" />
<path d="M73538 75899
L73538 76293
" />
<path d="M73397 75674
L73257 76096
L73622 76096
" />
</g>
<g style="fill:#000000; fill-opacity:0.0; 
stroke:#000000; stroke-width:39.3701; stroke-opacity:1; 
stroke-linecap:round; stroke-linejoin:round;">
</g>
<g style="fill:#000000; fill-opacity:0.0; 
stroke:#000000; stroke-width:59.0551; stroke-opacity:1; 
stroke-linecap:round; stroke-linejoin:round;">
<path d="M103684 77395
L103684 76805
" />
<path d="M104219 77395
L104219 76805
" />
<path d="M104219 77367
L104162 77395
L104050 77395
L103994 77367
L103965 77339
L103937 77283
L103937 77114
L103965 77058
L103994 77030
L104050 77002
L104162 77002
L104219 77030
" />
<path d="M104500 77339
L104528 77367
L104500 77395
L104472 77367
L104500 77339
L104500 77395
" />
<path d="M104500 77030
L104528 77058
L104500 77086
L104472 77058
L104500 77030
L104500 77086
" />
<path d="M105540 77395
L105203 77395
" />
<path d="M105372 77395
L105372 76805
L105315 76889
L105259 76946
L105203 76974
" />
<path d="M106215 76777
L105709 77536
" />
<path d="M106721 77395
L106384 77395
" />
<path d="M106553 77395
L106553 76805
L106496 76889
L106440 76946
L106384 76974
" />
</g>
<g style="fill:#000000; fill-opacity:0.0; 
stroke:#000000; stroke-width:39.3701; stroke-opacity:1; 
stroke-linecap:round; stroke-linejoin:round;">
</g>
<g style="fill:#000000; fill-opacity:0.0; 
stroke:#000000; stroke-width:59.0551; stroke-opacity:1; 
stroke-linecap:round; stroke-linejoin:round;">
<path d="M69685 73821
L112205 73821
" />
</g>
<g style="fill:#000000; fill-opacity:0.0; 
stroke:#000000; stroke-width:39.3701; stroke-opacity:1; 
stroke-linecap:round; stroke-linejoin:round;">
</g>
<g style="fill:#000000; fill-opacity:0.0; 
stroke:#000000; stroke-width:157.48; stroke-opacity:1; 
stroke-linecap:round; stroke-linejoin:round;">
<path d="M70257 74099
L70707 74099
" />
<path d="M70384 74886
L70482 74099
" />
<path d="M70871 74886
L70937 74361
" />
<path d="M70970 74099
L70927 74136
L70960 74174
L71002 74136
L70970 74099
L70960 74174
" />
<path d="M71199 74361
L71499 74361
" />
<path d="M71345 74099
L71260 74774
L71288 74849
L71359 74886
L71434 74886
" />
<path d="M71809 74886
L71738 74849
L71710 74774
L71795 74099
" />
<path d="M72413 74849
L72334 74886
L72184 74886
L72113 74849
L72085 74774
L72123 74474
L72169 74399
L72249 74361
L72399 74361
L72469 74399
L72498 74474
L72488 74549
L72104 74624
" />
<path d="M72793 74811
L72826 74849
L72783 74886
L72751 74849
L72793 74811
L72783 74886
" />
<path d="M72844 74399
L72877 74436
L72835 74474
L72802 74436
L72844 74399
L72835 74474
" />
<path d="M74208 74886
L73993 74511
" />
<path d="M73758 74886
L73857 74099
L74157 74099
L74227 74136
L74260 74174
L74288 74249
L74274 74361
L74227 74436
L74185 74474
L74105 74511
L73805 74511
" />
<path d="M74883 74886
L74935 74474
L74907 74399
L74836 74361
L74686 74361
L74607 74399
" />
<path d="M74888 74849
L74808 74886
L74621 74886
L74550 74849
L74522 74774
L74532 74699
L74579 74624
L74658 74586
L74846 74586
L74925 74549
" />
<path d="M75225 74849
L75296 74886
L75446 74886
L75525 74849
L75572 74774
L75577 74736
L75549 74661
L75478 74624
L75366 74624
L75296 74586
L75268 74511
L75272 74474
L75319 74399
L75399 74361
L75511 74361
L75582 74399
" />
<path d="M75961 74361
L75863 75149
" />
<path d="M75956 74399
L76036 74361
L76186 74361
L76256 74399
L76289 74436
L76317 74511
L76289 74736
L76242 74811
L76200 74849
L76121 74886
L75971 74886
L75900 74849
" />
<path d="M76599 74361
L76720 74886
" />
<path d="M76974 74361
L76720 74886
L76622 75074
L76580 75111
L76500 75149
" />
<path d="M77522 74474
L77630 74511
L77663 74549
L77691 74624
L77677 74736
L77630 74811
L77588 74849
L77508 74886
L77208 74886
L77306 74099
L77569 74099
L77639 74136
L77672 74174
L77700 74249
L77691 74324
L77644 74399
L77602 74436
L77522 74474
L77259 74474
" />
<path d="M78108 74886
L78037 74849
L78005 74811
L77977 74736
L78005 74511
L78052 74436
L78094 74399
L78173 74361
L78286 74361
L78356 74399
L78389 74436
L78417 74511
L78389 74736
L78342 74811
L78300 74849
L78220 74886
L78108 74886
" />
<path d="M78661 74361
L78961 74361
" />
<path d="M78806 74099
L78722 74774
L78750 74849
L78820 74886
L78895 74886
" />
<path d="M79748 74661
L80123 74661
" />
<path d="M79645 74886
L80006 74099
L80170 74886
" />
<path d="M80836 74361
L80770 74886
" />
<path d="M80498 74361
L80447 74774
L80475 74849
L80545 74886
L80657 74886
L80737 74849
L80779 74811
" />
<path d="M81098 74361
L81398 74361
" />
<path d="M81145 74886
L81229 74211
L81276 74136
L81356 74099
L81431 74099
" />
<path d="M81562 74849
L81632 74886
L81782 74886
L81862 74849
L81909 74774
L81914 74736
L81885 74661
L81815 74624
L81703 74624
L81632 74586
L81604 74511
L81609 74474
L81656 74399
L81735 74361
L81848 74361
L81918 74399
" />
<path d="M82570 74886
L82621 74474
L82593 74399
L82523 74361
L82373 74361
L82293 74399
" />
<path d="M82574 74849
L82495 74886
L82307 74886
L82237 74849
L82209 74774
L82218 74699
L82265 74624
L82345 74586
L82532 74586
L82612 74549
" />
<path d="M82898 74361
L83198 74361
" />
<path d="M83043 74099
L82959 74774
L82987 74849
L83057 74886
L83132 74886
" />
<path d="M83385 74361
L83798 74361
L83320 74886
L83732 74886
" />
</g>
<g style="fill:#000000; fill-opacity:0.0; 
stroke:#000000; stroke-width:39.3701; stroke-opacity:1; 
stroke-linecap:round; stroke-linejoin:round;">
</g>
<g style="fill:#000000; fill-opacity:0.0; 
stroke:#000000; stroke-width:59.0551; stroke-opacity:1; 
stroke-linecap:round; stroke-linejoin:round;">
<path d="M70417 73070
L70220 73070
" />
<path d="M70220 73380
L70220 72789
L70501 72789
" />
<path d="M70726 73380
L70726 72986
" />
<path d="M70726 72789
L70698 72817
L70726 72845
L70754 72817
L70726 72789
L70726 72845
" />
<path d="M71091 73380
L71035 73352
L71007 73295
L71007 72789
" />
<path d="M71541 73352
L71485 73380
L71373 73380
L71316 73352
L71288 73295
L71288 73070
L71316 73014
L71373 72986
L71485 72986
L71541 73014
L71570 73070
L71570 73127
L71288 73183
" />
<path d="M71823 73323
L71851 73352
L71823 73380
L71795 73352
L71823 73323
L71823 73380
" />
<path d="M71823 73014
L71851 73042
L71823 73070
L71795 73042
L71823 73014
L71823 73070
" />
<path d="M72554 73070
L72751 73070
" />
<path d="M72835 73380
L72554 73380
L72554 72789
L72835 72789
" />
<path d="M73341 73352
L73285 73380
L73172 73380
L73116 73352
L73088 73323
L73060 73267
L73060 73099
L73088 73042
L73116 73014
L73172 72986
L73285 72986
L73341 73014
" />
<path d="M73594 73380
L73594 72789
" />
<path d="M73847 73380
L73847 73070
L73819 73014
L73763 72986
L73679 72986
L73622 73014
L73594 73042
" />
<path d="M74044 72986
L74269 72986
" />
<path d="M74129 72789
L74129 73295
L74157 73352
L74213 73380
L74269 73380
" />
<path d="M74410 72986
L74719 72986
L74410 73380
L74719 73380
" />
<path d="M75169 73352
L75113 73380
L75000 73380
L74944 73352
L74916 73295
L74916 73070
L74944 73014
L75000 72986
L75113 72986
L75169 73014
L75197 73070
L75197 73127
L74916 73183
" />
<path d="M75450 73380
L75450 72986
" />
<path d="M75450 72789
L75422 72817
L75450 72845
L75478 72817
L75450 72789
L75450 72845
" />
<path d="M75647 72986
L75872 72986
" />
<path d="M75732 72789
L75732 73295
L75760 73352
L75816 73380
L75872 73380
" />
<path d="M76041 73352
L76097 73380
L76210 73380
L76266 73352
L76294 73295
L76294 73267
L76266 73211
L76210 73183
L76125 73183
L76069 73155
L76041 73099
L76041 73070
L76069 73014
L76125 72986
L76210 72986
L76266 73014
" />
<path d="M76491 72986
L76631 73380
" />
<path d="M76772 72986
L76631 73380
L76575 73520
L76547 73548
L76491 73577
" />
<path d="M76969 73352
L77025 73380
L77138 73380
L77194 73352
L77222 73295
L77222 73267
L77194 73211
L77138 73183
L77053 73183
L76997 73155
L76969 73099
L76969 73070
L76997 73014
L77053 72986
L77138 72986
L77194 73014
" />
<path d="M77391 72986
L77616 72986
" />
<path d="M77475 72789
L77475 73295
L77503 73352
L77559 73380
L77616 73380
" />
<path d="M78037 73352
L77981 73380
L77869 73380
L77813 73352
L77784 73295
L77784 73070
L77813 73014
L77869 72986
L77981 72986
L78037 73014
L78066 73070
L78066 73127
L77784 73183
" />
<path d="M78319 73380
L78319 72986
" />
<path d="M78319 73042
L78347 73014
L78403 72986
L78487 72986
L78544 73014
L78572 73070
L78572 73380
" />
<path d="M78572 73070
L78600 73014
L78656 72986
L78741 72986
L78797 73014
L78825 73070
L78825 73380
" />
<path d="M79106 73323
L79134 73352
L79106 73380
L79078 73352
L79106 73323
L79106 73380
" />
<path d="M79387 73380
L79387 72789
" />
<path d="M79444 73155
L79612 73380
" />
<path d="M79612 72986
L79387 73211
" />
<path d="M79865 73380
L79865 72986
" />
<path d="M79865 72789
L79837 72817
L79865 72845
L79894 72817
L79865 72789
L79865 72845
" />
<path d="M80400 73352
L80343 73380
L80231 73380
L80175 73352
L80147 73323
L80118 73267
L80118 73099
L80147 73042
L80175 73014
L80231 72986
L80343 72986
L80400 73014
" />
<path d="M80906 73380
L80906 73070
L80878 73014
L80822 72986
L80709 72986
L80653 73014
" />
<path d="M80906 73352
L80850 73380
L80709 73380
L80653 73352
L80625 73295
L80625 73239
L80653 73183
L80709 73155
L80850 73155
L80906 73127
" />
<path d="M81440 73380
L81440 72789
" />
<path d="M81440 73352
L81384 73380
L81271 73380
L81215 73352
L81187 73323
L81159 73267
L81159 73099
L81187 73042
L81215 73014
L81271 72986
L81384 72986
L81440 73014
" />
<path d="M81581 73436
L82031 73436
" />
<path d="M82171 72986
L82171 73577
" />
<path d="M82171 73014
L82228 72986
L82340 72986
L82396 73014
L82424 73042
L82453 73099
L82453 73267
L82424 73323
L82396 73352
L82340 73380
L82228 73380
L82171 73352
" />
<path d="M82959 73352
L82903 73380
L82790 73380
L82734 73352
L82706 73323
L82678 73267
L82678 73099
L82706 73042
L82734 73014
L82790 72986
L82903 72986
L82959 73014
" />
<path d="M83212 73380
L83212 72789
" />
<path d="M83212 73014
L83268 72986
L83381 72986
L83437 73014
L83465 73042
L83493 73099
L83493 73267
L83465 73323
L83437 73352
L83381 73380
L83268 73380
L83212 73352
" />
</g>
<g style="fill:#000000; fill-opacity:0.0; 
stroke:#000000; stroke-width:39.3701; stroke-opacity:1; 
stroke-linecap:round; stroke-linejoin:round;">
</g>
<g style="fill:#000000; fill-opacity:0.0; 
stroke:#000000; stroke-width:59.0551; stroke-opacity:1; 
stroke-linecap:round; stroke-linejoin:round;">
<path d="M69685 71459
L112205 71459
" />
</g>
<g style="fill:#000000; fill-opacity:0.0; 
stroke:#000000; stroke-width:39.3701; stroke-opacity:1; 
stroke-linecap:round; stroke-linejoin:round;">
</g>
<g style="fill:#000000; fill-opacity:0.0; 
stroke:#000000; stroke-width:59.0551; stroke-opacity:1; 
stroke-linecap:round; stroke-linejoin:round;">
<path d="M70192 72289
L70276 72317
L70417 72317
L70473 72289
L70501 72260
L70529 72204
L70529 72148
L70501 72092
L70473 72064
L70417 72036
L70304 72007
L70248 71979
L70220 71951
L70192 71895
L70192 71839
L70220 71782
L70248 71754
L70304 71726
L70445 71726
L70529 71754
" />
<path d="M70782 72317
L70782 71726
" />
<path d="M71035 72317
L71035 72007
L71007 71951
L70951 71923
L70867 71923
L70810 71951
L70782 71979
" />
<path d="M71541 72289
L71485 72317
L71373 72317
L71316 72289
L71288 72232
L71288 72007
L71316 71951
L71373 71923
L71485 71923
L71541 71951
L71570 72007
L71570 72064
L71288 72120
" />
<path d="M72048 72289
L71991 72317
L71879 72317
L71823 72289
L71795 72232
L71795 72007
L71823 71951
L71879 71923
L71991 71923
L72048 71951
L72076 72007
L72076 72064
L71795 72120
" />
<path d="M72244 71923
L72469 71923
" />
<path d="M72329 71726
L72329 72232
L72357 72289
L72413 72317
L72469 72317
" />
<path d="M72666 72260
L72694 72289
L72666 72317
L72638 72289
L72666 72260
L72666 72317
" />
<path d="M72666 71951
L72694 71979
L72666 72007
L72638 71979
L72666 71951
L72666 72007
" />
</g>
<g style="fill:#000000; fill-opacity:0.0; 
stroke:#000000; stroke-width:39.3701; stroke-opacity:1; 
stroke-linecap:round; stroke-linejoin:round;">
</g>
<g style="fill:#000000; fill-opacity:0.0; 
stroke:#000000; stroke-width:118.11; stroke-opacity:1; 
stroke-linecap:round; stroke-linejoin:round;">
<path d="M70557 71136
L70360 70854
" />
<path d="M70220 71136
L70220 70545
L70445 70545
L70501 70573
L70529 70601
L70557 70658
L70557 70742
L70529 70798
L70501 70826
L70445 70854
L70220 70854
" />
<path d="M70895 71136
L70838 71108
L70810 71079
L70782 71023
L70782 70854
L70810 70798
L70838 70770
L70895 70742
L70979 70742
L71035 70770
L71063 70798
L71091 70854
L71091 71023
L71063 71079
L71035 71108
L70979 71136
L70895 71136
" />
<path d="M71345 71136
L71345 70545
" />
<path d="M71345 70770
L71401 70742
L71513 70742
L71570 70770
L71598 70798
L71626 70854
L71626 71023
L71598 71079
L71570 71108
L71513 71136
L71401 71136
L71345 71108
" />
<path d="M71963 71136
L71907 71108
L71879 71079
L71851 71023
L71851 70854
L71879 70798
L71907 70770
L71963 70742
L72048 70742
L72104 70770
L72132 70798
L72160 70854
L72160 71023
L72132 71079
L72104 71108
L72048 71136
L71963 71136
" />
<path d="M72385 71108
L72441 71136
L72554 71136
L72610 71108
L72638 71051
L72638 71023
L72610 70967
L72554 70939
L72469 70939
L72413 70911
L72385 70854
L72385 70826
L72413 70770
L72469 70742
L72554 70742
L72610 70770
" />
<path d="M73144 71108
L73088 71136
L72976 71136
L72919 71108
L72891 71079
L72863 71023
L72863 70854
L72891 70798
L72919 70770
L72976 70742
L73088 70742
L73144 70770
" />
<path d="M73397 71136
L73397 70545
" />
<path d="M73651 71136
L73651 70826
L73622 70770
L73566 70742
L73482 70742
L73426 70770
L73397 70798
" />
<path d="M74016 71136
L73960 71108
L73932 71079
L73904 71023
L73904 70854
L73932 70798
L73960 70770
L74016 70742
L74100 70742
L74157 70770
L74185 70798
L74213 70854
L74213 71023
L74185 71079
L74157 71108
L74100 71136
L74016 71136
" />
<path d="M74550 71136
L74494 71108
L74466 71079
L74438 71023
L74438 70854
L74466 70798
L74494 70770
L74550 70742
L74635 70742
L74691 70770
L74719 70798
L74747 70854
L74747 71023
L74719 71079
L74691 71108
L74635 71136
L74550 71136
" />
<path d="M75085 71136
L75028 71108
L75000 71051
L75000 70545
" />
<path d="M75675 70545
L76013 70545
" />
<path d="M75844 71136
L75844 70545
" />
<path d="M76210 70545
L76210 71023
L76238 71079
L76266 71108
L76322 71136
L76435 71136
L76491 71108
L76519 71079
L76547 71023
L76547 70545
" />
<path d="M77166 71079
L77138 71108
L77053 71136
L76997 71136
L76913 71108
L76856 71051
L76828 70995
L76800 70883
L76800 70798
L76828 70686
L76856 70629
L76913 70573
L76997 70545
L77053 70545
L77138 70573
L77166 70601
" />
</g>
<g style="fill:#000000; fill-opacity:0.0; 
stroke:#000000; stroke-width:39.3701; stroke-opacity:1; 
stroke-linecap:round; stroke-linejoin:round;">
</g>
<g style="fill:#000000; fill-opacity:0.0; 
stroke:#000000; stroke-width:59.0551; stroke-opacity:1; 
stroke-linecap:round; stroke-linejoin:round;">
<path d="M70220 69645
L70417 69645
" />
<path d="M70501 69955
L70220 69955
L70220 69364
L70501 69364
" />
<path d="M70754 69955
L70754 69561
" />
<path d="M70754 69673
L70782 69617
L70810 69589
L70867 69561
L70923 69561
" />
<path d="M71091 69926
L71148 69955
L71260 69955
L71316 69926
L71345 69870
L71345 69842
L71316 69786
L71260 69758
L71176 69758
L71120 69730
L71091 69673
L71091 69645
L71120 69589
L71176 69561
L71260 69561
L71316 69589
" />
<path d="M71513 69561
L71738 69561
" />
<path d="M71598 69364
L71598 69870
L71626 69926
L71682 69955
L71738 69955
" />
<path d="M72160 69926
L72104 69955
L71991 69955
L71935 69926
L71907 69870
L71907 69645
L71935 69589
L71991 69561
L72104 69561
L72160 69589
L72188 69645
L72188 69701
L71907 69758
" />
<path d="M72526 69955
L72469 69926
L72441 69870
L72441 69364
" />
<path d="M72835 69955
L72779 69926
L72751 69870
L72751 69364
" />
<path d="M72976 69561
L73201 69561
" />
<path d="M73060 69364
L73060 69870
L73088 69926
L73144 69955
L73201 69955
" />
<path d="M73791 69561
L73932 69955
L74072 69561
" />
<path d="M74382 69955
L74325 69926
L74297 69898
L74269 69842
L74269 69673
L74297 69617
L74325 69589
L74382 69561
L74466 69561
L74522 69589
L74550 69617
L74579 69673
L74579 69842
L74550 69898
L74522 69926
L74466 69955
L74382 69955
" />
<path d="M74832 69561
L74832 69955
" />
<path d="M74832 69617
L74860 69589
L74916 69561
L75000 69561
L75057 69589
L75085 69645
L75085 69955
" />
<path d="M76097 69955
L75816 69955
L75816 69364
" />
<path d="M76519 69926
L76463 69955
L76350 69955
L76294 69926
L76266 69870
L76266 69645
L76294 69589
L76350 69561
L76463 69561
L76519 69589
L76547 69645
L76547 69701
L76266 69758
" />
<path d="M77053 69955
L77053 69645
L77025 69589
L76969 69561
L76856 69561
L76800 69589
" />
<path d="M77053 69926
L76997 69955
L76856 69955
L76800 69926
L76772 69870
L76772 69814
L76800 69758
L76856 69730
L76997 69730
L77053 69701
" />
<path d="M77334 69561
L77334 69955
" />
<path d="M77334 69617
L77363 69589
L77419 69561
L77503 69561
L77559 69589
L77588 69645
L77588 69955
" />
<path d="M78122 69955
L78122 69364
" />
<path d="M78122 69926
L78066 69955
L77953 69955
L77897 69926
L77869 69898
L77841 69842
L77841 69673
L77869 69617
L77897 69589
L77953 69561
L78066 69561
L78122 69589
" />
<path d="M78628 69926
L78572 69955
L78459 69955
L78403 69926
L78375 69870
L78375 69645
L78403 69589
L78459 69561
L78572 69561
L78628 69589
L78656 69645
L78656 69701
L78375 69758
" />
<path d="M78909 69955
L78909 69561
" />
<path d="M78909 69673
L78937 69617
L78965 69589
L79022 69561
L79078 69561
" />
<path d="M79725 69955
L79725 69364
" />
<path d="M79725 69645
L80062 69645
" />
<path d="M80062 69955
L80062 69364
" />
<path d="M80568 69926
L80512 69955
L80400 69955
L80343 69926
L80315 69870
L80315 69645
L80343 69589
L80400 69561
L80512 69561
L80568 69589
L80597 69645
L80597 69701
L80315 69758
" />
<path d="M80850 69955
L80850 69561
" />
<path d="M80850 69673
L80878 69617
L80906 69589
L80962 69561
L81018 69561
" />
<path d="M81215 69955
L81215 69561
" />
<path d="M81215 69673
L81243 69617
L81271 69589
L81328 69561
L81384 69561
" />
</g>
<g style="fill:#000000; fill-opacity:0.0; 
stroke:#000000; stroke-width:39.3701; stroke-opacity:1; 
stroke-linecap:round; stroke-linejoin:round;">
</g>
<g style="fill:#000000; fill-opacity:0.0; 
stroke:#000000; stroke-width:59.0551; stroke-opacity:1; 
stroke-linecap:round; stroke-linejoin:round;">
<path d="M77559 75396
L77559 76577
" />
</g>
<g style="fill:#000000; fill-opacity:0.0; 
stroke:#000000; stroke-width:39.3701; stroke-opacity:1; 
stroke-linecap:round; stroke-linejoin:round;">
</g>
<g style="fill:#000000; fill-opacity:0.0; 
stroke:#000000; stroke-width:59.0551; stroke-opacity:1; 
stroke-linecap:round; stroke-linejoin:round;">
<path d="M102756 75396
L102756 77955
" />
</g>
<g style="fill:#C2C200; fill-opacity:0.0; 
stroke:#C2C200; stroke-width:59.0551; stroke-opacity:1; 
stroke-linecap:round; stroke-linejoin:round;">
<path d="M62362 52952
L62952 52952
" />
<path d="M62952 52165
L62362 52165
" />
<path d="M62952 52952
L63543 52952
" />
<path d="M62952 52165
L63543 52165
" />
<path d="M62362.2 52165.4 A393.701 393.701 0.0 0 0 61968.5 52559.1 " />
<path d="M61968.5 52559.1 A393.701 393.701 0.0 0 0 62362.2 52952.8 " />
<path d="M63937 52559.1 A393.701 393.701 0.0 0 0 63543.3 52165.4 " />
<path d="M63543.3 52952.8 A393.701 393.701 0.0 0 0 63937 52559.1 " />
<path d="M64370.1 44881.9 A393.701 393.701 0.0 0 0 64763.8 45275.6 " />
<path d="M64763.8 45275.6 A393.701 393.701 0.0 0 0 65157.5 44881.9 " />
<path d="M64763.8 36614.2 A393.701 393.701 0.0 0 0 64370.1 37007.9 " />
<path d="M65157.5 37007.9 A393.701 393.701 0.0 0 0 64763.8 36614.2 " />
<path d="M64370 44881
L64370 37007
" />
<path d="M65157 37007
L65157 44881
" />
<path d="M81003 52362
L81003 24704
" />
<path d="M81003.9 24704.7 A1181.1 1181.1 0.0 0 0 79822.8 23523.6 " />
<path d="M47440 24704
L47440 52362
" />
<path d="M48622 23523.6 A1181.1 1181.1 0.0 0 0 47440.9 24704.7 " />
<path d="M48622 23523
L79822 23523
" />
<path d="M48622 53543
L79822 53543
" />
<path d="M47440.9 52362.2 A1181.1 1181.1 0.0 0 0 48622 53543.3 " />
<path d="M79822.8 53543.3 A1181.1 1181.1 0.0 0 0 81003.9 52362.2 " />
</g>
<g style="fill:#840084; fill-opacity:0.0; 
stroke:#840084; stroke-width:59.0551; stroke-opacity:1; 
stroke-linecap:round; stroke-linejoin:round;">
</g>
<g style="fill:#840084; fill-opacity:0.0; 
stroke:#840084; stroke-width:47; stroke-opacity:1; 
stroke-linecap:round; stroke-linejoin:round;">
<path d="M71019 48859
L70991 48868
L70944 48868
L70925 48859
L70916 48849
L70906 48831
L70906 48812
L70916 48793
L70925 48784
L70944 48774
L70981 48765
L71000 48756
L71009 48746
L71019 48727
L71019 48709
L71009 48690
L71000 48681
L70981 48671
L70934 48671
L70906 48681
" />
<path d="M70737 48859
L70756 48868
L70794 48868
L70812 48859
L70822 48849
L70831 48831
L70831 48774
L70822 48756
L70812 48746
L70794 48737
L70756 48737
L70737 48746
" />
<path d="M70653 48868
L70653 48671
" />
<path d="M70569 48868
L70569 48765
L70578 48746
L70597 48737
L70625 48737
L70644 48746
L70653 48756
" />
<path d="M70447 48868
L70465 48859
L70475 48849
L70484 48831
L70484 48774
L70475 48756
L70465 48746
L70447 48737
L70418 48737
L70400 48746
L70390 48756
L70381 48774
L70381 48831
L70390 48849
L70400 48859
L70418 48868
L70447 48868
" />
<path d="M70325 48737
L70250 48737
" />
<path d="M70297 48671
L70297 48840
L70287 48859
L70268 48868
L70250 48868
" />
<path d="M70212 48737
L70137 48737
" />
<path d="M70184 48671
L70184 48840
L70175 48859
L70156 48868
L70137 48868
" />
<path d="M70071 48868
L70071 48671
" />
<path d="M70053 48793
L69996 48868
" />
<path d="M69996 48737
L70071 48812
" />
<path d="M69931 48737
L69884 48868
" />
<path d="M69837 48737
L69884 48868
L69903 48915
L69912 48924
L69931 48934
" />
<path d="M70794 49262
L70794 49065
L70747 49065
L70719 49074
L70700 49093
L70691 49112
L70681 49149
L70681 49177
L70691 49215
L70700 49234
L70719 49252
L70747 49262
L70794 49262
" />
<path d="M70597 49262
L70597 49131
" />
<path d="M70597 49065
L70606 49074
L70597 49084
L70587 49074
L70597 49065
L70597 49084
" />
<path d="M70475 49262
L70494 49252
L70503 49243
L70512 49224
L70512 49168
L70503 49149
L70494 49140
L70475 49131
L70447 49131
L70428 49140
L70418 49149
L70409 49168
L70409 49224
L70418 49243
L70428 49252
L70447 49262
L70475 49262
" />
<path d="M70240 49262
L70240 49065
" />
<path d="M70240 49252
L70259 49262
L70297 49262
L70315 49252
L70325 49243
L70334 49224
L70334 49168
L70325 49149
L70315 49140
L70297 49131
L70259 49131
L70240 49140
" />
<path d="M70071 49252
L70090 49262
L70128 49262
L70146 49252
L70156 49234
L70156 49159
L70146 49140
L70128 49131
L70090 49131
L70071 49140
L70062 49159
L70062 49177
L70156 49196
" />
</g>
<g style="fill:#840000; fill-opacity:0.0; 
stroke:#840000; stroke-width:47; stroke-opacity:1; 
stroke-linecap:round; stroke-linejoin:round;">
</g>
<g style="fill:#840000; fill-opacity:0.0; 
stroke:#840000; stroke-width:59.0551; stroke-opacity:1; 
stroke-linecap:round; stroke-linejoin:round;">
<path d="M64824 51101
L64955 51101
" />
<path d="M64955 51308
L64955 50914
L64767 50914
" />
<path d="M64411 51308
L64636 51308
" />
<path d="M64524 51308
L64524 50914
L64561 50970
L64599 51008
L64636 51026
" />
</g>
<g style="fill:#840084; fill-opacity:0.0; 
stroke:#840084; stroke-width:59.0551; stroke-opacity:1; 
stroke-linecap:round; stroke-linejoin:round;">
</g>
<g style="fill:#840084; fill-opacity:0.0; 
stroke:#840084; stroke-width:47; stroke-opacity:1; 
stroke-linecap:round; stroke-linejoin:round;">
<path d="M75315 47642
L75325 47670
L75325 47717
L75315 47735
L75306 47745
L75287 47754
L75269 47754
L75250 47745
L75240 47735
L75231 47717
L75222 47679
L75212 47660
L75203 47651
L75184 47642
L75165 47642
L75147 47651
L75137 47660
L75128 47679
L75128 47726
L75137 47754
" />
<path d="M75315 47923
L75325 47904
L75325 47867
L75315 47848
L75306 47839
L75287 47829
L75231 47829
L75212 47839
L75203 47848
L75194 47867
L75194 47904
L75203 47923
" />
<path d="M75325 48007
L75128 48007
" />
<path d="M75325 48092
L75222 48092
L75203 48082
L75194 48064
L75194 48036
L75203 48017
L75212 48007
" />
<path d="M75325 48214
L75315 48195
L75306 48186
L75287 48176
L75231 48176
L75212 48186
L75203 48195
L75194 48214
L75194 48242
L75203 48261
L75212 48270
L75231 48279
L75287 48279
L75306 48270
L75315 48261
L75325 48242
L75325 48214
" />
<path d="M75194 48336
L75194 48411
" />
<path d="M75128 48364
L75297 48364
L75315 48373
L75325 48392
L75325 48411
" />
<path d="M75194 48448
L75194 48523
" />
<path d="M75128 48476
L75297 48476
L75315 48486
L75325 48505
L75325 48523
" />
<path d="M75325 48589
L75128 48589
" />
<path d="M75250 48608
L75325 48664
" />
<path d="M75194 48664
L75269 48589
" />
<path d="M75194 48730
L75325 48777
" />
<path d="M75194 48824
L75325 48777
L75372 48758
L75381 48748
L75391 48730
" />
<path d="M74931 47867
L74734 47867
L74734 47914
L74744 47942
L74762 47960
L74781 47970
L74819 47979
L74847 47979
L74884 47970
L74903 47960
L74922 47942
L74931 47914
L74931 47867
" />
<path d="M74931 48064
L74800 48064
" />
<path d="M74734 48064
L74744 48054
L74753 48064
L74744 48073
L74734 48064
L74753 48064
" />
<path d="M74931 48186
L74922 48167
L74912 48157
L74894 48148
L74837 48148
L74819 48157
L74809 48167
L74800 48186
L74800 48214
L74809 48233
L74819 48242
L74837 48251
L74894 48251
L74912 48242
L74922 48233
L74931 48214
L74931 48186
" />
<path d="M74931 48420
L74734 48420
" />
<path d="M74922 48420
L74931 48401
L74931 48364
L74922 48345
L74912 48336
L74894 48326
L74837 48326
L74819 48336
L74809 48345
L74800 48364
L74800 48401
L74809 48420
" />
<path d="M74922 48589
L74931 48570
L74931 48533
L74922 48514
L74903 48505
L74828 48505
L74809 48514
L74800 48533
L74800 48570
L74809 48589
L74828 48598
L74847 48598
L74865 48505
" />
</g>
<g style="fill:#840084; fill-opacity:0.0; 
stroke:#840084; stroke-width:47.2441; stroke-opacity:1; 
stroke-linecap:round; stroke-linejoin:round;">
<circle cx="71653.5" cy="34803.1" r="2539.37" /> 
</g>
<g style="fill:#840084; fill-opacity:1.0; 
stroke:#840084; stroke-width:3.93701; stroke-opacity:1; 
stroke-linecap:round; stroke-linejoin:round;">
<polyline style="fill-rule:evenodd;"
points="75390,46621
75262,46635
75154,46655
75140,46659
74919,46736
74721,46838
74545,46964
74391,47114
74261,47288
74184,47424
74109,47607
74058,47807
74030,48019
74026,48234
74047,48446
74083,48614
74158,48824
74258,49014
74383,49184
74531,49332
74699,49456
74885,49556
75088,49630
75306,49676
75536,49693
75573,49693
75656,49692
75729,49690
75785,49687
75815,49685
75995,49646
76174,49588
76340,49515
76412,49477
76484,49426
76567,49356
76656,49273
76742,49183
76818,49095
76878,49015
76896,48987
76992,48792
77060,48585
77100,48369
77113,48154
76254,48154
76253,48255
76251,48331
76246,48390
76238,48441
76225,48492
76210,48539
76146,48688
76063,48811
75962,48906
75843,48974
75706,49013
75553,49023
75532,49022
75440,49012
75351,48993
75311,48980
75194,48918
75091,48828
75006,48712
74939,48572
74904,48463
74888,48371
74879,48258
74876,48136
74881,48015
74892,47908
74905,47846
74957,47693
75027,47562
75114,47454
75214,47374
75249,47354
75382,47305
75524,47284
75670,47291
75810,47325
75940,47386
75994,47423
76062,47490
76126,47583
76181,47695
76210,47771
76227,47827
76240,47877
76247,47928
76252,47990
76254,48069
76254,48154
77113,48154
77113,48150
77099,47930
77057,47716
76989,47511
76893,47320
76858,47264
76725,47094
76569,46947
76392,46824
76196,46727
75983,46658
75915,46642
75802,46626
75671,46617
75530,46615
75390,46621
" /> 
<polyline style="fill-rule:evenodd;"
points="72565,46862
72477,46796
72344,46716
72187,46659
72006,46624
71800,46613
71799,46613
71572,46627
71361,46668
71169,46737
70995,46832
70842,46954
70709,47101
70597,47273
70572,47321
70518,47440
70478,47554
70450,47671
70432,47800
70421,47951
70420,47988
70425,48242
70456,48481
70511,48702
70592,48906
70695,49089
70820,49251
70967,49391
71135,49507
71321,49597
71526,49661
71579,49672
71677,49685
71797,49692
71927,49693
72056,49688
72173,49677
72221,49669
72444,49614
72646,49534
72826,49429
72984,49299
73118,49146
73229,48968
73317,48768
73355,48646
73365,48607
73374,48567
73382,48523
73388,48472
73394,48413
73399,48343
73403,48261
73406,48163
73407,48159
72598,48159
72587,48355
72555,48527
72501,48675
72425,48798
72329,48896
72212,48968
72114,49004
71993,49023
71862,49020
71736,48996
71667,48971
71567,48911
71474,48827
71397,48729
71357,48656
71309,48517
71279,48359
71266,48190
71271,48020
71293,47858
71332,47712
71349,47669
71418,47544
71507,47441
71572,47388
71689,47327
71818,47292
71953,47283
72086,47300
72211,47342
72323,47409
72362,47443
72451,47547
72518,47672
72565,47821
72591,47993
72598,48159
73407,48159
73409,48048
73411,47914
73413,47757
73414,47577
73414,47371
73415,47137
73415,46872
73415,46792
73415,45313
72565,45313
72565,46862
" /> 
<polyline style="fill-rule:evenodd;"
points="68265,46617
68105,46628
67967,46648
67840,46681
67713,46729
67607,46779
67421,46888
67261,47016
67125,47166
67008,47340
66956,47438
66885,47609
66836,47790
66809,47987
66804,48064
66806,48301
66838,48526
66898,48737
66985,48931
67098,49109
67235,49266
67395,49403
67577,49516
67779,49605
67915,49647
68017,49667
68142,49682
68278,49690
68415,49692
68542,49687
68649,49674
68659,49672
68881,49615
69085,49529
69269,49418
69433,49283
69575,49126
69692,48947
69784,48749
69848,48533
69850,48527
69871,48396
69882,48248
69883,48154
69032,48154
69024,48336
68998,48492
68955,48625
68893,48741
68827,48824
68720,48917
68595,48982
68458,49019
68311,49026
68195,49011
68094,48979
67993,48931
67905,48871
67853,48822
67775,48709
67715,48574
67675,48423
67653,48263
67649,48098
67665,47936
67700,47781
67753,47641
67826,47521
67840,47503
67935,47412
68049,47344
68175,47301
68308,47282
68443,47289
68574,47320
68696,47378
68786,47446
68876,47545
68944,47660
68992,47794
69021,47950
69032,48132
69032,48154
69883,48154
69884,48093
69876,47944
69858,47814
69856,47804
69797,47589
69711,47394
69597,47215
69454,47051
69449,47046
69290,46907
69120,46797
68935,46713
68890,46697
68757,46658
68632,46632
68503,46618
68359,46615
68265,46617
" /> 
<polyline style="fill-rule:evenodd;"
points="64214,45255
64001,45268
63801,45290
63744,45299
63615,45319
63615,45691
63616,45824
63618,45929
63622,46005
63626,46050
63632,46063
63655,46060
63702,46053
63766,46044
63804,46038
63991,46013
64190,45998
64392,45991
64590,45993
64775,46004
64941,46024
65016,46038
65159,46078
65280,46131
65377,46196
65448,46271
65493,46353
65510,46439
65497,46528
65453,46618
65417,46664
65377,46705
65326,46745
65262,46787
65181,46831
65081,46880
64958,46934
64809,46997
64673,47051
64510,47117
64373,47173
64259,47222
64162,47266
64079,47307
64004,47347
63934,47388
63863,47432
63857,47437
63695,47556
63565,47687
63463,47829
63390,47985
63380,48015
63364,48070
63352,48120
63345,48175
63342,48242
63340,48331
63340,48379
63342,48497
63347,48589
63356,48662
63370,48725
63371,48729
63436,48908
63526,49068
63643,49209
63786,49332
63957,49437
64154,49524
64379,49594
64632,49647
64879,49679
64945,49683
65037,49687
65148,49690
65271,49692
65400,49693
65526,49693
65643,49692
65743,49690
65820,49686
65840,49685
65908,49679
65989,49670
66075,49661
66157,49652
66226,49643
66274,49636
66286,49634
66332,49625
66332,49252
66331,49125
66330,49029
66327,48959
66323,48913
66318,48887
66311,48879
66311,48879
66286,48882
66237,48889
66173,48900
66148,48904
65969,48929
65767,48947
65555,48958
65343,48961
65141,48955
65007,48945
64804,48919
64631,48880
64488,48828
64373,48763
64285,48683
64224,48588
64188,48478
64177,48364
64184,48280
64206,48202
64247,48130
64308,48062
64391,47996
64498,47930
64632,47864
64794,47795
64986,47723
65040,47703
65237,47632
65406,47567
65549,47506
65672,47449
65777,47392
65868,47334
65949,47272
66024,47206
66050,47181
66163,47049
66245,46910
66299,46760
66325,46594
66326,46426
66300,46235
66244,46059
66160,45899
66047,45756
65907,45629
65739,45519
65545,45427
65324,45353
65077,45297
65015,45286
64840,45265
64643,45253
64431,45250
64214,45255
" /> 
<polyline style="fill-rule:evenodd;"
points="60923,46619
60813,46623
60710,46627
60620,46632
60549,46637
60504,46641
60498,46642
60423,46654
60414,47333
60452,47324
60560,47304
60691,47291
60836,47284
60987,47284
61134,47290
61269,47303
61381,47323
61401,47327
61571,47385
61715,47462
61833,47560
61924,47678
61990,47817
62031,47978
62046,48160
62044,48245
62038,48349
62028,48429
62013,48495
62000,48533
61937,48658
61851,48764
61742,48851
61607,48920
61447,48971
61259,49006
61048,49024
60947,49026
60834,49024
60717,49018
60606,49009
60510,48998
60438,48985
60435,48985
60398,48976
60407,49654
60490,49667
60547,49672
60630,49677
60734,49681
60851,49684
60976,49686
61100,49687
61219,49687
61324,49685
61410,49682
61470,49678
61473,49678
61612,49656
61762,49624
61910,49584
62043,49541
62093,49522
62282,49429
62448,49312
62590,49174
62707,49016
62796,48840
62858,48647
62865,48613
62885,48485
62895,48337
62898,48181
62892,48028
62876,47893
62873,47874
62820,47655
62738,47454
62631,47272
62497,47111
62338,46971
62155,46853
61947,46757
61793,46706
61656,46670
61522,46644
61382,46627
61230,46618
61057,46616
60923,46619
" /> 
<polyline style="fill-rule:evenodd;"
points="54739,46622
54610,46635
54502,46656
54490,46659
54290,46726
54114,46810
53956,46915
53844,47011
53696,47171
53576,47347
53485,47539
53420,47749
53383,47979
53382,47984
53373,48219
53395,48444
53444,48656
53521,48854
53623,49035
53748,49198
53896,49341
54063,49463
54249,49561
54451,49633
54669,49678
54901,49694
54923,49693
55006,49692
55079,49690
55135,49687
55165,49685
55330,49650
55495,49599
55648,49536
55756,49478
55928,49355
56079,49209
56206,49043
56309,48860
56387,48664
56439,48457
56464,48242
56463,48206
55611,48206
55610,48238
55588,48421
55544,48582
55478,48720
55393,48834
55289,48922
55167,48983
55028,49017
54882,49022
54792,49012
54704,48993
54662,48980
54570,48933
54479,48864
54400,48783
54356,48722
54294,48586
54251,48431
54229,48264
54226,48092
54243,47921
54280,47761
54338,47617
54340,47613
54384,47546
54447,47475
54517,47410
54585,47362
54599,47354
54707,47313
54830,47288
54954,47282
54988,47284
55133,47313
55261,47369
55370,47452
55461,47559
55531,47689
55580,47841
55607,48014
55611,48206
56463,48206
56460,48022
56428,47801
56374,47608
56288,47404
56176,47220
56039,47057
55880,46916
55699,46800
55500,46709
55283,46646
55265,46642
55152,46626
55020,46617
54879,46616
54739,46622
" /> 
<polyline style="fill-rule:evenodd;"
points="51187,46623
51102,46625
51036,46628
50983,46634
50935,46642
50887,46655
50846,46667
50681,46724
50541,46787
50415,46861
50295,46952
50211,47027
50070,47183
49953,47360
49863,47555
49801,47765
49766,47990
49766,47991
49761,48230
49784,48458
49836,48672
49915,48870
50018,49051
50144,49213
50292,49355
50460,49474
50647,49569
50852,49639
51071,49681
51305,49693
51307,49693
51390,49692
51466,49689
51525,49687
51557,49684
51650,49666
51759,49638
51870,49603
51967,49566
51992,49555
52186,49448
52357,49318
52504,49166
52626,48994
52722,48804
52792,48598
52833,48377
52846,48144
52844,48078
51997,48078
51996,48244
51975,48407
51935,48561
51875,48699
51797,48817
51793,48821
51721,48888
51627,48947
51522,48992
51473,49007
51377,49021
51265,49021
51152,49008
51052,48983
51044,48980
50949,48930
50856,48858
50775,48772
50726,48699
50672,48569
50634,48418
50615,48255
50613,48088
50629,47923
50662,47770
50714,47635
50726,47610
50764,47554
50815,47491
50860,47446
50970,47367
51093,47314
51225,47286
51360,47284
51493,47306
51617,47354
51728,47425
51807,47503
51884,47622
51941,47761
51979,47915
51997,48078
52844,48078
52843,48064
52823,47859
52782,47673
52719,47499
52690,47438
52582,47249
52456,47087
52308,46949
52136,46831
52040,46779
51932,46727
51836,46688
51744,46660
51649,46641
51543,46629
51418,46624
51298,46623
51187,46623
" /> 
<polyline style="fill-rule:evenodd;"
points="78791,45262
78585,45297
78390,45352
78210,45427
78071,45509
77914,45634
77783,45778
77677,45943
77596,46130
77563,46238
77544,46334
77530,46450
77524,46578
77523,46707
77529,46828
77542,46931
77553,46979
77598,47111
77661,47250
77735,47381
77772,47437
77825,47503
77891,47576
77962,47648
78032,47712
78093,47759
78113,47772
78162,47802
78066,47896
77964,48009
77876,48136
77799,48278
77734,48440
77679,48624
77633,48833
77596,49070
77573,49258
77564,49349
77556,49434
77551,49505
77549,49553
77548,49558
77548,49629
78442,49629
78463,49383
78488,49136
78520,48917
78560,48724
78607,48554
78664,48403
78732,48267
78774,48196
78816,48132
78850,48087
78884,48058
78926,48041
78983,48032
79062,48026
79107,48024
79302,48005
79473,47967
79621,47909
79633,47904
79715,47862
79715,49629
80599,49629
80594,48017
80593,47749
80592,47513
80592,47305
80591,47125
80590,47042
79715,47042
79608,47142
79477,47245
79335,47321
79185,47369
79033,47389
78882,47378
78756,47344
78657,47291
78576,47224
78488,47120
78425,47003
78385,46868
78367,46713
78365,46646
78377,46475
78413,46327
78474,46201
78558,46097
78668,46014
78730,45982
78774,45962
78815,45949
78861,45942
78921,45939
79005,45938
79015,45938
79143,45943
79247,45959
79335,45989
79414,46036
79480,46090
79562,46179
79625,46287
79671,46416
79700,46568
79713,46746
79715,46823
79715,47042
80590,47042
80590,46969
80589,46836
80587,46724
80586,46630
80584,46553
80582,46489
80579,46438
80576,46396
80572,46363
80568,46335
80563,46310
80558,46287
80552,46263
80551,46263
80485,46067
80395,45887
80285,45727
80156,45591
80129,45568
79982,45466
79813,45384
79625,45320
79424,45276
79215,45252
79003,45247
78791,45262
" /> 
<polyline style="fill-rule:evenodd;"
points="58948,46079
58948,46236
58948,46381
58947,46513
58946,46627
58946,46721
58944,46791
58943,46833
58942,46846
58926,46837
58890,46815
58841,46782
58830,46775
58756,46732
58670,46690
58598,46662
58548,46646
58501,46635
58452,46628
58392,46624
58314,46622
58212,46621
58198,46621
58089,46622
58006,46624
57940,46629
57885,46636
57832,46648
57791,46659
57611,46725
57457,46811
57329,46919
57226,47048
57146,47199
57104,47321
57098,47344
57093,47371
57089,47405
57085,47449
57082,47505
57079,47575
57077,47662
57075,47769
57074,47898
57072,48053
57071,48234
57069,48445
57069,48525
57063,49629
57915,49629
57915,48630
57915,48383
57916,48167
57918,47982
57920,47829
57923,47708
57927,47619
57931,47563
57933,47546
57969,47451
58031,47375
58105,47325
58149,47305
58198,47294
58263,47289
58315,47288
58469,47302
58607,47344
58726,47412
58826,47507
58841,47526
58863,47555
58882,47582
58897,47611
58910,47643
58921,47682
58929,47730
58936,47791
58941,47866
58944,47960
58946,48073
58948,48210
58948,48373
58948,48565
58948,48699
58948,49629
59798,49629
59798,45313
58948,45313
58948,46079
" /> 
<polyline style="fill-rule:evenodd;"
points="48298,49629
49132,49629
49132,45313
48298,45313
48298,49629
" /> 
<polyline style="fill-rule:evenodd;"
points="72246,36350
72222,36372
72181,36414
72132,36466
71927,36663
71694,36845
71434,37012
71152,37161
70847,37293
70524,37406
70184,37499
69882,37562
69464,37623
69033,37659
68590,37672
68131,37659
67656,37622
67165,37560
66656,37473
66128,37362
65580,37225
65266,37138
65177,37113
65099,37092
65039,37076
65001,37067
64990,37066
64989,37083
64988,37131
64985,37210
64982,37318
64977,37453
64973,37614
64967,37798
64961,38006
64954,38234
64947,38482
64939,38748
64931,39031
64923,39329
64914,39640
64904,39963
64895,40296
64885,40638
64873,41083
64862,41495
64851,41876
64842,42225
64833,42543
64826,42832
64820,43091
64814,43321
64809,43524
64806,43699
64803,43847
64801,43970
64800,44066
64800,44139
64801,44187
64802,44212
64803,44216
64828,44224
64880,44236
64953,44251
65041,44268
65139,44285
65240,44302
65339,44317
65357,44320
65465,44334
65599,44350
65752,44366
65915,44382
66083,44398
66246,44411
66398,44423
66490,44429
66581,44433
66699,44438
66840,44442
66997,44445
67165,44449
67338,44451
67511,44453
67678,44455
67834,44456
67972,44455
68088,44454
68165,44453
68533,44436
68907,44408
69275,44372
69627,44327
69790,44302
69938,44278
70091,44250
70245,44220
70396,44190
70541,44159
70674,44129
70793,44100
70894,44074
70972,44051
71023,44032
71040,44023
71053,44005
71068,43967
71085,43909
71105,43830
71127,43729
71153,43606
71180,43459
71211,43289
71245,43094
71282,42874
71323,42628
71367,42355
71414,42055
71465,41727
71520,41370
71578,40984
71641,40567
71708,40120
71779,39641
71854,39129
71856,39113
71900,38817
71942,38530
71982,38254
72021,37989
72058,37738
72093,37503
72125,37284
72154,37086
72180,36908
72203,36752
72222,36621
72238,36517
72249,36440
72256,36394
72258,36379
72261,36356
72258,36345
72246,36350
" /> 
<polyline style="fill-rule:evenodd;"
points="56992,36866
56997,36915
57006,36992
57018,37096
57033,37225
57052,37377
57073,37549
57096,37740
57122,37947
57149,38169
57179,38403
57209,38647
57241,38899
57273,39158
57307,39420
57340,39684
57374,39948
57407,40210
57440,40468
57472,40719
57503,40962
57533,41194
57562,41414
57589,41619
57613,41807
57632,41946
57675,42269
57715,42561
57750,42821
57783,43052
57812,43254
57838,43428
57861,43577
57882,43700
57900,43798
57915,43874
57928,43928
57939,43961
57942,43966
57988,44036
58052,44105
58118,44159
58123,44163
58177,44186
58264,44211
58384,44236
58535,44262
58718,44289
58767,44295
59075,44330
59411,44359
59773,44381
60157,44397
60559,44406
60976,44409
61404,44404
61763,44395
62010,44386
62270,44373
62537,44358
62806,44341
63073,44322
63334,44302
63583,44280
63817,44257
64029,44235
64217,44212
64336,44195
64465,44175
64465,44006
64466,43973
64467,43908
64469,43813
64471,43690
64475,43540
64479,43365
64483,43167
64488,42947
64494,42708
64500,42449
64506,42175
64513,41885
64520,41582
64528,41267
64536,40943
64544,40610
64548,40446
64556,40113
64564,39788
64571,39474
64578,39172
64585,38883
64591,38610
64597,38353
64603,38115
64608,37896
64612,37699
64616,37526
64619,37376
64622,37253
64624,37158
64625,37091
64625,37056
64625,37050
64608,37052
64564,37061
64500,37075
64421,37094
64380,37103
64013,37184
63621,37256
63208,37320
62784,37374
62353,37418
61922,37452
61498,37475
61088,37485
60697,37483
60545,37479
60026,37451
59533,37408
59061,37350
58606,37275
58164,37182
57730,37072
57301,36943
57253,36928
57166,36900
57092,36876
57034,36859
56999,36850
56991,36849
56992,36866
" /> 
<polyline style="fill-rule:evenodd;"
points="67907,26998
67850,27007
67796,27026
67752,27047
67641,27120
67554,27214
67495,27325
67464,27451
67460,27509
67470,27635
67503,27743
67563,27841
67609,27894
67699,27987
67636,28049
67615,28070
67571,28112
67508,28174
67426,28254
67328,28350
67216,28459
67091,28580
66956,28712
66813,28852
66662,28998
66592,29067
65610,30023
65467,29984
65224,29933
64966,29905
64703,29900
64444,29919
64223,29955
64143,29972
64073,29987
64020,29997
63992,30001
63992,30001
63979,29994
63953,29970
63914,29929
63861,29869
63792,29789
63706,29689
63604,29567
63484,29422
63344,29254
63186,29061
63132,28996
62304,27988
62369,27924
62449,27825
62499,27712
62521,27584
62523,27538
62513,27420
62484,27322
62432,27232
62384,27176
62305,27103
62219,27054
62119,27026
62012,27015
61935,27014
61880,27017
61835,27027
61786,27046
61778,27050
61668,27114
61583,27195
61516,27299
61514,27303
61472,27425
61459,27552
61476,27677
61522,27794
61592,27895
61657,27955
61732,28008
61762,28024
61817,28049
61866,28063
61923,28068
61990,28069
62057,28067
62114,28064
62150,28061
62153,28060
62162,28064
62175,28078
62193,28104
62219,28144
62252,28200
62294,28273
62345,28366
62407,28479
62481,28615
62567,28776
62666,28962
62780,29176
63377,30297
63155,30512
61489,30517
59823,30522
59700,30560
59491,30639
59305,30743
59142,30870
59002,31021
58887,31194
58855,31254
58840,31285
58826,31312
58813,31338
58801,31363
58791,31390
58781,31420
58773,31455
58766,31496
58759,31545
58754,31603
58749,31671
58745,31753
58742,31848
58739,31959
58737,32087
58735,32234
58734,32401
58733,32590
58732,32802
58732,33040
58732,33304
58732,33596
58732,33918
58732,34272
58732,34382
58732,37125
58819,37136
59266,37180
59737,37208
60228,37222
60732,37221
61246,37205
61762,37175
62278,37130
62786,37071
63148,37020
63324,36991
63522,36955
63732,36915
63945,36873
64151,36829
64340,36787
64443,36763
64540,36740
64632,36721
64711,36706
64769,36698
64793,36696
64835,36701
64904,36716
64995,36739
65103,36770
65212,36803
65780,36968
66332,37108
66872,37224
67404,37315
67932,37383
68157,37405
68258,37412
68380,37419
68517,37426
68663,37431
68810,37435
68953,37438
69084,37440
69199,37439
69290,37437
69323,37436
69680,37405
70021,37360
70343,37302
70639,37230
70711,37210
70832,37174
70832,35207
68677,35207
68655,35381
68603,35549
68525,35708
68422,35855
68296,35988
68150,36103
67985,36199
67805,36271
67718,36295
67588,36318
67440,36328
67287,36326
67144,36311
67070,36296
66871,36233
66690,36143
66528,36028
66387,35890
66271,35732
66181,35556
66155,35487
66134,35422
66120,35364
66113,35303
66110,35228
66109,35163
66109,35139
63657,35139
63645,35314
63605,35484
63539,35646
63447,35798
63332,35936
63195,36059
63039,36163
62864,36245
62702,36295
62592,36315
62462,36326
62326,36328
62196,36321
62084,36305
61891,36248
61711,36165
61548,36057
61404,35927
61284,35777
61188,35612
61138,35485
61097,35308
61088,35126
61109,34944
61162,34769
61224,34638
61334,34475
61470,34331
61628,34209
61807,34111
62004,34038
62040,34028
62172,34003
62322,33992
62476,33994
62621,34010
62707,34027
62894,34091
63068,34181
63227,34294
63366,34426
63481,34574
63569,34735
63590,34785
63639,34962
63657,35139
66109,35139
66110,35071
66115,35002
66124,34943
66140,34884
66155,34838
66200,34721
66249,34622
66310,34531
66389,34439
66456,34369
66529,34298
66591,34245
66650,34203
66716,34165
66766,34140
66912,34075
67048,34030
67184,34004
67334,33993
67390,33993
67606,34007
67808,34052
67995,34127
68167,34232
68296,34338
68431,34482
68535,34632
68609,34792
68657,34965
68668,35031
68677,35207
70832,35207
70832,34426
70832,34068
70832,33741
70831,33444
70831,33177
70831,32936
70830,32721
70830,32530
70829,32362
70828,32214
70827,32087
70826,31977
70824,31883
70823,31805
70821,31739
70818,31686
70816,31643
70813,31608
70810,31581
70807,31559
70805,31549
70749,31354
70663,31173
70550,31009
70411,30864
70249,30741
70081,30648
70038,30628
70000,30610
69965,30594
69931,30581
69895,30569
69856,30558
69811,30550
69758,30543
69695,30537
69620,30532
69531,30528
69426,30525
69302,30523
69158,30521
68990,30520
68798,30519
68579,30518
68331,30517
68064,30517
66405,30512
66318,30424
66231,30336
67023,29184
67815,28033
67886,28049
67999,28059
68117,28043
68231,28002
68333,27939
68373,27904
68451,27804
68500,27691
68522,27560
68523,27521
68521,27445
68513,27388
68496,27336
68477,27293
68420,27204
68346,27124
68262,27059
68187,27022
68125,27008
68046,26999
67981,26996
67907,26998
" /> 
<polyline style="fill-rule:evenodd;"
points="71148,35579
72098,35579
72098,35140
72144,35182
72206,35232
72266,35257
72326,35263
72406,35246
72481,35198
72551,35120
72616,35013
72674,34879
72724,34720
72767,34536
72784,34438
72795,34346
72802,34229
72805,34096
72806,33955
72803,33813
72796,33680
72787,33563
72775,33471
72775,33471
72733,33276
72682,33106
72622,32964
72555,32850
72481,32767
72435,32734
72357,32701
72282,32700
72208,32732
72152,32776
72098,32826
72098,32379
71148,32379
71148,35579
" /> 
<polyline style="fill-rule:evenodd;"
points="57481,32608
57480,32705
57477,32769
57473,32805
57466,32812
57464,32809
57432,32776
57381,32742
57323,32714
57271,32697
57255,32696
57178,32713
57105,32760
57035,32838
56970,32943
56912,33074
56861,33229
56818,33405
56805,33471
56793,33563
56784,33680
56777,33813
56774,33955
56775,34096
56778,34229
56785,34346
56796,34438
56830,34616
56874,34779
56925,34924
56983,35046
57045,35143
57111,35212
57149,35238
57213,35258
57284,35261
57347,35247
57354,35244
57391,35220
57432,35186
57436,35182
57482,35140
57482,35579
58432,35579
58432,32379
57482,32379
57481,32608
" /> 
<polyline style="fill-rule:evenodd;"
points="67319,34787
67174,34809
67035,34852
66907,34916
66794,35000
66700,35102
66629,35224
66615,35258
66587,35369
66581,35492
66594,35614
66627,35725
66639,35750
66715,35867
66819,35970
66944,36056
67085,36121
67131,36136
67206,36151
67303,36159
67410,36161
67515,36156
67606,36145
67644,36137
67788,36083
67918,36004
68029,35904
68115,35788
68135,35749
68161,35695
68177,35650
68186,35604
68189,35546
68190,35471
68189,35391
68185,35333
68176,35287
68159,35243
68142,35207
68104,35144
68053,35075
68003,35020
67886,34925
67755,34855
67614,34809
67467,34787
67319,34787
" /> 
<polyline style="fill-rule:evenodd;"
points="62180,34804
62035,34846
61902,34910
61785,34994
61688,35098
61615,35220
61597,35263
61571,35370
61564,35490
61577,35612
61609,35721
61622,35750
61699,35867
61802,35970
61927,36056
62068,36121
62114,36136
62190,36151
62287,36159
62393,36161
62498,36156
62589,36145
62627,36137
62771,36083
62901,36004
63012,35904
63098,35788
63119,35749
63144,35695
63160,35650
63169,35604
63173,35546
63173,35471
63172,35391
63168,35333
63159,35287
63143,35243
63125,35207
63062,35107
62976,35012
62876,34930
62793,34879
62642,34821
62487,34790
62331,34785
62180,34804
" /> 
</g>
<g style="fill:#840084; fill-opacity:1.0; 
stroke:#840084; stroke-width:70; stroke-opacity:1; 
stroke-linecap:round; stroke-linejoin:round;">
</g>
<g style="fill:#840084; fill-opacity:0.0; 
stroke:#840084; stroke-width:70; stroke-opacity:1; 
stroke-linecap:round; stroke-linejoin:round;">
<path d="M71772 50196
L71772 47756
" />
<path d="M71732 47756
L71732 50196
" />
<path d="M71693 50196
L71693 47756
" />
<path d="M71653 47756
L71653 50196
" />
<path d="M71614 50196
L71614 47756
" />
<path d="M71575 47756
L71575 50196
" />
<path d="M71535 50196
L71535 47756
" />
<path d="M69056 50196
L71810 50196
" />
<path d="M71811 50196
L71811 47756
" />
<path d="M71811 47756
L69055 47756
" />
<path d="M69055 47756
L69055 50196
" />
</g>
<g style="fill:#840084; fill-opacity:0.0; 
stroke:#840084; stroke-width:59.0551; stroke-opacity:1; 
stroke-linecap:round; stroke-linejoin:round;">
<path d="M49968 25854
L49968 25244
" />
<path d="M51078 24744
L51078 25744
" />
<path d="M50078 24744
L51078 24744
" />
<path d="M50578 25854
L49968 25854
" />
<path d="M50078 23744
L50078 24744
" />
<path d="M70078 23744
L70078 25744
" />
<path d="M51078 25744
L70078 25744
" />
<path d="M70078 23744
L50078 23744
" />
<path d="M65728 52452
L64728 52452
" />
<path d="M66838 52342
L66228 52342
" />
<path d="M65728 52452
L65728 53452
" />
<path d="M66228 53562
L66838 53562
" />
<path d="M66838 53562
L66838 52342
" />
<path d="M65728 53452
L64728 53452
" />
<path d="M64728 53452
L64728 52452
" />
<path d="M63314 50224
L64220 50224
" />
<path d="M64220 51484
L63314 51484
" />
<path d="M66063 51486
L65163 51486
" />
<path d="M65163 50222
L66063 50222
" />
<path d="M63314 51484
L63314 50224
" />
<path d="M66070 51484
L66070 50224
" />
<path d="M63393 51484
L63393 50224
" />
</g>
<g style="fill:#840084; fill-opacity:0.0; 
stroke:#840084; stroke-width:47.2441; stroke-opacity:1; 
stroke-linecap:round; stroke-linejoin:round;">
<circle cx="54212.6" cy="28779.5" r="2401.57" /> 
</g>
<g style="fill:#840084; fill-opacity:0.0; 
stroke:#840084; stroke-width:70; stroke-opacity:1; 
stroke-linecap:round; stroke-linejoin:round;">
<path d="M73819 49567
L76259 49567
" />
<path d="M76259 49527
L73819 49527
" />
<path d="M73819 49488
L76259 49488
" />
<path d="M76259 49448
L73819 49448
" />
<path d="M73819 49409
L76259 49409
" />
<path d="M76259 49370
L73819 49370
" />
<path d="M73819 49330
L76259 49330
" />
<path d="M73819 46851
L73819 49605
" />
<path d="M73819 49606
L76259 49606
" />
<path d="M76259 49606
L76259 46850
" />
<path d="M76259 46850
L73819 46850
" />
</g>
<g style="fill:#840000; fill-opacity:0.0; 
stroke:#840000; stroke-width:70; stroke-opacity:1; 
stroke-linecap:round; stroke-linejoin:round;">
</g>
<g style="fill:#840000; fill-opacity:0.0; 
stroke:#840000; stroke-width:680; stroke-opacity:1; 
stroke-linecap:round; stroke-linejoin:round;">
<path d="M69578 24244
L69578 24244
" />
<path d="M69578 25244
L69578 25244
" />
<path d="M68578 24244
L68578 24244
" />
<path d="M68578 25244
L68578 25244
" />
<path d="M67578 24244
L67578 24244
" />
<path d="M67578 25244
L67578 25244
" />
<path d="M66578 24244
L66578 24244
" />
<path d="M66578 25244
L66578 25244
" />
<path d="M65578 24244
L65578 24244
" />
<path d="M65578 25244
L65578 25244
" />
<path d="M64578 24244
L64578 24244
" />
<path d="M64578 25244
L64578 25244
" />
<path d="M63578 24244
L63578 24244
" />
<path d="M63578 25244
L63578 25244
" />
<path d="M62578 24244
L62578 24244
" />
<path d="M62578 25244
L62578 25244
" />
<path d="M61578 24244
L61578 24244
" />
<path d="M61578 25244
L61578 25244
" />
<path d="M60578 24244
L60578 24244
" />
<path d="M60578 25244
L60578 25244
" />
<path d="M59578 24244
L59578 24244
" />
<path d="M59578 25244
L59578 25244
" />
<path d="M58578 24244
L58578 24244
" />
<path d="M58578 25244
L58578 25244
" />
<path d="M57578 24244
L57578 24244
" />
<path d="M57578 25244
L57578 25244
" />
<path d="M56578 24244
L56578 24244
" />
<path d="M56578 25244
L56578 25244
" />
<path d="M55578 24244
L55578 24244
" />
<path d="M55578 25244
L55578 25244
" />
<path d="M54578 24244
L54578 24244
" />
<path d="M54578 25244
L54578 25244
" />
<path d="M53578 24244
L53578 24244
" />
<path d="M53578 25244
L53578 25244
" />
<path d="M52578 24244
L52578 24244
" />
<path d="M52578 25244
L52578 25244
" />
<path d="M51578 24244
L51578 24244
" />
<path d="M51578 25244
L51578 25244
" />
<path d="M50578 24244
L50578 24244
" />
<path d="M50578 25244
L50578 25244
" />
</g>
<g style="fill:#840000; fill-opacity:1.0; 
stroke:#840000; stroke-width:0; stroke-opacity:1; 
stroke-linecap:round; stroke-linejoin:round;">
<circle cx="69015.7" cy="40787.4" r="393.5" /> 
</g>
<g style="fill:#840000; fill-opacity:1.0; 
stroke:#840000; stroke-width:39.3701; stroke-opacity:1; 
stroke-linecap:round; stroke-linejoin:round;">
</g>
<g style="fill:#840000; fill-opacity:1.0; 
stroke:#840000; stroke-width:0; stroke-opacity:1; 
stroke-linecap:round; stroke-linejoin:round;">
<circle cx="73015.7" cy="40787.4" r="393.5" /> 
</g>
<g style="fill:#840000; fill-opacity:1.0; 
stroke:#840000; stroke-width:39.3701; stroke-opacity:1; 
stroke-linecap:round; stroke-linejoin:round;">
</g>
<g style="fill:#840000; fill-opacity:1.0; 
stroke:#840000; stroke-width:0; stroke-opacity:1; 
stroke-linecap:round; stroke-linejoin:round;">
<circle cx="54842.5" cy="44566.9" r="393.5" /> 
</g>
<g style="fill:#840000; fill-opacity:1.0; 
stroke:#840000; stroke-width:39.3701; stroke-opacity:1; 
stroke-linecap:round; stroke-linejoin:round;">
</g>
<g style="fill:#840000; fill-opacity:1.0; 
stroke:#840000; stroke-width:0; stroke-opacity:1; 
stroke-linecap:round; stroke-linejoin:round;">
<circle cx="54842.5" cy="40566.9" r="393.5" /> 
</g>
<g style="fill:#840000; fill-opacity:1.0; 
stroke:#840000; stroke-width:39.3701; stroke-opacity:1; 
stroke-linecap:round; stroke-linejoin:round;">
</g>
<g style="fill:#840000; fill-opacity:1.0; 
stroke:#840000; stroke-width:0; stroke-opacity:1; 
stroke-linecap:round; stroke-linejoin:round;">
<circle cx="61003.9" cy="35492.1" r="393.5" /> 
</g>
<g style="fill:#840000; fill-opacity:1.0; 
stroke:#840000; stroke-width:39.3701; stroke-opacity:1; 
stroke-linecap:round; stroke-linejoin:round;">
</g>
<g style="fill:#840000; fill-opacity:1.0; 
stroke:#840000; stroke-width:0; stroke-opacity:1; 
stroke-linecap:round; stroke-linejoin:round;">
<circle cx="65003.9" cy="35492.1" r="393.5" /> 
</g>
<g style="fill:#840000; fill-opacity:1.0; 
stroke:#840000; stroke-width:39.3701; stroke-opacity:1; 
stroke-linecap:round; stroke-linejoin:round;">
</g>
<g style="fill:#840000; fill-opacity:1.0; 
stroke:#840000; stroke-width:0; stroke-opacity:1; 
stroke-linecap:round; stroke-linejoin:round;">
<circle cx="61003.9" cy="34311" r="393.5" /> 
</g>
<g style="fill:#840000; fill-opacity:1.0; 
stroke:#840000; stroke-width:39.3701; stroke-opacity:1; 
stroke-linecap:round; stroke-linejoin:round;">
</g>
<g style="fill:#840000; fill-opacity:1.0; 
stroke:#840000; stroke-width:0; stroke-opacity:1; 
stroke-linecap:round; stroke-linejoin:round;">
<circle cx="65003.9" cy="34311" r="393.5" /> 
</g>
<g style="fill:#840000; fill-opacity:1.0; 
stroke:#840000; stroke-width:39.3701; stroke-opacity:1; 
stroke-linecap:round; stroke-linejoin:round;">
</g>
<g style="fill:#840000; fill-opacity:1.0; 
stroke:#840000; stroke-width:0; stroke-opacity:1; 
stroke-linecap:round; stroke-linejoin:round;">
<circle cx="80236.2" cy="42755.9" r="393.5" /> 
</g>
<g style="fill:#840000; fill-opacity:1.0; 
stroke:#840000; stroke-width:39.3701; stroke-opacity:1; 
stroke-linecap:round; stroke-linejoin:round;">
</g>
<g style="fill:#840000; fill-opacity:1.0; 
stroke:#840000; stroke-width:0; stroke-opacity:1; 
stroke-linecap:round; stroke-linejoin:round;">
<circle cx="80236.2" cy="46755.9" r="393.5" /> 
</g>
<g style="fill:#840000; fill-opacity:1.0; 
stroke:#840000; stroke-width:39.3701; stroke-opacity:1; 
stroke-linecap:round; stroke-linejoin:round;">
</g>
<g style="fill:#840000; fill-opacity:1.0; 
stroke:#840000; stroke-width:0; stroke-opacity:1; 
stroke-linecap:round; stroke-linejoin:round;">
<circle cx="79035.4" cy="46755.9" r="393.5" /> 
</g>
<g style="fill:#840000; fill-opacity:1.0; 
stroke:#840000; stroke-width:39.3701; stroke-opacity:1; 
stroke-linecap:round; stroke-linejoin:round;">
</g>
<g style="fill:#840000; fill-opacity:1.0; 
stroke:#840000; stroke-width:0; stroke-opacity:1; 
stroke-linecap:round; stroke-linejoin:round;">
<circle cx="79035.4" cy="42755.9" r="393.5" /> 
</g>
<g style="fill:#840000; fill-opacity:1.0; 
stroke:#840000; stroke-width:39.3701; stroke-opacity:1; 
stroke-linecap:round; stroke-linejoin:round;">
</g>
<g style="fill:#840000; fill-opacity:1.0; 
stroke:#840000; stroke-width:0; stroke-opacity:1; 
stroke-linecap:round; stroke-linejoin:round;">
<circle cx="56129.9" cy="44614.2" r="393.5" /> 
</g>
<g style="fill:#840000; fill-opacity:1.0; 
stroke:#840000; stroke-width:39.3701; stroke-opacity:1; 
stroke-linecap:round; stroke-linejoin:round;">
</g>
<g style="fill:#840000; fill-opacity:1.0; 
stroke:#840000; stroke-width:0; stroke-opacity:1; 
stroke-linecap:round; stroke-linejoin:round;">
<circle cx="56129.9" cy="40614.2" r="393.5" /> 
</g>
<g style="fill:#840000; fill-opacity:1.0; 
stroke:#840000; stroke-width:39.3701; stroke-opacity:1; 
stroke-linecap:round; stroke-linejoin:round;">
</g>
<g style="fill:#840000; fill-opacity:1.0; 
stroke:#840000; stroke-width:0; stroke-opacity:1; 
stroke-linecap:round; stroke-linejoin:round;">
<circle cx="52933.1" cy="28779.5" r="295.276" /> 
</g>
<g style="fill:#840000; fill-opacity:1.0; 
stroke:#840000; stroke-width:39.3701; stroke-opacity:1; 
stroke-linecap:round; stroke-linejoin:round;">
</g>
<g style="fill:#840000; fill-opacity:1.0; 
stroke:#840000; stroke-width:708.661; stroke-opacity:1; 
stroke-linecap:round; stroke-linejoin:round;">
</g>
<g style="fill:#840000; fill-opacity:0.0; 
stroke:#840000; stroke-width:708.661; stroke-opacity:1; 
stroke-linecap:round; stroke-linejoin:round;">
<path d="M54409 28779
L55787 28779
" />
</g>
<g style="fill:#840000; fill-opacity:1.0; 
stroke:#840000; stroke-width:0; stroke-opacity:1; 
stroke-linecap:round; stroke-linejoin:round;">
<circle cx="69370.1" cy="30803.1" r="393.5" /> 
</g>
<g style="fill:#840000; fill-opacity:1.0; 
stroke:#840000; stroke-width:39.3701; stroke-opacity:1; 
stroke-linecap:round; stroke-linejoin:round;">
</g>
<g style="fill:#840000; fill-opacity:1.0; 
stroke:#840000; stroke-width:0; stroke-opacity:1; 
stroke-linecap:round; stroke-linejoin:round;">
<circle cx="69370.1" cy="34803.1" r="393.5" /> 
</g>
<g style="fill:#840000; fill-opacity:1.0; 
stroke:#840000; stroke-width:39.3701; stroke-opacity:1; 
stroke-linecap:round; stroke-linejoin:round;">
</g>
<g style="fill:#840000; fill-opacity:1.0; 
stroke:#840000; stroke-width:0; stroke-opacity:1; 
stroke-linecap:round; stroke-linejoin:round;">
<circle cx="68307.1" cy="30803.1" r="393.5" /> 
</g>
<g style="fill:#840000; fill-opacity:1.0; 
stroke:#840000; stroke-width:39.3701; stroke-opacity:1; 
stroke-linecap:round; stroke-linejoin:round;">
</g>
<g style="fill:#840000; fill-opacity:1.0; 
stroke:#840000; stroke-width:0; stroke-opacity:1; 
stroke-linecap:round; stroke-linejoin:round;">
<circle cx="68307.1" cy="34803.1" r="393.5" /> 
</g>
<g style="fill:#840000; fill-opacity:1.0; 
stroke:#840000; stroke-width:39.3701; stroke-opacity:1; 
stroke-linecap:round; stroke-linejoin:round;">
</g>
<g style="fill:#840000; fill-opacity:1.0; 
stroke:#840000; stroke-width:0; stroke-opacity:1; 
stroke-linecap:round; stroke-linejoin:round;">
<circle cx="52755.9" cy="38881.9" r="393.5" /> 
</g>
<g style="fill:#840000; fill-opacity:1.0; 
stroke:#840000; stroke-width:39.3701; stroke-opacity:1; 
stroke-linecap:round; stroke-linejoin:round;">
</g>
<g style="fill:#840000; fill-opacity:1.0; 
stroke:#840000; stroke-width:0; stroke-opacity:1; 
stroke-linecap:round; stroke-linejoin:round;">
<circle cx="52755.9" cy="34881.9" r="393.5" /> 
</g>
<g style="fill:#840000; fill-opacity:1.0; 
stroke:#840000; stroke-width:39.3701; stroke-opacity:1; 
stroke-linecap:round; stroke-linejoin:round;">
</g>
<g style="fill:#840000; fill-opacity:1.0; 
stroke:#840000; stroke-width:0; stroke-opacity:1; 
stroke-linecap:round; stroke-linejoin:round;">
<circle cx="57858.3" cy="36535.4" r="393.5" /> 
</g>
<g style="fill:#840000; fill-opacity:1.0; 
stroke:#840000; stroke-width:39.3701; stroke-opacity:1; 
stroke-linecap:round; stroke-linejoin:round;">
</g>
<g style="fill:#840000; fill-opacity:1.0; 
stroke:#840000; stroke-width:0; stroke-opacity:1; 
stroke-linecap:round; stroke-linejoin:round;">
<circle cx="53858.3" cy="36535.4" r="393.5" /> 
</g>
<g style="fill:#840000; fill-opacity:1.0; 
stroke:#840000; stroke-width:39.3701; stroke-opacity:1; 
stroke-linecap:round; stroke-linejoin:round;">
</g>
<g style="fill:#840000; fill-opacity:1.0; 
stroke:#840000; stroke-width:0; stroke-opacity:1; 
stroke-linecap:round; stroke-linejoin:round;">
<circle cx="52755.9" cy="29897.6" r="393.5" /> 
</g>
<g style="fill:#840000; fill-opacity:1.0; 
stroke:#840000; stroke-width:39.3701; stroke-opacity:1; 
stroke-linecap:round; stroke-linejoin:round;">
</g>
<g style="fill:#840000; fill-opacity:1.0; 
stroke:#840000; stroke-width:0; stroke-opacity:1; 
stroke-linecap:round; stroke-linejoin:round;">
<circle cx="52755.9" cy="33897.6" r="393.5" /> 
</g>
<g style="fill:#840000; fill-opacity:1.0; 
stroke:#840000; stroke-width:39.3701; stroke-opacity:1; 
stroke-linecap:round; stroke-linejoin:round;">
</g>
<g style="fill:#840000; fill-opacity:1.0; 
stroke:#840000; stroke-width:0; stroke-opacity:1; 
stroke-linecap:round; stroke-linejoin:round;">
<circle cx="53937" cy="30370.1" r="393.5" /> 
</g>
<g style="fill:#840000; fill-opacity:1.0; 
stroke:#840000; stroke-width:39.3701; stroke-opacity:1; 
stroke-linecap:round; stroke-linejoin:round;">
</g>
<g style="fill:#840000; fill-opacity:1.0; 
stroke:#840000; stroke-width:0; stroke-opacity:1; 
stroke-linecap:round; stroke-linejoin:round;">
<circle cx="53937" cy="34370.1" r="393.5" /> 
</g>
<g style="fill:#840000; fill-opacity:1.0; 
stroke:#840000; stroke-width:39.3701; stroke-opacity:1; 
stroke-linecap:round; stroke-linejoin:round;">
</g> 
</svg>
