%FSLAX45Y45*%
G04 Gerber Fmt 4.5, Leading zero omitted, Abs format (unit mm)*
G04 Created by KiCad (PCBNEW 4.0.5) date Thu May 18 11:17:48 2017*
%MOMM*%
%LPD*%
G01*
G04 APERTURE LIST*
%ADD10C,0.127000*%
%ADD11C,0.150000*%
%ADD12C,0.200000*%
%ADD13C,0.300000*%
G04 APERTURE END LIST*
D10*
D11*
X15840000Y-13450000D02*
X15990000Y-13450000D01*
X15990000Y-13250000D02*
X15840000Y-13250000D01*
X15990000Y-13450000D02*
X16140000Y-13450000D01*
X15990000Y-13250000D02*
X16140000Y-13250000D01*
X15840000Y-13250000D02*
G75*
G03X15740000Y-13350000I0J-100000D01*
G01*
X15740000Y-13350000D02*
G75*
G03X15840000Y-13450000I100000J0D01*
G01*
X16240000Y-13350000D02*
G75*
G03X16140000Y-13250000I-100000J0D01*
G01*
X16140000Y-13450000D02*
G75*
G03X16240000Y-13350000I0J100000D01*
G01*
X16350000Y-11400000D02*
G75*
G03X16450000Y-11500000I100000J0D01*
G01*
X16450000Y-11500000D02*
G75*
G03X16550000Y-11400000I0J100000D01*
G01*
X16450000Y-9300000D02*
G75*
G03X16350000Y-9400000I0J-100000D01*
G01*
X16550000Y-9400000D02*
G75*
G03X16450000Y-9300000I-100000J0D01*
G01*
X16350000Y-11400000D02*
X16350000Y-9400000D01*
X16550000Y-9400000D02*
X16550000Y-11400000D01*
X20575000Y-13300000D02*
X20575000Y-6275000D01*
X20575000Y-6275000D02*
G75*
G03X20275000Y-5975000I-300000J0D01*
G01*
X12050000Y-6275000D02*
X12050000Y-13300000D01*
X12350000Y-5975000D02*
G75*
G03X12050000Y-6275000I0J-300000D01*
G01*
X12350000Y-5975000D02*
X20275000Y-5975000D01*
X12350000Y-13600000D02*
X20275000Y-13600000D01*
X12050000Y-13300000D02*
G75*
G03X12350000Y-13600000I300000J0D01*
G01*
X20275000Y-13600000D02*
G75*
G03X20575000Y-13300000I0J300000D01*
G01*
D12*
X12273000Y-6784000D02*
X12313000Y-6824000D01*
X12313000Y-6784000D02*
X12273000Y-6824000D01*
X12347000Y-7040000D02*
X12387000Y-7080000D01*
X12387000Y-7040000D02*
X12347000Y-7080000D01*
X12353000Y-6641000D02*
X12393000Y-6681000D01*
X12393000Y-6641000D02*
X12353000Y-6681000D01*
X12473500Y-12628500D02*
X12513500Y-12668500D01*
X12513500Y-12628500D02*
X12473500Y-12668500D01*
X12610000Y-7584000D02*
X12650000Y-7624000D01*
X12650000Y-7584000D02*
X12610000Y-7624000D01*
X12610000Y-8091000D02*
X12650000Y-8131000D01*
X12650000Y-8091000D02*
X12610000Y-8131000D01*
X12610000Y-8610000D02*
X12650000Y-8650000D01*
X12650000Y-8610000D02*
X12610000Y-8650000D01*
X12610000Y-9635000D02*
X12650000Y-9675000D01*
X12650000Y-9635000D02*
X12610000Y-9675000D01*
X12615000Y-7584000D02*
X12655000Y-7624000D01*
X12655000Y-7584000D02*
X12615000Y-7624000D01*
X12615000Y-9109000D02*
X12655000Y-9149000D01*
X12655000Y-9109000D02*
X12615000Y-9149000D01*
X12615000Y-10332000D02*
X12655000Y-10372000D01*
X12655000Y-10332000D02*
X12615000Y-10372000D01*
X12664000Y-6453000D02*
X12704000Y-6493000D01*
X12704000Y-6453000D02*
X12664000Y-6493000D01*
X12670000Y-6295000D02*
X12710000Y-6335000D01*
X12710000Y-6295000D02*
X12670000Y-6335000D01*
X12816500Y-12971500D02*
X12856500Y-13011500D01*
X12856500Y-12971500D02*
X12816500Y-13011500D01*
X13125000Y-13265000D02*
X13165000Y-13305000D01*
X13165000Y-13265000D02*
X13125000Y-13305000D01*
X13544000Y-13265000D02*
X13584000Y-13305000D01*
X13584000Y-13265000D02*
X13544000Y-13305000D01*
X13600000Y-6996000D02*
X13640000Y-7036000D01*
X13640000Y-6996000D02*
X13600000Y-7036000D01*
X13645000Y-9540000D02*
X13685000Y-9580000D01*
X13685000Y-9540000D02*
X13645000Y-9580000D01*
X13993000Y-13265000D02*
X14033000Y-13305000D01*
X14033000Y-13265000D02*
X13993000Y-13305000D01*
X14090000Y-7620000D02*
X14130000Y-7660000D01*
X14130000Y-7620000D02*
X14090000Y-7660000D01*
X14220000Y-7075000D02*
X14260000Y-7115000D01*
X14260000Y-7075000D02*
X14220000Y-7115000D01*
X14250000Y-9020000D02*
X14290000Y-9060000D01*
X14290000Y-9020000D02*
X14250000Y-9060000D01*
X14270000Y-9300000D02*
X14310000Y-9340000D01*
X14310000Y-9300000D02*
X14270000Y-9340000D01*
X14320000Y-7200000D02*
X14360000Y-7240000D01*
X14360000Y-7200000D02*
X14320000Y-7240000D01*
X14330000Y-8930000D02*
X14370000Y-8970000D01*
X14370000Y-8930000D02*
X14330000Y-8970000D01*
X14340000Y-7010000D02*
X14380000Y-7050000D01*
X14380000Y-7010000D02*
X14340000Y-7050000D01*
X14401000Y-13265000D02*
X14441000Y-13305000D01*
X14441000Y-13265000D02*
X14401000Y-13305000D01*
X14510000Y-11300000D02*
X14550000Y-11340000D01*
X14550000Y-11300000D02*
X14510000Y-11340000D01*
X14716000Y-13265000D02*
X14756000Y-13305000D01*
X14756000Y-13265000D02*
X14716000Y-13305000D01*
X14798000Y-7268000D02*
X14838000Y-7308000D01*
X14838000Y-7268000D02*
X14798000Y-7308000D01*
X14920500Y-13060500D02*
X14960500Y-13100500D01*
X14960500Y-13060500D02*
X14920500Y-13100500D01*
X14950000Y-9810000D02*
X14990000Y-9850000D01*
X14990000Y-9810000D02*
X14950000Y-9850000D01*
X15146000Y-12835000D02*
X15186000Y-12875000D01*
X15186000Y-12835000D02*
X15146000Y-12875000D01*
X15165000Y-8100000D02*
X15205000Y-8140000D01*
X15205000Y-8100000D02*
X15165000Y-8140000D01*
X15200000Y-9810000D02*
X15240000Y-9850000D01*
X15240000Y-9810000D02*
X15200000Y-9850000D01*
X15205000Y-7009000D02*
X15245000Y-7049000D01*
X15245000Y-7009000D02*
X15205000Y-7049000D01*
X15240000Y-11190000D02*
X15280000Y-11230000D01*
X15280000Y-11190000D02*
X15240000Y-11230000D01*
X15385000Y-11205000D02*
X15425000Y-11245000D01*
X15425000Y-11205000D02*
X15385000Y-11245000D01*
X15498000Y-12835000D02*
X15538000Y-12875000D01*
X15538000Y-12835000D02*
X15498000Y-12875000D01*
X15607500Y-11432500D02*
X15647500Y-11472500D01*
X15647500Y-11432500D02*
X15607500Y-11472500D01*
X16700000Y-8925000D02*
X16740000Y-8965000D01*
X16740000Y-8925000D02*
X16700000Y-8965000D01*
X16765000Y-8162000D02*
X16805000Y-8202000D01*
X16805000Y-8162000D02*
X16765000Y-8202000D01*
X16780000Y-8585000D02*
X16820000Y-8625000D01*
X16820000Y-8585000D02*
X16780000Y-8625000D01*
X17460000Y-8080000D02*
X17500000Y-8120000D01*
X17500000Y-8080000D02*
X17460000Y-8120000D01*
X17460000Y-8340000D02*
X17500000Y-8380000D01*
X17500000Y-8340000D02*
X17460000Y-8380000D01*
X17620000Y-9220000D02*
X17660000Y-9260000D01*
X17660000Y-9220000D02*
X17620000Y-9260000D01*
X17652000Y-6657000D02*
X17692000Y-6697000D01*
X17692000Y-6657000D02*
X17652000Y-6697000D01*
X17653000Y-6658000D02*
X17693000Y-6698000D01*
X17693000Y-6658000D02*
X17653000Y-6698000D01*
X17950000Y-6680000D02*
X17990000Y-6720000D01*
X17990000Y-6680000D02*
X17950000Y-6720000D01*
X17971000Y-6860000D02*
X18011000Y-6900000D01*
X18011000Y-6860000D02*
X17971000Y-6900000D01*
X18190000Y-13080000D02*
X18230000Y-13120000D01*
X18230000Y-13080000D02*
X18190000Y-13120000D01*
X18310000Y-13360000D02*
X18350000Y-13400000D01*
X18350000Y-13360000D02*
X18310000Y-13400000D01*
X18476000Y-12100000D02*
X18516000Y-12140000D01*
X18516000Y-12100000D02*
X18476000Y-12140000D01*
X18476000Y-12450000D02*
X18516000Y-12490000D01*
X18516000Y-12450000D02*
X18476000Y-12490000D01*
X18650000Y-13340000D02*
X18690000Y-13380000D01*
X18690000Y-13340000D02*
X18650000Y-13380000D01*
X19260000Y-6860000D02*
X19300000Y-6900000D01*
X19300000Y-6860000D02*
X19260000Y-6900000D01*
X19350000Y-9210000D02*
X19390000Y-9250000D01*
X19390000Y-9210000D02*
X19350000Y-9250000D01*
X19628500Y-9981500D02*
X19668500Y-10021500D01*
X19668500Y-9981500D02*
X19628500Y-10021500D01*
X19790000Y-9874000D02*
X19830000Y-9914000D01*
X19830000Y-9874000D02*
X19790000Y-9914000D01*
X19886500Y-7316500D02*
X19926500Y-7356500D01*
X19926500Y-7316500D02*
X19886500Y-7356500D01*
X19886500Y-8035000D02*
X19926500Y-8075000D01*
X19926500Y-8035000D02*
X19886500Y-8075000D01*
X19887000Y-7317000D02*
X19927000Y-7357000D01*
X19927000Y-7317000D02*
X19887000Y-7357000D01*
X19887000Y-8633000D02*
X19927000Y-8673000D01*
X19927000Y-8633000D02*
X19887000Y-8673000D01*
X20370000Y-10580000D02*
X20410000Y-10620000D01*
X20410000Y-10580000D02*
X20370000Y-10620000D01*
X18834000Y-13095000D02*
G75*
G03X18834000Y-13095000I-22000J0D01*
G01*
X18834000Y-13225000D02*
G75*
G03X18834000Y-13225000I-22000J0D01*
G01*
X18934000Y-13030000D02*
G75*
G03X18934000Y-13030000I-22000J0D01*
G01*
X18934000Y-13160000D02*
G75*
G03X18934000Y-13160000I-22000J0D01*
G01*
X18934000Y-13290000D02*
G75*
G03X18934000Y-13290000I-22000J0D01*
G01*
X12635000Y-7120000D02*
X12635000Y-7170000D01*
X12610000Y-7145000D02*
X12660000Y-7145000D01*
X12905000Y-6690000D02*
X12905000Y-6740000D01*
X12880000Y-6715000D02*
X12930000Y-6715000D01*
X15747000Y-12830000D02*
X15747000Y-12880000D01*
X15722000Y-12855000D02*
X15772000Y-12855000D01*
X18195000Y-9050000D02*
X18195000Y-9100000D01*
X18170000Y-9075000D02*
X18220000Y-9075000D01*
X18410000Y-12795000D02*
X18410000Y-12845000D01*
X18385000Y-12820000D02*
X18435000Y-12820000D01*
X18890000Y-12785000D02*
X18890000Y-12835000D01*
X18865000Y-12810000D02*
X18915000Y-12810000D01*
X18857500Y-12825000D02*
X18922500Y-12825000D01*
X18857500Y-12795000D02*
X18922500Y-12795000D01*
X18922500Y-12825000D02*
G75*
G03X18922500Y-12795000I0J15000D01*
G01*
X18857500Y-12795000D02*
G75*
G03X18857500Y-12825000I0J-15000D01*
G01*
X18890000Y-13485000D02*
X18890000Y-13535000D01*
X18865000Y-13510000D02*
X18915000Y-13510000D01*
X18857500Y-13525000D02*
X18922500Y-13525000D01*
X18857500Y-13495000D02*
X18922500Y-13495000D01*
X18922500Y-13525000D02*
G75*
G03X18922500Y-13495000I0J15000D01*
G01*
X18857500Y-13495000D02*
G75*
G03X18857500Y-13525000I0J-15000D01*
G01*
X19220000Y-8800000D02*
X19220000Y-8850000D01*
X19195000Y-8825000D02*
X19245000Y-8825000D01*
X19810000Y-10635000D02*
X19810000Y-10685000D01*
X19785000Y-10660000D02*
X19835000Y-10660000D01*
X19810000Y-11000000D02*
X19810000Y-11050000D01*
X19785000Y-11025000D02*
X19835000Y-11025000D01*
X15087786Y-7189786D02*
X15087786Y-7140214D01*
X15038214Y-7140214D01*
X15038214Y-7189786D01*
X15087786Y-7189786D01*
X18768786Y-6639786D02*
X18768786Y-6590214D01*
X18719214Y-6590214D01*
X18719214Y-6639786D01*
X18768786Y-6639786D01*
X13445000Y-7350000D02*
X13485000Y-7310000D01*
X13445000Y-7270000D01*
X13405000Y-7310000D01*
X13445000Y-7350000D01*
X13415000Y-7310000D02*
X13415000Y-7310000D01*
X13475000Y-7310000D02*
X13475000Y-7310000D01*
X13415000Y-7310000D02*
G75*
G03X13475000Y-7310000I30000J0D01*
G01*
X13475000Y-7310000D02*
G75*
G03X13415000Y-7310000I-30000J0D01*
G01*
X13995000Y-7350000D02*
X14035000Y-7310000D01*
X13995000Y-7270000D01*
X13955000Y-7310000D01*
X13995000Y-7350000D01*
X13820000Y-7340000D02*
X14170000Y-7340000D01*
X13820000Y-7280000D02*
X14170000Y-7280000D01*
X14170000Y-7340000D02*
G75*
G03X14170000Y-7280000I0J30000D01*
G01*
X13820000Y-7280000D02*
G75*
G03X13820000Y-7340000I0J-30000D01*
G01*
X17036000Y-9900000D02*
X17076000Y-9860000D01*
X17036000Y-9820000D01*
X16996000Y-9860000D01*
X17036000Y-9900000D01*
X17036000Y-10662000D02*
X17076000Y-10622000D01*
X17036000Y-10582000D01*
X16996000Y-10622000D01*
X17036000Y-10662000D01*
X17290000Y-9900000D02*
X17330000Y-9860000D01*
X17290000Y-9820000D01*
X17250000Y-9860000D01*
X17290000Y-9900000D01*
X17290000Y-10662000D02*
X17330000Y-10622000D01*
X17290000Y-10582000D01*
X17250000Y-10622000D01*
X17290000Y-10662000D01*
X17544000Y-9900000D02*
X17584000Y-9860000D01*
X17544000Y-9820000D01*
X17504000Y-9860000D01*
X17544000Y-9900000D01*
X17544000Y-10662000D02*
X17584000Y-10622000D01*
X17544000Y-10582000D01*
X17504000Y-10622000D01*
X17544000Y-10662000D01*
X17798000Y-9900000D02*
X17838000Y-9860000D01*
X17798000Y-9820000D01*
X17758000Y-9860000D01*
X17798000Y-9900000D01*
X17798000Y-10662000D02*
X17838000Y-10622000D01*
X17798000Y-10582000D01*
X17758000Y-10622000D01*
X17798000Y-10662000D01*
X17950000Y-8880000D02*
X17990000Y-8840000D01*
X17950000Y-8800000D01*
X17910000Y-8840000D01*
X17950000Y-8880000D01*
X18052000Y-9900000D02*
X18092000Y-9860000D01*
X18052000Y-9820000D01*
X18012000Y-9860000D01*
X18052000Y-9900000D01*
X18052000Y-10662000D02*
X18092000Y-10622000D01*
X18052000Y-10582000D01*
X18012000Y-10622000D01*
X18052000Y-10662000D01*
X18306000Y-9900000D02*
X18346000Y-9860000D01*
X18306000Y-9820000D01*
X18266000Y-9860000D01*
X18306000Y-9900000D01*
X18306000Y-10662000D02*
X18346000Y-10622000D01*
X18306000Y-10582000D01*
X18266000Y-10622000D01*
X18306000Y-10662000D01*
X18500000Y-8880000D02*
X18540000Y-8840000D01*
X18500000Y-8800000D01*
X18460000Y-8840000D01*
X18500000Y-8880000D01*
X18325000Y-8870000D02*
X18675000Y-8870000D01*
X18325000Y-8810000D02*
X18675000Y-8810000D01*
X18675000Y-8870000D02*
G75*
G03X18675000Y-8810000I0J30000D01*
G01*
X18325000Y-8810000D02*
G75*
G03X18325000Y-8870000I0J-30000D01*
G01*
X18560000Y-9900000D02*
X18600000Y-9860000D01*
X18560000Y-9820000D01*
X18520000Y-9860000D01*
X18560000Y-9900000D01*
X18560000Y-10662000D02*
X18600000Y-10622000D01*
X18560000Y-10582000D01*
X18520000Y-10622000D01*
X18560000Y-10662000D01*
X18885000Y-11140000D02*
X18925000Y-11100000D01*
X18885000Y-11060000D01*
X18845000Y-11100000D01*
X18885000Y-11140000D01*
X18885000Y-11340000D02*
X18925000Y-11300000D01*
X18885000Y-11260000D01*
X18845000Y-11300000D01*
X18885000Y-11340000D01*
X13084995Y-6764995D02*
X13165005Y-6845005D01*
X13165005Y-6764995D02*
X13084995Y-6845005D01*
X13165005Y-6805000D02*
G75*
G03X13165005Y-6805000I-40005J0D01*
G01*
X13338995Y-6764995D02*
X13419005Y-6845005D01*
X13419005Y-6764995D02*
X13338995Y-6845005D01*
X13419005Y-6805000D02*
G75*
G03X13419005Y-6805000I-40005J0D01*
G01*
X13592995Y-6764995D02*
X13673005Y-6845005D01*
X13673005Y-6764995D02*
X13592995Y-6845005D01*
X13673005Y-6805000D02*
G75*
G03X13673005Y-6805000I-40005J0D01*
G01*
X13846995Y-6764995D02*
X13927005Y-6845005D01*
X13927005Y-6764995D02*
X13846995Y-6845005D01*
X13927005Y-6805000D02*
G75*
G03X13927005Y-6805000I-40005J0D01*
G01*
X14100995Y-6764995D02*
X14181005Y-6845005D01*
X14181005Y-6764995D02*
X14100995Y-6845005D01*
X14181005Y-6805000D02*
G75*
G03X14181005Y-6805000I-40005J0D01*
G01*
X14123995Y-9599995D02*
X14204005Y-9680005D01*
X14204005Y-9599995D02*
X14123995Y-9680005D01*
X14204005Y-9640000D02*
G75*
G03X14204005Y-9640000I-40005J0D01*
G01*
X14251995Y-7603995D02*
X14332005Y-7684005D01*
X14332005Y-7603995D02*
X14251995Y-7684005D01*
X14332005Y-7644000D02*
G75*
G03X14332005Y-7644000I-40005J0D01*
G01*
X14251995Y-8365995D02*
X14332005Y-8446005D01*
X14332005Y-8365995D02*
X14251995Y-8446005D01*
X14332005Y-8406000D02*
G75*
G03X14332005Y-8406000I-40005J0D01*
G01*
X14354995Y-6764995D02*
X14435005Y-6845005D01*
X14435005Y-6764995D02*
X14354995Y-6845005D01*
X14435005Y-6805000D02*
G75*
G03X14435005Y-6805000I-40005J0D01*
G01*
X14377995Y-9599995D02*
X14458005Y-9680005D01*
X14458005Y-9599995D02*
X14377995Y-9680005D01*
X14458005Y-9640000D02*
G75*
G03X14458005Y-9640000I-40005J0D01*
G01*
X14505995Y-7603995D02*
X14586005Y-7684005D01*
X14586005Y-7603995D02*
X14505995Y-7684005D01*
X14586005Y-7644000D02*
G75*
G03X14586005Y-7644000I-40005J0D01*
G01*
X14505995Y-8365995D02*
X14586005Y-8446005D01*
X14586005Y-8365995D02*
X14505995Y-8446005D01*
X14586005Y-8406000D02*
G75*
G03X14586005Y-8406000I-40005J0D01*
G01*
X14608995Y-6764995D02*
X14689005Y-6845005D01*
X14689005Y-6764995D02*
X14608995Y-6845005D01*
X14689005Y-6805000D02*
G75*
G03X14689005Y-6805000I-40005J0D01*
G01*
X14631995Y-9599995D02*
X14712005Y-9680005D01*
X14712005Y-9599995D02*
X14631995Y-9680005D01*
X14712005Y-9640000D02*
G75*
G03X14712005Y-9640000I-40005J0D01*
G01*
X14759995Y-7603995D02*
X14840005Y-7684005D01*
X14840005Y-7603995D02*
X14759995Y-7684005D01*
X14840005Y-7644000D02*
G75*
G03X14840005Y-7644000I-40005J0D01*
G01*
X14759995Y-8365995D02*
X14840005Y-8446005D01*
X14840005Y-8365995D02*
X14759995Y-8446005D01*
X14840005Y-8406000D02*
G75*
G03X14840005Y-8406000I-40005J0D01*
G01*
X14862995Y-6764995D02*
X14943005Y-6845005D01*
X14943005Y-6764995D02*
X14862995Y-6845005D01*
X14943005Y-6805000D02*
G75*
G03X14943005Y-6805000I-40005J0D01*
G01*
X14885995Y-9599995D02*
X14966005Y-9680005D01*
X14966005Y-9599995D02*
X14885995Y-9680005D01*
X14966005Y-9640000D02*
G75*
G03X14966005Y-9640000I-40005J0D01*
G01*
X15013995Y-7603995D02*
X15094005Y-7684005D01*
X15094005Y-7603995D02*
X15013995Y-7684005D01*
X15094005Y-7644000D02*
G75*
G03X15094005Y-7644000I-40005J0D01*
G01*
X15013995Y-8365995D02*
X15094005Y-8446005D01*
X15094005Y-8365995D02*
X15013995Y-8446005D01*
X15094005Y-8406000D02*
G75*
G03X15094005Y-8406000I-40005J0D01*
G01*
X15116995Y-6764995D02*
X15197005Y-6845005D01*
X15197005Y-6764995D02*
X15116995Y-6845005D01*
X15197005Y-6805000D02*
G75*
G03X15197005Y-6805000I-40005J0D01*
G01*
X15139995Y-9599995D02*
X15220005Y-9680005D01*
X15220005Y-9599995D02*
X15139995Y-9680005D01*
X15220005Y-9640000D02*
G75*
G03X15220005Y-9640000I-40005J0D01*
G01*
X15267995Y-7603995D02*
X15348005Y-7684005D01*
X15348005Y-7603995D02*
X15267995Y-7684005D01*
X15348005Y-7644000D02*
G75*
G03X15348005Y-7644000I-40005J0D01*
G01*
X15267995Y-8365995D02*
X15348005Y-8446005D01*
X15348005Y-8365995D02*
X15267995Y-8446005D01*
X15348005Y-8406000D02*
G75*
G03X15348005Y-8406000I-40005J0D01*
G01*
X15355495Y-7317495D02*
X15435505Y-7397505D01*
X15435505Y-7317495D02*
X15355495Y-7397505D01*
X15435505Y-7357500D02*
G75*
G03X15435505Y-7357500I-40005J0D01*
G01*
X15370995Y-6764995D02*
X15451005Y-6845005D01*
X15451005Y-6764995D02*
X15370995Y-6845005D01*
X15451005Y-6805000D02*
G75*
G03X15451005Y-6805000I-40005J0D01*
G01*
X15393995Y-9599995D02*
X15474005Y-9680005D01*
X15474005Y-9599995D02*
X15393995Y-9680005D01*
X15474005Y-9640000D02*
G75*
G03X15474005Y-9640000I-40005J0D01*
G01*
X15521995Y-7603995D02*
X15602005Y-7684005D01*
X15602005Y-7603995D02*
X15521995Y-7684005D01*
X15602005Y-7644000D02*
G75*
G03X15602005Y-7644000I-40005J0D01*
G01*
X15521995Y-8365995D02*
X15602005Y-8446005D01*
X15602005Y-8365995D02*
X15521995Y-8446005D01*
X15602005Y-8406000D02*
G75*
G03X15602005Y-8406000I-40005J0D01*
G01*
X15545995Y-7063495D02*
X15626005Y-7143505D01*
X15626005Y-7063495D02*
X15545995Y-7143505D01*
X15626005Y-7103500D02*
G75*
G03X15626005Y-7103500I-40005J0D01*
G01*
X15624995Y-6764995D02*
X15705005Y-6845005D01*
X15705005Y-6764995D02*
X15624995Y-6845005D01*
X15705005Y-6805000D02*
G75*
G03X15705005Y-6805000I-40005J0D01*
G01*
X15647995Y-9599995D02*
X15728005Y-9680005D01*
X15728005Y-9599995D02*
X15647995Y-9680005D01*
X15728005Y-9640000D02*
G75*
G03X15728005Y-9640000I-40005J0D01*
G01*
X15736495Y-7317495D02*
X15816505Y-7397505D01*
X15816505Y-7317495D02*
X15736495Y-7397505D01*
X15816505Y-7357500D02*
G75*
G03X15816505Y-7357500I-40005J0D01*
G01*
X15775995Y-7603995D02*
X15856005Y-7684005D01*
X15856005Y-7603995D02*
X15775995Y-7684005D01*
X15856005Y-7644000D02*
G75*
G03X15856005Y-7644000I-40005J0D01*
G01*
X15775995Y-8365995D02*
X15856005Y-8446005D01*
X15856005Y-8365995D02*
X15775995Y-8446005D01*
X15856005Y-8406000D02*
G75*
G03X15856005Y-8406000I-40005J0D01*
G01*
X15878995Y-6764995D02*
X15959005Y-6845005D01*
X15959005Y-6764995D02*
X15878995Y-6845005D01*
X15959005Y-6805000D02*
G75*
G03X15959005Y-6805000I-40005J0D01*
G01*
X15901995Y-9599995D02*
X15982005Y-9680005D01*
X15982005Y-9599995D02*
X15901995Y-9680005D01*
X15982005Y-9640000D02*
G75*
G03X15982005Y-9640000I-40005J0D01*
G01*
X16029995Y-7603995D02*
X16110005Y-7684005D01*
X16110005Y-7603995D02*
X16029995Y-7684005D01*
X16110005Y-7644000D02*
G75*
G03X16110005Y-7644000I-40005J0D01*
G01*
X16029995Y-8365995D02*
X16110005Y-8446005D01*
X16110005Y-8365995D02*
X16029995Y-8446005D01*
X16110005Y-8406000D02*
G75*
G03X16110005Y-8406000I-40005J0D01*
G01*
X16132995Y-6764995D02*
X16213005Y-6845005D01*
X16213005Y-6764995D02*
X16132995Y-6845005D01*
X16213005Y-6805000D02*
G75*
G03X16213005Y-6805000I-40005J0D01*
G01*
X16283995Y-7603995D02*
X16364005Y-7684005D01*
X16364005Y-7603995D02*
X16283995Y-7684005D01*
X16364005Y-7644000D02*
G75*
G03X16364005Y-7644000I-40005J0D01*
G01*
X16283995Y-8365995D02*
X16364005Y-8446005D01*
X16364005Y-8365995D02*
X16283995Y-8446005D01*
X16364005Y-8406000D02*
G75*
G03X16364005Y-8406000I-40005J0D01*
G01*
X16386995Y-6764995D02*
X16467005Y-6845005D01*
X16467005Y-6764995D02*
X16386995Y-6845005D01*
X16467005Y-6805000D02*
G75*
G03X16467005Y-6805000I-40005J0D01*
G01*
X16537995Y-7603995D02*
X16618005Y-7684005D01*
X16618005Y-7603995D02*
X16537995Y-7684005D01*
X16618005Y-7644000D02*
G75*
G03X16618005Y-7644000I-40005J0D01*
G01*
X16537995Y-8365995D02*
X16618005Y-8446005D01*
X16618005Y-8365995D02*
X16537995Y-8446005D01*
X16618005Y-8406000D02*
G75*
G03X16618005Y-8406000I-40005J0D01*
G01*
X16640995Y-6764995D02*
X16721005Y-6845005D01*
X16721005Y-6764995D02*
X16640995Y-6845005D01*
X16721005Y-6805000D02*
G75*
G03X16721005Y-6805000I-40005J0D01*
G01*
X16770995Y-7059995D02*
X16851005Y-7140005D01*
X16851005Y-7059995D02*
X16770995Y-7140005D01*
X16851005Y-7100000D02*
G75*
G03X16851005Y-7100000I-40005J0D01*
G01*
X16779995Y-13409995D02*
X16860005Y-13490005D01*
X16860005Y-13409995D02*
X16779995Y-13490005D01*
X16860005Y-13450000D02*
G75*
G03X16860005Y-13450000I-40005J0D01*
G01*
X16894995Y-6764995D02*
X16975005Y-6845005D01*
X16975005Y-6764995D02*
X16894995Y-6845005D01*
X16975005Y-6805000D02*
G75*
G03X16975005Y-6805000I-40005J0D01*
G01*
X17775795Y-9541395D02*
X17855805Y-9621405D01*
X17855805Y-9541395D02*
X17775795Y-9621405D01*
X17855805Y-9581400D02*
G75*
G03X17855805Y-9581400I-40005J0D01*
G01*
X17935995Y-9129995D02*
X18016005Y-9210005D01*
X18016005Y-9129995D02*
X17935995Y-9210005D01*
X18016005Y-9170000D02*
G75*
G03X18016005Y-9170000I-40005J0D01*
G01*
X18029795Y-9541395D02*
X18109805Y-9621405D01*
X18109805Y-9541395D02*
X18029795Y-9621405D01*
X18109805Y-9581400D02*
G75*
G03X18109805Y-9581400I-40005J0D01*
G01*
X18283795Y-9541395D02*
X18363805Y-9621405D01*
X18363805Y-9541395D02*
X18283795Y-9621405D01*
X18363805Y-9581400D02*
G75*
G03X18363805Y-9581400I-40005J0D01*
G01*
X18537795Y-9541395D02*
X18617805Y-9621405D01*
X18617805Y-9541395D02*
X18537795Y-9621405D01*
X18617805Y-9581400D02*
G75*
G03X18617805Y-9581400I-40005J0D01*
G01*
X18548995Y-7059995D02*
X18629005Y-7140005D01*
X18629005Y-7059995D02*
X18548995Y-7140005D01*
X18629005Y-7100000D02*
G75*
G03X18629005Y-7100000I-40005J0D01*
G01*
X18791795Y-9541395D02*
X18871805Y-9621405D01*
X18871805Y-9541395D02*
X18791795Y-9621405D01*
X18871805Y-9581400D02*
G75*
G03X18871805Y-9581400I-40005J0D01*
G01*
X19045795Y-9541395D02*
X19125805Y-9621405D01*
X19125805Y-9541395D02*
X19045795Y-9621405D01*
X19125805Y-9581400D02*
G75*
G03X19125805Y-9581400I-40005J0D01*
G01*
X19299795Y-9541395D02*
X19379805Y-9621405D01*
X19379805Y-9541395D02*
X19299795Y-9621405D01*
X19379805Y-9581400D02*
G75*
G03X19379805Y-9581400I-40005J0D01*
G01*
X19465995Y-6574995D02*
X19546005Y-6655005D01*
X19546005Y-6574995D02*
X19465995Y-6655005D01*
X19546005Y-6615000D02*
G75*
G03X19546005Y-6615000I-40005J0D01*
G01*
X19553795Y-9541395D02*
X19633805Y-9621405D01*
X19633805Y-9541395D02*
X19553795Y-9621405D01*
X19633805Y-9581400D02*
G75*
G03X19633805Y-9581400I-40005J0D01*
G01*
X19713995Y-9129995D02*
X19794005Y-9210005D01*
X19794005Y-9129995D02*
X19713995Y-9210005D01*
X19794005Y-9170000D02*
G75*
G03X19794005Y-9170000I-40005J0D01*
G01*
X20076495Y-9355995D02*
X20156505Y-9436005D01*
X20156505Y-9355995D02*
X20076495Y-9436005D01*
X20156505Y-9396000D02*
G75*
G03X20156505Y-9396000I-40005J0D01*
G01*
X20330495Y-9165495D02*
X20410505Y-9245505D01*
X20410505Y-9165495D02*
X20330495Y-9245505D01*
X20410505Y-9205500D02*
G75*
G03X20410505Y-9205500I-40005J0D01*
G01*
X20330495Y-9546495D02*
X20410505Y-9626505D01*
X20410505Y-9546495D02*
X20330495Y-9626505D01*
X20410505Y-9586500D02*
G75*
G03X20410505Y-9586500I-40005J0D01*
G01*
X12578360Y-11952160D02*
X12659640Y-12033440D01*
X12659640Y-11952160D02*
X12578360Y-12033440D01*
X12619000Y-11952160D02*
X12619000Y-12033440D01*
X12578360Y-11992800D02*
X12659640Y-11992800D01*
X12705360Y-12409360D02*
X12786640Y-12490640D01*
X12786640Y-12409360D02*
X12705360Y-12490640D01*
X12746000Y-12409360D02*
X12746000Y-12490640D01*
X12705360Y-12450000D02*
X12786640Y-12450000D01*
X12959360Y-12409360D02*
X13040640Y-12490640D01*
X13040640Y-12409360D02*
X12959360Y-12490640D01*
X13000000Y-12409360D02*
X13000000Y-12490640D01*
X12959360Y-12450000D02*
X13040640Y-12450000D01*
X13213360Y-12409360D02*
X13294640Y-12490640D01*
X13294640Y-12409360D02*
X13213360Y-12490640D01*
X13254000Y-12409360D02*
X13254000Y-12490640D01*
X13213360Y-12450000D02*
X13294640Y-12450000D01*
X13340360Y-11952160D02*
X13421640Y-12033440D01*
X13421640Y-11952160D02*
X13340360Y-12033440D01*
X13381000Y-11952160D02*
X13381000Y-12033440D01*
X13340360Y-11992800D02*
X13421640Y-11992800D01*
X14278360Y-11952160D02*
X14359640Y-12033440D01*
X14359640Y-11952160D02*
X14278360Y-12033440D01*
X14319000Y-11952160D02*
X14319000Y-12033440D01*
X14278360Y-11992800D02*
X14359640Y-11992800D01*
X14405360Y-12409360D02*
X14486640Y-12490640D01*
X14486640Y-12409360D02*
X14405360Y-12490640D01*
X14446000Y-12409360D02*
X14446000Y-12490640D01*
X14405360Y-12450000D02*
X14486640Y-12450000D01*
X14659360Y-12409360D02*
X14740640Y-12490640D01*
X14740640Y-12409360D02*
X14659360Y-12490640D01*
X14700000Y-12409360D02*
X14700000Y-12490640D01*
X14659360Y-12450000D02*
X14740640Y-12450000D01*
X14913360Y-12409360D02*
X14994640Y-12490640D01*
X14994640Y-12409360D02*
X14913360Y-12490640D01*
X14954000Y-12409360D02*
X14954000Y-12490640D01*
X14913360Y-12450000D02*
X14994640Y-12450000D01*
X15040360Y-11952160D02*
X15121640Y-12033440D01*
X15121640Y-11952160D02*
X15040360Y-12033440D01*
X15081000Y-11952160D02*
X15081000Y-12033440D01*
X15040360Y-11992800D02*
X15121640Y-11992800D01*
X15978360Y-11952160D02*
X16059640Y-12033440D01*
X16059640Y-11952160D02*
X15978360Y-12033440D01*
X16019000Y-11952160D02*
X16019000Y-12033440D01*
X15978360Y-11992800D02*
X16059640Y-11992800D01*
X16105360Y-12409360D02*
X16186640Y-12490640D01*
X16186640Y-12409360D02*
X16105360Y-12490640D01*
X16146000Y-12409360D02*
X16146000Y-12490640D01*
X16105360Y-12450000D02*
X16186640Y-12450000D01*
X16359360Y-12409360D02*
X16440640Y-12490640D01*
X16440640Y-12409360D02*
X16359360Y-12490640D01*
X16400000Y-12409360D02*
X16400000Y-12490640D01*
X16359360Y-12450000D02*
X16440640Y-12450000D01*
X16613360Y-12409360D02*
X16694640Y-12490640D01*
X16694640Y-12409360D02*
X16613360Y-12490640D01*
X16654000Y-12409360D02*
X16654000Y-12490640D01*
X16613360Y-12450000D02*
X16694640Y-12450000D01*
X16740360Y-11952160D02*
X16821640Y-12033440D01*
X16821640Y-11952160D02*
X16740360Y-12033440D01*
X16781000Y-11952160D02*
X16781000Y-12033440D01*
X16740360Y-11992800D02*
X16821640Y-11992800D01*
X14770106Y-10809978D02*
X14860022Y-10899894D01*
X14860022Y-10809978D02*
X14770106Y-10899894D01*
X14846854Y-10886726D02*
X14846854Y-10823146D01*
X14783274Y-10823146D01*
X14783274Y-10886726D01*
X14846854Y-10886726D01*
X15020042Y-10310106D02*
X15109958Y-10400022D01*
X15109958Y-10310106D02*
X15020042Y-10400022D01*
X15096790Y-10386854D02*
X15096790Y-10323274D01*
X15033210Y-10323274D01*
X15033210Y-10386854D01*
X15096790Y-10386854D01*
X15269978Y-10809978D02*
X15359894Y-10899894D01*
X15359894Y-10809978D02*
X15269978Y-10899894D01*
X15346726Y-10886726D02*
X15346726Y-10823146D01*
X15283146Y-10823146D01*
X15283146Y-10886726D01*
X15346726Y-10886726D01*
X15680106Y-10904978D02*
X15770022Y-10994894D01*
X15770022Y-10904978D02*
X15680106Y-10994894D01*
X15756854Y-10981726D02*
X15756854Y-10918146D01*
X15693274Y-10918146D01*
X15693274Y-10981726D01*
X15756854Y-10981726D01*
X15930042Y-10405106D02*
X16019958Y-10495022D01*
X16019958Y-10405106D02*
X15930042Y-10495022D01*
X16006790Y-10481854D02*
X16006790Y-10418274D01*
X15943210Y-10418274D01*
X15943210Y-10481854D01*
X16006790Y-10481854D01*
X16179978Y-10904978D02*
X16269894Y-10994894D01*
X16269894Y-10904978D02*
X16179978Y-10994894D01*
X16256726Y-10981726D02*
X16256726Y-10918146D01*
X16193146Y-10918146D01*
X16193146Y-10981726D01*
X16256726Y-10981726D01*
X14445000Y-8740000D02*
X14535000Y-8830000D01*
X14535000Y-8740000D02*
X14445000Y-8830000D01*
X14490000Y-8830000D02*
X14535000Y-8785000D01*
X14490000Y-8740000D01*
X14445000Y-8785000D01*
X14490000Y-8830000D01*
X14945000Y-8740000D02*
X15035000Y-8830000D01*
X15035000Y-8740000D02*
X14945000Y-8830000D01*
X14990000Y-8830000D02*
X15035000Y-8785000D01*
X14990000Y-8740000D01*
X14945000Y-8785000D01*
X14990000Y-8830000D01*
X17442000Y-13150089D02*
X17442000Y-13249911D01*
X17392089Y-13200000D02*
X17491911Y-13200000D01*
X17491911Y-13200000D02*
G75*
G03X17491911Y-13200000I-49911J0D01*
G01*
X17950000Y-13150089D02*
X17950000Y-13249911D01*
X17900089Y-13200000D02*
X17999911Y-13200000D01*
X17999911Y-13200000D02*
G75*
G03X17999911Y-13200000I-49911J0D01*
G01*
X18458000Y-13150089D02*
X18458000Y-13249911D01*
X18408089Y-13200000D02*
X18507911Y-13200000D01*
X18507911Y-13200000D02*
G75*
G03X18507911Y-13200000I-49911J0D01*
G01*
X19342000Y-13150089D02*
X19342000Y-13249911D01*
X19292089Y-13200000D02*
X19391911Y-13200000D01*
X19391911Y-13200000D02*
G75*
G03X19391911Y-13200000I-49911J0D01*
G01*
X19850000Y-13150089D02*
X19850000Y-13249911D01*
X19800089Y-13200000D02*
X19899911Y-13200000D01*
X19899911Y-13200000D02*
G75*
G03X19899911Y-13200000I-49911J0D01*
G01*
X20358000Y-13150089D02*
X20358000Y-13249911D01*
X20308089Y-13200000D02*
X20407911Y-13200000D01*
X20407911Y-13200000D02*
G75*
G03X20407911Y-13200000I-49911J0D01*
G01*
X18257356Y-11805356D02*
X18257356Y-11734644D01*
X18186644Y-11734644D01*
X18186644Y-11805356D01*
X18257356Y-11805356D01*
X18272000Y-11770000D02*
G75*
G03X18272000Y-11770000I-50000J0D01*
G01*
X18511356Y-11805356D02*
X18511356Y-11734644D01*
X18440644Y-11734644D01*
X18440644Y-11805356D01*
X18511356Y-11805356D01*
X18526000Y-11770000D02*
G75*
G03X18526000Y-11770000I-50000J0D01*
G01*
X18765356Y-11805356D02*
X18765356Y-11734644D01*
X18694644Y-11734644D01*
X18694644Y-11805356D01*
X18765356Y-11805356D01*
X18780000Y-11770000D02*
G75*
G03X18780000Y-11770000I-50000J0D01*
G01*
X19535356Y-7235356D02*
X19535356Y-7164644D01*
X19464644Y-7164644D01*
X19464644Y-7235356D01*
X19535356Y-7235356D01*
X19550000Y-7200000D02*
G75*
G03X19550000Y-7200000I-50000J0D01*
G01*
X19535356Y-7489356D02*
X19535356Y-7418644D01*
X19464644Y-7418644D01*
X19464644Y-7489356D01*
X19535356Y-7489356D01*
X19550000Y-7454000D02*
G75*
G03X19550000Y-7454000I-50000J0D01*
G01*
X19535356Y-7743356D02*
X19535356Y-7672644D01*
X19464644Y-7672644D01*
X19464644Y-7743356D01*
X19535356Y-7743356D01*
X19550000Y-7708000D02*
G75*
G03X19550000Y-7708000I-50000J0D01*
G01*
X13370000Y-10280038D02*
X13420038Y-10230000D01*
X13370000Y-10179962D01*
X13319962Y-10230000D01*
X13370000Y-10280038D01*
X13420038Y-10230000D02*
G75*
G03X13420038Y-10230000I-50038J0D01*
G01*
X13376000Y-10740038D02*
X13426038Y-10690000D01*
X13376000Y-10639962D01*
X13325962Y-10690000D01*
X13376000Y-10740038D01*
X13426038Y-10690000D02*
G75*
G03X13426038Y-10690000I-50038J0D01*
G01*
X13400000Y-7644038D02*
X13450038Y-7594000D01*
X13400000Y-7543962D01*
X13349962Y-7594000D01*
X13400000Y-7644038D01*
X13450038Y-7594000D02*
G75*
G03X13450038Y-7594000I-50038J0D01*
G01*
X13400000Y-8660038D02*
X13450038Y-8610000D01*
X13400000Y-8559962D01*
X13349962Y-8610000D01*
X13400000Y-8660038D01*
X13450038Y-8610000D02*
G75*
G03X13450038Y-8610000I-50038J0D01*
G01*
X13400000Y-8910038D02*
X13450038Y-8860000D01*
X13400000Y-8809962D01*
X13349962Y-8860000D01*
X13400000Y-8910038D01*
X13450038Y-8860000D02*
G75*
G03X13450038Y-8860000I-50038J0D01*
G01*
X13400000Y-9926038D02*
X13450038Y-9876000D01*
X13400000Y-9825962D01*
X13349962Y-9876000D01*
X13400000Y-9926038D01*
X13450038Y-9876000D02*
G75*
G03X13450038Y-9876000I-50038J0D01*
G01*
X13624000Y-10280038D02*
X13674038Y-10230000D01*
X13624000Y-10179962D01*
X13573962Y-10230000D01*
X13624000Y-10280038D01*
X13674038Y-10230000D02*
G75*
G03X13674038Y-10230000I-50038J0D01*
G01*
X13630000Y-10740038D02*
X13680038Y-10690000D01*
X13630000Y-10639962D01*
X13579962Y-10690000D01*
X13630000Y-10740038D01*
X13680038Y-10690000D02*
G75*
G03X13680038Y-10690000I-50038J0D01*
G01*
X13680000Y-9330038D02*
X13730038Y-9280000D01*
X13680000Y-9229962D01*
X13629962Y-9280000D01*
X13680000Y-9330038D01*
X13730038Y-9280000D02*
G75*
G03X13730038Y-9280000I-50038J0D01*
G01*
X13700000Y-7764038D02*
X13750038Y-7714000D01*
X13700000Y-7663962D01*
X13649962Y-7714000D01*
X13700000Y-7764038D01*
X13750038Y-7714000D02*
G75*
G03X13750038Y-7714000I-50038J0D01*
G01*
X13700000Y-8780038D02*
X13750038Y-8730000D01*
X13700000Y-8679962D01*
X13649962Y-8730000D01*
X13700000Y-8780038D01*
X13750038Y-8730000D02*
G75*
G03X13750038Y-8730000I-50038J0D01*
G01*
X13930000Y-10354038D02*
X13980038Y-10304000D01*
X13930000Y-10253962D01*
X13879962Y-10304000D01*
X13930000Y-10354038D01*
X13980038Y-10304000D02*
G75*
G03X13980038Y-10304000I-50038J0D01*
G01*
X13930000Y-11370038D02*
X13980038Y-11320000D01*
X13930000Y-11269962D01*
X13879962Y-11320000D01*
X13930000Y-11370038D01*
X13980038Y-11320000D02*
G75*
G03X13980038Y-11320000I-50038J0D01*
G01*
X14047000Y-7215038D02*
X14097038Y-7165000D01*
X14047000Y-7114962D01*
X13996962Y-7165000D01*
X14047000Y-7215038D01*
X14097038Y-7165000D02*
G75*
G03X14097038Y-7165000I-50038J0D01*
G01*
X14257000Y-10366038D02*
X14307038Y-10316000D01*
X14257000Y-10265962D01*
X14206962Y-10316000D01*
X14257000Y-10366038D01*
X14307038Y-10316000D02*
G75*
G03X14307038Y-10316000I-50038J0D01*
G01*
X14257000Y-11382038D02*
X14307038Y-11332000D01*
X14257000Y-11281962D01*
X14206962Y-11332000D01*
X14257000Y-11382038D01*
X14307038Y-11332000D02*
G75*
G03X14307038Y-11332000I-50038J0D01*
G01*
X14696000Y-9330038D02*
X14746038Y-9280000D01*
X14696000Y-9229962D01*
X14645962Y-9280000D01*
X14696000Y-9330038D01*
X14746038Y-9280000D02*
G75*
G03X14746038Y-9280000I-50038J0D01*
G01*
X15495000Y-8765038D02*
X15545038Y-8715000D01*
X15495000Y-8664962D01*
X15444962Y-8715000D01*
X15495000Y-8765038D01*
X15545038Y-8715000D02*
G75*
G03X15545038Y-8715000I-50038J0D01*
G01*
X15495000Y-9065038D02*
X15545038Y-9015000D01*
X15495000Y-8964962D01*
X15444962Y-9015000D01*
X15495000Y-9065038D01*
X15545038Y-9015000D02*
G75*
G03X15545038Y-9015000I-50038J0D01*
G01*
X16005000Y-7162038D02*
X16055038Y-7112000D01*
X16005000Y-7061962D01*
X15954962Y-7112000D01*
X16005000Y-7162038D01*
X16055038Y-7112000D02*
G75*
G03X16055038Y-7112000I-50038J0D01*
G01*
X16259000Y-7162038D02*
X16309038Y-7112000D01*
X16259000Y-7061962D01*
X16208962Y-7112000D01*
X16259000Y-7162038D01*
X16309038Y-7112000D02*
G75*
G03X16309038Y-7112000I-50038J0D01*
G01*
X16511000Y-8765038D02*
X16561038Y-8715000D01*
X16511000Y-8664962D01*
X16460962Y-8715000D01*
X16511000Y-8765038D01*
X16561038Y-8715000D02*
G75*
G03X16561038Y-8715000I-50038J0D01*
G01*
X16511000Y-9065038D02*
X16561038Y-9015000D01*
X16511000Y-8964962D01*
X16460962Y-9015000D01*
X16511000Y-9065038D01*
X16561038Y-9015000D02*
G75*
G03X16561038Y-9015000I-50038J0D01*
G01*
X17350000Y-7874038D02*
X17400038Y-7824000D01*
X17350000Y-7773962D01*
X17299962Y-7824000D01*
X17350000Y-7874038D01*
X17400038Y-7824000D02*
G75*
G03X17400038Y-7824000I-50038J0D01*
G01*
X17350000Y-8890038D02*
X17400038Y-8840000D01*
X17350000Y-8789962D01*
X17299962Y-8840000D01*
X17350000Y-8890038D01*
X17400038Y-8840000D02*
G75*
G03X17400038Y-8840000I-50038J0D01*
G01*
X17530000Y-10410038D02*
X17580038Y-10360000D01*
X17530000Y-10309962D01*
X17479962Y-10360000D01*
X17530000Y-10410038D01*
X17580038Y-10360000D02*
G75*
G03X17580038Y-10360000I-50038J0D01*
G01*
X17620000Y-7874038D02*
X17670038Y-7824000D01*
X17620000Y-7773962D01*
X17569962Y-7824000D01*
X17620000Y-7874038D01*
X17670038Y-7824000D02*
G75*
G03X17670038Y-7824000I-50038J0D01*
G01*
X17620000Y-8890038D02*
X17670038Y-8840000D01*
X17620000Y-8789962D01*
X17569962Y-8840000D01*
X17620000Y-8890038D01*
X17670038Y-8840000D02*
G75*
G03X17670038Y-8840000I-50038J0D01*
G01*
X18546000Y-10410038D02*
X18596038Y-10360000D01*
X18546000Y-10309962D01*
X18495962Y-10360000D01*
X18546000Y-10410038D01*
X18596038Y-10360000D02*
G75*
G03X18596038Y-10360000I-50038J0D01*
G01*
X18823000Y-7490038D02*
X18873038Y-7440000D01*
X18823000Y-7389962D01*
X18772962Y-7440000D01*
X18823000Y-7490038D01*
X18873038Y-7440000D02*
G75*
G03X18873038Y-7440000I-50038J0D01*
G01*
X18950000Y-10670038D02*
X19000038Y-10620000D01*
X18950000Y-10569962D01*
X18899962Y-10620000D01*
X18950000Y-10670038D01*
X19000038Y-10620000D02*
G75*
G03X19000038Y-10620000I-50038J0D01*
G01*
X18956000Y-10230038D02*
X19006038Y-10180000D01*
X18956000Y-10129962D01*
X18905962Y-10180000D01*
X18956000Y-10230038D01*
X19006038Y-10180000D02*
G75*
G03X19006038Y-10180000I-50038J0D01*
G01*
X19077000Y-7490038D02*
X19127038Y-7440000D01*
X19077000Y-7389962D01*
X19026962Y-7440000D01*
X19077000Y-7490038D01*
X19127038Y-7440000D02*
G75*
G03X19127038Y-7440000I-50038J0D01*
G01*
X19204000Y-10670038D02*
X19254038Y-10620000D01*
X19204000Y-10569962D01*
X19153962Y-10620000D01*
X19204000Y-10670038D01*
X19254038Y-10620000D02*
G75*
G03X19254038Y-10620000I-50038J0D01*
G01*
X19210000Y-10230038D02*
X19260038Y-10180000D01*
X19210000Y-10129962D01*
X19159962Y-10180000D01*
X19210000Y-10230038D01*
X19260038Y-10180000D02*
G75*
G03X19260038Y-10180000I-50038J0D01*
G01*
X19476000Y-11590038D02*
X19526038Y-11540000D01*
X19476000Y-11489962D01*
X19425962Y-11540000D01*
X19476000Y-11590038D01*
X19526038Y-11540000D02*
G75*
G03X19526038Y-11540000I-50038J0D01*
G01*
X19476000Y-12210038D02*
X19526038Y-12160000D01*
X19476000Y-12109962D01*
X19425962Y-12160000D01*
X19476000Y-12210038D01*
X19526038Y-12160000D02*
G75*
G03X19526038Y-12160000I-50038J0D01*
G01*
X19730000Y-11590038D02*
X19780038Y-11540000D01*
X19730000Y-11489962D01*
X19679962Y-11540000D01*
X19730000Y-11590038D01*
X19780038Y-11540000D02*
G75*
G03X19780038Y-11540000I-50038J0D01*
G01*
X19730000Y-12210038D02*
X19780038Y-12160000D01*
X19730000Y-12109962D01*
X19679962Y-12160000D01*
X19730000Y-12210038D01*
X19780038Y-12160000D02*
G75*
G03X19780038Y-12160000I-50038J0D01*
G01*
X20075000Y-10910038D02*
X20125038Y-10860000D01*
X20075000Y-10809962D01*
X20024962Y-10860000D01*
X20075000Y-10910038D01*
X20125038Y-10860000D02*
G75*
G03X20125038Y-10860000I-50038J0D01*
G01*
X20075000Y-11926038D02*
X20125038Y-11876000D01*
X20075000Y-11825962D01*
X20024962Y-11876000D01*
X20075000Y-11926038D01*
X20125038Y-11876000D02*
G75*
G03X20125038Y-11876000I-50038J0D01*
G01*
X20380000Y-10910038D02*
X20430038Y-10860000D01*
X20380000Y-10809962D01*
X20329962Y-10860000D01*
X20380000Y-10910038D01*
X20430038Y-10860000D02*
G75*
G03X20430038Y-10860000I-50038J0D01*
G01*
X20380000Y-11926038D02*
X20430038Y-11876000D01*
X20380000Y-11825962D01*
X20329962Y-11876000D01*
X20380000Y-11926038D01*
X20430038Y-11876000D02*
G75*
G03X20430038Y-11876000I-50038J0D01*
G01*
X12847000Y-6107200D02*
X12847000Y-6208800D01*
X12796200Y-6158000D02*
X12897800Y-6158000D01*
X12882921Y-6193921D02*
X12882921Y-6122079D01*
X12811079Y-6122079D01*
X12811079Y-6193921D01*
X12882921Y-6193921D01*
X12847000Y-6361200D02*
X12847000Y-6462800D01*
X12796200Y-6412000D02*
X12897800Y-6412000D01*
X12882921Y-6447921D02*
X12882921Y-6376079D01*
X12811079Y-6376079D01*
X12811079Y-6447921D01*
X12882921Y-6447921D01*
X13100000Y-7149200D02*
X13100000Y-7250800D01*
X13049200Y-7200000D02*
X13150800Y-7200000D01*
X13135921Y-7235921D02*
X13135921Y-7164079D01*
X13064079Y-7164079D01*
X13064079Y-7235921D01*
X13135921Y-7235921D01*
X13100000Y-7403200D02*
X13100000Y-7504800D01*
X13049200Y-7454000D02*
X13150800Y-7454000D01*
X13135921Y-7489921D02*
X13135921Y-7418079D01*
X13064079Y-7418079D01*
X13064079Y-7489921D01*
X13135921Y-7489921D01*
X13100000Y-7657200D02*
X13100000Y-7758800D01*
X13049200Y-7708000D02*
X13150800Y-7708000D01*
X13135921Y-7743921D02*
X13135921Y-7672079D01*
X13064079Y-7672079D01*
X13064079Y-7743921D01*
X13135921Y-7743921D01*
X13100000Y-8062200D02*
X13100000Y-8163800D01*
X13049200Y-8113000D02*
X13150800Y-8113000D01*
X13135921Y-8148921D02*
X13135921Y-8077079D01*
X13064079Y-8077079D01*
X13064079Y-8148921D01*
X13135921Y-8148921D01*
X13100000Y-8316200D02*
X13100000Y-8417800D01*
X13049200Y-8367000D02*
X13150800Y-8367000D01*
X13135921Y-8402921D02*
X13135921Y-8331079D01*
X13064079Y-8331079D01*
X13064079Y-8402921D01*
X13135921Y-8402921D01*
X13100000Y-8570200D02*
X13100000Y-8671800D01*
X13049200Y-8621000D02*
X13150800Y-8621000D01*
X13135921Y-8656921D02*
X13135921Y-8585079D01*
X13064079Y-8585079D01*
X13064079Y-8656921D01*
X13135921Y-8656921D01*
X13100000Y-8824200D02*
X13100000Y-8925800D01*
X13049200Y-8875000D02*
X13150800Y-8875000D01*
X13135921Y-8910921D02*
X13135921Y-8839079D01*
X13064079Y-8839079D01*
X13064079Y-8910921D01*
X13135921Y-8910921D01*
X13100000Y-9276200D02*
X13100000Y-9377800D01*
X13049200Y-9327000D02*
X13150800Y-9327000D01*
X13135921Y-9362921D02*
X13135921Y-9291079D01*
X13064079Y-9291079D01*
X13064079Y-9362921D01*
X13135921Y-9362921D01*
X13100000Y-9530200D02*
X13100000Y-9631800D01*
X13049200Y-9581000D02*
X13150800Y-9581000D01*
X13135921Y-9616921D02*
X13135921Y-9545079D01*
X13064079Y-9545079D01*
X13064079Y-9616921D01*
X13135921Y-9616921D01*
X13100000Y-9784200D02*
X13100000Y-9885800D01*
X13049200Y-9835000D02*
X13150800Y-9835000D01*
X13135921Y-9870921D02*
X13135921Y-9799079D01*
X13064079Y-9799079D01*
X13064079Y-9870921D01*
X13135921Y-9870921D01*
X13100000Y-10245200D02*
X13100000Y-10346800D01*
X13049200Y-10296000D02*
X13150800Y-10296000D01*
X13135921Y-10331921D02*
X13135921Y-10260079D01*
X13064079Y-10260079D01*
X13064079Y-10331921D01*
X13135921Y-10331921D01*
X13100000Y-10499200D02*
X13100000Y-10600800D01*
X13049200Y-10550000D02*
X13150800Y-10550000D01*
X13135921Y-10585921D02*
X13135921Y-10514079D01*
X13064079Y-10514079D01*
X13064079Y-10585921D01*
X13135921Y-10585921D01*
X13101000Y-6107200D02*
X13101000Y-6208800D01*
X13050200Y-6158000D02*
X13151800Y-6158000D01*
X13136921Y-6193921D02*
X13136921Y-6122079D01*
X13065079Y-6122079D01*
X13065079Y-6193921D01*
X13136921Y-6193921D01*
X13101000Y-6361200D02*
X13101000Y-6462800D01*
X13050200Y-6412000D02*
X13151800Y-6412000D01*
X13136921Y-6447921D02*
X13136921Y-6376079D01*
X13065079Y-6376079D01*
X13065079Y-6447921D01*
X13136921Y-6447921D01*
X13355000Y-6107200D02*
X13355000Y-6208800D01*
X13304200Y-6158000D02*
X13405800Y-6158000D01*
X13390921Y-6193921D02*
X13390921Y-6122079D01*
X13319079Y-6122079D01*
X13319079Y-6193921D01*
X13390921Y-6193921D01*
X13355000Y-6361200D02*
X13355000Y-6462800D01*
X13304200Y-6412000D02*
X13405800Y-6412000D01*
X13390921Y-6447921D02*
X13390921Y-6376079D01*
X13319079Y-6376079D01*
X13319079Y-6447921D01*
X13390921Y-6447921D01*
X13609000Y-6107200D02*
X13609000Y-6208800D01*
X13558200Y-6158000D02*
X13659800Y-6158000D01*
X13644921Y-6193921D02*
X13644921Y-6122079D01*
X13573079Y-6122079D01*
X13573079Y-6193921D01*
X13644921Y-6193921D01*
X13609000Y-6361200D02*
X13609000Y-6462800D01*
X13558200Y-6412000D02*
X13659800Y-6412000D01*
X13644921Y-6447921D02*
X13644921Y-6376079D01*
X13573079Y-6376079D01*
X13573079Y-6447921D01*
X13644921Y-6447921D01*
X13863000Y-6107200D02*
X13863000Y-6208800D01*
X13812200Y-6158000D02*
X13913800Y-6158000D01*
X13898921Y-6193921D02*
X13898921Y-6122079D01*
X13827079Y-6122079D01*
X13827079Y-6193921D01*
X13898921Y-6193921D01*
X13863000Y-6361200D02*
X13863000Y-6462800D01*
X13812200Y-6412000D02*
X13913800Y-6412000D01*
X13898921Y-6447921D02*
X13898921Y-6376079D01*
X13827079Y-6376079D01*
X13827079Y-6447921D01*
X13898921Y-6447921D01*
X13910000Y-9949200D02*
X13910000Y-10050800D01*
X13859200Y-10000000D02*
X13960800Y-10000000D01*
X13945921Y-10035921D02*
X13945921Y-9964079D01*
X13874079Y-9964079D01*
X13874079Y-10035921D01*
X13945921Y-10035921D01*
X14117000Y-6107200D02*
X14117000Y-6208800D01*
X14066200Y-6158000D02*
X14167800Y-6158000D01*
X14152921Y-6193921D02*
X14152921Y-6122079D01*
X14081079Y-6122079D01*
X14081079Y-6193921D01*
X14152921Y-6193921D01*
X14117000Y-6361200D02*
X14117000Y-6462800D01*
X14066200Y-6412000D02*
X14167800Y-6412000D01*
X14152921Y-6447921D02*
X14152921Y-6376079D01*
X14081079Y-6376079D01*
X14081079Y-6447921D01*
X14152921Y-6447921D01*
X14164000Y-9949200D02*
X14164000Y-10050800D01*
X14113200Y-10000000D02*
X14214800Y-10000000D01*
X14199921Y-10035921D02*
X14199921Y-9964079D01*
X14128079Y-9964079D01*
X14128079Y-10035921D01*
X14199921Y-10035921D01*
X14371000Y-6107200D02*
X14371000Y-6208800D01*
X14320200Y-6158000D02*
X14421800Y-6158000D01*
X14406921Y-6193921D02*
X14406921Y-6122079D01*
X14335079Y-6122079D01*
X14335079Y-6193921D01*
X14406921Y-6193921D01*
X14371000Y-6361200D02*
X14371000Y-6462800D01*
X14320200Y-6412000D02*
X14421800Y-6412000D01*
X14406921Y-6447921D02*
X14406921Y-6376079D01*
X14335079Y-6376079D01*
X14335079Y-6447921D01*
X14406921Y-6447921D01*
X14418000Y-9949200D02*
X14418000Y-10050800D01*
X14367200Y-10000000D02*
X14468800Y-10000000D01*
X14453921Y-10035921D02*
X14453921Y-9964079D01*
X14382079Y-9964079D01*
X14382079Y-10035921D01*
X14453921Y-10035921D01*
X14625000Y-6107200D02*
X14625000Y-6208800D01*
X14574200Y-6158000D02*
X14675800Y-6158000D01*
X14660921Y-6193921D02*
X14660921Y-6122079D01*
X14589079Y-6122079D01*
X14589079Y-6193921D01*
X14660921Y-6193921D01*
X14625000Y-6361200D02*
X14625000Y-6462800D01*
X14574200Y-6412000D02*
X14675800Y-6412000D01*
X14660921Y-6447921D02*
X14660921Y-6376079D01*
X14589079Y-6376079D01*
X14589079Y-6447921D01*
X14660921Y-6447921D01*
X14672000Y-9949200D02*
X14672000Y-10050800D01*
X14621200Y-10000000D02*
X14722800Y-10000000D01*
X14707921Y-10035921D02*
X14707921Y-9964079D01*
X14636079Y-9964079D01*
X14636079Y-10035921D01*
X14707921Y-10035921D01*
X14879000Y-6107200D02*
X14879000Y-6208800D01*
X14828200Y-6158000D02*
X14929800Y-6158000D01*
X14914921Y-6193921D02*
X14914921Y-6122079D01*
X14843079Y-6122079D01*
X14843079Y-6193921D01*
X14914921Y-6193921D01*
X14879000Y-6361200D02*
X14879000Y-6462800D01*
X14828200Y-6412000D02*
X14929800Y-6412000D01*
X14914921Y-6447921D02*
X14914921Y-6376079D01*
X14843079Y-6376079D01*
X14843079Y-6447921D01*
X14914921Y-6447921D01*
X14926000Y-9949200D02*
X14926000Y-10050800D01*
X14875200Y-10000000D02*
X14976800Y-10000000D01*
X14961921Y-10035921D02*
X14961921Y-9964079D01*
X14890079Y-9964079D01*
X14890079Y-10035921D01*
X14961921Y-10035921D01*
X15133000Y-6107200D02*
X15133000Y-6208800D01*
X15082200Y-6158000D02*
X15183800Y-6158000D01*
X15168921Y-6193921D02*
X15168921Y-6122079D01*
X15097079Y-6122079D01*
X15097079Y-6193921D01*
X15168921Y-6193921D01*
X15133000Y-6361200D02*
X15133000Y-6462800D01*
X15082200Y-6412000D02*
X15183800Y-6412000D01*
X15168921Y-6447921D02*
X15168921Y-6376079D01*
X15097079Y-6376079D01*
X15097079Y-6447921D01*
X15168921Y-6447921D01*
X15180000Y-9949200D02*
X15180000Y-10050800D01*
X15129200Y-10000000D02*
X15230800Y-10000000D01*
X15215921Y-10035921D02*
X15215921Y-9964079D01*
X15144079Y-9964079D01*
X15144079Y-10035921D01*
X15215921Y-10035921D01*
X15387000Y-6107200D02*
X15387000Y-6208800D01*
X15336200Y-6158000D02*
X15437800Y-6158000D01*
X15422921Y-6193921D02*
X15422921Y-6122079D01*
X15351079Y-6122079D01*
X15351079Y-6193921D01*
X15422921Y-6193921D01*
X15387000Y-6361200D02*
X15387000Y-6462800D01*
X15336200Y-6412000D02*
X15437800Y-6412000D01*
X15422921Y-6447921D02*
X15422921Y-6376079D01*
X15351079Y-6376079D01*
X15351079Y-6447921D01*
X15422921Y-6447921D01*
X15434000Y-9949200D02*
X15434000Y-10050800D01*
X15383200Y-10000000D02*
X15484800Y-10000000D01*
X15469921Y-10035921D02*
X15469921Y-9964079D01*
X15398079Y-9964079D01*
X15398079Y-10035921D01*
X15469921Y-10035921D01*
X15641000Y-6107200D02*
X15641000Y-6208800D01*
X15590200Y-6158000D02*
X15691800Y-6158000D01*
X15676921Y-6193921D02*
X15676921Y-6122079D01*
X15605079Y-6122079D01*
X15605079Y-6193921D01*
X15676921Y-6193921D01*
X15641000Y-6361200D02*
X15641000Y-6462800D01*
X15590200Y-6412000D02*
X15691800Y-6412000D01*
X15676921Y-6447921D02*
X15676921Y-6376079D01*
X15605079Y-6376079D01*
X15605079Y-6447921D01*
X15676921Y-6447921D01*
X15688000Y-9949200D02*
X15688000Y-10050800D01*
X15637200Y-10000000D02*
X15738800Y-10000000D01*
X15723921Y-10035921D02*
X15723921Y-9964079D01*
X15652079Y-9964079D01*
X15652079Y-10035921D01*
X15723921Y-10035921D01*
X15895000Y-6107200D02*
X15895000Y-6208800D01*
X15844200Y-6158000D02*
X15945800Y-6158000D01*
X15930921Y-6193921D02*
X15930921Y-6122079D01*
X15859079Y-6122079D01*
X15859079Y-6193921D01*
X15930921Y-6193921D01*
X15895000Y-6361200D02*
X15895000Y-6462800D01*
X15844200Y-6412000D02*
X15945800Y-6412000D01*
X15930921Y-6447921D02*
X15930921Y-6376079D01*
X15859079Y-6376079D01*
X15859079Y-6447921D01*
X15930921Y-6447921D01*
X15942000Y-9949200D02*
X15942000Y-10050800D01*
X15891200Y-10000000D02*
X15992800Y-10000000D01*
X15977921Y-10035921D02*
X15977921Y-9964079D01*
X15906079Y-9964079D01*
X15906079Y-10035921D01*
X15977921Y-10035921D01*
X16149000Y-6107200D02*
X16149000Y-6208800D01*
X16098200Y-6158000D02*
X16199800Y-6158000D01*
X16184921Y-6193921D02*
X16184921Y-6122079D01*
X16113079Y-6122079D01*
X16113079Y-6193921D01*
X16184921Y-6193921D01*
X16149000Y-6361200D02*
X16149000Y-6462800D01*
X16098200Y-6412000D02*
X16199800Y-6412000D01*
X16184921Y-6447921D02*
X16184921Y-6376079D01*
X16113079Y-6376079D01*
X16113079Y-6447921D01*
X16184921Y-6447921D01*
X16196000Y-9949200D02*
X16196000Y-10050800D01*
X16145200Y-10000000D02*
X16246800Y-10000000D01*
X16231921Y-10035921D02*
X16231921Y-9964079D01*
X16160079Y-9964079D01*
X16160079Y-10035921D01*
X16231921Y-10035921D01*
X16403000Y-6107200D02*
X16403000Y-6208800D01*
X16352200Y-6158000D02*
X16453800Y-6158000D01*
X16438921Y-6193921D02*
X16438921Y-6122079D01*
X16367079Y-6122079D01*
X16367079Y-6193921D01*
X16438921Y-6193921D01*
X16403000Y-6361200D02*
X16403000Y-6462800D01*
X16352200Y-6412000D02*
X16453800Y-6412000D01*
X16438921Y-6447921D02*
X16438921Y-6376079D01*
X16367079Y-6376079D01*
X16367079Y-6447921D01*
X16438921Y-6447921D01*
X16566000Y-13399200D02*
X16566000Y-13500800D01*
X16515200Y-13450000D02*
X16616800Y-13450000D01*
X16601921Y-13485921D02*
X16601921Y-13414079D01*
X16530079Y-13414079D01*
X16530079Y-13485921D01*
X16601921Y-13485921D01*
X16657000Y-6107200D02*
X16657000Y-6208800D01*
X16606200Y-6158000D02*
X16707800Y-6158000D01*
X16692921Y-6193921D02*
X16692921Y-6122079D01*
X16621079Y-6122079D01*
X16621079Y-6193921D01*
X16692921Y-6193921D01*
X16657000Y-6361200D02*
X16657000Y-6462800D01*
X16606200Y-6412000D02*
X16707800Y-6412000D01*
X16692921Y-6447921D02*
X16692921Y-6376079D01*
X16621079Y-6376079D01*
X16621079Y-6447921D01*
X16692921Y-6447921D01*
X16911000Y-6107200D02*
X16911000Y-6208800D01*
X16860200Y-6158000D02*
X16961800Y-6158000D01*
X16946921Y-6193921D02*
X16946921Y-6122079D01*
X16875079Y-6122079D01*
X16875079Y-6193921D01*
X16946921Y-6193921D01*
X16911000Y-6361200D02*
X16911000Y-6462800D01*
X16860200Y-6412000D02*
X16961800Y-6412000D01*
X16946921Y-6447921D02*
X16946921Y-6376079D01*
X16875079Y-6376079D01*
X16875079Y-6447921D01*
X16946921Y-6447921D01*
X17165000Y-6107200D02*
X17165000Y-6208800D01*
X17114200Y-6158000D02*
X17215800Y-6158000D01*
X17200921Y-6193921D02*
X17200921Y-6122079D01*
X17129079Y-6122079D01*
X17129079Y-6193921D01*
X17200921Y-6193921D01*
X17165000Y-6361200D02*
X17165000Y-6462800D01*
X17114200Y-6412000D02*
X17215800Y-6412000D01*
X17200921Y-6447921D02*
X17200921Y-6376079D01*
X17129079Y-6376079D01*
X17129079Y-6447921D01*
X17200921Y-6447921D01*
X17410000Y-11669200D02*
X17410000Y-11770800D01*
X17359200Y-11720000D02*
X17460800Y-11720000D01*
X17445921Y-11755921D02*
X17445921Y-11684079D01*
X17374079Y-11684079D01*
X17374079Y-11755921D01*
X17445921Y-11755921D01*
X17410000Y-11923200D02*
X17410000Y-12024800D01*
X17359200Y-11974000D02*
X17460800Y-11974000D01*
X17445921Y-12009921D02*
X17445921Y-11938079D01*
X17374079Y-11938079D01*
X17374079Y-12009921D01*
X17445921Y-12009921D01*
X17419000Y-6107200D02*
X17419000Y-6208800D01*
X17368200Y-6158000D02*
X17469800Y-6158000D01*
X17454921Y-6193921D02*
X17454921Y-6122079D01*
X17383079Y-6122079D01*
X17383079Y-6193921D01*
X17454921Y-6193921D01*
X17419000Y-6361200D02*
X17419000Y-6462800D01*
X17368200Y-6412000D02*
X17469800Y-6412000D01*
X17454921Y-6447921D02*
X17454921Y-6376079D01*
X17383079Y-6376079D01*
X17383079Y-6447921D01*
X17454921Y-6447921D01*
X17664000Y-11669200D02*
X17664000Y-11770800D01*
X17613200Y-11720000D02*
X17714800Y-11720000D01*
X17699921Y-11755921D02*
X17699921Y-11684079D01*
X17628079Y-11684079D01*
X17628079Y-11755921D01*
X17699921Y-11755921D01*
X17664000Y-11923200D02*
X17664000Y-12024800D01*
X17613200Y-11974000D02*
X17714800Y-11974000D01*
X17699921Y-12009921D02*
X17699921Y-11938079D01*
X17628079Y-11938079D01*
X17628079Y-12009921D01*
X17699921Y-12009921D01*
X17673000Y-6107200D02*
X17673000Y-6208800D01*
X17622200Y-6158000D02*
X17723800Y-6158000D01*
X17708921Y-6193921D02*
X17708921Y-6122079D01*
X17637079Y-6122079D01*
X17637079Y-6193921D01*
X17708921Y-6193921D01*
X17673000Y-6361200D02*
X17673000Y-6462800D01*
X17622200Y-6412000D02*
X17723800Y-6412000D01*
X17708921Y-6447921D02*
X17708921Y-6376079D01*
X17637079Y-6376079D01*
X17637079Y-6447921D01*
X17708921Y-6447921D01*
X17979000Y-7709200D02*
X17979000Y-7810800D01*
X17928200Y-7760000D02*
X18029800Y-7760000D01*
X18014921Y-7795921D02*
X18014921Y-7724079D01*
X17943079Y-7724079D01*
X17943079Y-7795921D01*
X18014921Y-7795921D01*
X17979000Y-8217200D02*
X17979000Y-8318800D01*
X17928200Y-8268000D02*
X18029800Y-8268000D01*
X18014921Y-8303921D02*
X18014921Y-8232079D01*
X17943079Y-8232079D01*
X17943079Y-8303921D01*
X18014921Y-8303921D01*
X17979000Y-8471200D02*
X17979000Y-8572800D01*
X17928200Y-8522000D02*
X18029800Y-8522000D01*
X18014921Y-8557921D02*
X18014921Y-8486079D01*
X17943079Y-8486079D01*
X17943079Y-8557921D01*
X18014921Y-8557921D01*
X18233000Y-7709200D02*
X18233000Y-7810800D01*
X18182200Y-7760000D02*
X18283800Y-7760000D01*
X18268921Y-7795921D02*
X18268921Y-7724079D01*
X18197079Y-7724079D01*
X18197079Y-7795921D01*
X18268921Y-7795921D01*
X18233000Y-8217200D02*
X18233000Y-8318800D01*
X18182200Y-8268000D02*
X18283800Y-8268000D01*
X18268921Y-8303921D02*
X18268921Y-8232079D01*
X18197079Y-8232079D01*
X18197079Y-8303921D01*
X18268921Y-8303921D01*
X18233000Y-8471200D02*
X18233000Y-8572800D01*
X18182200Y-8522000D02*
X18283800Y-8522000D01*
X18268921Y-8557921D02*
X18268921Y-8486079D01*
X18197079Y-8486079D01*
X18197079Y-8557921D01*
X18268921Y-8557921D01*
X18487000Y-7709200D02*
X18487000Y-7810800D01*
X18436200Y-7760000D02*
X18537800Y-7760000D01*
X18522921Y-7795921D02*
X18522921Y-7724079D01*
X18451079Y-7724079D01*
X18451079Y-7795921D01*
X18522921Y-7795921D01*
X18487000Y-8217200D02*
X18487000Y-8318800D01*
X18436200Y-8268000D02*
X18537800Y-8268000D01*
X18522921Y-8303921D02*
X18522921Y-8232079D01*
X18451079Y-8232079D01*
X18451079Y-8303921D01*
X18522921Y-8303921D01*
X18487000Y-8471200D02*
X18487000Y-8572800D01*
X18436200Y-8522000D02*
X18537800Y-8522000D01*
X18522921Y-8557921D02*
X18522921Y-8486079D01*
X18451079Y-8486079D01*
X18451079Y-8557921D01*
X18522921Y-8557921D01*
X18741000Y-7709200D02*
X18741000Y-7810800D01*
X18690200Y-7760000D02*
X18791800Y-7760000D01*
X18776921Y-7795921D02*
X18776921Y-7724079D01*
X18705079Y-7724079D01*
X18705079Y-7795921D01*
X18776921Y-7795921D01*
X18741000Y-8217200D02*
X18741000Y-8318800D01*
X18690200Y-8268000D02*
X18791800Y-8268000D01*
X18776921Y-8303921D02*
X18776921Y-8232079D01*
X18705079Y-8232079D01*
X18705079Y-8303921D01*
X18776921Y-8303921D01*
X18741000Y-8471200D02*
X18741000Y-8572800D01*
X18690200Y-8522000D02*
X18791800Y-8522000D01*
X18776921Y-8557921D02*
X18776921Y-8486079D01*
X18705079Y-8486079D01*
X18705079Y-8557921D01*
X18776921Y-8557921D01*
X18995000Y-7709200D02*
X18995000Y-7810800D01*
X18944200Y-7760000D02*
X19045800Y-7760000D01*
X19030921Y-7795921D02*
X19030921Y-7724079D01*
X18959079Y-7724079D01*
X18959079Y-7795921D01*
X19030921Y-7795921D01*
X18995000Y-8217200D02*
X18995000Y-8318800D01*
X18944200Y-8268000D02*
X19045800Y-8268000D01*
X19030921Y-8303921D02*
X19030921Y-8232079D01*
X18959079Y-8232079D01*
X18959079Y-8303921D01*
X19030921Y-8303921D01*
X18995000Y-8471200D02*
X18995000Y-8572800D01*
X18944200Y-8522000D02*
X19045800Y-8522000D01*
X19030921Y-8557921D02*
X19030921Y-8486079D01*
X18959079Y-8486079D01*
X18959079Y-8557921D01*
X19030921Y-8557921D01*
X19500000Y-8049200D02*
X19500000Y-8150800D01*
X19449200Y-8100000D02*
X19550800Y-8100000D01*
X19535921Y-8135921D02*
X19535921Y-8064079D01*
X19464079Y-8064079D01*
X19464079Y-8135921D01*
X19535921Y-8135921D01*
X19500000Y-8303200D02*
X19500000Y-8404800D01*
X19449200Y-8354000D02*
X19550800Y-8354000D01*
X19535921Y-8389921D02*
X19535921Y-8318079D01*
X19464079Y-8318079D01*
X19464079Y-8389921D01*
X19535921Y-8389921D01*
X19500000Y-8557200D02*
X19500000Y-8658800D01*
X19449200Y-8608000D02*
X19550800Y-8608000D01*
X19535921Y-8643921D02*
X19535921Y-8572079D01*
X19464079Y-8572079D01*
X19464079Y-8643921D01*
X19535921Y-8643921D01*
X19500000Y-8811200D02*
X19500000Y-8912800D01*
X19449200Y-8862000D02*
X19550800Y-8862000D01*
X19535921Y-8897921D02*
X19535921Y-8826079D01*
X19464079Y-8826079D01*
X19464079Y-8897921D01*
X19535921Y-8897921D01*
X19500000Y-10249200D02*
X19500000Y-10350800D01*
X19449200Y-10300000D02*
X19550800Y-10300000D01*
X19535921Y-10335921D02*
X19535921Y-10264079D01*
X19464079Y-10264079D01*
X19464079Y-10335921D01*
X19535921Y-10335921D01*
X19500000Y-10503200D02*
X19500000Y-10604800D01*
X19449200Y-10554000D02*
X19550800Y-10554000D01*
X19535921Y-10589921D02*
X19535921Y-10518079D01*
X19464079Y-10518079D01*
X19464079Y-10589921D01*
X19535921Y-10589921D01*
X20190000Y-12219200D02*
X20190000Y-12320800D01*
X20139200Y-12270000D02*
X20240800Y-12270000D01*
X20225921Y-12305921D02*
X20225921Y-12234079D01*
X20154079Y-12234079D01*
X20154079Y-12305921D01*
X20225921Y-12305921D01*
X20190000Y-12473200D02*
X20190000Y-12574800D01*
X20139200Y-12524000D02*
X20240800Y-12524000D01*
X20225921Y-12559921D02*
X20225921Y-12488079D01*
X20154079Y-12488079D01*
X20154079Y-12559921D01*
X20225921Y-12559921D01*
X12365000Y-11750000D02*
X12365000Y-11880000D01*
X12300000Y-11815000D02*
X12430000Y-11815000D01*
X12365000Y-11880000D02*
X12430000Y-11815000D01*
X12365000Y-11750000D01*
X12300000Y-11815000D01*
X12365000Y-11880000D01*
X12365000Y-13020000D02*
X12365000Y-13150000D01*
X12300000Y-13085000D02*
X12430000Y-13085000D01*
X12365000Y-13150000D02*
X12430000Y-13085000D01*
X12365000Y-13020000D01*
X12300000Y-13085000D01*
X12365000Y-13150000D01*
X13635000Y-11750000D02*
X13635000Y-11880000D01*
X13570000Y-11815000D02*
X13700000Y-11815000D01*
X13635000Y-11880000D02*
X13700000Y-11815000D01*
X13635000Y-11750000D01*
X13570000Y-11815000D01*
X13635000Y-11880000D01*
X13635000Y-13020000D02*
X13635000Y-13150000D01*
X13570000Y-13085000D02*
X13700000Y-13085000D01*
X13635000Y-13150000D02*
X13700000Y-13085000D01*
X13635000Y-13020000D01*
X13570000Y-13085000D01*
X13635000Y-13150000D01*
X14065000Y-11750000D02*
X14065000Y-11880000D01*
X14000000Y-11815000D02*
X14130000Y-11815000D01*
X14065000Y-11880000D02*
X14130000Y-11815000D01*
X14065000Y-11750000D01*
X14000000Y-11815000D01*
X14065000Y-11880000D01*
X14065000Y-13020000D02*
X14065000Y-13150000D01*
X14000000Y-13085000D02*
X14130000Y-13085000D01*
X14065000Y-13150000D02*
X14130000Y-13085000D01*
X14065000Y-13020000D01*
X14000000Y-13085000D01*
X14065000Y-13150000D01*
X15335000Y-11750000D02*
X15335000Y-11880000D01*
X15270000Y-11815000D02*
X15400000Y-11815000D01*
X15335000Y-11880000D02*
X15400000Y-11815000D01*
X15335000Y-11750000D01*
X15270000Y-11815000D01*
X15335000Y-11880000D01*
X15335000Y-13020000D02*
X15335000Y-13150000D01*
X15270000Y-13085000D02*
X15400000Y-13085000D01*
X15335000Y-13150000D02*
X15400000Y-13085000D01*
X15335000Y-13020000D01*
X15270000Y-13085000D01*
X15335000Y-13150000D01*
X15765000Y-11750000D02*
X15765000Y-11880000D01*
X15700000Y-11815000D02*
X15830000Y-11815000D01*
X15765000Y-11880000D02*
X15830000Y-11815000D01*
X15765000Y-11750000D01*
X15700000Y-11815000D01*
X15765000Y-11880000D01*
X15765000Y-13020000D02*
X15765000Y-13150000D01*
X15700000Y-13085000D02*
X15830000Y-13085000D01*
X15765000Y-13150000D02*
X15830000Y-13085000D01*
X15765000Y-13020000D01*
X15700000Y-13085000D01*
X15765000Y-13150000D01*
X17035000Y-11750000D02*
X17035000Y-11880000D01*
X16970000Y-11815000D02*
X17100000Y-11815000D01*
X17035000Y-11880000D02*
X17100000Y-11815000D01*
X17035000Y-11750000D01*
X16970000Y-11815000D01*
X17035000Y-11880000D01*
X17035000Y-13020000D02*
X17035000Y-13150000D01*
X16970000Y-13085000D02*
X17100000Y-13085000D01*
X17035000Y-13150000D02*
X17100000Y-13085000D01*
X17035000Y-13020000D01*
X16970000Y-13085000D01*
X17035000Y-13150000D01*
X12360000Y-6422500D02*
X12497500Y-6285000D01*
X12360000Y-6147500D01*
X12222500Y-6285000D01*
X12360000Y-6422500D01*
X12457228Y-6382228D02*
X12457228Y-6187772D01*
X12262772Y-6187772D01*
X12262772Y-6382228D01*
X12457228Y-6382228D01*
X12360000Y-11322500D02*
X12497500Y-11185000D01*
X12360000Y-11047500D01*
X12222500Y-11185000D01*
X12360000Y-11322500D01*
X12457228Y-11282228D02*
X12457228Y-11087772D01*
X12262772Y-11087772D01*
X12262772Y-11282228D01*
X12457228Y-11282228D01*
X18160000Y-6422500D02*
X18297500Y-6285000D01*
X18160000Y-6147500D01*
X18022500Y-6285000D01*
X18160000Y-6422500D01*
X18257228Y-6382228D02*
X18257228Y-6187772D01*
X18062772Y-6187772D01*
X18062772Y-6382228D01*
X18257228Y-6382228D01*
X18160000Y-11322500D02*
X18297500Y-11185000D01*
X18160000Y-11047500D01*
X18022500Y-11185000D01*
X18160000Y-11322500D01*
X18257228Y-11282228D02*
X18257228Y-11087772D01*
X18062772Y-11087772D01*
X18062772Y-11282228D01*
X18257228Y-11282228D01*
D13*
X12313928Y-14073214D02*
X12313928Y-13773214D01*
X12385357Y-13773214D01*
X12428214Y-13787500D01*
X12456786Y-13816071D01*
X12471071Y-13844643D01*
X12485357Y-13901786D01*
X12485357Y-13944643D01*
X12471071Y-14001786D01*
X12456786Y-14030357D01*
X12428214Y-14058929D01*
X12385357Y-14073214D01*
X12313928Y-14073214D01*
X12613928Y-14073214D02*
X12613928Y-13873214D01*
X12613928Y-13930357D02*
X12628214Y-13901786D01*
X12642500Y-13887500D01*
X12671071Y-13873214D01*
X12699643Y-13873214D01*
X12799643Y-14073214D02*
X12799643Y-13873214D01*
X12799643Y-13773214D02*
X12785357Y-13787500D01*
X12799643Y-13801786D01*
X12813928Y-13787500D01*
X12799643Y-13773214D01*
X12799643Y-13801786D01*
X12985357Y-14073214D02*
X12956786Y-14058929D01*
X12942500Y-14030357D01*
X12942500Y-13773214D01*
X13142500Y-14073214D02*
X13113928Y-14058929D01*
X13099643Y-14030357D01*
X13099643Y-13773214D01*
X13485357Y-14073214D02*
X13485357Y-13773214D01*
X13585357Y-13987500D01*
X13685357Y-13773214D01*
X13685357Y-14073214D01*
X13956786Y-14073214D02*
X13956786Y-13916071D01*
X13942500Y-13887500D01*
X13913928Y-13873214D01*
X13856786Y-13873214D01*
X13828214Y-13887500D01*
X13956786Y-14058929D02*
X13928214Y-14073214D01*
X13856786Y-14073214D01*
X13828214Y-14058929D01*
X13813928Y-14030357D01*
X13813928Y-14001786D01*
X13828214Y-13973214D01*
X13856786Y-13958929D01*
X13928214Y-13958929D01*
X13956786Y-13944643D01*
X14099643Y-13873214D02*
X14099643Y-14173214D01*
X14099643Y-13887500D02*
X14128214Y-13873214D01*
X14185357Y-13873214D01*
X14213928Y-13887500D01*
X14228214Y-13901786D01*
X14242500Y-13930357D01*
X14242500Y-14016071D01*
X14228214Y-14044643D01*
X14213928Y-14058929D01*
X14185357Y-14073214D01*
X14128214Y-14073214D01*
X14099643Y-14058929D01*
X14371071Y-14044643D02*
X14385357Y-14058929D01*
X14371071Y-14073214D01*
X14356786Y-14058929D01*
X14371071Y-14044643D01*
X14371071Y-14073214D01*
X14371071Y-13887500D02*
X14385357Y-13901786D01*
X14371071Y-13916071D01*
X14356786Y-13901786D01*
X14371071Y-13887500D01*
X14371071Y-13916071D01*
X12002500Y-14547500D02*
X12042500Y-14587500D01*
X12042500Y-14547500D02*
X12002500Y-14587500D01*
X12371071Y-14403214D02*
X12399643Y-14403214D01*
X12428214Y-14417500D01*
X12442500Y-14431786D01*
X12456786Y-14460357D01*
X12471071Y-14517500D01*
X12471071Y-14588929D01*
X12456786Y-14646071D01*
X12442500Y-14674643D01*
X12428214Y-14688929D01*
X12399643Y-14703214D01*
X12371071Y-14703214D01*
X12342500Y-14688929D01*
X12328214Y-14674643D01*
X12313928Y-14646071D01*
X12299643Y-14588929D01*
X12299643Y-14517500D01*
X12313928Y-14460357D01*
X12328214Y-14431786D01*
X12342500Y-14417500D01*
X12371071Y-14403214D01*
X12599643Y-14674643D02*
X12613928Y-14688929D01*
X12599643Y-14703214D01*
X12585357Y-14688929D01*
X12599643Y-14674643D01*
X12599643Y-14703214D01*
X12871071Y-14503214D02*
X12871071Y-14703214D01*
X12799643Y-14388929D02*
X12728214Y-14603214D01*
X12913928Y-14603214D01*
X13085357Y-14403214D02*
X13113928Y-14403214D01*
X13142500Y-14417500D01*
X13156786Y-14431786D01*
X13171071Y-14460357D01*
X13185357Y-14517500D01*
X13185357Y-14588929D01*
X13171071Y-14646071D01*
X13156786Y-14674643D01*
X13142500Y-14688929D01*
X13113928Y-14703214D01*
X13085357Y-14703214D01*
X13056786Y-14688929D01*
X13042500Y-14674643D01*
X13028214Y-14646071D01*
X13013928Y-14588929D01*
X13013928Y-14517500D01*
X13028214Y-14460357D01*
X13042500Y-14431786D01*
X13056786Y-14417500D01*
X13085357Y-14403214D01*
X13313928Y-14703214D02*
X13313928Y-14503214D01*
X13313928Y-14531786D02*
X13328214Y-14517500D01*
X13356786Y-14503214D01*
X13399643Y-14503214D01*
X13428214Y-14517500D01*
X13442500Y-14546071D01*
X13442500Y-14703214D01*
X13442500Y-14546071D02*
X13456786Y-14517500D01*
X13485357Y-14503214D01*
X13528214Y-14503214D01*
X13556786Y-14517500D01*
X13571071Y-14546071D01*
X13571071Y-14703214D01*
X13713928Y-14703214D02*
X13713928Y-14503214D01*
X13713928Y-14531786D02*
X13728214Y-14517500D01*
X13756786Y-14503214D01*
X13799643Y-14503214D01*
X13828214Y-14517500D01*
X13842500Y-14546071D01*
X13842500Y-14703214D01*
X13842500Y-14546071D02*
X13856786Y-14517500D01*
X13885357Y-14503214D01*
X13928214Y-14503214D01*
X13956786Y-14517500D01*
X13971071Y-14546071D01*
X13971071Y-14703214D01*
X14556786Y-14388929D02*
X14299643Y-14774643D01*
X14942500Y-14403214D02*
X14971071Y-14403214D01*
X14999643Y-14417500D01*
X15013928Y-14431786D01*
X15028214Y-14460357D01*
X15042500Y-14517500D01*
X15042500Y-14588929D01*
X15028214Y-14646071D01*
X15013928Y-14674643D01*
X14999643Y-14688929D01*
X14971071Y-14703214D01*
X14942500Y-14703214D01*
X14913928Y-14688929D01*
X14899643Y-14674643D01*
X14885357Y-14646071D01*
X14871071Y-14588929D01*
X14871071Y-14517500D01*
X14885357Y-14460357D01*
X14899643Y-14431786D01*
X14913928Y-14417500D01*
X14942500Y-14403214D01*
X15171071Y-14674643D02*
X15185357Y-14688929D01*
X15171071Y-14703214D01*
X15156786Y-14688929D01*
X15171071Y-14674643D01*
X15171071Y-14703214D01*
X15371071Y-14403214D02*
X15399643Y-14403214D01*
X15428214Y-14417500D01*
X15442500Y-14431786D01*
X15456785Y-14460357D01*
X15471071Y-14517500D01*
X15471071Y-14588929D01*
X15456785Y-14646071D01*
X15442500Y-14674643D01*
X15428214Y-14688929D01*
X15399643Y-14703214D01*
X15371071Y-14703214D01*
X15342500Y-14688929D01*
X15328214Y-14674643D01*
X15313928Y-14646071D01*
X15299643Y-14588929D01*
X15299643Y-14517500D01*
X15313928Y-14460357D01*
X15328214Y-14431786D01*
X15342500Y-14417500D01*
X15371071Y-14403214D01*
X15756785Y-14703214D02*
X15585357Y-14703214D01*
X15671071Y-14703214D02*
X15671071Y-14403214D01*
X15642500Y-14446071D01*
X15613928Y-14474643D01*
X15585357Y-14488929D01*
X16013928Y-14403214D02*
X15956785Y-14403214D01*
X15928214Y-14417500D01*
X15913928Y-14431786D01*
X15885357Y-14474643D01*
X15871071Y-14531786D01*
X15871071Y-14646071D01*
X15885357Y-14674643D01*
X15899643Y-14688929D01*
X15928214Y-14703214D01*
X15985357Y-14703214D01*
X16013928Y-14688929D01*
X16028214Y-14674643D01*
X16042500Y-14646071D01*
X16042500Y-14574643D01*
X16028214Y-14546071D01*
X16013928Y-14531786D01*
X15985357Y-14517500D01*
X15928214Y-14517500D01*
X15899643Y-14531786D01*
X15885357Y-14546071D01*
X15871071Y-14574643D01*
X16156786Y-14403214D02*
X16156786Y-14460357D01*
X16271071Y-14403214D02*
X16271071Y-14460357D01*
X16713928Y-14817500D02*
X16699643Y-14803214D01*
X16671071Y-14760357D01*
X16656785Y-14731786D01*
X16642500Y-14688929D01*
X16628214Y-14617500D01*
X16628214Y-14560357D01*
X16642500Y-14488929D01*
X16656785Y-14446071D01*
X16671071Y-14417500D01*
X16699643Y-14374643D01*
X16713928Y-14360357D01*
X16956786Y-14403214D02*
X16899643Y-14403214D01*
X16871071Y-14417500D01*
X16856786Y-14431786D01*
X16828214Y-14474643D01*
X16813928Y-14531786D01*
X16813928Y-14646071D01*
X16828214Y-14674643D01*
X16842500Y-14688929D01*
X16871071Y-14703214D01*
X16928214Y-14703214D01*
X16956786Y-14688929D01*
X16971071Y-14674643D01*
X16985357Y-14646071D01*
X16985357Y-14574643D01*
X16971071Y-14546071D01*
X16956786Y-14531786D01*
X16928214Y-14517500D01*
X16871071Y-14517500D01*
X16842500Y-14531786D01*
X16828214Y-14546071D01*
X16813928Y-14574643D01*
X17242500Y-14503214D02*
X17242500Y-14703214D01*
X17171071Y-14388929D02*
X17099643Y-14603214D01*
X17285357Y-14603214D01*
X17628214Y-14703214D02*
X17628214Y-14403214D01*
X17756786Y-14703214D02*
X17756786Y-14546071D01*
X17742500Y-14517500D01*
X17713928Y-14503214D01*
X17671071Y-14503214D01*
X17642500Y-14517500D01*
X17628214Y-14531786D01*
X17942500Y-14703214D02*
X17913928Y-14688929D01*
X17899643Y-14674643D01*
X17885357Y-14646071D01*
X17885357Y-14560357D01*
X17899643Y-14531786D01*
X17913928Y-14517500D01*
X17942500Y-14503214D01*
X17985357Y-14503214D01*
X18013928Y-14517500D01*
X18028214Y-14531786D01*
X18042500Y-14560357D01*
X18042500Y-14646071D01*
X18028214Y-14674643D01*
X18013928Y-14688929D01*
X17985357Y-14703214D01*
X17942500Y-14703214D01*
X18213928Y-14703214D02*
X18185357Y-14688929D01*
X18171071Y-14660357D01*
X18171071Y-14403214D01*
X18442500Y-14688929D02*
X18413929Y-14703214D01*
X18356786Y-14703214D01*
X18328214Y-14688929D01*
X18313929Y-14660357D01*
X18313929Y-14546071D01*
X18328214Y-14517500D01*
X18356786Y-14503214D01*
X18413929Y-14503214D01*
X18442500Y-14517500D01*
X18456786Y-14546071D01*
X18456786Y-14574643D01*
X18313929Y-14603214D01*
X18571071Y-14688929D02*
X18599643Y-14703214D01*
X18656786Y-14703214D01*
X18685357Y-14688929D01*
X18699643Y-14660357D01*
X18699643Y-14646071D01*
X18685357Y-14617500D01*
X18656786Y-14603214D01*
X18613929Y-14603214D01*
X18585357Y-14588929D01*
X18571071Y-14560357D01*
X18571071Y-14546071D01*
X18585357Y-14517500D01*
X18613929Y-14503214D01*
X18656786Y-14503214D01*
X18685357Y-14517500D01*
X18799643Y-14817500D02*
X18813929Y-14803214D01*
X18842500Y-14760357D01*
X18856786Y-14731786D01*
X18871071Y-14688929D01*
X18885357Y-14617500D01*
X18885357Y-14560357D01*
X18871071Y-14488929D01*
X18856786Y-14446071D01*
X18842500Y-14417500D01*
X18813929Y-14374643D01*
X18799643Y-14360357D01*
X12042500Y-14963500D02*
G75*
G03X12042500Y-14963500I-22000J0D01*
G01*
X12371071Y-14799214D02*
X12399643Y-14799214D01*
X12428214Y-14813500D01*
X12442500Y-14827786D01*
X12456786Y-14856357D01*
X12471071Y-14913500D01*
X12471071Y-14984929D01*
X12456786Y-15042071D01*
X12442500Y-15070643D01*
X12428214Y-15084929D01*
X12399643Y-15099214D01*
X12371071Y-15099214D01*
X12342500Y-15084929D01*
X12328214Y-15070643D01*
X12313928Y-15042071D01*
X12299643Y-14984929D01*
X12299643Y-14913500D01*
X12313928Y-14856357D01*
X12328214Y-14827786D01*
X12342500Y-14813500D01*
X12371071Y-14799214D01*
X12599643Y-15070643D02*
X12613928Y-15084929D01*
X12599643Y-15099214D01*
X12585357Y-15084929D01*
X12599643Y-15070643D01*
X12599643Y-15099214D01*
X12871071Y-14899214D02*
X12871071Y-15099214D01*
X12799643Y-14784929D02*
X12728214Y-14999214D01*
X12913928Y-14999214D01*
X13156786Y-14899214D02*
X13156786Y-15099214D01*
X13085357Y-14784929D02*
X13013928Y-14999214D01*
X13199643Y-14999214D01*
X13313928Y-15099214D02*
X13313928Y-14899214D01*
X13313928Y-14927786D02*
X13328214Y-14913500D01*
X13356786Y-14899214D01*
X13399643Y-14899214D01*
X13428214Y-14913500D01*
X13442500Y-14942071D01*
X13442500Y-15099214D01*
X13442500Y-14942071D02*
X13456786Y-14913500D01*
X13485357Y-14899214D01*
X13528214Y-14899214D01*
X13556786Y-14913500D01*
X13571071Y-14942071D01*
X13571071Y-15099214D01*
X13713928Y-15099214D02*
X13713928Y-14899214D01*
X13713928Y-14927786D02*
X13728214Y-14913500D01*
X13756786Y-14899214D01*
X13799643Y-14899214D01*
X13828214Y-14913500D01*
X13842500Y-14942071D01*
X13842500Y-15099214D01*
X13842500Y-14942071D02*
X13856786Y-14913500D01*
X13885357Y-14899214D01*
X13928214Y-14899214D01*
X13956786Y-14913500D01*
X13971071Y-14942071D01*
X13971071Y-15099214D01*
X14556786Y-14784929D02*
X14299643Y-15170643D01*
X14942500Y-14799214D02*
X14971071Y-14799214D01*
X14999643Y-14813500D01*
X15013928Y-14827786D01*
X15028214Y-14856357D01*
X15042500Y-14913500D01*
X15042500Y-14984929D01*
X15028214Y-15042071D01*
X15013928Y-15070643D01*
X14999643Y-15084929D01*
X14971071Y-15099214D01*
X14942500Y-15099214D01*
X14913928Y-15084929D01*
X14899643Y-15070643D01*
X14885357Y-15042071D01*
X14871071Y-14984929D01*
X14871071Y-14913500D01*
X14885357Y-14856357D01*
X14899643Y-14827786D01*
X14913928Y-14813500D01*
X14942500Y-14799214D01*
X15171071Y-15070643D02*
X15185357Y-15084929D01*
X15171071Y-15099214D01*
X15156786Y-15084929D01*
X15171071Y-15070643D01*
X15171071Y-15099214D01*
X15371071Y-14799214D02*
X15399643Y-14799214D01*
X15428214Y-14813500D01*
X15442500Y-14827786D01*
X15456785Y-14856357D01*
X15471071Y-14913500D01*
X15471071Y-14984929D01*
X15456785Y-15042071D01*
X15442500Y-15070643D01*
X15428214Y-15084929D01*
X15399643Y-15099214D01*
X15371071Y-15099214D01*
X15342500Y-15084929D01*
X15328214Y-15070643D01*
X15313928Y-15042071D01*
X15299643Y-14984929D01*
X15299643Y-14913500D01*
X15313928Y-14856357D01*
X15328214Y-14827786D01*
X15342500Y-14813500D01*
X15371071Y-14799214D01*
X15756785Y-15099214D02*
X15585357Y-15099214D01*
X15671071Y-15099214D02*
X15671071Y-14799214D01*
X15642500Y-14842071D01*
X15613928Y-14870643D01*
X15585357Y-14884929D01*
X15856785Y-14799214D02*
X16056785Y-14799214D01*
X15928214Y-15099214D01*
X16156786Y-14799214D02*
X16156786Y-14856357D01*
X16271071Y-14799214D02*
X16271071Y-14856357D01*
X16713928Y-15213500D02*
X16699643Y-15199214D01*
X16671071Y-15156357D01*
X16656785Y-15127786D01*
X16642500Y-15084929D01*
X16628214Y-15013500D01*
X16628214Y-14956357D01*
X16642500Y-14884929D01*
X16656785Y-14842071D01*
X16671071Y-14813500D01*
X16699643Y-14770643D01*
X16713928Y-14756357D01*
X16971071Y-14799214D02*
X16828214Y-14799214D01*
X16813928Y-14942071D01*
X16828214Y-14927786D01*
X16856786Y-14913500D01*
X16928214Y-14913500D01*
X16956786Y-14927786D01*
X16971071Y-14942071D01*
X16985357Y-14970643D01*
X16985357Y-15042071D01*
X16971071Y-15070643D01*
X16956786Y-15084929D01*
X16928214Y-15099214D01*
X16856786Y-15099214D01*
X16828214Y-15084929D01*
X16813928Y-15070643D01*
X17342500Y-15099214D02*
X17342500Y-14799214D01*
X17471071Y-15099214D02*
X17471071Y-14942071D01*
X17456786Y-14913500D01*
X17428214Y-14899214D01*
X17385357Y-14899214D01*
X17356786Y-14913500D01*
X17342500Y-14927786D01*
X17656786Y-15099214D02*
X17628214Y-15084929D01*
X17613928Y-15070643D01*
X17599643Y-15042071D01*
X17599643Y-14956357D01*
X17613928Y-14927786D01*
X17628214Y-14913500D01*
X17656786Y-14899214D01*
X17699643Y-14899214D01*
X17728214Y-14913500D01*
X17742500Y-14927786D01*
X17756786Y-14956357D01*
X17756786Y-15042071D01*
X17742500Y-15070643D01*
X17728214Y-15084929D01*
X17699643Y-15099214D01*
X17656786Y-15099214D01*
X17928214Y-15099214D02*
X17899643Y-15084929D01*
X17885357Y-15056357D01*
X17885357Y-14799214D01*
X18156786Y-15084929D02*
X18128214Y-15099214D01*
X18071071Y-15099214D01*
X18042500Y-15084929D01*
X18028214Y-15056357D01*
X18028214Y-14942071D01*
X18042500Y-14913500D01*
X18071071Y-14899214D01*
X18128214Y-14899214D01*
X18156786Y-14913500D01*
X18171071Y-14942071D01*
X18171071Y-14970643D01*
X18028214Y-14999214D01*
X18285357Y-15084929D02*
X18313929Y-15099214D01*
X18371071Y-15099214D01*
X18399643Y-15084929D01*
X18413929Y-15056357D01*
X18413929Y-15042071D01*
X18399643Y-15013500D01*
X18371071Y-14999214D01*
X18328214Y-14999214D01*
X18299643Y-14984929D01*
X18285357Y-14956357D01*
X18285357Y-14942071D01*
X18299643Y-14913500D01*
X18328214Y-14899214D01*
X18371071Y-14899214D01*
X18399643Y-14913500D01*
X18513928Y-15213500D02*
X18528214Y-15199214D01*
X18556786Y-15156357D01*
X18571071Y-15127786D01*
X18585357Y-15084929D01*
X18599643Y-15013500D01*
X18599643Y-14956357D01*
X18585357Y-14884929D01*
X18571071Y-14842071D01*
X18556786Y-14813500D01*
X18528214Y-14770643D01*
X18513928Y-14756357D01*
X12017500Y-15334500D02*
X12017500Y-15384500D01*
X11992500Y-15359500D02*
X12042500Y-15359500D01*
X12371071Y-15195214D02*
X12399643Y-15195214D01*
X12428214Y-15209500D01*
X12442500Y-15223786D01*
X12456786Y-15252357D01*
X12471071Y-15309500D01*
X12471071Y-15380929D01*
X12456786Y-15438071D01*
X12442500Y-15466643D01*
X12428214Y-15480929D01*
X12399643Y-15495214D01*
X12371071Y-15495214D01*
X12342500Y-15480929D01*
X12328214Y-15466643D01*
X12313928Y-15438071D01*
X12299643Y-15380929D01*
X12299643Y-15309500D01*
X12313928Y-15252357D01*
X12328214Y-15223786D01*
X12342500Y-15209500D01*
X12371071Y-15195214D01*
X12599643Y-15466643D02*
X12613928Y-15480929D01*
X12599643Y-15495214D01*
X12585357Y-15480929D01*
X12599643Y-15466643D01*
X12599643Y-15495214D01*
X12885357Y-15195214D02*
X12742500Y-15195214D01*
X12728214Y-15338071D01*
X12742500Y-15323786D01*
X12771071Y-15309500D01*
X12842500Y-15309500D01*
X12871071Y-15323786D01*
X12885357Y-15338071D01*
X12899643Y-15366643D01*
X12899643Y-15438071D01*
X12885357Y-15466643D01*
X12871071Y-15480929D01*
X12842500Y-15495214D01*
X12771071Y-15495214D01*
X12742500Y-15480929D01*
X12728214Y-15466643D01*
X13085357Y-15195214D02*
X13113928Y-15195214D01*
X13142500Y-15209500D01*
X13156786Y-15223786D01*
X13171071Y-15252357D01*
X13185357Y-15309500D01*
X13185357Y-15380929D01*
X13171071Y-15438071D01*
X13156786Y-15466643D01*
X13142500Y-15480929D01*
X13113928Y-15495214D01*
X13085357Y-15495214D01*
X13056786Y-15480929D01*
X13042500Y-15466643D01*
X13028214Y-15438071D01*
X13013928Y-15380929D01*
X13013928Y-15309500D01*
X13028214Y-15252357D01*
X13042500Y-15223786D01*
X13056786Y-15209500D01*
X13085357Y-15195214D01*
X13313928Y-15495214D02*
X13313928Y-15295214D01*
X13313928Y-15323786D02*
X13328214Y-15309500D01*
X13356786Y-15295214D01*
X13399643Y-15295214D01*
X13428214Y-15309500D01*
X13442500Y-15338071D01*
X13442500Y-15495214D01*
X13442500Y-15338071D02*
X13456786Y-15309500D01*
X13485357Y-15295214D01*
X13528214Y-15295214D01*
X13556786Y-15309500D01*
X13571071Y-15338071D01*
X13571071Y-15495214D01*
X13713928Y-15495214D02*
X13713928Y-15295214D01*
X13713928Y-15323786D02*
X13728214Y-15309500D01*
X13756786Y-15295214D01*
X13799643Y-15295214D01*
X13828214Y-15309500D01*
X13842500Y-15338071D01*
X13842500Y-15495214D01*
X13842500Y-15338071D02*
X13856786Y-15309500D01*
X13885357Y-15295214D01*
X13928214Y-15295214D01*
X13956786Y-15309500D01*
X13971071Y-15338071D01*
X13971071Y-15495214D01*
X14556786Y-15180929D02*
X14299643Y-15566643D01*
X14942500Y-15195214D02*
X14971071Y-15195214D01*
X14999643Y-15209500D01*
X15013928Y-15223786D01*
X15028214Y-15252357D01*
X15042500Y-15309500D01*
X15042500Y-15380929D01*
X15028214Y-15438071D01*
X15013928Y-15466643D01*
X14999643Y-15480929D01*
X14971071Y-15495214D01*
X14942500Y-15495214D01*
X14913928Y-15480929D01*
X14899643Y-15466643D01*
X14885357Y-15438071D01*
X14871071Y-15380929D01*
X14871071Y-15309500D01*
X14885357Y-15252357D01*
X14899643Y-15223786D01*
X14913928Y-15209500D01*
X14942500Y-15195214D01*
X15171071Y-15466643D02*
X15185357Y-15480929D01*
X15171071Y-15495214D01*
X15156786Y-15480929D01*
X15171071Y-15466643D01*
X15171071Y-15495214D01*
X15371071Y-15195214D02*
X15399643Y-15195214D01*
X15428214Y-15209500D01*
X15442500Y-15223786D01*
X15456785Y-15252357D01*
X15471071Y-15309500D01*
X15471071Y-15380929D01*
X15456785Y-15438071D01*
X15442500Y-15466643D01*
X15428214Y-15480929D01*
X15399643Y-15495214D01*
X15371071Y-15495214D01*
X15342500Y-15480929D01*
X15328214Y-15466643D01*
X15313928Y-15438071D01*
X15299643Y-15380929D01*
X15299643Y-15309500D01*
X15313928Y-15252357D01*
X15328214Y-15223786D01*
X15342500Y-15209500D01*
X15371071Y-15195214D01*
X15585357Y-15223786D02*
X15599643Y-15209500D01*
X15628214Y-15195214D01*
X15699643Y-15195214D01*
X15728214Y-15209500D01*
X15742500Y-15223786D01*
X15756785Y-15252357D01*
X15756785Y-15280929D01*
X15742500Y-15323786D01*
X15571071Y-15495214D01*
X15756785Y-15495214D01*
X15942500Y-15195214D02*
X15971071Y-15195214D01*
X15999643Y-15209500D01*
X16013928Y-15223786D01*
X16028214Y-15252357D01*
X16042500Y-15309500D01*
X16042500Y-15380929D01*
X16028214Y-15438071D01*
X16013928Y-15466643D01*
X15999643Y-15480929D01*
X15971071Y-15495214D01*
X15942500Y-15495214D01*
X15913928Y-15480929D01*
X15899643Y-15466643D01*
X15885357Y-15438071D01*
X15871071Y-15380929D01*
X15871071Y-15309500D01*
X15885357Y-15252357D01*
X15899643Y-15223786D01*
X15913928Y-15209500D01*
X15942500Y-15195214D01*
X16156786Y-15195214D02*
X16156786Y-15252357D01*
X16271071Y-15195214D02*
X16271071Y-15252357D01*
X16713928Y-15609500D02*
X16699643Y-15595214D01*
X16671071Y-15552357D01*
X16656785Y-15523786D01*
X16642500Y-15480929D01*
X16628214Y-15409500D01*
X16628214Y-15352357D01*
X16642500Y-15280929D01*
X16656785Y-15238071D01*
X16671071Y-15209500D01*
X16699643Y-15166643D01*
X16713928Y-15152357D01*
X16871071Y-15323786D02*
X16842500Y-15309500D01*
X16828214Y-15295214D01*
X16813928Y-15266643D01*
X16813928Y-15252357D01*
X16828214Y-15223786D01*
X16842500Y-15209500D01*
X16871071Y-15195214D01*
X16928214Y-15195214D01*
X16956786Y-15209500D01*
X16971071Y-15223786D01*
X16985357Y-15252357D01*
X16985357Y-15266643D01*
X16971071Y-15295214D01*
X16956786Y-15309500D01*
X16928214Y-15323786D01*
X16871071Y-15323786D01*
X16842500Y-15338071D01*
X16828214Y-15352357D01*
X16813928Y-15380929D01*
X16813928Y-15438071D01*
X16828214Y-15466643D01*
X16842500Y-15480929D01*
X16871071Y-15495214D01*
X16928214Y-15495214D01*
X16956786Y-15480929D01*
X16971071Y-15466643D01*
X16985357Y-15438071D01*
X16985357Y-15380929D01*
X16971071Y-15352357D01*
X16956786Y-15338071D01*
X16928214Y-15323786D01*
X17342500Y-15495214D02*
X17342500Y-15195214D01*
X17471071Y-15495214D02*
X17471071Y-15338071D01*
X17456786Y-15309500D01*
X17428214Y-15295214D01*
X17385357Y-15295214D01*
X17356786Y-15309500D01*
X17342500Y-15323786D01*
X17656786Y-15495214D02*
X17628214Y-15480929D01*
X17613928Y-15466643D01*
X17599643Y-15438071D01*
X17599643Y-15352357D01*
X17613928Y-15323786D01*
X17628214Y-15309500D01*
X17656786Y-15295214D01*
X17699643Y-15295214D01*
X17728214Y-15309500D01*
X17742500Y-15323786D01*
X17756786Y-15352357D01*
X17756786Y-15438071D01*
X17742500Y-15466643D01*
X17728214Y-15480929D01*
X17699643Y-15495214D01*
X17656786Y-15495214D01*
X17928214Y-15495214D02*
X17899643Y-15480929D01*
X17885357Y-15452357D01*
X17885357Y-15195214D01*
X18156786Y-15480929D02*
X18128214Y-15495214D01*
X18071071Y-15495214D01*
X18042500Y-15480929D01*
X18028214Y-15452357D01*
X18028214Y-15338071D01*
X18042500Y-15309500D01*
X18071071Y-15295214D01*
X18128214Y-15295214D01*
X18156786Y-15309500D01*
X18171071Y-15338071D01*
X18171071Y-15366643D01*
X18028214Y-15395214D01*
X18285357Y-15480929D02*
X18313929Y-15495214D01*
X18371071Y-15495214D01*
X18399643Y-15480929D01*
X18413929Y-15452357D01*
X18413929Y-15438071D01*
X18399643Y-15409500D01*
X18371071Y-15395214D01*
X18328214Y-15395214D01*
X18299643Y-15380929D01*
X18285357Y-15352357D01*
X18285357Y-15338071D01*
X18299643Y-15309500D01*
X18328214Y-15295214D01*
X18371071Y-15295214D01*
X18399643Y-15309500D01*
X18771071Y-15380929D02*
X18999643Y-15380929D01*
X18885357Y-15495214D02*
X18885357Y-15266643D01*
X19356786Y-15223786D02*
X19371071Y-15209500D01*
X19399643Y-15195214D01*
X19471071Y-15195214D01*
X19499643Y-15209500D01*
X19513928Y-15223786D01*
X19528214Y-15252357D01*
X19528214Y-15280929D01*
X19513928Y-15323786D01*
X19342500Y-15495214D01*
X19528214Y-15495214D01*
X19871071Y-15480929D02*
X19899643Y-15495214D01*
X19956786Y-15495214D01*
X19985357Y-15480929D01*
X19999643Y-15452357D01*
X19999643Y-15438071D01*
X19985357Y-15409500D01*
X19956786Y-15395214D01*
X19913928Y-15395214D01*
X19885357Y-15380929D01*
X19871071Y-15352357D01*
X19871071Y-15338071D01*
X19885357Y-15309500D01*
X19913928Y-15295214D01*
X19956786Y-15295214D01*
X19985357Y-15309500D01*
X20171071Y-15495214D02*
X20142500Y-15480929D01*
X20128214Y-15452357D01*
X20128214Y-15195214D01*
X20328214Y-15495214D02*
X20299643Y-15480929D01*
X20285357Y-15466643D01*
X20271071Y-15438071D01*
X20271071Y-15352357D01*
X20285357Y-15323786D01*
X20299643Y-15309500D01*
X20328214Y-15295214D01*
X20371071Y-15295214D01*
X20399643Y-15309500D01*
X20413928Y-15323786D01*
X20428214Y-15352357D01*
X20428214Y-15438071D01*
X20413928Y-15466643D01*
X20399643Y-15480929D01*
X20371071Y-15495214D01*
X20328214Y-15495214D01*
X20513928Y-15295214D02*
X20628214Y-15295214D01*
X20556786Y-15195214D02*
X20556786Y-15452357D01*
X20571071Y-15480929D01*
X20599643Y-15495214D01*
X20628214Y-15495214D01*
X20713929Y-15480929D02*
X20742500Y-15495214D01*
X20799643Y-15495214D01*
X20828214Y-15480929D01*
X20842500Y-15452357D01*
X20842500Y-15438071D01*
X20828214Y-15409500D01*
X20799643Y-15395214D01*
X20756786Y-15395214D01*
X20728214Y-15380929D01*
X20713929Y-15352357D01*
X20713929Y-15338071D01*
X20728214Y-15309500D01*
X20756786Y-15295214D01*
X20799643Y-15295214D01*
X20828214Y-15309500D01*
X20942500Y-15609500D02*
X20956786Y-15595214D01*
X20985357Y-15552357D01*
X20999643Y-15523786D01*
X21013928Y-15480929D01*
X21028214Y-15409500D01*
X21028214Y-15352357D01*
X21013928Y-15280929D01*
X20999643Y-15238071D01*
X20985357Y-15209500D01*
X20956786Y-15166643D01*
X20942500Y-15152357D01*
X12032234Y-15780286D02*
X12032234Y-15730714D01*
X11982662Y-15730714D01*
X11982662Y-15780286D01*
X12032234Y-15780286D01*
X12371071Y-15591214D02*
X12399643Y-15591214D01*
X12428214Y-15605500D01*
X12442500Y-15619786D01*
X12456786Y-15648357D01*
X12471071Y-15705500D01*
X12471071Y-15776929D01*
X12456786Y-15834071D01*
X12442500Y-15862643D01*
X12428214Y-15876929D01*
X12399643Y-15891214D01*
X12371071Y-15891214D01*
X12342500Y-15876929D01*
X12328214Y-15862643D01*
X12313928Y-15834071D01*
X12299643Y-15776929D01*
X12299643Y-15705500D01*
X12313928Y-15648357D01*
X12328214Y-15619786D01*
X12342500Y-15605500D01*
X12371071Y-15591214D01*
X12599643Y-15862643D02*
X12613928Y-15876929D01*
X12599643Y-15891214D01*
X12585357Y-15876929D01*
X12599643Y-15862643D01*
X12599643Y-15891214D01*
X12713928Y-15591214D02*
X12913928Y-15591214D01*
X12785357Y-15891214D01*
X13085357Y-15591214D02*
X13113928Y-15591214D01*
X13142500Y-15605500D01*
X13156786Y-15619786D01*
X13171071Y-15648357D01*
X13185357Y-15705500D01*
X13185357Y-15776929D01*
X13171071Y-15834071D01*
X13156786Y-15862643D01*
X13142500Y-15876929D01*
X13113928Y-15891214D01*
X13085357Y-15891214D01*
X13056786Y-15876929D01*
X13042500Y-15862643D01*
X13028214Y-15834071D01*
X13013928Y-15776929D01*
X13013928Y-15705500D01*
X13028214Y-15648357D01*
X13042500Y-15619786D01*
X13056786Y-15605500D01*
X13085357Y-15591214D01*
X13313928Y-15891214D02*
X13313928Y-15691214D01*
X13313928Y-15719786D02*
X13328214Y-15705500D01*
X13356786Y-15691214D01*
X13399643Y-15691214D01*
X13428214Y-15705500D01*
X13442500Y-15734071D01*
X13442500Y-15891214D01*
X13442500Y-15734071D02*
X13456786Y-15705500D01*
X13485357Y-15691214D01*
X13528214Y-15691214D01*
X13556786Y-15705500D01*
X13571071Y-15734071D01*
X13571071Y-15891214D01*
X13713928Y-15891214D02*
X13713928Y-15691214D01*
X13713928Y-15719786D02*
X13728214Y-15705500D01*
X13756786Y-15691214D01*
X13799643Y-15691214D01*
X13828214Y-15705500D01*
X13842500Y-15734071D01*
X13842500Y-15891214D01*
X13842500Y-15734071D02*
X13856786Y-15705500D01*
X13885357Y-15691214D01*
X13928214Y-15691214D01*
X13956786Y-15705500D01*
X13971071Y-15734071D01*
X13971071Y-15891214D01*
X14556786Y-15576929D02*
X14299643Y-15962643D01*
X14942500Y-15591214D02*
X14971071Y-15591214D01*
X14999643Y-15605500D01*
X15013928Y-15619786D01*
X15028214Y-15648357D01*
X15042500Y-15705500D01*
X15042500Y-15776929D01*
X15028214Y-15834071D01*
X15013928Y-15862643D01*
X14999643Y-15876929D01*
X14971071Y-15891214D01*
X14942500Y-15891214D01*
X14913928Y-15876929D01*
X14899643Y-15862643D01*
X14885357Y-15834071D01*
X14871071Y-15776929D01*
X14871071Y-15705500D01*
X14885357Y-15648357D01*
X14899643Y-15619786D01*
X14913928Y-15605500D01*
X14942500Y-15591214D01*
X15171071Y-15862643D02*
X15185357Y-15876929D01*
X15171071Y-15891214D01*
X15156786Y-15876929D01*
X15171071Y-15862643D01*
X15171071Y-15891214D01*
X15371071Y-15591214D02*
X15399643Y-15591214D01*
X15428214Y-15605500D01*
X15442500Y-15619786D01*
X15456785Y-15648357D01*
X15471071Y-15705500D01*
X15471071Y-15776929D01*
X15456785Y-15834071D01*
X15442500Y-15862643D01*
X15428214Y-15876929D01*
X15399643Y-15891214D01*
X15371071Y-15891214D01*
X15342500Y-15876929D01*
X15328214Y-15862643D01*
X15313928Y-15834071D01*
X15299643Y-15776929D01*
X15299643Y-15705500D01*
X15313928Y-15648357D01*
X15328214Y-15619786D01*
X15342500Y-15605500D01*
X15371071Y-15591214D01*
X15585357Y-15619786D02*
X15599643Y-15605500D01*
X15628214Y-15591214D01*
X15699643Y-15591214D01*
X15728214Y-15605500D01*
X15742500Y-15619786D01*
X15756785Y-15648357D01*
X15756785Y-15676929D01*
X15742500Y-15719786D01*
X15571071Y-15891214D01*
X15756785Y-15891214D01*
X15928214Y-15719786D02*
X15899643Y-15705500D01*
X15885357Y-15691214D01*
X15871071Y-15662643D01*
X15871071Y-15648357D01*
X15885357Y-15619786D01*
X15899643Y-15605500D01*
X15928214Y-15591214D01*
X15985357Y-15591214D01*
X16013928Y-15605500D01*
X16028214Y-15619786D01*
X16042500Y-15648357D01*
X16042500Y-15662643D01*
X16028214Y-15691214D01*
X16013928Y-15705500D01*
X15985357Y-15719786D01*
X15928214Y-15719786D01*
X15899643Y-15734071D01*
X15885357Y-15748357D01*
X15871071Y-15776929D01*
X15871071Y-15834071D01*
X15885357Y-15862643D01*
X15899643Y-15876929D01*
X15928214Y-15891214D01*
X15985357Y-15891214D01*
X16013928Y-15876929D01*
X16028214Y-15862643D01*
X16042500Y-15834071D01*
X16042500Y-15776929D01*
X16028214Y-15748357D01*
X16013928Y-15734071D01*
X15985357Y-15719786D01*
X16156786Y-15591214D02*
X16156786Y-15648357D01*
X16271071Y-15591214D02*
X16271071Y-15648357D01*
X16713928Y-16005500D02*
X16699643Y-15991214D01*
X16671071Y-15948357D01*
X16656785Y-15919786D01*
X16642500Y-15876929D01*
X16628214Y-15805500D01*
X16628214Y-15748357D01*
X16642500Y-15676929D01*
X16656785Y-15634071D01*
X16671071Y-15605500D01*
X16699643Y-15562643D01*
X16713928Y-15548357D01*
X16813928Y-15619786D02*
X16828214Y-15605500D01*
X16856786Y-15591214D01*
X16928214Y-15591214D01*
X16956786Y-15605500D01*
X16971071Y-15619786D01*
X16985357Y-15648357D01*
X16985357Y-15676929D01*
X16971071Y-15719786D01*
X16799643Y-15891214D01*
X16985357Y-15891214D01*
X17342500Y-15891214D02*
X17342500Y-15591214D01*
X17471071Y-15891214D02*
X17471071Y-15734071D01*
X17456786Y-15705500D01*
X17428214Y-15691214D01*
X17385357Y-15691214D01*
X17356786Y-15705500D01*
X17342500Y-15719786D01*
X17656786Y-15891214D02*
X17628214Y-15876929D01*
X17613928Y-15862643D01*
X17599643Y-15834071D01*
X17599643Y-15748357D01*
X17613928Y-15719786D01*
X17628214Y-15705500D01*
X17656786Y-15691214D01*
X17699643Y-15691214D01*
X17728214Y-15705500D01*
X17742500Y-15719786D01*
X17756786Y-15748357D01*
X17756786Y-15834071D01*
X17742500Y-15862643D01*
X17728214Y-15876929D01*
X17699643Y-15891214D01*
X17656786Y-15891214D01*
X17928214Y-15891214D02*
X17899643Y-15876929D01*
X17885357Y-15848357D01*
X17885357Y-15591214D01*
X18156786Y-15876929D02*
X18128214Y-15891214D01*
X18071071Y-15891214D01*
X18042500Y-15876929D01*
X18028214Y-15848357D01*
X18028214Y-15734071D01*
X18042500Y-15705500D01*
X18071071Y-15691214D01*
X18128214Y-15691214D01*
X18156786Y-15705500D01*
X18171071Y-15734071D01*
X18171071Y-15762643D01*
X18028214Y-15791214D01*
X18285357Y-15876929D02*
X18313929Y-15891214D01*
X18371071Y-15891214D01*
X18399643Y-15876929D01*
X18413929Y-15848357D01*
X18413929Y-15834071D01*
X18399643Y-15805500D01*
X18371071Y-15791214D01*
X18328214Y-15791214D01*
X18299643Y-15776929D01*
X18285357Y-15748357D01*
X18285357Y-15734071D01*
X18299643Y-15705500D01*
X18328214Y-15691214D01*
X18371071Y-15691214D01*
X18399643Y-15705500D01*
X18513928Y-16005500D02*
X18528214Y-15991214D01*
X18556786Y-15948357D01*
X18571071Y-15919786D01*
X18585357Y-15876929D01*
X18599643Y-15805500D01*
X18599643Y-15748357D01*
X18585357Y-15676929D01*
X18571071Y-15634071D01*
X18556786Y-15605500D01*
X18528214Y-15562643D01*
X18513928Y-15548357D01*
X12002500Y-16191500D02*
X12042500Y-16151500D01*
X12002500Y-16111500D01*
X11962500Y-16151500D01*
X12002500Y-16191500D01*
X12371071Y-15987214D02*
X12399643Y-15987214D01*
X12428214Y-16001500D01*
X12442500Y-16015786D01*
X12456786Y-16044357D01*
X12471071Y-16101500D01*
X12471071Y-16172929D01*
X12456786Y-16230071D01*
X12442500Y-16258643D01*
X12428214Y-16272929D01*
X12399643Y-16287214D01*
X12371071Y-16287214D01*
X12342500Y-16272929D01*
X12328214Y-16258643D01*
X12313928Y-16230071D01*
X12299643Y-16172929D01*
X12299643Y-16101500D01*
X12313928Y-16044357D01*
X12328214Y-16015786D01*
X12342500Y-16001500D01*
X12371071Y-15987214D01*
X12599643Y-16258643D02*
X12613928Y-16272929D01*
X12599643Y-16287214D01*
X12585357Y-16272929D01*
X12599643Y-16258643D01*
X12599643Y-16287214D01*
X12785357Y-16115786D02*
X12756786Y-16101500D01*
X12742500Y-16087214D01*
X12728214Y-16058643D01*
X12728214Y-16044357D01*
X12742500Y-16015786D01*
X12756786Y-16001500D01*
X12785357Y-15987214D01*
X12842500Y-15987214D01*
X12871071Y-16001500D01*
X12885357Y-16015786D01*
X12899643Y-16044357D01*
X12899643Y-16058643D01*
X12885357Y-16087214D01*
X12871071Y-16101500D01*
X12842500Y-16115786D01*
X12785357Y-16115786D01*
X12756786Y-16130071D01*
X12742500Y-16144357D01*
X12728214Y-16172929D01*
X12728214Y-16230071D01*
X12742500Y-16258643D01*
X12756786Y-16272929D01*
X12785357Y-16287214D01*
X12842500Y-16287214D01*
X12871071Y-16272929D01*
X12885357Y-16258643D01*
X12899643Y-16230071D01*
X12899643Y-16172929D01*
X12885357Y-16144357D01*
X12871071Y-16130071D01*
X12842500Y-16115786D01*
X13085357Y-15987214D02*
X13113928Y-15987214D01*
X13142500Y-16001500D01*
X13156786Y-16015786D01*
X13171071Y-16044357D01*
X13185357Y-16101500D01*
X13185357Y-16172929D01*
X13171071Y-16230071D01*
X13156786Y-16258643D01*
X13142500Y-16272929D01*
X13113928Y-16287214D01*
X13085357Y-16287214D01*
X13056786Y-16272929D01*
X13042500Y-16258643D01*
X13028214Y-16230071D01*
X13013928Y-16172929D01*
X13013928Y-16101500D01*
X13028214Y-16044357D01*
X13042500Y-16015786D01*
X13056786Y-16001500D01*
X13085357Y-15987214D01*
X13313928Y-16287214D02*
X13313928Y-16087214D01*
X13313928Y-16115786D02*
X13328214Y-16101500D01*
X13356786Y-16087214D01*
X13399643Y-16087214D01*
X13428214Y-16101500D01*
X13442500Y-16130071D01*
X13442500Y-16287214D01*
X13442500Y-16130071D02*
X13456786Y-16101500D01*
X13485357Y-16087214D01*
X13528214Y-16087214D01*
X13556786Y-16101500D01*
X13571071Y-16130071D01*
X13571071Y-16287214D01*
X13713928Y-16287214D02*
X13713928Y-16087214D01*
X13713928Y-16115786D02*
X13728214Y-16101500D01*
X13756786Y-16087214D01*
X13799643Y-16087214D01*
X13828214Y-16101500D01*
X13842500Y-16130071D01*
X13842500Y-16287214D01*
X13842500Y-16130071D02*
X13856786Y-16101500D01*
X13885357Y-16087214D01*
X13928214Y-16087214D01*
X13956786Y-16101500D01*
X13971071Y-16130071D01*
X13971071Y-16287214D01*
X14556786Y-15972929D02*
X14299643Y-16358643D01*
X14942500Y-15987214D02*
X14971071Y-15987214D01*
X14999643Y-16001500D01*
X15013928Y-16015786D01*
X15028214Y-16044357D01*
X15042500Y-16101500D01*
X15042500Y-16172929D01*
X15028214Y-16230071D01*
X15013928Y-16258643D01*
X14999643Y-16272929D01*
X14971071Y-16287214D01*
X14942500Y-16287214D01*
X14913928Y-16272929D01*
X14899643Y-16258643D01*
X14885357Y-16230071D01*
X14871071Y-16172929D01*
X14871071Y-16101500D01*
X14885357Y-16044357D01*
X14899643Y-16015786D01*
X14913928Y-16001500D01*
X14942500Y-15987214D01*
X15171071Y-16258643D02*
X15185357Y-16272929D01*
X15171071Y-16287214D01*
X15156786Y-16272929D01*
X15171071Y-16258643D01*
X15171071Y-16287214D01*
X15371071Y-15987214D02*
X15399643Y-15987214D01*
X15428214Y-16001500D01*
X15442500Y-16015786D01*
X15456785Y-16044357D01*
X15471071Y-16101500D01*
X15471071Y-16172929D01*
X15456785Y-16230071D01*
X15442500Y-16258643D01*
X15428214Y-16272929D01*
X15399643Y-16287214D01*
X15371071Y-16287214D01*
X15342500Y-16272929D01*
X15328214Y-16258643D01*
X15313928Y-16230071D01*
X15299643Y-16172929D01*
X15299643Y-16101500D01*
X15313928Y-16044357D01*
X15328214Y-16015786D01*
X15342500Y-16001500D01*
X15371071Y-15987214D01*
X15571071Y-15987214D02*
X15756785Y-15987214D01*
X15656785Y-16101500D01*
X15699643Y-16101500D01*
X15728214Y-16115786D01*
X15742500Y-16130071D01*
X15756785Y-16158643D01*
X15756785Y-16230071D01*
X15742500Y-16258643D01*
X15728214Y-16272929D01*
X15699643Y-16287214D01*
X15613928Y-16287214D01*
X15585357Y-16272929D01*
X15571071Y-16258643D01*
X16042500Y-16287214D02*
X15871071Y-16287214D01*
X15956785Y-16287214D02*
X15956785Y-15987214D01*
X15928214Y-16030071D01*
X15899643Y-16058643D01*
X15871071Y-16072929D01*
X16156786Y-15987214D02*
X16156786Y-16044357D01*
X16271071Y-15987214D02*
X16271071Y-16044357D01*
X16713928Y-16401500D02*
X16699643Y-16387214D01*
X16671071Y-16344357D01*
X16656785Y-16315786D01*
X16642500Y-16272929D01*
X16628214Y-16201500D01*
X16628214Y-16144357D01*
X16642500Y-16072929D01*
X16656785Y-16030071D01*
X16671071Y-16001500D01*
X16699643Y-15958643D01*
X16713928Y-15944357D01*
X16985357Y-16287214D02*
X16813928Y-16287214D01*
X16899643Y-16287214D02*
X16899643Y-15987214D01*
X16871071Y-16030071D01*
X16842500Y-16058643D01*
X16813928Y-16072929D01*
X17085357Y-15987214D02*
X17285357Y-15987214D01*
X17156786Y-16287214D01*
X17628214Y-16287214D02*
X17628214Y-15987214D01*
X17756786Y-16287214D02*
X17756786Y-16130071D01*
X17742500Y-16101500D01*
X17713928Y-16087214D01*
X17671071Y-16087214D01*
X17642500Y-16101500D01*
X17628214Y-16115786D01*
X17942500Y-16287214D02*
X17913928Y-16272929D01*
X17899643Y-16258643D01*
X17885357Y-16230071D01*
X17885357Y-16144357D01*
X17899643Y-16115786D01*
X17913928Y-16101500D01*
X17942500Y-16087214D01*
X17985357Y-16087214D01*
X18013928Y-16101500D01*
X18028214Y-16115786D01*
X18042500Y-16144357D01*
X18042500Y-16230071D01*
X18028214Y-16258643D01*
X18013928Y-16272929D01*
X17985357Y-16287214D01*
X17942500Y-16287214D01*
X18213928Y-16287214D02*
X18185357Y-16272929D01*
X18171071Y-16244357D01*
X18171071Y-15987214D01*
X18442500Y-16272929D02*
X18413929Y-16287214D01*
X18356786Y-16287214D01*
X18328214Y-16272929D01*
X18313929Y-16244357D01*
X18313929Y-16130071D01*
X18328214Y-16101500D01*
X18356786Y-16087214D01*
X18413929Y-16087214D01*
X18442500Y-16101500D01*
X18456786Y-16130071D01*
X18456786Y-16158643D01*
X18313929Y-16187214D01*
X18571071Y-16272929D02*
X18599643Y-16287214D01*
X18656786Y-16287214D01*
X18685357Y-16272929D01*
X18699643Y-16244357D01*
X18699643Y-16230071D01*
X18685357Y-16201500D01*
X18656786Y-16187214D01*
X18613929Y-16187214D01*
X18585357Y-16172929D01*
X18571071Y-16144357D01*
X18571071Y-16130071D01*
X18585357Y-16101500D01*
X18613929Y-16087214D01*
X18656786Y-16087214D01*
X18685357Y-16101500D01*
X19056786Y-16172929D02*
X19285357Y-16172929D01*
X19171071Y-16287214D02*
X19171071Y-16058643D01*
X19628214Y-15987214D02*
X19813928Y-15987214D01*
X19713928Y-16101500D01*
X19756786Y-16101500D01*
X19785357Y-16115786D01*
X19799643Y-16130071D01*
X19813928Y-16158643D01*
X19813928Y-16230071D01*
X19799643Y-16258643D01*
X19785357Y-16272929D01*
X19756786Y-16287214D01*
X19671071Y-16287214D01*
X19642500Y-16272929D01*
X19628214Y-16258643D01*
X20156786Y-16272929D02*
X20185357Y-16287214D01*
X20242500Y-16287214D01*
X20271071Y-16272929D01*
X20285357Y-16244357D01*
X20285357Y-16230071D01*
X20271071Y-16201500D01*
X20242500Y-16187214D01*
X20199643Y-16187214D01*
X20171071Y-16172929D01*
X20156786Y-16144357D01*
X20156786Y-16130071D01*
X20171071Y-16101500D01*
X20199643Y-16087214D01*
X20242500Y-16087214D01*
X20271071Y-16101500D01*
X20456786Y-16287214D02*
X20428214Y-16272929D01*
X20413928Y-16244357D01*
X20413928Y-15987214D01*
X20613928Y-16287214D02*
X20585357Y-16272929D01*
X20571071Y-16258643D01*
X20556786Y-16230071D01*
X20556786Y-16144357D01*
X20571071Y-16115786D01*
X20585357Y-16101500D01*
X20613928Y-16087214D01*
X20656786Y-16087214D01*
X20685357Y-16101500D01*
X20699643Y-16115786D01*
X20713928Y-16144357D01*
X20713928Y-16230071D01*
X20699643Y-16258643D01*
X20685357Y-16272929D01*
X20656786Y-16287214D01*
X20613928Y-16287214D01*
X20799643Y-16087214D02*
X20913928Y-16087214D01*
X20842500Y-15987214D02*
X20842500Y-16244357D01*
X20856786Y-16272929D01*
X20885357Y-16287214D01*
X20913928Y-16287214D01*
X20999643Y-16272929D02*
X21028214Y-16287214D01*
X21085357Y-16287214D01*
X21113929Y-16272929D01*
X21128214Y-16244357D01*
X21128214Y-16230071D01*
X21113929Y-16201500D01*
X21085357Y-16187214D01*
X21042500Y-16187214D01*
X21013929Y-16172929D01*
X20999643Y-16144357D01*
X20999643Y-16130071D01*
X21013929Y-16101500D01*
X21042500Y-16087214D01*
X21085357Y-16087214D01*
X21113929Y-16101500D01*
X21228214Y-16401500D02*
X21242500Y-16387214D01*
X21271071Y-16344357D01*
X21285357Y-16315786D01*
X21299643Y-16272929D01*
X21313928Y-16201500D01*
X21313928Y-16144357D01*
X21299643Y-16072929D01*
X21285357Y-16030071D01*
X21271071Y-16001500D01*
X21242500Y-15958643D01*
X21228214Y-15944357D01*
X11962490Y-16507495D02*
X12042500Y-16587505D01*
X12042500Y-16507495D02*
X11962490Y-16587505D01*
X12042500Y-16547500D02*
G75*
G03X12042500Y-16547500I-40005J0D01*
G01*
X12371071Y-16383214D02*
X12399643Y-16383214D01*
X12428214Y-16397500D01*
X12442500Y-16411786D01*
X12456786Y-16440357D01*
X12471071Y-16497500D01*
X12471071Y-16568929D01*
X12456786Y-16626071D01*
X12442500Y-16654643D01*
X12428214Y-16668929D01*
X12399643Y-16683214D01*
X12371071Y-16683214D01*
X12342500Y-16668929D01*
X12328214Y-16654643D01*
X12313928Y-16626071D01*
X12299643Y-16568929D01*
X12299643Y-16497500D01*
X12313928Y-16440357D01*
X12328214Y-16411786D01*
X12342500Y-16397500D01*
X12371071Y-16383214D01*
X12599643Y-16654643D02*
X12613928Y-16668929D01*
X12599643Y-16683214D01*
X12585357Y-16668929D01*
X12599643Y-16654643D01*
X12599643Y-16683214D01*
X12785357Y-16511786D02*
X12756786Y-16497500D01*
X12742500Y-16483214D01*
X12728214Y-16454643D01*
X12728214Y-16440357D01*
X12742500Y-16411786D01*
X12756786Y-16397500D01*
X12785357Y-16383214D01*
X12842500Y-16383214D01*
X12871071Y-16397500D01*
X12885357Y-16411786D01*
X12899643Y-16440357D01*
X12899643Y-16454643D01*
X12885357Y-16483214D01*
X12871071Y-16497500D01*
X12842500Y-16511786D01*
X12785357Y-16511786D01*
X12756786Y-16526071D01*
X12742500Y-16540357D01*
X12728214Y-16568929D01*
X12728214Y-16626071D01*
X12742500Y-16654643D01*
X12756786Y-16668929D01*
X12785357Y-16683214D01*
X12842500Y-16683214D01*
X12871071Y-16668929D01*
X12885357Y-16654643D01*
X12899643Y-16626071D01*
X12899643Y-16568929D01*
X12885357Y-16540357D01*
X12871071Y-16526071D01*
X12842500Y-16511786D01*
X13085357Y-16383214D02*
X13113928Y-16383214D01*
X13142500Y-16397500D01*
X13156786Y-16411786D01*
X13171071Y-16440357D01*
X13185357Y-16497500D01*
X13185357Y-16568929D01*
X13171071Y-16626071D01*
X13156786Y-16654643D01*
X13142500Y-16668929D01*
X13113928Y-16683214D01*
X13085357Y-16683214D01*
X13056786Y-16668929D01*
X13042500Y-16654643D01*
X13028214Y-16626071D01*
X13013928Y-16568929D01*
X13013928Y-16497500D01*
X13028214Y-16440357D01*
X13042500Y-16411786D01*
X13056786Y-16397500D01*
X13085357Y-16383214D01*
X13313928Y-16683214D02*
X13313928Y-16483214D01*
X13313928Y-16511786D02*
X13328214Y-16497500D01*
X13356786Y-16483214D01*
X13399643Y-16483214D01*
X13428214Y-16497500D01*
X13442500Y-16526071D01*
X13442500Y-16683214D01*
X13442500Y-16526071D02*
X13456786Y-16497500D01*
X13485357Y-16483214D01*
X13528214Y-16483214D01*
X13556786Y-16497500D01*
X13571071Y-16526071D01*
X13571071Y-16683214D01*
X13713928Y-16683214D02*
X13713928Y-16483214D01*
X13713928Y-16511786D02*
X13728214Y-16497500D01*
X13756786Y-16483214D01*
X13799643Y-16483214D01*
X13828214Y-16497500D01*
X13842500Y-16526071D01*
X13842500Y-16683214D01*
X13842500Y-16526071D02*
X13856786Y-16497500D01*
X13885357Y-16483214D01*
X13928214Y-16483214D01*
X13956786Y-16497500D01*
X13971071Y-16526071D01*
X13971071Y-16683214D01*
X14556786Y-16368929D02*
X14299643Y-16754643D01*
X14942500Y-16383214D02*
X14971071Y-16383214D01*
X14999643Y-16397500D01*
X15013928Y-16411786D01*
X15028214Y-16440357D01*
X15042500Y-16497500D01*
X15042500Y-16568929D01*
X15028214Y-16626071D01*
X15013928Y-16654643D01*
X14999643Y-16668929D01*
X14971071Y-16683214D01*
X14942500Y-16683214D01*
X14913928Y-16668929D01*
X14899643Y-16654643D01*
X14885357Y-16626071D01*
X14871071Y-16568929D01*
X14871071Y-16497500D01*
X14885357Y-16440357D01*
X14899643Y-16411786D01*
X14913928Y-16397500D01*
X14942500Y-16383214D01*
X15171071Y-16654643D02*
X15185357Y-16668929D01*
X15171071Y-16683214D01*
X15156786Y-16668929D01*
X15171071Y-16654643D01*
X15171071Y-16683214D01*
X15371071Y-16383214D02*
X15399643Y-16383214D01*
X15428214Y-16397500D01*
X15442500Y-16411786D01*
X15456785Y-16440357D01*
X15471071Y-16497500D01*
X15471071Y-16568929D01*
X15456785Y-16626071D01*
X15442500Y-16654643D01*
X15428214Y-16668929D01*
X15399643Y-16683214D01*
X15371071Y-16683214D01*
X15342500Y-16668929D01*
X15328214Y-16654643D01*
X15313928Y-16626071D01*
X15299643Y-16568929D01*
X15299643Y-16497500D01*
X15313928Y-16440357D01*
X15328214Y-16411786D01*
X15342500Y-16397500D01*
X15371071Y-16383214D01*
X15571071Y-16383214D02*
X15756785Y-16383214D01*
X15656785Y-16497500D01*
X15699643Y-16497500D01*
X15728214Y-16511786D01*
X15742500Y-16526071D01*
X15756785Y-16554643D01*
X15756785Y-16626071D01*
X15742500Y-16654643D01*
X15728214Y-16668929D01*
X15699643Y-16683214D01*
X15613928Y-16683214D01*
X15585357Y-16668929D01*
X15571071Y-16654643D01*
X15871071Y-16411786D02*
X15885357Y-16397500D01*
X15913928Y-16383214D01*
X15985357Y-16383214D01*
X16013928Y-16397500D01*
X16028214Y-16411786D01*
X16042500Y-16440357D01*
X16042500Y-16468929D01*
X16028214Y-16511786D01*
X15856785Y-16683214D01*
X16042500Y-16683214D01*
X16156786Y-16383214D02*
X16156786Y-16440357D01*
X16271071Y-16383214D02*
X16271071Y-16440357D01*
X16713928Y-16797500D02*
X16699643Y-16783214D01*
X16671071Y-16740357D01*
X16656785Y-16711786D01*
X16642500Y-16668929D01*
X16628214Y-16597500D01*
X16628214Y-16540357D01*
X16642500Y-16468929D01*
X16656785Y-16426071D01*
X16671071Y-16397500D01*
X16699643Y-16354643D01*
X16713928Y-16340357D01*
X16956786Y-16383214D02*
X16899643Y-16383214D01*
X16871071Y-16397500D01*
X16856786Y-16411786D01*
X16828214Y-16454643D01*
X16813928Y-16511786D01*
X16813928Y-16626071D01*
X16828214Y-16654643D01*
X16842500Y-16668929D01*
X16871071Y-16683214D01*
X16928214Y-16683214D01*
X16956786Y-16668929D01*
X16971071Y-16654643D01*
X16985357Y-16626071D01*
X16985357Y-16554643D01*
X16971071Y-16526071D01*
X16956786Y-16511786D01*
X16928214Y-16497500D01*
X16871071Y-16497500D01*
X16842500Y-16511786D01*
X16828214Y-16526071D01*
X16813928Y-16554643D01*
X17242500Y-16483214D02*
X17242500Y-16683214D01*
X17171071Y-16368929D02*
X17099643Y-16583214D01*
X17285357Y-16583214D01*
X17628214Y-16683214D02*
X17628214Y-16383214D01*
X17756786Y-16683214D02*
X17756786Y-16526071D01*
X17742500Y-16497500D01*
X17713928Y-16483214D01*
X17671071Y-16483214D01*
X17642500Y-16497500D01*
X17628214Y-16511786D01*
X17942500Y-16683214D02*
X17913928Y-16668929D01*
X17899643Y-16654643D01*
X17885357Y-16626071D01*
X17885357Y-16540357D01*
X17899643Y-16511786D01*
X17913928Y-16497500D01*
X17942500Y-16483214D01*
X17985357Y-16483214D01*
X18013928Y-16497500D01*
X18028214Y-16511786D01*
X18042500Y-16540357D01*
X18042500Y-16626071D01*
X18028214Y-16654643D01*
X18013928Y-16668929D01*
X17985357Y-16683214D01*
X17942500Y-16683214D01*
X18213928Y-16683214D02*
X18185357Y-16668929D01*
X18171071Y-16640357D01*
X18171071Y-16383214D01*
X18442500Y-16668929D02*
X18413929Y-16683214D01*
X18356786Y-16683214D01*
X18328214Y-16668929D01*
X18313929Y-16640357D01*
X18313929Y-16526071D01*
X18328214Y-16497500D01*
X18356786Y-16483214D01*
X18413929Y-16483214D01*
X18442500Y-16497500D01*
X18456786Y-16526071D01*
X18456786Y-16554643D01*
X18313929Y-16583214D01*
X18571071Y-16668929D02*
X18599643Y-16683214D01*
X18656786Y-16683214D01*
X18685357Y-16668929D01*
X18699643Y-16640357D01*
X18699643Y-16626071D01*
X18685357Y-16597500D01*
X18656786Y-16583214D01*
X18613929Y-16583214D01*
X18585357Y-16568929D01*
X18571071Y-16540357D01*
X18571071Y-16526071D01*
X18585357Y-16497500D01*
X18613929Y-16483214D01*
X18656786Y-16483214D01*
X18685357Y-16497500D01*
X18799643Y-16797500D02*
X18813929Y-16783214D01*
X18842500Y-16740357D01*
X18856786Y-16711786D01*
X18871071Y-16668929D01*
X18885357Y-16597500D01*
X18885357Y-16540357D01*
X18871071Y-16468929D01*
X18856786Y-16426071D01*
X18842500Y-16397500D01*
X18813929Y-16354643D01*
X18799643Y-16340357D01*
X11961220Y-16902860D02*
X12042500Y-16984140D01*
X12042500Y-16902860D02*
X11961220Y-16984140D01*
X12001860Y-16902860D02*
X12001860Y-16984140D01*
X11961220Y-16943500D02*
X12042500Y-16943500D01*
X12371071Y-16779214D02*
X12399643Y-16779214D01*
X12428214Y-16793500D01*
X12442500Y-16807786D01*
X12456786Y-16836357D01*
X12471071Y-16893500D01*
X12471071Y-16964929D01*
X12456786Y-17022072D01*
X12442500Y-17050643D01*
X12428214Y-17064929D01*
X12399643Y-17079214D01*
X12371071Y-17079214D01*
X12342500Y-17064929D01*
X12328214Y-17050643D01*
X12313928Y-17022072D01*
X12299643Y-16964929D01*
X12299643Y-16893500D01*
X12313928Y-16836357D01*
X12328214Y-16807786D01*
X12342500Y-16793500D01*
X12371071Y-16779214D01*
X12599643Y-17050643D02*
X12613928Y-17064929D01*
X12599643Y-17079214D01*
X12585357Y-17064929D01*
X12599643Y-17050643D01*
X12599643Y-17079214D01*
X12785357Y-16907786D02*
X12756786Y-16893500D01*
X12742500Y-16879214D01*
X12728214Y-16850643D01*
X12728214Y-16836357D01*
X12742500Y-16807786D01*
X12756786Y-16793500D01*
X12785357Y-16779214D01*
X12842500Y-16779214D01*
X12871071Y-16793500D01*
X12885357Y-16807786D01*
X12899643Y-16836357D01*
X12899643Y-16850643D01*
X12885357Y-16879214D01*
X12871071Y-16893500D01*
X12842500Y-16907786D01*
X12785357Y-16907786D01*
X12756786Y-16922072D01*
X12742500Y-16936357D01*
X12728214Y-16964929D01*
X12728214Y-17022072D01*
X12742500Y-17050643D01*
X12756786Y-17064929D01*
X12785357Y-17079214D01*
X12842500Y-17079214D01*
X12871071Y-17064929D01*
X12885357Y-17050643D01*
X12899643Y-17022072D01*
X12899643Y-16964929D01*
X12885357Y-16936357D01*
X12871071Y-16922072D01*
X12842500Y-16907786D01*
X13185357Y-17079214D02*
X13013928Y-17079214D01*
X13099643Y-17079214D02*
X13099643Y-16779214D01*
X13071071Y-16822072D01*
X13042500Y-16850643D01*
X13013928Y-16864929D01*
X13313928Y-17079214D02*
X13313928Y-16879214D01*
X13313928Y-16907786D02*
X13328214Y-16893500D01*
X13356786Y-16879214D01*
X13399643Y-16879214D01*
X13428214Y-16893500D01*
X13442500Y-16922072D01*
X13442500Y-17079214D01*
X13442500Y-16922072D02*
X13456786Y-16893500D01*
X13485357Y-16879214D01*
X13528214Y-16879214D01*
X13556786Y-16893500D01*
X13571071Y-16922072D01*
X13571071Y-17079214D01*
X13713928Y-17079214D02*
X13713928Y-16879214D01*
X13713928Y-16907786D02*
X13728214Y-16893500D01*
X13756786Y-16879214D01*
X13799643Y-16879214D01*
X13828214Y-16893500D01*
X13842500Y-16922072D01*
X13842500Y-17079214D01*
X13842500Y-16922072D02*
X13856786Y-16893500D01*
X13885357Y-16879214D01*
X13928214Y-16879214D01*
X13956786Y-16893500D01*
X13971071Y-16922072D01*
X13971071Y-17079214D01*
X14556786Y-16764929D02*
X14299643Y-17150643D01*
X14942500Y-16779214D02*
X14971071Y-16779214D01*
X14999643Y-16793500D01*
X15013928Y-16807786D01*
X15028214Y-16836357D01*
X15042500Y-16893500D01*
X15042500Y-16964929D01*
X15028214Y-17022072D01*
X15013928Y-17050643D01*
X14999643Y-17064929D01*
X14971071Y-17079214D01*
X14942500Y-17079214D01*
X14913928Y-17064929D01*
X14899643Y-17050643D01*
X14885357Y-17022072D01*
X14871071Y-16964929D01*
X14871071Y-16893500D01*
X14885357Y-16836357D01*
X14899643Y-16807786D01*
X14913928Y-16793500D01*
X14942500Y-16779214D01*
X15171071Y-17050643D02*
X15185357Y-17064929D01*
X15171071Y-17079214D01*
X15156786Y-17064929D01*
X15171071Y-17050643D01*
X15171071Y-17079214D01*
X15371071Y-16779214D02*
X15399643Y-16779214D01*
X15428214Y-16793500D01*
X15442500Y-16807786D01*
X15456785Y-16836357D01*
X15471071Y-16893500D01*
X15471071Y-16964929D01*
X15456785Y-17022072D01*
X15442500Y-17050643D01*
X15428214Y-17064929D01*
X15399643Y-17079214D01*
X15371071Y-17079214D01*
X15342500Y-17064929D01*
X15328214Y-17050643D01*
X15313928Y-17022072D01*
X15299643Y-16964929D01*
X15299643Y-16893500D01*
X15313928Y-16836357D01*
X15328214Y-16807786D01*
X15342500Y-16793500D01*
X15371071Y-16779214D01*
X15571071Y-16779214D02*
X15756785Y-16779214D01*
X15656785Y-16893500D01*
X15699643Y-16893500D01*
X15728214Y-16907786D01*
X15742500Y-16922072D01*
X15756785Y-16950643D01*
X15756785Y-17022072D01*
X15742500Y-17050643D01*
X15728214Y-17064929D01*
X15699643Y-17079214D01*
X15613928Y-17079214D01*
X15585357Y-17064929D01*
X15571071Y-17050643D01*
X15871071Y-16807786D02*
X15885357Y-16793500D01*
X15913928Y-16779214D01*
X15985357Y-16779214D01*
X16013928Y-16793500D01*
X16028214Y-16807786D01*
X16042500Y-16836357D01*
X16042500Y-16864929D01*
X16028214Y-16907786D01*
X15856785Y-17079214D01*
X16042500Y-17079214D01*
X16156786Y-16779214D02*
X16156786Y-16836357D01*
X16271071Y-16779214D02*
X16271071Y-16836357D01*
X16713928Y-17193500D02*
X16699643Y-17179214D01*
X16671071Y-17136357D01*
X16656785Y-17107786D01*
X16642500Y-17064929D01*
X16628214Y-16993500D01*
X16628214Y-16936357D01*
X16642500Y-16864929D01*
X16656785Y-16822072D01*
X16671071Y-16793500D01*
X16699643Y-16750643D01*
X16713928Y-16736357D01*
X16985357Y-17079214D02*
X16813928Y-17079214D01*
X16899643Y-17079214D02*
X16899643Y-16779214D01*
X16871071Y-16822072D01*
X16842500Y-16850643D01*
X16813928Y-16864929D01*
X17256786Y-16779214D02*
X17113928Y-16779214D01*
X17099643Y-16922072D01*
X17113928Y-16907786D01*
X17142500Y-16893500D01*
X17213928Y-16893500D01*
X17242500Y-16907786D01*
X17256786Y-16922072D01*
X17271071Y-16950643D01*
X17271071Y-17022072D01*
X17256786Y-17050643D01*
X17242500Y-17064929D01*
X17213928Y-17079214D01*
X17142500Y-17079214D01*
X17113928Y-17064929D01*
X17099643Y-17050643D01*
X17628214Y-17079214D02*
X17628214Y-16779214D01*
X17756786Y-17079214D02*
X17756786Y-16922072D01*
X17742500Y-16893500D01*
X17713928Y-16879214D01*
X17671071Y-16879214D01*
X17642500Y-16893500D01*
X17628214Y-16907786D01*
X17942500Y-17079214D02*
X17913928Y-17064929D01*
X17899643Y-17050643D01*
X17885357Y-17022072D01*
X17885357Y-16936357D01*
X17899643Y-16907786D01*
X17913928Y-16893500D01*
X17942500Y-16879214D01*
X17985357Y-16879214D01*
X18013928Y-16893500D01*
X18028214Y-16907786D01*
X18042500Y-16936357D01*
X18042500Y-17022072D01*
X18028214Y-17050643D01*
X18013928Y-17064929D01*
X17985357Y-17079214D01*
X17942500Y-17079214D01*
X18213928Y-17079214D02*
X18185357Y-17064929D01*
X18171071Y-17036357D01*
X18171071Y-16779214D01*
X18442500Y-17064929D02*
X18413929Y-17079214D01*
X18356786Y-17079214D01*
X18328214Y-17064929D01*
X18313929Y-17036357D01*
X18313929Y-16922072D01*
X18328214Y-16893500D01*
X18356786Y-16879214D01*
X18413929Y-16879214D01*
X18442500Y-16893500D01*
X18456786Y-16922072D01*
X18456786Y-16950643D01*
X18313929Y-16979214D01*
X18571071Y-17064929D02*
X18599643Y-17079214D01*
X18656786Y-17079214D01*
X18685357Y-17064929D01*
X18699643Y-17036357D01*
X18699643Y-17022072D01*
X18685357Y-16993500D01*
X18656786Y-16979214D01*
X18613929Y-16979214D01*
X18585357Y-16964929D01*
X18571071Y-16936357D01*
X18571071Y-16922072D01*
X18585357Y-16893500D01*
X18613929Y-16879214D01*
X18656786Y-16879214D01*
X18685357Y-16893500D01*
X18799643Y-17193500D02*
X18813929Y-17179214D01*
X18842500Y-17136357D01*
X18856786Y-17107786D01*
X18871071Y-17064929D01*
X18885357Y-16993500D01*
X18885357Y-16936357D01*
X18871071Y-16864929D01*
X18856786Y-16822072D01*
X18842500Y-16793500D01*
X18813929Y-16750643D01*
X18799643Y-16736357D01*
X11952584Y-17294542D02*
X12042500Y-17384458D01*
X12042500Y-17294542D02*
X11952584Y-17384458D01*
X12029332Y-17371291D02*
X12029332Y-17307710D01*
X11965751Y-17307710D01*
X11965751Y-17371291D01*
X12029332Y-17371291D01*
X12371071Y-17175214D02*
X12399643Y-17175214D01*
X12428214Y-17189500D01*
X12442500Y-17203786D01*
X12456786Y-17232357D01*
X12471071Y-17289500D01*
X12471071Y-17360929D01*
X12456786Y-17418072D01*
X12442500Y-17446643D01*
X12428214Y-17460929D01*
X12399643Y-17475214D01*
X12371071Y-17475214D01*
X12342500Y-17460929D01*
X12328214Y-17446643D01*
X12313928Y-17418072D01*
X12299643Y-17360929D01*
X12299643Y-17289500D01*
X12313928Y-17232357D01*
X12328214Y-17203786D01*
X12342500Y-17189500D01*
X12371071Y-17175214D01*
X12599643Y-17446643D02*
X12613928Y-17460929D01*
X12599643Y-17475214D01*
X12585357Y-17460929D01*
X12599643Y-17446643D01*
X12599643Y-17475214D01*
X12756786Y-17475214D02*
X12813928Y-17475214D01*
X12842500Y-17460929D01*
X12856786Y-17446643D01*
X12885357Y-17403786D01*
X12899643Y-17346643D01*
X12899643Y-17232357D01*
X12885357Y-17203786D01*
X12871071Y-17189500D01*
X12842500Y-17175214D01*
X12785357Y-17175214D01*
X12756786Y-17189500D01*
X12742500Y-17203786D01*
X12728214Y-17232357D01*
X12728214Y-17303786D01*
X12742500Y-17332357D01*
X12756786Y-17346643D01*
X12785357Y-17360929D01*
X12842500Y-17360929D01*
X12871071Y-17346643D01*
X12885357Y-17332357D01*
X12899643Y-17303786D01*
X13085357Y-17175214D02*
X13113928Y-17175214D01*
X13142500Y-17189500D01*
X13156786Y-17203786D01*
X13171071Y-17232357D01*
X13185357Y-17289500D01*
X13185357Y-17360929D01*
X13171071Y-17418072D01*
X13156786Y-17446643D01*
X13142500Y-17460929D01*
X13113928Y-17475214D01*
X13085357Y-17475214D01*
X13056786Y-17460929D01*
X13042500Y-17446643D01*
X13028214Y-17418072D01*
X13013928Y-17360929D01*
X13013928Y-17289500D01*
X13028214Y-17232357D01*
X13042500Y-17203786D01*
X13056786Y-17189500D01*
X13085357Y-17175214D01*
X13313928Y-17475214D02*
X13313928Y-17275214D01*
X13313928Y-17303786D02*
X13328214Y-17289500D01*
X13356786Y-17275214D01*
X13399643Y-17275214D01*
X13428214Y-17289500D01*
X13442500Y-17318072D01*
X13442500Y-17475214D01*
X13442500Y-17318072D02*
X13456786Y-17289500D01*
X13485357Y-17275214D01*
X13528214Y-17275214D01*
X13556786Y-17289500D01*
X13571071Y-17318072D01*
X13571071Y-17475214D01*
X13713928Y-17475214D02*
X13713928Y-17275214D01*
X13713928Y-17303786D02*
X13728214Y-17289500D01*
X13756786Y-17275214D01*
X13799643Y-17275214D01*
X13828214Y-17289500D01*
X13842500Y-17318072D01*
X13842500Y-17475214D01*
X13842500Y-17318072D02*
X13856786Y-17289500D01*
X13885357Y-17275214D01*
X13928214Y-17275214D01*
X13956786Y-17289500D01*
X13971071Y-17318072D01*
X13971071Y-17475214D01*
X14556786Y-17160929D02*
X14299643Y-17546643D01*
X14942500Y-17175214D02*
X14971071Y-17175214D01*
X14999643Y-17189500D01*
X15013928Y-17203786D01*
X15028214Y-17232357D01*
X15042500Y-17289500D01*
X15042500Y-17360929D01*
X15028214Y-17418072D01*
X15013928Y-17446643D01*
X14999643Y-17460929D01*
X14971071Y-17475214D01*
X14942500Y-17475214D01*
X14913928Y-17460929D01*
X14899643Y-17446643D01*
X14885357Y-17418072D01*
X14871071Y-17360929D01*
X14871071Y-17289500D01*
X14885357Y-17232357D01*
X14899643Y-17203786D01*
X14913928Y-17189500D01*
X14942500Y-17175214D01*
X15171071Y-17446643D02*
X15185357Y-17460929D01*
X15171071Y-17475214D01*
X15156786Y-17460929D01*
X15171071Y-17446643D01*
X15171071Y-17475214D01*
X15371071Y-17175214D02*
X15399643Y-17175214D01*
X15428214Y-17189500D01*
X15442500Y-17203786D01*
X15456785Y-17232357D01*
X15471071Y-17289500D01*
X15471071Y-17360929D01*
X15456785Y-17418072D01*
X15442500Y-17446643D01*
X15428214Y-17460929D01*
X15399643Y-17475214D01*
X15371071Y-17475214D01*
X15342500Y-17460929D01*
X15328214Y-17446643D01*
X15313928Y-17418072D01*
X15299643Y-17360929D01*
X15299643Y-17289500D01*
X15313928Y-17232357D01*
X15328214Y-17203786D01*
X15342500Y-17189500D01*
X15371071Y-17175214D01*
X15571071Y-17175214D02*
X15756785Y-17175214D01*
X15656785Y-17289500D01*
X15699643Y-17289500D01*
X15728214Y-17303786D01*
X15742500Y-17318072D01*
X15756785Y-17346643D01*
X15756785Y-17418072D01*
X15742500Y-17446643D01*
X15728214Y-17460929D01*
X15699643Y-17475214D01*
X15613928Y-17475214D01*
X15585357Y-17460929D01*
X15571071Y-17446643D01*
X16028214Y-17175214D02*
X15885357Y-17175214D01*
X15871071Y-17318072D01*
X15885357Y-17303786D01*
X15913928Y-17289500D01*
X15985357Y-17289500D01*
X16013928Y-17303786D01*
X16028214Y-17318072D01*
X16042500Y-17346643D01*
X16042500Y-17418072D01*
X16028214Y-17446643D01*
X16013928Y-17460929D01*
X15985357Y-17475214D01*
X15913928Y-17475214D01*
X15885357Y-17460929D01*
X15871071Y-17446643D01*
X16156786Y-17175214D02*
X16156786Y-17232357D01*
X16271071Y-17175214D02*
X16271071Y-17232357D01*
X16713928Y-17589500D02*
X16699643Y-17575214D01*
X16671071Y-17532357D01*
X16656785Y-17503786D01*
X16642500Y-17460929D01*
X16628214Y-17389500D01*
X16628214Y-17332357D01*
X16642500Y-17260929D01*
X16656785Y-17218072D01*
X16671071Y-17189500D01*
X16699643Y-17146643D01*
X16713928Y-17132357D01*
X16956786Y-17175214D02*
X16899643Y-17175214D01*
X16871071Y-17189500D01*
X16856786Y-17203786D01*
X16828214Y-17246643D01*
X16813928Y-17303786D01*
X16813928Y-17418072D01*
X16828214Y-17446643D01*
X16842500Y-17460929D01*
X16871071Y-17475214D01*
X16928214Y-17475214D01*
X16956786Y-17460929D01*
X16971071Y-17446643D01*
X16985357Y-17418072D01*
X16985357Y-17346643D01*
X16971071Y-17318072D01*
X16956786Y-17303786D01*
X16928214Y-17289500D01*
X16871071Y-17289500D01*
X16842500Y-17303786D01*
X16828214Y-17318072D01*
X16813928Y-17346643D01*
X17342500Y-17475214D02*
X17342500Y-17175214D01*
X17471071Y-17475214D02*
X17471071Y-17318072D01*
X17456786Y-17289500D01*
X17428214Y-17275214D01*
X17385357Y-17275214D01*
X17356786Y-17289500D01*
X17342500Y-17303786D01*
X17656786Y-17475214D02*
X17628214Y-17460929D01*
X17613928Y-17446643D01*
X17599643Y-17418072D01*
X17599643Y-17332357D01*
X17613928Y-17303786D01*
X17628214Y-17289500D01*
X17656786Y-17275214D01*
X17699643Y-17275214D01*
X17728214Y-17289500D01*
X17742500Y-17303786D01*
X17756786Y-17332357D01*
X17756786Y-17418072D01*
X17742500Y-17446643D01*
X17728214Y-17460929D01*
X17699643Y-17475214D01*
X17656786Y-17475214D01*
X17928214Y-17475214D02*
X17899643Y-17460929D01*
X17885357Y-17432357D01*
X17885357Y-17175214D01*
X18156786Y-17460929D02*
X18128214Y-17475214D01*
X18071071Y-17475214D01*
X18042500Y-17460929D01*
X18028214Y-17432357D01*
X18028214Y-17318072D01*
X18042500Y-17289500D01*
X18071071Y-17275214D01*
X18128214Y-17275214D01*
X18156786Y-17289500D01*
X18171071Y-17318072D01*
X18171071Y-17346643D01*
X18028214Y-17375214D01*
X18285357Y-17460929D02*
X18313929Y-17475214D01*
X18371071Y-17475214D01*
X18399643Y-17460929D01*
X18413929Y-17432357D01*
X18413929Y-17418072D01*
X18399643Y-17389500D01*
X18371071Y-17375214D01*
X18328214Y-17375214D01*
X18299643Y-17360929D01*
X18285357Y-17332357D01*
X18285357Y-17318072D01*
X18299643Y-17289500D01*
X18328214Y-17275214D01*
X18371071Y-17275214D01*
X18399643Y-17289500D01*
X18513928Y-17589500D02*
X18528214Y-17575214D01*
X18556786Y-17532357D01*
X18571071Y-17503786D01*
X18585357Y-17460929D01*
X18599643Y-17389500D01*
X18599643Y-17332357D01*
X18585357Y-17260929D01*
X18571071Y-17218072D01*
X18556786Y-17189500D01*
X18528214Y-17146643D01*
X18513928Y-17132357D01*
X11952500Y-17690500D02*
X12042500Y-17780500D01*
X12042500Y-17690500D02*
X11952500Y-17780500D01*
X11997500Y-17780500D02*
X12042500Y-17735500D01*
X11997500Y-17690500D01*
X11952500Y-17735500D01*
X11997500Y-17780500D01*
X12371071Y-17571214D02*
X12399643Y-17571214D01*
X12428214Y-17585500D01*
X12442500Y-17599786D01*
X12456786Y-17628357D01*
X12471071Y-17685500D01*
X12471071Y-17756929D01*
X12456786Y-17814072D01*
X12442500Y-17842643D01*
X12428214Y-17856929D01*
X12399643Y-17871214D01*
X12371071Y-17871214D01*
X12342500Y-17856929D01*
X12328214Y-17842643D01*
X12313928Y-17814072D01*
X12299643Y-17756929D01*
X12299643Y-17685500D01*
X12313928Y-17628357D01*
X12328214Y-17599786D01*
X12342500Y-17585500D01*
X12371071Y-17571214D01*
X12599643Y-17842643D02*
X12613928Y-17856929D01*
X12599643Y-17871214D01*
X12585357Y-17856929D01*
X12599643Y-17842643D01*
X12599643Y-17871214D01*
X12756786Y-17871214D02*
X12813928Y-17871214D01*
X12842500Y-17856929D01*
X12856786Y-17842643D01*
X12885357Y-17799786D01*
X12899643Y-17742643D01*
X12899643Y-17628357D01*
X12885357Y-17599786D01*
X12871071Y-17585500D01*
X12842500Y-17571214D01*
X12785357Y-17571214D01*
X12756786Y-17585500D01*
X12742500Y-17599786D01*
X12728214Y-17628357D01*
X12728214Y-17699786D01*
X12742500Y-17728357D01*
X12756786Y-17742643D01*
X12785357Y-17756929D01*
X12842500Y-17756929D01*
X12871071Y-17742643D01*
X12885357Y-17728357D01*
X12899643Y-17699786D01*
X13085357Y-17571214D02*
X13113928Y-17571214D01*
X13142500Y-17585500D01*
X13156786Y-17599786D01*
X13171071Y-17628357D01*
X13185357Y-17685500D01*
X13185357Y-17756929D01*
X13171071Y-17814072D01*
X13156786Y-17842643D01*
X13142500Y-17856929D01*
X13113928Y-17871214D01*
X13085357Y-17871214D01*
X13056786Y-17856929D01*
X13042500Y-17842643D01*
X13028214Y-17814072D01*
X13013928Y-17756929D01*
X13013928Y-17685500D01*
X13028214Y-17628357D01*
X13042500Y-17599786D01*
X13056786Y-17585500D01*
X13085357Y-17571214D01*
X13313928Y-17871214D02*
X13313928Y-17671214D01*
X13313928Y-17699786D02*
X13328214Y-17685500D01*
X13356786Y-17671214D01*
X13399643Y-17671214D01*
X13428214Y-17685500D01*
X13442500Y-17714072D01*
X13442500Y-17871214D01*
X13442500Y-17714072D02*
X13456786Y-17685500D01*
X13485357Y-17671214D01*
X13528214Y-17671214D01*
X13556786Y-17685500D01*
X13571071Y-17714072D01*
X13571071Y-17871214D01*
X13713928Y-17871214D02*
X13713928Y-17671214D01*
X13713928Y-17699786D02*
X13728214Y-17685500D01*
X13756786Y-17671214D01*
X13799643Y-17671214D01*
X13828214Y-17685500D01*
X13842500Y-17714072D01*
X13842500Y-17871214D01*
X13842500Y-17714072D02*
X13856786Y-17685500D01*
X13885357Y-17671214D01*
X13928214Y-17671214D01*
X13956786Y-17685500D01*
X13971071Y-17714072D01*
X13971071Y-17871214D01*
X14556786Y-17556929D02*
X14299643Y-17942643D01*
X14942500Y-17571214D02*
X14971071Y-17571214D01*
X14999643Y-17585500D01*
X15013928Y-17599786D01*
X15028214Y-17628357D01*
X15042500Y-17685500D01*
X15042500Y-17756929D01*
X15028214Y-17814072D01*
X15013928Y-17842643D01*
X14999643Y-17856929D01*
X14971071Y-17871214D01*
X14942500Y-17871214D01*
X14913928Y-17856929D01*
X14899643Y-17842643D01*
X14885357Y-17814072D01*
X14871071Y-17756929D01*
X14871071Y-17685500D01*
X14885357Y-17628357D01*
X14899643Y-17599786D01*
X14913928Y-17585500D01*
X14942500Y-17571214D01*
X15171071Y-17842643D02*
X15185357Y-17856929D01*
X15171071Y-17871214D01*
X15156786Y-17856929D01*
X15171071Y-17842643D01*
X15171071Y-17871214D01*
X15371071Y-17571214D02*
X15399643Y-17571214D01*
X15428214Y-17585500D01*
X15442500Y-17599786D01*
X15456785Y-17628357D01*
X15471071Y-17685500D01*
X15471071Y-17756929D01*
X15456785Y-17814072D01*
X15442500Y-17842643D01*
X15428214Y-17856929D01*
X15399643Y-17871214D01*
X15371071Y-17871214D01*
X15342500Y-17856929D01*
X15328214Y-17842643D01*
X15313928Y-17814072D01*
X15299643Y-17756929D01*
X15299643Y-17685500D01*
X15313928Y-17628357D01*
X15328214Y-17599786D01*
X15342500Y-17585500D01*
X15371071Y-17571214D01*
X15571071Y-17571214D02*
X15756785Y-17571214D01*
X15656785Y-17685500D01*
X15699643Y-17685500D01*
X15728214Y-17699786D01*
X15742500Y-17714072D01*
X15756785Y-17742643D01*
X15756785Y-17814072D01*
X15742500Y-17842643D01*
X15728214Y-17856929D01*
X15699643Y-17871214D01*
X15613928Y-17871214D01*
X15585357Y-17856929D01*
X15571071Y-17842643D01*
X16028214Y-17571214D02*
X15885357Y-17571214D01*
X15871071Y-17714072D01*
X15885357Y-17699786D01*
X15913928Y-17685500D01*
X15985357Y-17685500D01*
X16013928Y-17699786D01*
X16028214Y-17714072D01*
X16042500Y-17742643D01*
X16042500Y-17814072D01*
X16028214Y-17842643D01*
X16013928Y-17856929D01*
X15985357Y-17871214D01*
X15913928Y-17871214D01*
X15885357Y-17856929D01*
X15871071Y-17842643D01*
X16156786Y-17571214D02*
X16156786Y-17628357D01*
X16271071Y-17571214D02*
X16271071Y-17628357D01*
X16713928Y-17985500D02*
X16699643Y-17971214D01*
X16671071Y-17928357D01*
X16656785Y-17899786D01*
X16642500Y-17856929D01*
X16628214Y-17785500D01*
X16628214Y-17728357D01*
X16642500Y-17656929D01*
X16656785Y-17614072D01*
X16671071Y-17585500D01*
X16699643Y-17542643D01*
X16713928Y-17528357D01*
X16813928Y-17599786D02*
X16828214Y-17585500D01*
X16856786Y-17571214D01*
X16928214Y-17571214D01*
X16956786Y-17585500D01*
X16971071Y-17599786D01*
X16985357Y-17628357D01*
X16985357Y-17656929D01*
X16971071Y-17699786D01*
X16799643Y-17871214D01*
X16985357Y-17871214D01*
X17342500Y-17871214D02*
X17342500Y-17571214D01*
X17471071Y-17871214D02*
X17471071Y-17714072D01*
X17456786Y-17685500D01*
X17428214Y-17671214D01*
X17385357Y-17671214D01*
X17356786Y-17685500D01*
X17342500Y-17699786D01*
X17656786Y-17871214D02*
X17628214Y-17856929D01*
X17613928Y-17842643D01*
X17599643Y-17814072D01*
X17599643Y-17728357D01*
X17613928Y-17699786D01*
X17628214Y-17685500D01*
X17656786Y-17671214D01*
X17699643Y-17671214D01*
X17728214Y-17685500D01*
X17742500Y-17699786D01*
X17756786Y-17728357D01*
X17756786Y-17814072D01*
X17742500Y-17842643D01*
X17728214Y-17856929D01*
X17699643Y-17871214D01*
X17656786Y-17871214D01*
X17928214Y-17871214D02*
X17899643Y-17856929D01*
X17885357Y-17828357D01*
X17885357Y-17571214D01*
X18156786Y-17856929D02*
X18128214Y-17871214D01*
X18071071Y-17871214D01*
X18042500Y-17856929D01*
X18028214Y-17828357D01*
X18028214Y-17714072D01*
X18042500Y-17685500D01*
X18071071Y-17671214D01*
X18128214Y-17671214D01*
X18156786Y-17685500D01*
X18171071Y-17714072D01*
X18171071Y-17742643D01*
X18028214Y-17771214D01*
X18285357Y-17856929D02*
X18313929Y-17871214D01*
X18371071Y-17871214D01*
X18399643Y-17856929D01*
X18413929Y-17828357D01*
X18413929Y-17814072D01*
X18399643Y-17785500D01*
X18371071Y-17771214D01*
X18328214Y-17771214D01*
X18299643Y-17756929D01*
X18285357Y-17728357D01*
X18285357Y-17714072D01*
X18299643Y-17685500D01*
X18328214Y-17671214D01*
X18371071Y-17671214D01*
X18399643Y-17685500D01*
X18513928Y-17985500D02*
X18528214Y-17971214D01*
X18556786Y-17928357D01*
X18571071Y-17899786D01*
X18585357Y-17856929D01*
X18599643Y-17785500D01*
X18599643Y-17728357D01*
X18585357Y-17656929D01*
X18571071Y-17614072D01*
X18556786Y-17585500D01*
X18528214Y-17542643D01*
X18513928Y-17528357D01*
X11992589Y-18081589D02*
X11992589Y-18181411D01*
X11942678Y-18131500D02*
X12042500Y-18131500D01*
X12042500Y-18131500D02*
G75*
G03X12042500Y-18131500I-49911J0D01*
G01*
X12471071Y-18267214D02*
X12299643Y-18267214D01*
X12385357Y-18267214D02*
X12385357Y-17967214D01*
X12356786Y-18010072D01*
X12328214Y-18038643D01*
X12299643Y-18052929D01*
X12599643Y-18238643D02*
X12613928Y-18252929D01*
X12599643Y-18267214D01*
X12585357Y-18252929D01*
X12599643Y-18238643D01*
X12599643Y-18267214D01*
X12799643Y-17967214D02*
X12828214Y-17967214D01*
X12856786Y-17981500D01*
X12871071Y-17995786D01*
X12885357Y-18024357D01*
X12899643Y-18081500D01*
X12899643Y-18152929D01*
X12885357Y-18210072D01*
X12871071Y-18238643D01*
X12856786Y-18252929D01*
X12828214Y-18267214D01*
X12799643Y-18267214D01*
X12771071Y-18252929D01*
X12756786Y-18238643D01*
X12742500Y-18210072D01*
X12728214Y-18152929D01*
X12728214Y-18081500D01*
X12742500Y-18024357D01*
X12756786Y-17995786D01*
X12771071Y-17981500D01*
X12799643Y-17967214D01*
X13085357Y-17967214D02*
X13113928Y-17967214D01*
X13142500Y-17981500D01*
X13156786Y-17995786D01*
X13171071Y-18024357D01*
X13185357Y-18081500D01*
X13185357Y-18152929D01*
X13171071Y-18210072D01*
X13156786Y-18238643D01*
X13142500Y-18252929D01*
X13113928Y-18267214D01*
X13085357Y-18267214D01*
X13056786Y-18252929D01*
X13042500Y-18238643D01*
X13028214Y-18210072D01*
X13013928Y-18152929D01*
X13013928Y-18081500D01*
X13028214Y-18024357D01*
X13042500Y-17995786D01*
X13056786Y-17981500D01*
X13085357Y-17967214D01*
X13313928Y-18267214D02*
X13313928Y-18067214D01*
X13313928Y-18095786D02*
X13328214Y-18081500D01*
X13356786Y-18067214D01*
X13399643Y-18067214D01*
X13428214Y-18081500D01*
X13442500Y-18110072D01*
X13442500Y-18267214D01*
X13442500Y-18110072D02*
X13456786Y-18081500D01*
X13485357Y-18067214D01*
X13528214Y-18067214D01*
X13556786Y-18081500D01*
X13571071Y-18110072D01*
X13571071Y-18267214D01*
X13713928Y-18267214D02*
X13713928Y-18067214D01*
X13713928Y-18095786D02*
X13728214Y-18081500D01*
X13756786Y-18067214D01*
X13799643Y-18067214D01*
X13828214Y-18081500D01*
X13842500Y-18110072D01*
X13842500Y-18267214D01*
X13842500Y-18110072D02*
X13856786Y-18081500D01*
X13885357Y-18067214D01*
X13928214Y-18067214D01*
X13956786Y-18081500D01*
X13971071Y-18110072D01*
X13971071Y-18267214D01*
X14556786Y-17952929D02*
X14299643Y-18338643D01*
X14942500Y-17967214D02*
X14971071Y-17967214D01*
X14999643Y-17981500D01*
X15013928Y-17995786D01*
X15028214Y-18024357D01*
X15042500Y-18081500D01*
X15042500Y-18152929D01*
X15028214Y-18210072D01*
X15013928Y-18238643D01*
X14999643Y-18252929D01*
X14971071Y-18267214D01*
X14942500Y-18267214D01*
X14913928Y-18252929D01*
X14899643Y-18238643D01*
X14885357Y-18210072D01*
X14871071Y-18152929D01*
X14871071Y-18081500D01*
X14885357Y-18024357D01*
X14899643Y-17995786D01*
X14913928Y-17981500D01*
X14942500Y-17967214D01*
X15171071Y-18238643D02*
X15185357Y-18252929D01*
X15171071Y-18267214D01*
X15156786Y-18252929D01*
X15171071Y-18238643D01*
X15171071Y-18267214D01*
X15371071Y-17967214D02*
X15399643Y-17967214D01*
X15428214Y-17981500D01*
X15442500Y-17995786D01*
X15456785Y-18024357D01*
X15471071Y-18081500D01*
X15471071Y-18152929D01*
X15456785Y-18210072D01*
X15442500Y-18238643D01*
X15428214Y-18252929D01*
X15399643Y-18267214D01*
X15371071Y-18267214D01*
X15342500Y-18252929D01*
X15328214Y-18238643D01*
X15313928Y-18210072D01*
X15299643Y-18152929D01*
X15299643Y-18081500D01*
X15313928Y-18024357D01*
X15328214Y-17995786D01*
X15342500Y-17981500D01*
X15371071Y-17967214D01*
X15571071Y-17967214D02*
X15756785Y-17967214D01*
X15656785Y-18081500D01*
X15699643Y-18081500D01*
X15728214Y-18095786D01*
X15742500Y-18110072D01*
X15756785Y-18138643D01*
X15756785Y-18210072D01*
X15742500Y-18238643D01*
X15728214Y-18252929D01*
X15699643Y-18267214D01*
X15613928Y-18267214D01*
X15585357Y-18252929D01*
X15571071Y-18238643D01*
X15899643Y-18267214D02*
X15956785Y-18267214D01*
X15985357Y-18252929D01*
X15999643Y-18238643D01*
X16028214Y-18195786D01*
X16042500Y-18138643D01*
X16042500Y-18024357D01*
X16028214Y-17995786D01*
X16013928Y-17981500D01*
X15985357Y-17967214D01*
X15928214Y-17967214D01*
X15899643Y-17981500D01*
X15885357Y-17995786D01*
X15871071Y-18024357D01*
X15871071Y-18095786D01*
X15885357Y-18124357D01*
X15899643Y-18138643D01*
X15928214Y-18152929D01*
X15985357Y-18152929D01*
X16013928Y-18138643D01*
X16028214Y-18124357D01*
X16042500Y-18095786D01*
X16156786Y-17967214D02*
X16156786Y-18024357D01*
X16271071Y-17967214D02*
X16271071Y-18024357D01*
X16713928Y-18381500D02*
X16699643Y-18367214D01*
X16671071Y-18324357D01*
X16656785Y-18295786D01*
X16642500Y-18252929D01*
X16628214Y-18181500D01*
X16628214Y-18124357D01*
X16642500Y-18052929D01*
X16656785Y-18010072D01*
X16671071Y-17981500D01*
X16699643Y-17938643D01*
X16713928Y-17924357D01*
X16956786Y-17967214D02*
X16899643Y-17967214D01*
X16871071Y-17981500D01*
X16856786Y-17995786D01*
X16828214Y-18038643D01*
X16813928Y-18095786D01*
X16813928Y-18210072D01*
X16828214Y-18238643D01*
X16842500Y-18252929D01*
X16871071Y-18267214D01*
X16928214Y-18267214D01*
X16956786Y-18252929D01*
X16971071Y-18238643D01*
X16985357Y-18210072D01*
X16985357Y-18138643D01*
X16971071Y-18110072D01*
X16956786Y-18095786D01*
X16928214Y-18081500D01*
X16871071Y-18081500D01*
X16842500Y-18095786D01*
X16828214Y-18110072D01*
X16813928Y-18138643D01*
X17342500Y-18267214D02*
X17342500Y-17967214D01*
X17471071Y-18267214D02*
X17471071Y-18110072D01*
X17456786Y-18081500D01*
X17428214Y-18067214D01*
X17385357Y-18067214D01*
X17356786Y-18081500D01*
X17342500Y-18095786D01*
X17656786Y-18267214D02*
X17628214Y-18252929D01*
X17613928Y-18238643D01*
X17599643Y-18210072D01*
X17599643Y-18124357D01*
X17613928Y-18095786D01*
X17628214Y-18081500D01*
X17656786Y-18067214D01*
X17699643Y-18067214D01*
X17728214Y-18081500D01*
X17742500Y-18095786D01*
X17756786Y-18124357D01*
X17756786Y-18210072D01*
X17742500Y-18238643D01*
X17728214Y-18252929D01*
X17699643Y-18267214D01*
X17656786Y-18267214D01*
X17928214Y-18267214D02*
X17899643Y-18252929D01*
X17885357Y-18224357D01*
X17885357Y-17967214D01*
X18156786Y-18252929D02*
X18128214Y-18267214D01*
X18071071Y-18267214D01*
X18042500Y-18252929D01*
X18028214Y-18224357D01*
X18028214Y-18110072D01*
X18042500Y-18081500D01*
X18071071Y-18067214D01*
X18128214Y-18067214D01*
X18156786Y-18081500D01*
X18171071Y-18110072D01*
X18171071Y-18138643D01*
X18028214Y-18167214D01*
X18285357Y-18252929D02*
X18313929Y-18267214D01*
X18371071Y-18267214D01*
X18399643Y-18252929D01*
X18413929Y-18224357D01*
X18413929Y-18210072D01*
X18399643Y-18181500D01*
X18371071Y-18167214D01*
X18328214Y-18167214D01*
X18299643Y-18152929D01*
X18285357Y-18124357D01*
X18285357Y-18110072D01*
X18299643Y-18081500D01*
X18328214Y-18067214D01*
X18371071Y-18067214D01*
X18399643Y-18081500D01*
X18513928Y-18381500D02*
X18528214Y-18367214D01*
X18556786Y-18324357D01*
X18571071Y-18295786D01*
X18585357Y-18252929D01*
X18599643Y-18181500D01*
X18599643Y-18124357D01*
X18585357Y-18052929D01*
X18571071Y-18010072D01*
X18556786Y-17981500D01*
X18528214Y-17938643D01*
X18513928Y-17924357D01*
X12027856Y-18562856D02*
X12027856Y-18492144D01*
X11957144Y-18492144D01*
X11957144Y-18562856D01*
X12027856Y-18562856D01*
X12042500Y-18527500D02*
G75*
G03X12042500Y-18527500I-50000J0D01*
G01*
X12471071Y-18663214D02*
X12299643Y-18663214D01*
X12385357Y-18663214D02*
X12385357Y-18363214D01*
X12356786Y-18406072D01*
X12328214Y-18434643D01*
X12299643Y-18448929D01*
X12599643Y-18634643D02*
X12613928Y-18648929D01*
X12599643Y-18663214D01*
X12585357Y-18648929D01*
X12599643Y-18634643D01*
X12599643Y-18663214D01*
X12799643Y-18363214D02*
X12828214Y-18363214D01*
X12856786Y-18377500D01*
X12871071Y-18391786D01*
X12885357Y-18420357D01*
X12899643Y-18477500D01*
X12899643Y-18548929D01*
X12885357Y-18606072D01*
X12871071Y-18634643D01*
X12856786Y-18648929D01*
X12828214Y-18663214D01*
X12799643Y-18663214D01*
X12771071Y-18648929D01*
X12756786Y-18634643D01*
X12742500Y-18606072D01*
X12728214Y-18548929D01*
X12728214Y-18477500D01*
X12742500Y-18420357D01*
X12756786Y-18391786D01*
X12771071Y-18377500D01*
X12799643Y-18363214D01*
X13085357Y-18363214D02*
X13113928Y-18363214D01*
X13142500Y-18377500D01*
X13156786Y-18391786D01*
X13171071Y-18420357D01*
X13185357Y-18477500D01*
X13185357Y-18548929D01*
X13171071Y-18606072D01*
X13156786Y-18634643D01*
X13142500Y-18648929D01*
X13113928Y-18663214D01*
X13085357Y-18663214D01*
X13056786Y-18648929D01*
X13042500Y-18634643D01*
X13028214Y-18606072D01*
X13013928Y-18548929D01*
X13013928Y-18477500D01*
X13028214Y-18420357D01*
X13042500Y-18391786D01*
X13056786Y-18377500D01*
X13085357Y-18363214D01*
X13313928Y-18663214D02*
X13313928Y-18463214D01*
X13313928Y-18491786D02*
X13328214Y-18477500D01*
X13356786Y-18463214D01*
X13399643Y-18463214D01*
X13428214Y-18477500D01*
X13442500Y-18506072D01*
X13442500Y-18663214D01*
X13442500Y-18506072D02*
X13456786Y-18477500D01*
X13485357Y-18463214D01*
X13528214Y-18463214D01*
X13556786Y-18477500D01*
X13571071Y-18506072D01*
X13571071Y-18663214D01*
X13713928Y-18663214D02*
X13713928Y-18463214D01*
X13713928Y-18491786D02*
X13728214Y-18477500D01*
X13756786Y-18463214D01*
X13799643Y-18463214D01*
X13828214Y-18477500D01*
X13842500Y-18506072D01*
X13842500Y-18663214D01*
X13842500Y-18506072D02*
X13856786Y-18477500D01*
X13885357Y-18463214D01*
X13928214Y-18463214D01*
X13956786Y-18477500D01*
X13971071Y-18506072D01*
X13971071Y-18663214D01*
X14556786Y-18348929D02*
X14299643Y-18734643D01*
X14942500Y-18363214D02*
X14971071Y-18363214D01*
X14999643Y-18377500D01*
X15013928Y-18391786D01*
X15028214Y-18420357D01*
X15042500Y-18477500D01*
X15042500Y-18548929D01*
X15028214Y-18606072D01*
X15013928Y-18634643D01*
X14999643Y-18648929D01*
X14971071Y-18663214D01*
X14942500Y-18663214D01*
X14913928Y-18648929D01*
X14899643Y-18634643D01*
X14885357Y-18606072D01*
X14871071Y-18548929D01*
X14871071Y-18477500D01*
X14885357Y-18420357D01*
X14899643Y-18391786D01*
X14913928Y-18377500D01*
X14942500Y-18363214D01*
X15171071Y-18634643D02*
X15185357Y-18648929D01*
X15171071Y-18663214D01*
X15156786Y-18648929D01*
X15171071Y-18634643D01*
X15171071Y-18663214D01*
X15371071Y-18363214D02*
X15399643Y-18363214D01*
X15428214Y-18377500D01*
X15442500Y-18391786D01*
X15456785Y-18420357D01*
X15471071Y-18477500D01*
X15471071Y-18548929D01*
X15456785Y-18606072D01*
X15442500Y-18634643D01*
X15428214Y-18648929D01*
X15399643Y-18663214D01*
X15371071Y-18663214D01*
X15342500Y-18648929D01*
X15328214Y-18634643D01*
X15313928Y-18606072D01*
X15299643Y-18548929D01*
X15299643Y-18477500D01*
X15313928Y-18420357D01*
X15328214Y-18391786D01*
X15342500Y-18377500D01*
X15371071Y-18363214D01*
X15571071Y-18363214D02*
X15756785Y-18363214D01*
X15656785Y-18477500D01*
X15699643Y-18477500D01*
X15728214Y-18491786D01*
X15742500Y-18506072D01*
X15756785Y-18534643D01*
X15756785Y-18606072D01*
X15742500Y-18634643D01*
X15728214Y-18648929D01*
X15699643Y-18663214D01*
X15613928Y-18663214D01*
X15585357Y-18648929D01*
X15571071Y-18634643D01*
X15899643Y-18663214D02*
X15956785Y-18663214D01*
X15985357Y-18648929D01*
X15999643Y-18634643D01*
X16028214Y-18591786D01*
X16042500Y-18534643D01*
X16042500Y-18420357D01*
X16028214Y-18391786D01*
X16013928Y-18377500D01*
X15985357Y-18363214D01*
X15928214Y-18363214D01*
X15899643Y-18377500D01*
X15885357Y-18391786D01*
X15871071Y-18420357D01*
X15871071Y-18491786D01*
X15885357Y-18520357D01*
X15899643Y-18534643D01*
X15928214Y-18548929D01*
X15985357Y-18548929D01*
X16013928Y-18534643D01*
X16028214Y-18520357D01*
X16042500Y-18491786D01*
X16156786Y-18363214D02*
X16156786Y-18420357D01*
X16271071Y-18363214D02*
X16271071Y-18420357D01*
X16713928Y-18777500D02*
X16699643Y-18763214D01*
X16671071Y-18720357D01*
X16656785Y-18691786D01*
X16642500Y-18648929D01*
X16628214Y-18577500D01*
X16628214Y-18520357D01*
X16642500Y-18448929D01*
X16656785Y-18406072D01*
X16671071Y-18377500D01*
X16699643Y-18334643D01*
X16713928Y-18320357D01*
X16956786Y-18363214D02*
X16899643Y-18363214D01*
X16871071Y-18377500D01*
X16856786Y-18391786D01*
X16828214Y-18434643D01*
X16813928Y-18491786D01*
X16813928Y-18606072D01*
X16828214Y-18634643D01*
X16842500Y-18648929D01*
X16871071Y-18663214D01*
X16928214Y-18663214D01*
X16956786Y-18648929D01*
X16971071Y-18634643D01*
X16985357Y-18606072D01*
X16985357Y-18534643D01*
X16971071Y-18506072D01*
X16956786Y-18491786D01*
X16928214Y-18477500D01*
X16871071Y-18477500D01*
X16842500Y-18491786D01*
X16828214Y-18506072D01*
X16813928Y-18534643D01*
X17342500Y-18663214D02*
X17342500Y-18363214D01*
X17471071Y-18663214D02*
X17471071Y-18506072D01*
X17456786Y-18477500D01*
X17428214Y-18463214D01*
X17385357Y-18463214D01*
X17356786Y-18477500D01*
X17342500Y-18491786D01*
X17656786Y-18663214D02*
X17628214Y-18648929D01*
X17613928Y-18634643D01*
X17599643Y-18606072D01*
X17599643Y-18520357D01*
X17613928Y-18491786D01*
X17628214Y-18477500D01*
X17656786Y-18463214D01*
X17699643Y-18463214D01*
X17728214Y-18477500D01*
X17742500Y-18491786D01*
X17756786Y-18520357D01*
X17756786Y-18606072D01*
X17742500Y-18634643D01*
X17728214Y-18648929D01*
X17699643Y-18663214D01*
X17656786Y-18663214D01*
X17928214Y-18663214D02*
X17899643Y-18648929D01*
X17885357Y-18620357D01*
X17885357Y-18363214D01*
X18156786Y-18648929D02*
X18128214Y-18663214D01*
X18071071Y-18663214D01*
X18042500Y-18648929D01*
X18028214Y-18620357D01*
X18028214Y-18506072D01*
X18042500Y-18477500D01*
X18071071Y-18463214D01*
X18128214Y-18463214D01*
X18156786Y-18477500D01*
X18171071Y-18506072D01*
X18171071Y-18534643D01*
X18028214Y-18563214D01*
X18285357Y-18648929D02*
X18313929Y-18663214D01*
X18371071Y-18663214D01*
X18399643Y-18648929D01*
X18413929Y-18620357D01*
X18413929Y-18606072D01*
X18399643Y-18577500D01*
X18371071Y-18563214D01*
X18328214Y-18563214D01*
X18299643Y-18548929D01*
X18285357Y-18520357D01*
X18285357Y-18506072D01*
X18299643Y-18477500D01*
X18328214Y-18463214D01*
X18371071Y-18463214D01*
X18399643Y-18477500D01*
X18513928Y-18777500D02*
X18528214Y-18763214D01*
X18556786Y-18720357D01*
X18571071Y-18691786D01*
X18585357Y-18648929D01*
X18599643Y-18577500D01*
X18599643Y-18520357D01*
X18585357Y-18448929D01*
X18571071Y-18406072D01*
X18556786Y-18377500D01*
X18528214Y-18334643D01*
X18513928Y-18320357D01*
X11992462Y-18973538D02*
X12042500Y-18923500D01*
X11992462Y-18873462D01*
X11942424Y-18923500D01*
X11992462Y-18973538D01*
X12042500Y-18923500D02*
G75*
G03X12042500Y-18923500I-50038J0D01*
G01*
X12471071Y-19059214D02*
X12299643Y-19059214D01*
X12385357Y-19059214D02*
X12385357Y-18759214D01*
X12356786Y-18802072D01*
X12328214Y-18830643D01*
X12299643Y-18844929D01*
X12599643Y-19030643D02*
X12613928Y-19044929D01*
X12599643Y-19059214D01*
X12585357Y-19044929D01*
X12599643Y-19030643D01*
X12599643Y-19059214D01*
X12799643Y-18759214D02*
X12828214Y-18759214D01*
X12856786Y-18773500D01*
X12871071Y-18787786D01*
X12885357Y-18816357D01*
X12899643Y-18873500D01*
X12899643Y-18944929D01*
X12885357Y-19002072D01*
X12871071Y-19030643D01*
X12856786Y-19044929D01*
X12828214Y-19059214D01*
X12799643Y-19059214D01*
X12771071Y-19044929D01*
X12756786Y-19030643D01*
X12742500Y-19002072D01*
X12728214Y-18944929D01*
X12728214Y-18873500D01*
X12742500Y-18816357D01*
X12756786Y-18787786D01*
X12771071Y-18773500D01*
X12799643Y-18759214D01*
X13085357Y-18759214D02*
X13113928Y-18759214D01*
X13142500Y-18773500D01*
X13156786Y-18787786D01*
X13171071Y-18816357D01*
X13185357Y-18873500D01*
X13185357Y-18944929D01*
X13171071Y-19002072D01*
X13156786Y-19030643D01*
X13142500Y-19044929D01*
X13113928Y-19059214D01*
X13085357Y-19059214D01*
X13056786Y-19044929D01*
X13042500Y-19030643D01*
X13028214Y-19002072D01*
X13013928Y-18944929D01*
X13013928Y-18873500D01*
X13028214Y-18816357D01*
X13042500Y-18787786D01*
X13056786Y-18773500D01*
X13085357Y-18759214D01*
X13313928Y-19059214D02*
X13313928Y-18859214D01*
X13313928Y-18887786D02*
X13328214Y-18873500D01*
X13356786Y-18859214D01*
X13399643Y-18859214D01*
X13428214Y-18873500D01*
X13442500Y-18902072D01*
X13442500Y-19059214D01*
X13442500Y-18902072D02*
X13456786Y-18873500D01*
X13485357Y-18859214D01*
X13528214Y-18859214D01*
X13556786Y-18873500D01*
X13571071Y-18902072D01*
X13571071Y-19059214D01*
X13713928Y-19059214D02*
X13713928Y-18859214D01*
X13713928Y-18887786D02*
X13728214Y-18873500D01*
X13756786Y-18859214D01*
X13799643Y-18859214D01*
X13828214Y-18873500D01*
X13842500Y-18902072D01*
X13842500Y-19059214D01*
X13842500Y-18902072D02*
X13856786Y-18873500D01*
X13885357Y-18859214D01*
X13928214Y-18859214D01*
X13956786Y-18873500D01*
X13971071Y-18902072D01*
X13971071Y-19059214D01*
X14556786Y-18744929D02*
X14299643Y-19130643D01*
X14942500Y-18759214D02*
X14971071Y-18759214D01*
X14999643Y-18773500D01*
X15013928Y-18787786D01*
X15028214Y-18816357D01*
X15042500Y-18873500D01*
X15042500Y-18944929D01*
X15028214Y-19002072D01*
X15013928Y-19030643D01*
X14999643Y-19044929D01*
X14971071Y-19059214D01*
X14942500Y-19059214D01*
X14913928Y-19044929D01*
X14899643Y-19030643D01*
X14885357Y-19002072D01*
X14871071Y-18944929D01*
X14871071Y-18873500D01*
X14885357Y-18816357D01*
X14899643Y-18787786D01*
X14913928Y-18773500D01*
X14942500Y-18759214D01*
X15171071Y-19030643D02*
X15185357Y-19044929D01*
X15171071Y-19059214D01*
X15156786Y-19044929D01*
X15171071Y-19030643D01*
X15171071Y-19059214D01*
X15371071Y-18759214D02*
X15399643Y-18759214D01*
X15428214Y-18773500D01*
X15442500Y-18787786D01*
X15456785Y-18816357D01*
X15471071Y-18873500D01*
X15471071Y-18944929D01*
X15456785Y-19002072D01*
X15442500Y-19030643D01*
X15428214Y-19044929D01*
X15399643Y-19059214D01*
X15371071Y-19059214D01*
X15342500Y-19044929D01*
X15328214Y-19030643D01*
X15313928Y-19002072D01*
X15299643Y-18944929D01*
X15299643Y-18873500D01*
X15313928Y-18816357D01*
X15328214Y-18787786D01*
X15342500Y-18773500D01*
X15371071Y-18759214D01*
X15571071Y-18759214D02*
X15756785Y-18759214D01*
X15656785Y-18873500D01*
X15699643Y-18873500D01*
X15728214Y-18887786D01*
X15742500Y-18902072D01*
X15756785Y-18930643D01*
X15756785Y-19002072D01*
X15742500Y-19030643D01*
X15728214Y-19044929D01*
X15699643Y-19059214D01*
X15613928Y-19059214D01*
X15585357Y-19044929D01*
X15571071Y-19030643D01*
X15899643Y-19059214D02*
X15956785Y-19059214D01*
X15985357Y-19044929D01*
X15999643Y-19030643D01*
X16028214Y-18987786D01*
X16042500Y-18930643D01*
X16042500Y-18816357D01*
X16028214Y-18787786D01*
X16013928Y-18773500D01*
X15985357Y-18759214D01*
X15928214Y-18759214D01*
X15899643Y-18773500D01*
X15885357Y-18787786D01*
X15871071Y-18816357D01*
X15871071Y-18887786D01*
X15885357Y-18916357D01*
X15899643Y-18930643D01*
X15928214Y-18944929D01*
X15985357Y-18944929D01*
X16013928Y-18930643D01*
X16028214Y-18916357D01*
X16042500Y-18887786D01*
X16156786Y-18759214D02*
X16156786Y-18816357D01*
X16271071Y-18759214D02*
X16271071Y-18816357D01*
X16713928Y-19173500D02*
X16699643Y-19159214D01*
X16671071Y-19116357D01*
X16656785Y-19087786D01*
X16642500Y-19044929D01*
X16628214Y-18973500D01*
X16628214Y-18916357D01*
X16642500Y-18844929D01*
X16656785Y-18802072D01*
X16671071Y-18773500D01*
X16699643Y-18730643D01*
X16713928Y-18716357D01*
X16956786Y-18859214D02*
X16956786Y-19059214D01*
X16885357Y-18744929D02*
X16813928Y-18959214D01*
X16999643Y-18959214D01*
X17085357Y-18759214D02*
X17271071Y-18759214D01*
X17171071Y-18873500D01*
X17213928Y-18873500D01*
X17242500Y-18887786D01*
X17256786Y-18902072D01*
X17271071Y-18930643D01*
X17271071Y-19002072D01*
X17256786Y-19030643D01*
X17242500Y-19044929D01*
X17213928Y-19059214D01*
X17128214Y-19059214D01*
X17099643Y-19044929D01*
X17085357Y-19030643D01*
X17628214Y-19059214D02*
X17628214Y-18759214D01*
X17756786Y-19059214D02*
X17756786Y-18902072D01*
X17742500Y-18873500D01*
X17713928Y-18859214D01*
X17671071Y-18859214D01*
X17642500Y-18873500D01*
X17628214Y-18887786D01*
X17942500Y-19059214D02*
X17913928Y-19044929D01*
X17899643Y-19030643D01*
X17885357Y-19002072D01*
X17885357Y-18916357D01*
X17899643Y-18887786D01*
X17913928Y-18873500D01*
X17942500Y-18859214D01*
X17985357Y-18859214D01*
X18013928Y-18873500D01*
X18028214Y-18887786D01*
X18042500Y-18916357D01*
X18042500Y-19002072D01*
X18028214Y-19030643D01*
X18013928Y-19044929D01*
X17985357Y-19059214D01*
X17942500Y-19059214D01*
X18213928Y-19059214D02*
X18185357Y-19044929D01*
X18171071Y-19016357D01*
X18171071Y-18759214D01*
X18442500Y-19044929D02*
X18413929Y-19059214D01*
X18356786Y-19059214D01*
X18328214Y-19044929D01*
X18313929Y-19016357D01*
X18313929Y-18902072D01*
X18328214Y-18873500D01*
X18356786Y-18859214D01*
X18413929Y-18859214D01*
X18442500Y-18873500D01*
X18456786Y-18902072D01*
X18456786Y-18930643D01*
X18313929Y-18959214D01*
X18571071Y-19044929D02*
X18599643Y-19059214D01*
X18656786Y-19059214D01*
X18685357Y-19044929D01*
X18699643Y-19016357D01*
X18699643Y-19002072D01*
X18685357Y-18973500D01*
X18656786Y-18959214D01*
X18613929Y-18959214D01*
X18585357Y-18944929D01*
X18571071Y-18916357D01*
X18571071Y-18902072D01*
X18585357Y-18873500D01*
X18613929Y-18859214D01*
X18656786Y-18859214D01*
X18685357Y-18873500D01*
X18799643Y-19173500D02*
X18813929Y-19159214D01*
X18842500Y-19116357D01*
X18856786Y-19087786D01*
X18871071Y-19044929D01*
X18885357Y-18973500D01*
X18885357Y-18916357D01*
X18871071Y-18844929D01*
X18856786Y-18802072D01*
X18842500Y-18773500D01*
X18813929Y-18730643D01*
X18799643Y-18716357D01*
X11991700Y-19268700D02*
X11991700Y-19370300D01*
X11940900Y-19319500D02*
X12042500Y-19319500D01*
X12027621Y-19355422D02*
X12027621Y-19283579D01*
X11955778Y-19283579D01*
X11955778Y-19355422D01*
X12027621Y-19355422D01*
X12471071Y-19455214D02*
X12299643Y-19455214D01*
X12385357Y-19455214D02*
X12385357Y-19155214D01*
X12356786Y-19198072D01*
X12328214Y-19226643D01*
X12299643Y-19240929D01*
X12599643Y-19426643D02*
X12613928Y-19440929D01*
X12599643Y-19455214D01*
X12585357Y-19440929D01*
X12599643Y-19426643D01*
X12599643Y-19455214D01*
X12799643Y-19155214D02*
X12828214Y-19155214D01*
X12856786Y-19169500D01*
X12871071Y-19183786D01*
X12885357Y-19212357D01*
X12899643Y-19269500D01*
X12899643Y-19340929D01*
X12885357Y-19398072D01*
X12871071Y-19426643D01*
X12856786Y-19440929D01*
X12828214Y-19455214D01*
X12799643Y-19455214D01*
X12771071Y-19440929D01*
X12756786Y-19426643D01*
X12742500Y-19398072D01*
X12728214Y-19340929D01*
X12728214Y-19269500D01*
X12742500Y-19212357D01*
X12756786Y-19183786D01*
X12771071Y-19169500D01*
X12799643Y-19155214D01*
X13013928Y-19183786D02*
X13028214Y-19169500D01*
X13056786Y-19155214D01*
X13128214Y-19155214D01*
X13156786Y-19169500D01*
X13171071Y-19183786D01*
X13185357Y-19212357D01*
X13185357Y-19240929D01*
X13171071Y-19283786D01*
X12999643Y-19455214D01*
X13185357Y-19455214D01*
X13313928Y-19455214D02*
X13313928Y-19255214D01*
X13313928Y-19283786D02*
X13328214Y-19269500D01*
X13356786Y-19255214D01*
X13399643Y-19255214D01*
X13428214Y-19269500D01*
X13442500Y-19298072D01*
X13442500Y-19455214D01*
X13442500Y-19298072D02*
X13456786Y-19269500D01*
X13485357Y-19255214D01*
X13528214Y-19255214D01*
X13556786Y-19269500D01*
X13571071Y-19298072D01*
X13571071Y-19455214D01*
X13713928Y-19455214D02*
X13713928Y-19255214D01*
X13713928Y-19283786D02*
X13728214Y-19269500D01*
X13756786Y-19255214D01*
X13799643Y-19255214D01*
X13828214Y-19269500D01*
X13842500Y-19298072D01*
X13842500Y-19455214D01*
X13842500Y-19298072D02*
X13856786Y-19269500D01*
X13885357Y-19255214D01*
X13928214Y-19255214D01*
X13956786Y-19269500D01*
X13971071Y-19298072D01*
X13971071Y-19455214D01*
X14556786Y-19140929D02*
X14299643Y-19526643D01*
X14942500Y-19155214D02*
X14971071Y-19155214D01*
X14999643Y-19169500D01*
X15013928Y-19183786D01*
X15028214Y-19212357D01*
X15042500Y-19269500D01*
X15042500Y-19340929D01*
X15028214Y-19398072D01*
X15013928Y-19426643D01*
X14999643Y-19440929D01*
X14971071Y-19455214D01*
X14942500Y-19455214D01*
X14913928Y-19440929D01*
X14899643Y-19426643D01*
X14885357Y-19398072D01*
X14871071Y-19340929D01*
X14871071Y-19269500D01*
X14885357Y-19212357D01*
X14899643Y-19183786D01*
X14913928Y-19169500D01*
X14942500Y-19155214D01*
X15171071Y-19426643D02*
X15185357Y-19440929D01*
X15171071Y-19455214D01*
X15156786Y-19440929D01*
X15171071Y-19426643D01*
X15171071Y-19455214D01*
X15371071Y-19155214D02*
X15399643Y-19155214D01*
X15428214Y-19169500D01*
X15442500Y-19183786D01*
X15456785Y-19212357D01*
X15471071Y-19269500D01*
X15471071Y-19340929D01*
X15456785Y-19398072D01*
X15442500Y-19426643D01*
X15428214Y-19440929D01*
X15399643Y-19455214D01*
X15371071Y-19455214D01*
X15342500Y-19440929D01*
X15328214Y-19426643D01*
X15313928Y-19398072D01*
X15299643Y-19340929D01*
X15299643Y-19269500D01*
X15313928Y-19212357D01*
X15328214Y-19183786D01*
X15342500Y-19169500D01*
X15371071Y-19155214D01*
X15728214Y-19255214D02*
X15728214Y-19455214D01*
X15656785Y-19140929D02*
X15585357Y-19355214D01*
X15771071Y-19355214D01*
X15942500Y-19155214D02*
X15971071Y-19155214D01*
X15999643Y-19169500D01*
X16013928Y-19183786D01*
X16028214Y-19212357D01*
X16042500Y-19269500D01*
X16042500Y-19340929D01*
X16028214Y-19398072D01*
X16013928Y-19426643D01*
X15999643Y-19440929D01*
X15971071Y-19455214D01*
X15942500Y-19455214D01*
X15913928Y-19440929D01*
X15899643Y-19426643D01*
X15885357Y-19398072D01*
X15871071Y-19340929D01*
X15871071Y-19269500D01*
X15885357Y-19212357D01*
X15899643Y-19183786D01*
X15913928Y-19169500D01*
X15942500Y-19155214D01*
X16156786Y-19155214D02*
X16156786Y-19212357D01*
X16271071Y-19155214D02*
X16271071Y-19212357D01*
X16713928Y-19569500D02*
X16699643Y-19555214D01*
X16671071Y-19512357D01*
X16656785Y-19483786D01*
X16642500Y-19440929D01*
X16628214Y-19369500D01*
X16628214Y-19312357D01*
X16642500Y-19240929D01*
X16656785Y-19198072D01*
X16671071Y-19169500D01*
X16699643Y-19126643D01*
X16713928Y-19112357D01*
X16842500Y-19455214D02*
X16899643Y-19455214D01*
X16928214Y-19440929D01*
X16942500Y-19426643D01*
X16971071Y-19383786D01*
X16985357Y-19326643D01*
X16985357Y-19212357D01*
X16971071Y-19183786D01*
X16956786Y-19169500D01*
X16928214Y-19155214D01*
X16871071Y-19155214D01*
X16842500Y-19169500D01*
X16828214Y-19183786D01*
X16813928Y-19212357D01*
X16813928Y-19283786D01*
X16828214Y-19312357D01*
X16842500Y-19326643D01*
X16871071Y-19340929D01*
X16928214Y-19340929D01*
X16956786Y-19326643D01*
X16971071Y-19312357D01*
X16985357Y-19283786D01*
X17171071Y-19155214D02*
X17199643Y-19155214D01*
X17228214Y-19169500D01*
X17242500Y-19183786D01*
X17256786Y-19212357D01*
X17271071Y-19269500D01*
X17271071Y-19340929D01*
X17256786Y-19398072D01*
X17242500Y-19426643D01*
X17228214Y-19440929D01*
X17199643Y-19455214D01*
X17171071Y-19455214D01*
X17142500Y-19440929D01*
X17128214Y-19426643D01*
X17113928Y-19398072D01*
X17099643Y-19340929D01*
X17099643Y-19269500D01*
X17113928Y-19212357D01*
X17128214Y-19183786D01*
X17142500Y-19169500D01*
X17171071Y-19155214D01*
X17628214Y-19455214D02*
X17628214Y-19155214D01*
X17756786Y-19455214D02*
X17756786Y-19298072D01*
X17742500Y-19269500D01*
X17713928Y-19255214D01*
X17671071Y-19255214D01*
X17642500Y-19269500D01*
X17628214Y-19283786D01*
X17942500Y-19455214D02*
X17913928Y-19440929D01*
X17899643Y-19426643D01*
X17885357Y-19398072D01*
X17885357Y-19312357D01*
X17899643Y-19283786D01*
X17913928Y-19269500D01*
X17942500Y-19255214D01*
X17985357Y-19255214D01*
X18013928Y-19269500D01*
X18028214Y-19283786D01*
X18042500Y-19312357D01*
X18042500Y-19398072D01*
X18028214Y-19426643D01*
X18013928Y-19440929D01*
X17985357Y-19455214D01*
X17942500Y-19455214D01*
X18213928Y-19455214D02*
X18185357Y-19440929D01*
X18171071Y-19412357D01*
X18171071Y-19155214D01*
X18442500Y-19440929D02*
X18413929Y-19455214D01*
X18356786Y-19455214D01*
X18328214Y-19440929D01*
X18313929Y-19412357D01*
X18313929Y-19298072D01*
X18328214Y-19269500D01*
X18356786Y-19255214D01*
X18413929Y-19255214D01*
X18442500Y-19269500D01*
X18456786Y-19298072D01*
X18456786Y-19326643D01*
X18313929Y-19355214D01*
X18571071Y-19440929D02*
X18599643Y-19455214D01*
X18656786Y-19455214D01*
X18685357Y-19440929D01*
X18699643Y-19412357D01*
X18699643Y-19398072D01*
X18685357Y-19369500D01*
X18656786Y-19355214D01*
X18613929Y-19355214D01*
X18585357Y-19340929D01*
X18571071Y-19312357D01*
X18571071Y-19298072D01*
X18585357Y-19269500D01*
X18613929Y-19255214D01*
X18656786Y-19255214D01*
X18685357Y-19269500D01*
X18799643Y-19569500D02*
X18813929Y-19555214D01*
X18842500Y-19512357D01*
X18856786Y-19483786D01*
X18871071Y-19440929D01*
X18885357Y-19369500D01*
X18885357Y-19312357D01*
X18871071Y-19240929D01*
X18856786Y-19198072D01*
X18842500Y-19169500D01*
X18813929Y-19126643D01*
X18799643Y-19112357D01*
X11977500Y-19650500D02*
X11977500Y-19780500D01*
X11912500Y-19715500D02*
X12042500Y-19715500D01*
X11977500Y-19780500D02*
X12042500Y-19715500D01*
X11977500Y-19650500D01*
X11912500Y-19715500D01*
X11977500Y-19780500D01*
X12471071Y-19851214D02*
X12299643Y-19851214D01*
X12385357Y-19851214D02*
X12385357Y-19551214D01*
X12356786Y-19594072D01*
X12328214Y-19622643D01*
X12299643Y-19636929D01*
X12599643Y-19822643D02*
X12613928Y-19836929D01*
X12599643Y-19851214D01*
X12585357Y-19836929D01*
X12599643Y-19822643D01*
X12599643Y-19851214D01*
X12713928Y-19551214D02*
X12899643Y-19551214D01*
X12799643Y-19665500D01*
X12842500Y-19665500D01*
X12871071Y-19679786D01*
X12885357Y-19694072D01*
X12899643Y-19722643D01*
X12899643Y-19794072D01*
X12885357Y-19822643D01*
X12871071Y-19836929D01*
X12842500Y-19851214D01*
X12756786Y-19851214D01*
X12728214Y-19836929D01*
X12713928Y-19822643D01*
X13085357Y-19551214D02*
X13113928Y-19551214D01*
X13142500Y-19565500D01*
X13156786Y-19579786D01*
X13171071Y-19608357D01*
X13185357Y-19665500D01*
X13185357Y-19736929D01*
X13171071Y-19794072D01*
X13156786Y-19822643D01*
X13142500Y-19836929D01*
X13113928Y-19851214D01*
X13085357Y-19851214D01*
X13056786Y-19836929D01*
X13042500Y-19822643D01*
X13028214Y-19794072D01*
X13013928Y-19736929D01*
X13013928Y-19665500D01*
X13028214Y-19608357D01*
X13042500Y-19579786D01*
X13056786Y-19565500D01*
X13085357Y-19551214D01*
X13313928Y-19851214D02*
X13313928Y-19651214D01*
X13313928Y-19679786D02*
X13328214Y-19665500D01*
X13356786Y-19651214D01*
X13399643Y-19651214D01*
X13428214Y-19665500D01*
X13442500Y-19694072D01*
X13442500Y-19851214D01*
X13442500Y-19694072D02*
X13456786Y-19665500D01*
X13485357Y-19651214D01*
X13528214Y-19651214D01*
X13556786Y-19665500D01*
X13571071Y-19694072D01*
X13571071Y-19851214D01*
X13713928Y-19851214D02*
X13713928Y-19651214D01*
X13713928Y-19679786D02*
X13728214Y-19665500D01*
X13756786Y-19651214D01*
X13799643Y-19651214D01*
X13828214Y-19665500D01*
X13842500Y-19694072D01*
X13842500Y-19851214D01*
X13842500Y-19694072D02*
X13856786Y-19665500D01*
X13885357Y-19651214D01*
X13928214Y-19651214D01*
X13956786Y-19665500D01*
X13971071Y-19694072D01*
X13971071Y-19851214D01*
X14556786Y-19536929D02*
X14299643Y-19922643D01*
X14942500Y-19551214D02*
X14971071Y-19551214D01*
X14999643Y-19565500D01*
X15013928Y-19579786D01*
X15028214Y-19608357D01*
X15042500Y-19665500D01*
X15042500Y-19736929D01*
X15028214Y-19794072D01*
X15013928Y-19822643D01*
X14999643Y-19836929D01*
X14971071Y-19851214D01*
X14942500Y-19851214D01*
X14913928Y-19836929D01*
X14899643Y-19822643D01*
X14885357Y-19794072D01*
X14871071Y-19736929D01*
X14871071Y-19665500D01*
X14885357Y-19608357D01*
X14899643Y-19579786D01*
X14913928Y-19565500D01*
X14942500Y-19551214D01*
X15171071Y-19822643D02*
X15185357Y-19836929D01*
X15171071Y-19851214D01*
X15156786Y-19836929D01*
X15171071Y-19822643D01*
X15171071Y-19851214D01*
X15371071Y-19551214D02*
X15399643Y-19551214D01*
X15428214Y-19565500D01*
X15442500Y-19579786D01*
X15456785Y-19608357D01*
X15471071Y-19665500D01*
X15471071Y-19736929D01*
X15456785Y-19794072D01*
X15442500Y-19822643D01*
X15428214Y-19836929D01*
X15399643Y-19851214D01*
X15371071Y-19851214D01*
X15342500Y-19836929D01*
X15328214Y-19822643D01*
X15313928Y-19794072D01*
X15299643Y-19736929D01*
X15299643Y-19665500D01*
X15313928Y-19608357D01*
X15328214Y-19579786D01*
X15342500Y-19565500D01*
X15371071Y-19551214D01*
X15742500Y-19551214D02*
X15599643Y-19551214D01*
X15585357Y-19694072D01*
X15599643Y-19679786D01*
X15628214Y-19665500D01*
X15699643Y-19665500D01*
X15728214Y-19679786D01*
X15742500Y-19694072D01*
X15756785Y-19722643D01*
X15756785Y-19794072D01*
X15742500Y-19822643D01*
X15728214Y-19836929D01*
X15699643Y-19851214D01*
X15628214Y-19851214D01*
X15599643Y-19836929D01*
X15585357Y-19822643D01*
X16042500Y-19851214D02*
X15871071Y-19851214D01*
X15956785Y-19851214D02*
X15956785Y-19551214D01*
X15928214Y-19594072D01*
X15899643Y-19622643D01*
X15871071Y-19636929D01*
X16156786Y-19551214D02*
X16156786Y-19608357D01*
X16271071Y-19551214D02*
X16271071Y-19608357D01*
X16713928Y-19965500D02*
X16699643Y-19951214D01*
X16671071Y-19908357D01*
X16656785Y-19879786D01*
X16642500Y-19836929D01*
X16628214Y-19765500D01*
X16628214Y-19708357D01*
X16642500Y-19636929D01*
X16656785Y-19594072D01*
X16671071Y-19565500D01*
X16699643Y-19522643D01*
X16713928Y-19508357D01*
X16985357Y-19851214D02*
X16813928Y-19851214D01*
X16899643Y-19851214D02*
X16899643Y-19551214D01*
X16871071Y-19594072D01*
X16842500Y-19622643D01*
X16813928Y-19636929D01*
X17099643Y-19579786D02*
X17113928Y-19565500D01*
X17142500Y-19551214D01*
X17213928Y-19551214D01*
X17242500Y-19565500D01*
X17256786Y-19579786D01*
X17271071Y-19608357D01*
X17271071Y-19636929D01*
X17256786Y-19679786D01*
X17085357Y-19851214D01*
X17271071Y-19851214D01*
X17628214Y-19851214D02*
X17628214Y-19551214D01*
X17756786Y-19851214D02*
X17756786Y-19694072D01*
X17742500Y-19665500D01*
X17713928Y-19651214D01*
X17671071Y-19651214D01*
X17642500Y-19665500D01*
X17628214Y-19679786D01*
X17942500Y-19851214D02*
X17913928Y-19836929D01*
X17899643Y-19822643D01*
X17885357Y-19794072D01*
X17885357Y-19708357D01*
X17899643Y-19679786D01*
X17913928Y-19665500D01*
X17942500Y-19651214D01*
X17985357Y-19651214D01*
X18013928Y-19665500D01*
X18028214Y-19679786D01*
X18042500Y-19708357D01*
X18042500Y-19794072D01*
X18028214Y-19822643D01*
X18013928Y-19836929D01*
X17985357Y-19851214D01*
X17942500Y-19851214D01*
X18213928Y-19851214D02*
X18185357Y-19836929D01*
X18171071Y-19808357D01*
X18171071Y-19551214D01*
X18442500Y-19836929D02*
X18413929Y-19851214D01*
X18356786Y-19851214D01*
X18328214Y-19836929D01*
X18313929Y-19808357D01*
X18313929Y-19694072D01*
X18328214Y-19665500D01*
X18356786Y-19651214D01*
X18413929Y-19651214D01*
X18442500Y-19665500D01*
X18456786Y-19694072D01*
X18456786Y-19722643D01*
X18313929Y-19751214D01*
X18571071Y-19836929D02*
X18599643Y-19851214D01*
X18656786Y-19851214D01*
X18685357Y-19836929D01*
X18699643Y-19808357D01*
X18699643Y-19794072D01*
X18685357Y-19765500D01*
X18656786Y-19751214D01*
X18613929Y-19751214D01*
X18585357Y-19736929D01*
X18571071Y-19708357D01*
X18571071Y-19694072D01*
X18585357Y-19665500D01*
X18613929Y-19651214D01*
X18656786Y-19651214D01*
X18685357Y-19665500D01*
X18799643Y-19965500D02*
X18813929Y-19951214D01*
X18842500Y-19908357D01*
X18856786Y-19879786D01*
X18871071Y-19836929D01*
X18885357Y-19765500D01*
X18885357Y-19708357D01*
X18871071Y-19636929D01*
X18856786Y-19594072D01*
X18842500Y-19565500D01*
X18813929Y-19522643D01*
X18799643Y-19508357D01*
X11905000Y-20249000D02*
X12042500Y-20111500D01*
X11905000Y-19974000D01*
X11767500Y-20111500D01*
X11905000Y-20249000D01*
X12002228Y-20208728D02*
X12002228Y-20014272D01*
X11807772Y-20014272D01*
X11807772Y-20208728D01*
X12002228Y-20208728D01*
X12299643Y-19975786D02*
X12313928Y-19961500D01*
X12342500Y-19947214D01*
X12413928Y-19947214D01*
X12442500Y-19961500D01*
X12456786Y-19975786D01*
X12471071Y-20004357D01*
X12471071Y-20032929D01*
X12456786Y-20075786D01*
X12285357Y-20247214D01*
X12471071Y-20247214D01*
X12599643Y-20218643D02*
X12613928Y-20232929D01*
X12599643Y-20247214D01*
X12585357Y-20232929D01*
X12599643Y-20218643D01*
X12599643Y-20247214D01*
X12713928Y-19947214D02*
X12913928Y-19947214D01*
X12785357Y-20247214D01*
X13171071Y-19947214D02*
X13028214Y-19947214D01*
X13013928Y-20090072D01*
X13028214Y-20075786D01*
X13056786Y-20061500D01*
X13128214Y-20061500D01*
X13156786Y-20075786D01*
X13171071Y-20090072D01*
X13185357Y-20118643D01*
X13185357Y-20190072D01*
X13171071Y-20218643D01*
X13156786Y-20232929D01*
X13128214Y-20247214D01*
X13056786Y-20247214D01*
X13028214Y-20232929D01*
X13013928Y-20218643D01*
X13313928Y-20247214D02*
X13313928Y-20047214D01*
X13313928Y-20075786D02*
X13328214Y-20061500D01*
X13356786Y-20047214D01*
X13399643Y-20047214D01*
X13428214Y-20061500D01*
X13442500Y-20090072D01*
X13442500Y-20247214D01*
X13442500Y-20090072D02*
X13456786Y-20061500D01*
X13485357Y-20047214D01*
X13528214Y-20047214D01*
X13556786Y-20061500D01*
X13571071Y-20090072D01*
X13571071Y-20247214D01*
X13713928Y-20247214D02*
X13713928Y-20047214D01*
X13713928Y-20075786D02*
X13728214Y-20061500D01*
X13756786Y-20047214D01*
X13799643Y-20047214D01*
X13828214Y-20061500D01*
X13842500Y-20090072D01*
X13842500Y-20247214D01*
X13842500Y-20090072D02*
X13856786Y-20061500D01*
X13885357Y-20047214D01*
X13928214Y-20047214D01*
X13956786Y-20061500D01*
X13971071Y-20090072D01*
X13971071Y-20247214D01*
X14556786Y-19932929D02*
X14299643Y-20318643D01*
X14942500Y-19947214D02*
X14971071Y-19947214D01*
X14999643Y-19961500D01*
X15013928Y-19975786D01*
X15028214Y-20004357D01*
X15042500Y-20061500D01*
X15042500Y-20132929D01*
X15028214Y-20190072D01*
X15013928Y-20218643D01*
X14999643Y-20232929D01*
X14971071Y-20247214D01*
X14942500Y-20247214D01*
X14913928Y-20232929D01*
X14899643Y-20218643D01*
X14885357Y-20190072D01*
X14871071Y-20132929D01*
X14871071Y-20061500D01*
X14885357Y-20004357D01*
X14899643Y-19975786D01*
X14913928Y-19961500D01*
X14942500Y-19947214D01*
X15171071Y-20218643D02*
X15185357Y-20232929D01*
X15171071Y-20247214D01*
X15156786Y-20232929D01*
X15171071Y-20218643D01*
X15171071Y-20247214D01*
X15471071Y-20247214D02*
X15299643Y-20247214D01*
X15385357Y-20247214D02*
X15385357Y-19947214D01*
X15356785Y-19990072D01*
X15328214Y-20018643D01*
X15299643Y-20032929D01*
X15656785Y-19947214D02*
X15685357Y-19947214D01*
X15713928Y-19961500D01*
X15728214Y-19975786D01*
X15742500Y-20004357D01*
X15756785Y-20061500D01*
X15756785Y-20132929D01*
X15742500Y-20190072D01*
X15728214Y-20218643D01*
X15713928Y-20232929D01*
X15685357Y-20247214D01*
X15656785Y-20247214D01*
X15628214Y-20232929D01*
X15613928Y-20218643D01*
X15599643Y-20190072D01*
X15585357Y-20132929D01*
X15585357Y-20061500D01*
X15599643Y-20004357D01*
X15613928Y-19975786D01*
X15628214Y-19961500D01*
X15656785Y-19947214D01*
X15928214Y-20075786D02*
X15899643Y-20061500D01*
X15885357Y-20047214D01*
X15871071Y-20018643D01*
X15871071Y-20004357D01*
X15885357Y-19975786D01*
X15899643Y-19961500D01*
X15928214Y-19947214D01*
X15985357Y-19947214D01*
X16013928Y-19961500D01*
X16028214Y-19975786D01*
X16042500Y-20004357D01*
X16042500Y-20018643D01*
X16028214Y-20047214D01*
X16013928Y-20061500D01*
X15985357Y-20075786D01*
X15928214Y-20075786D01*
X15899643Y-20090072D01*
X15885357Y-20104357D01*
X15871071Y-20132929D01*
X15871071Y-20190072D01*
X15885357Y-20218643D01*
X15899643Y-20232929D01*
X15928214Y-20247214D01*
X15985357Y-20247214D01*
X16013928Y-20232929D01*
X16028214Y-20218643D01*
X16042500Y-20190072D01*
X16042500Y-20132929D01*
X16028214Y-20104357D01*
X16013928Y-20090072D01*
X15985357Y-20075786D01*
X16156786Y-19947214D02*
X16156786Y-20004357D01*
X16271071Y-19947214D02*
X16271071Y-20004357D01*
X16713928Y-20361500D02*
X16699643Y-20347214D01*
X16671071Y-20304357D01*
X16656785Y-20275786D01*
X16642500Y-20232929D01*
X16628214Y-20161500D01*
X16628214Y-20104357D01*
X16642500Y-20032929D01*
X16656785Y-19990072D01*
X16671071Y-19961500D01*
X16699643Y-19918643D01*
X16713928Y-19904357D01*
X16956786Y-20047214D02*
X16956786Y-20247214D01*
X16885357Y-19932929D02*
X16813928Y-20147214D01*
X16999643Y-20147214D01*
X17342500Y-20247214D02*
X17342500Y-19947214D01*
X17471071Y-20247214D02*
X17471071Y-20090072D01*
X17456786Y-20061500D01*
X17428214Y-20047214D01*
X17385357Y-20047214D01*
X17356786Y-20061500D01*
X17342500Y-20075786D01*
X17656786Y-20247214D02*
X17628214Y-20232929D01*
X17613928Y-20218643D01*
X17599643Y-20190072D01*
X17599643Y-20104357D01*
X17613928Y-20075786D01*
X17628214Y-20061500D01*
X17656786Y-20047214D01*
X17699643Y-20047214D01*
X17728214Y-20061500D01*
X17742500Y-20075786D01*
X17756786Y-20104357D01*
X17756786Y-20190072D01*
X17742500Y-20218643D01*
X17728214Y-20232929D01*
X17699643Y-20247214D01*
X17656786Y-20247214D01*
X17928214Y-20247214D02*
X17899643Y-20232929D01*
X17885357Y-20204357D01*
X17885357Y-19947214D01*
X18156786Y-20232929D02*
X18128214Y-20247214D01*
X18071071Y-20247214D01*
X18042500Y-20232929D01*
X18028214Y-20204357D01*
X18028214Y-20090072D01*
X18042500Y-20061500D01*
X18071071Y-20047214D01*
X18128214Y-20047214D01*
X18156786Y-20061500D01*
X18171071Y-20090072D01*
X18171071Y-20118643D01*
X18028214Y-20147214D01*
X18285357Y-20232929D02*
X18313929Y-20247214D01*
X18371071Y-20247214D01*
X18399643Y-20232929D01*
X18413929Y-20204357D01*
X18413929Y-20190072D01*
X18399643Y-20161500D01*
X18371071Y-20147214D01*
X18328214Y-20147214D01*
X18299643Y-20132929D01*
X18285357Y-20104357D01*
X18285357Y-20090072D01*
X18299643Y-20061500D01*
X18328214Y-20047214D01*
X18371071Y-20047214D01*
X18399643Y-20061500D01*
X18513928Y-20361500D02*
X18528214Y-20347214D01*
X18556786Y-20304357D01*
X18571071Y-20275786D01*
X18585357Y-20232929D01*
X18599643Y-20161500D01*
X18599643Y-20104357D01*
X18585357Y-20032929D01*
X18571071Y-19990072D01*
X18556786Y-19961500D01*
X18528214Y-19918643D01*
X18513928Y-19904357D01*
M02*
